M48
INCH,TZ
T1C0.0118
T2C0.0157
T3C0.0354
T4C0.0394
%
G90
G05
T1
X-7000Y-21750
X-4000Y-21500
X-1000Y-21750
X-376Y-26374
X0Y-26750
X500Y-27250
X1000Y-27750
X1750Y-21750
T2
X-5500Y-24000
X-3750Y-24000
X-1200Y-27800
X600Y-28800
X1831Y-24841
X2600Y-25200
X2725Y-27725
X3400Y-28800
X5220Y-22420
T3
X-7723Y20328
X-7723Y17376
X-7723Y14423
X-7723Y11470
X-7723Y8517
X-7723Y5565
X-7723Y2612
X-7723Y-341
X-7723Y-3294
X-7723Y-6246
X-7723Y-9199
X-7723Y-12152
X-7723Y-15105
X-7723Y-18057
X-7723Y-21010
X-7016Y21035
X-7016Y18083
X-7016Y15130
X-7016Y12177
X-7016Y9224
X-7016Y6272
X-7016Y3319
X-7016Y366
X-7016Y-2587
X-7016Y-5539
X-7016Y-8492
X-7016Y-11445
X-7016Y-14398
X-7016Y-17350
X-7016Y-20303
X-4770Y20328
X-4770Y17376
X-4770Y14423
X-4770Y11470
X-4770Y8517
X-4770Y5565
X-4770Y2612
X-4770Y-341
X-4770Y-3294
X-4770Y-6246
X-4770Y-9199
X-4770Y-12152
X-4770Y-15105
X-4770Y-18057
X-4770Y-21010
X-4063Y21035
X-4063Y18083
X-4063Y15130
X-4063Y12177
X-4063Y9224
X-4063Y6272
X-4063Y3319
X-4063Y366
X-4063Y-2587
X-4063Y-5539
X-4063Y-8492
X-4063Y-11445
X-4063Y-14398
X-4063Y-17350
X-4063Y-20303
X-1817Y20328
X-1817Y17376
X-1817Y14423
X-1817Y11470
X-1817Y8517
X-1817Y5565
X-1817Y2612
X-1817Y-341
X-1817Y-3294
X-1817Y-6246
X-1817Y-9199
X-1817Y-12152
X-1817Y-15105
X-1817Y-18057
X-1817Y-21010
X-1110Y21035
X-1110Y18083
X-1110Y15130
X-1110Y12177
X-1110Y9224
X-1110Y6272
X-1110Y3319
X-1110Y366
X-1110Y-2587
X-1110Y-5539
X-1110Y-8492
X-1110Y-11445
X-1110Y-14398
X-1110Y-17350
X-1110Y-20303
X1135Y20328
X1135Y17376
X1135Y14423
X1135Y11470
X1135Y8517
X1135Y5565
X1135Y2612
X1135Y-341
X1135Y-3294
X1135Y-6246
X1135Y-9199
X1135Y-12152
X1135Y-15105
X1135Y-18057
X1135Y-21010
X1843Y21035
X1843Y18083
X1843Y15130
X1843Y12177
X1843Y9224
X1843Y6272
X1843Y3319
X1843Y366
X1843Y-2587
X1843Y-5539
X1843Y-8492
X1843Y-11445
X1843Y-14398
X1843Y-17350
X1843Y-20303
X4088Y20328
X4088Y17376
X4088Y14423
X4088Y11470
X4088Y8517
X4088Y5565
X4088Y2612
X4088Y-341
X4088Y-3294
X4088Y-6246
X4088Y-9199
X4088Y-12152
X4088Y-15105
X4088Y-18057
X4088Y-21010
X4795Y21035
X4795Y18083
X4795Y15130
X4795Y12177
X4795Y9224
X4795Y6272
X4795Y3319
X4795Y366
X4795Y-2587
X4795Y-5539
X4795Y-8492
X4795Y-11445
X4795Y-14398
X4795Y-17350
X4795Y-20303
X7041Y20328
X7041Y17376
X7041Y14423
X7041Y11470
X7041Y8517
X7041Y5565
X7041Y2612
X7041Y-341
X7041Y-3294
X7041Y-6246
X7041Y-9199
X7041Y-12152
X7041Y-15105
X7041Y-18057
X7041Y-21010
X7748Y21035
X7748Y18083
X7748Y15130
X7748Y12177
X7748Y9224
X7748Y6272
X7748Y3319
X7748Y366
X7748Y-2587
X7748Y-5539
X7748Y-8492
X7748Y-11445
X7748Y-14398
X7748Y-17350
X7748Y-20303
T4
X5000Y-23200
X6000Y-23200
X7000Y-23200
X8000Y-23200
T0
M30
