G04 #@! TF.GenerationSoftware,KiCad,Pcbnew,7.0.6-7.0.6~ubuntu22.04.1*
G04 #@! TF.CreationDate,2023-08-02T18:38:57+01:00*
G04 #@! TF.ProjectId,working,776f726b-696e-4672-9e6b-696361645f70,rev?*
G04 #@! TF.SameCoordinates,Original*
G04 #@! TF.FileFunction,Soldermask,Top*
G04 #@! TF.FilePolarity,Negative*
%FSLAX46Y46*%
G04 Gerber Fmt 4.6, Leading zero omitted, Abs format (unit mm)*
G04 Created by KiCad (PCBNEW 7.0.6-7.0.6~ubuntu22.04.1) date 2023-08-02 18:38:57*
%MOMM*%
%LPD*%
G01*
G04 APERTURE LIST*
%ADD10C,1.800000*%
%ADD11R,1.700000X1.700000*%
%ADD12O,1.700000X1.700000*%
%ADD13C,3.200000*%
%ADD14C,6.400000*%
%ADD15R,1.800000X1.800000*%
%ADD16R,1.000000X2.500000*%
G04 APERTURE END LIST*
G36*
X-12116000Y35361208D02*
G01*
X-13388792Y36634000D01*
X-12116000Y37906792D01*
X-10843208Y36634000D01*
X-12116000Y35361208D01*
G37*
D10*
X-10319949Y38430051D03*
G36*
X10384000Y-39638792D02*
G01*
X9111208Y-38366000D01*
X10384000Y-37093208D01*
X11656792Y-38366000D01*
X10384000Y-39638792D01*
G37*
X12180051Y-36569949D03*
G36*
X2884000Y50361208D02*
G01*
X1611208Y51634000D01*
X2884000Y52906792D01*
X4156792Y51634000D01*
X2884000Y50361208D01*
G37*
X4680051Y53430051D03*
G36*
X17884000Y50361208D02*
G01*
X16611208Y51634000D01*
X17884000Y52906792D01*
X19156792Y51634000D01*
X17884000Y50361208D01*
G37*
X19680051Y53430051D03*
G36*
X2884000Y-47138792D02*
G01*
X1611208Y-45866000D01*
X2884000Y-44593208D01*
X4156792Y-45866000D01*
X2884000Y-47138792D01*
G37*
X4680051Y-44069949D03*
G36*
G01*
X-5840000Y-69840000D02*
X-5840000Y-68590000D01*
G75*
G02*
X-5690000Y-68440000I150000J0D01*
G01*
X-5390000Y-68440000D01*
G75*
G02*
X-5240000Y-68590000I0J-150000D01*
G01*
X-5240000Y-69840000D01*
G75*
G02*
X-5390000Y-69990000I-150000J0D01*
G01*
X-5690000Y-69990000D01*
G75*
G02*
X-5840000Y-69840000I0J150000D01*
G01*
G37*
G36*
G01*
X-4840000Y-69840000D02*
X-4840000Y-68590000D01*
G75*
G02*
X-4690000Y-68440000I150000J0D01*
G01*
X-4390000Y-68440000D01*
G75*
G02*
X-4240000Y-68590000I0J-150000D01*
G01*
X-4240000Y-69840000D01*
G75*
G02*
X-4390000Y-69990000I-150000J0D01*
G01*
X-4690000Y-69990000D01*
G75*
G02*
X-4840000Y-69840000I0J150000D01*
G01*
G37*
G36*
G01*
X-3840000Y-69840000D02*
X-3840000Y-68590000D01*
G75*
G02*
X-3690000Y-68440000I150000J0D01*
G01*
X-3390000Y-68440000D01*
G75*
G02*
X-3240000Y-68590000I0J-150000D01*
G01*
X-3240000Y-69840000D01*
G75*
G02*
X-3390000Y-69990000I-150000J0D01*
G01*
X-3690000Y-69990000D01*
G75*
G02*
X-3840000Y-69840000I0J150000D01*
G01*
G37*
G36*
G01*
X-2840000Y-69840000D02*
X-2840000Y-68590000D01*
G75*
G02*
X-2690000Y-68440000I150000J0D01*
G01*
X-2390000Y-68440000D01*
G75*
G02*
X-2240000Y-68590000I0J-150000D01*
G01*
X-2240000Y-69840000D01*
G75*
G02*
X-2390000Y-69990000I-150000J0D01*
G01*
X-2690000Y-69990000D01*
G75*
G02*
X-2840000Y-69840000I0J150000D01*
G01*
G37*
G36*
G01*
X-7440000Y-73740000D02*
X-7440000Y-72440000D01*
G75*
G02*
X-7190000Y-72190000I250000J0D01*
G01*
X-6490000Y-72190000D01*
G75*
G02*
X-6240000Y-72440000I0J-250000D01*
G01*
X-6240000Y-73740000D01*
G75*
G02*
X-6490000Y-73990000I-250000J0D01*
G01*
X-7190000Y-73990000D01*
G75*
G02*
X-7440000Y-73740000I0J250000D01*
G01*
G37*
G36*
G01*
X-1840000Y-73740000D02*
X-1840000Y-72440000D01*
G75*
G02*
X-1590000Y-72190000I250000J0D01*
G01*
X-890000Y-72190000D01*
G75*
G02*
X-640000Y-72440000I0J-250000D01*
G01*
X-640000Y-73740000D01*
G75*
G02*
X-890000Y-73990000I-250000J0D01*
G01*
X-1590000Y-73990000D01*
G75*
G02*
X-1840000Y-73740000I0J250000D01*
G01*
G37*
G36*
X2884000Y27861208D02*
G01*
X1611208Y29134000D01*
X2884000Y30406792D01*
X4156792Y29134000D01*
X2884000Y27861208D01*
G37*
X4680051Y30930051D03*
G36*
X-12116000Y42861208D02*
G01*
X-13388792Y44134000D01*
X-12116000Y45406792D01*
X-10843208Y44134000D01*
X-12116000Y42861208D01*
G37*
X-10319949Y45930051D03*
G36*
X-19616000Y-39638792D02*
G01*
X-20888792Y-38366000D01*
X-19616000Y-37093208D01*
X-18343208Y-38366000D01*
X-19616000Y-39638792D01*
G37*
X-17819949Y-36569949D03*
G36*
X-4616000Y-47138792D02*
G01*
X-5888792Y-45866000D01*
X-4616000Y-44593208D01*
X-3343208Y-45866000D01*
X-4616000Y-47138792D01*
G37*
X-2819949Y-44069949D03*
D11*
X12700000Y-58928000D03*
D12*
X15240000Y-58928000D03*
X17780000Y-58928000D03*
X20320000Y-58928000D03*
G36*
X-12116000Y50361208D02*
G01*
X-13388792Y51634000D01*
X-12116000Y52906792D01*
X-10843208Y51634000D01*
X-12116000Y50361208D01*
G37*
D10*
X-10319949Y53430051D03*
G36*
X10384000Y27861208D02*
G01*
X9111208Y29134000D01*
X10384000Y30406792D01*
X11656792Y29134000D01*
X10384000Y27861208D01*
G37*
X12180051Y30930051D03*
G36*
X-4616000Y27861208D02*
G01*
X-5888792Y29134000D01*
X-4616000Y30406792D01*
X-3343208Y29134000D01*
X-4616000Y27861208D01*
G37*
X-2819949Y30930051D03*
G36*
X17884000Y27861208D02*
G01*
X16611208Y29134000D01*
X17884000Y30406792D01*
X19156792Y29134000D01*
X17884000Y27861208D01*
G37*
X19680051Y30930051D03*
G36*
X-4616000Y20361208D02*
G01*
X-5888792Y21634000D01*
X-4616000Y22906792D01*
X-3343208Y21634000D01*
X-4616000Y20361208D01*
G37*
X-2819949Y23430051D03*
G36*
X-12116000Y-32138792D02*
G01*
X-13388792Y-30866000D01*
X-12116000Y-29593208D01*
X-10843208Y-30866000D01*
X-12116000Y-32138792D01*
G37*
X-10319949Y-29069949D03*
G36*
X-4616000Y50361208D02*
G01*
X-5888792Y51634000D01*
X-4616000Y52906792D01*
X-3343208Y51634000D01*
X-4616000Y50361208D01*
G37*
X-2819949Y53430051D03*
D13*
X7500000Y60000000D03*
G36*
X2884000Y12861208D02*
G01*
X1611208Y14134000D01*
X2884000Y15406792D01*
X4156792Y14134000D01*
X2884000Y12861208D01*
G37*
D10*
X4680051Y15930051D03*
G36*
X17884000Y-9638792D02*
G01*
X16611208Y-8366000D01*
X17884000Y-7093208D01*
X19156792Y-8366000D01*
X17884000Y-9638792D01*
G37*
X19680051Y-6569949D03*
G36*
X2884000Y-39638792D02*
G01*
X1611208Y-38366000D01*
X2884000Y-37093208D01*
X4156792Y-38366000D01*
X2884000Y-39638792D01*
G37*
X4680051Y-36569949D03*
G36*
X-19616000Y42861208D02*
G01*
X-20888792Y44134000D01*
X-19616000Y45406792D01*
X-18343208Y44134000D01*
X-19616000Y42861208D01*
G37*
X-17819949Y45930051D03*
G36*
X-4616000Y-2138792D02*
G01*
X-5888792Y-866000D01*
X-4616000Y406792D01*
X-3343208Y-866000D01*
X-4616000Y-2138792D01*
G37*
X-2819949Y930051D03*
G36*
X-12116000Y-9638792D02*
G01*
X-13388792Y-8366000D01*
X-12116000Y-7093208D01*
X-10843208Y-8366000D01*
X-12116000Y-9638792D01*
G37*
X-10319949Y-6569949D03*
D14*
X15000000Y-67500000D03*
G36*
X-19616000Y50361208D02*
G01*
X-20888792Y51634000D01*
X-19616000Y52906792D01*
X-18343208Y51634000D01*
X-19616000Y50361208D01*
G37*
D10*
X-17819949Y53430051D03*
G36*
X-19616000Y-54638792D02*
G01*
X-20888792Y-53366000D01*
X-19616000Y-52093208D01*
X-18343208Y-53366000D01*
X-19616000Y-54638792D01*
G37*
X-17819949Y-51569949D03*
D15*
X-19616000Y21634000D03*
D10*
X-17819949Y23430051D03*
D15*
X10384000Y51634000D03*
D10*
X12180051Y53430051D03*
D15*
X2884000Y-53366000D03*
D10*
X4680051Y-51569949D03*
D13*
X0Y60000000D03*
D15*
X-12116000Y6634000D03*
D10*
X-10319949Y8430051D03*
D15*
X-4616000Y36634000D03*
D10*
X-2819949Y38430051D03*
G36*
X-4616000Y-54638792D02*
G01*
X-5888792Y-53366000D01*
X-4616000Y-52093208D01*
X-3343208Y-53366000D01*
X-4616000Y-54638792D01*
G37*
X-2819949Y-51569949D03*
D14*
X15000000Y67500000D03*
D15*
X2884000Y36634000D03*
D10*
X4680051Y38430051D03*
D15*
X-4616000Y-23366000D03*
D10*
X-2819949Y-21569949D03*
D15*
X-19616000Y-45866000D03*
D10*
X-17819949Y-44069949D03*
D15*
X2884000Y21634000D03*
D10*
X4680051Y23430051D03*
D15*
X10384000Y-15866000D03*
D10*
X12180051Y-14069949D03*
D15*
X17884000Y-45866000D03*
D10*
X19680051Y-44069949D03*
D15*
X10384000Y21634000D03*
D10*
X12180051Y23430051D03*
D15*
X10384000Y6634000D03*
D10*
X12180051Y8430051D03*
D15*
X17884000Y14134000D03*
D10*
X19680051Y15930051D03*
D15*
X17884000Y36634000D03*
D10*
X19680051Y38430051D03*
D15*
X10384000Y-30866000D03*
D10*
X12180051Y-29069949D03*
D15*
X10384000Y-8366000D03*
D10*
X12180051Y-6569949D03*
D15*
X10384000Y44134000D03*
D10*
X12180051Y45930051D03*
G36*
X-12116000Y-54638792D02*
G01*
X-13388792Y-53366000D01*
X-12116000Y-52093208D01*
X-10843208Y-53366000D01*
X-12116000Y-54638792D01*
G37*
X-10319949Y-51569949D03*
D15*
X-4616000Y-38366000D03*
D10*
X-2819949Y-36569949D03*
D15*
X17884000Y-53366000D03*
D10*
X19680051Y-51569949D03*
D15*
X2884000Y-30866000D03*
D10*
X4680051Y-29069949D03*
D15*
X17884000Y-866000D03*
D10*
X19680051Y930051D03*
D14*
X0Y67500000D03*
D15*
X-19616000Y14134000D03*
D10*
X-17819949Y15930051D03*
D15*
X17884000Y21634000D03*
D10*
X19680051Y23430051D03*
D15*
X10384000Y-53366000D03*
D10*
X12180051Y-51569949D03*
D15*
X2884000Y-15866000D03*
D10*
X4680051Y-14069949D03*
D15*
X17884000Y-23366000D03*
D10*
X19680051Y-21569949D03*
D15*
X10384000Y14134000D03*
D10*
X12180051Y15930051D03*
D15*
X10384000Y-45866000D03*
D10*
X12180051Y-44069949D03*
D15*
X2884000Y-866000D03*
D10*
X4680051Y930051D03*
D13*
X-15000000Y60000000D03*
D15*
X2884000Y44134000D03*
D10*
X4680051Y45930051D03*
D15*
X-19616000Y-30866000D03*
D10*
X-17819949Y-29069949D03*
D15*
X-19616000Y36634000D03*
D10*
X-17819949Y38430051D03*
D15*
X-12116000Y-866000D03*
D10*
X-10319949Y930051D03*
D15*
X-4616000Y-15866000D03*
D10*
X-2819949Y-14069949D03*
D15*
X-4616000Y-30866000D03*
D10*
X-2819949Y-29069949D03*
D15*
X-19616000Y-15866000D03*
D10*
X-17819949Y-14069949D03*
D15*
X-19616000Y-23366000D03*
D10*
X-17819949Y-21569949D03*
D15*
X2884000Y-8366000D03*
D10*
X4680051Y-6569949D03*
D15*
X17884000Y-30866000D03*
D10*
X19680051Y-29069949D03*
D15*
X-4616000Y14134000D03*
D10*
X-2819949Y15930051D03*
D14*
X-15000000Y-67500000D03*
D15*
X-19616000Y-866000D03*
D10*
X-17819949Y930051D03*
D15*
X17884000Y-15866000D03*
D10*
X19680051Y-14069949D03*
D15*
X10384000Y36634000D03*
D10*
X12180051Y38430051D03*
D15*
X-4616000Y6634000D03*
D10*
X-2819949Y8430051D03*
D15*
X-12116000Y-45866000D03*
D10*
X-10319949Y-44069949D03*
D14*
X-15000000Y67500000D03*
D15*
X-19616000Y6634000D03*
D10*
X-17819949Y8430051D03*
D15*
X17884000Y-38366000D03*
D10*
X19680051Y-36569949D03*
D15*
X-12116000Y-38366000D03*
D10*
X-10319949Y-36569949D03*
D15*
X2884000Y-23366000D03*
D10*
X4680051Y-21569949D03*
D15*
X-19616000Y-8366000D03*
D10*
X-17819949Y-6569949D03*
D13*
X15000000Y60000000D03*
X-7500000Y67500000D03*
D16*
X-11430000Y-58610000D03*
X-13970000Y-58610000D03*
X-16510000Y-58610000D03*
X-19050000Y-58610000D03*
D15*
X-4616000Y44134000D03*
D10*
X-2819949Y45930051D03*
D15*
X10384000Y-23366000D03*
D10*
X12180051Y-21569949D03*
D15*
X2884000Y6634000D03*
D10*
X4680051Y8430051D03*
D15*
X17884000Y44134000D03*
D10*
X19680051Y45930051D03*
D15*
X-12116000Y14134000D03*
D10*
X-10319949Y15930051D03*
D15*
X-12116000Y-15866000D03*
D10*
X-10319949Y-14069949D03*
D15*
X-4616000Y-8366000D03*
D10*
X-2819949Y-6569949D03*
D15*
X-12116000Y-23366000D03*
D10*
X-10319949Y-21569949D03*
D15*
X10384000Y-866000D03*
D10*
X12180051Y930051D03*
D13*
X7500000Y67500000D03*
D15*
X-12116000Y21634000D03*
D10*
X-10319949Y23430051D03*
D13*
X-7500000Y60000000D03*
D15*
X-12116000Y29134000D03*
D10*
X-10319949Y30930051D03*
D15*
X17884000Y6634000D03*
D10*
X19680051Y8430051D03*
D15*
X-19616000Y29134000D03*
D10*
X-17819949Y30930051D03*
M02*
