%TF.GenerationSoftware,KiCad,Pcbnew,7.0.2*%
%TF.CreationDate,2023-07-20T19:27:07+01:00*%
%TF.ProjectId,working,776f726b-696e-4672-9e6b-696361645f70,rev?*%
%TF.SameCoordinates,Original*%
%TF.FileFunction,Legend,Bot*%
%TF.FilePolarity,Positive*%
%FSLAX46Y46*%
G04 Gerber Fmt 4.6, Leading zero omitted, Abs format (unit mm)*
G04 Created by KiCad (PCBNEW 7.0.2) date 2023-07-20 19:27:07*
%MOMM*%
%LPD*%
G01*
G04 APERTURE LIST*
%ADD10C,0.150000*%
%ADD11C,0.120000*%
G04 APERTURE END LIST*
D10*
%TO.C,U1*%
X761904Y-54562619D02*
X761904Y-55372142D01*
X761904Y-55372142D02*
X714285Y-55467380D01*
X714285Y-55467380D02*
X666666Y-55515000D01*
X666666Y-55515000D02*
X571428Y-55562619D01*
X571428Y-55562619D02*
X380952Y-55562619D01*
X380952Y-55562619D02*
X285714Y-55515000D01*
X285714Y-55515000D02*
X238095Y-55467380D01*
X238095Y-55467380D02*
X190476Y-55372142D01*
X190476Y-55372142D02*
X190476Y-54562619D01*
X-809523Y-55562619D02*
X-238095Y-55562619D01*
X-523809Y-55562619D02*
X-523809Y-54562619D01*
X-523809Y-54562619D02*
X-428571Y-54705476D01*
X-428571Y-54705476D02*
X-333333Y-54800714D01*
X-333333Y-54800714D02*
X-238095Y-54848333D01*
D11*
X3860000Y-74060000D02*
X3860000Y-73815000D01*
X3860000Y-56185000D02*
X5675000Y-56185000D01*
X3860000Y-55940000D02*
X3860000Y-56185000D01*
X0Y-74060000D02*
X3860000Y-74060000D01*
X0Y-74060000D02*
X-3860000Y-74060000D01*
X0Y-55940000D02*
X3860000Y-55940000D01*
X0Y-55940000D02*
X-3860000Y-55940000D01*
X-3860000Y-74060000D02*
X-3860000Y-73815000D01*
X-3860000Y-55940000D02*
X-3860000Y-56185000D01*
%TD*%
M02*
