M48
; DRILL file {KiCad 7.0.2} date Thu Jul 20 19:27:12 2023
; FORMAT={-:-/ absolute / inch / decimal}
; #@! TF.CreationDate,2023-07-20T19:27:12+01:00
; #@! TF.GenerationSoftware,Kicad,Pcbnew,7.0.2
; #@! TF.FileFunction,Plated,1,2,PTH
FMAT,2
INCH
; #@! TA.AperFunction,Plated,PTH,ViaDrill
T1C0.0118
; #@! TA.AperFunction,Plated,PTH,ViaDrill
T2C0.0157
; #@! TA.AperFunction,Plated,PTH,ComponentDrill
T3C0.0354
; #@! TA.AperFunction,Plated,PTH,ComponentDrill
T4C0.0394
%
G90
G05
T1
X-0.7Y-2.175
X-0.4Y-2.15
X-0.1Y-2.175
X-0.0376Y-2.6374
X0.0Y-2.675
X0.05Y-2.725
X0.1Y-2.775
X0.175Y-2.175
T2
X-0.55Y-2.4
X-0.375Y-2.4
X-0.12Y-2.78
X0.06Y-2.88
X0.1831Y-2.4841
X0.26Y-2.52
X0.2725Y-2.7725
X0.34Y-2.88
X0.522Y-2.242
T3
X-0.7723Y2.0328
X-0.7723Y1.7376
X-0.7723Y1.4423
X-0.7723Y1.147
X-0.7723Y0.8517
X-0.7723Y0.5565
X-0.7723Y0.2612
X-0.7723Y-0.0341
X-0.7723Y-0.3294
X-0.7723Y-0.6246
X-0.7723Y-0.9199
X-0.7723Y-1.2152
X-0.7723Y-1.5105
X-0.7723Y-1.8057
X-0.7723Y-2.101
X-0.7016Y2.1035
X-0.7016Y1.8083
X-0.7016Y1.513
X-0.7016Y1.2177
X-0.7016Y0.9224
X-0.7016Y0.6272
X-0.7016Y0.3319
X-0.7016Y0.0366
X-0.7016Y-0.2587
X-0.7016Y-0.5539
X-0.7016Y-0.8492
X-0.7016Y-1.1445
X-0.7016Y-1.4398
X-0.7016Y-1.735
X-0.7016Y-2.0303
X-0.477Y2.0328
X-0.477Y1.7376
X-0.477Y1.4423
X-0.477Y1.147
X-0.477Y0.8517
X-0.477Y0.5565
X-0.477Y0.2612
X-0.477Y-0.0341
X-0.477Y-0.3294
X-0.477Y-0.6246
X-0.477Y-0.9199
X-0.477Y-1.2152
X-0.477Y-1.5105
X-0.477Y-1.8057
X-0.477Y-2.101
X-0.4063Y2.1035
X-0.4063Y1.8083
X-0.4063Y1.513
X-0.4063Y1.2177
X-0.4063Y0.9224
X-0.4063Y0.6272
X-0.4063Y0.3319
X-0.4063Y0.0366
X-0.4063Y-0.2587
X-0.4063Y-0.5539
X-0.4063Y-0.8492
X-0.4063Y-1.1445
X-0.4063Y-1.4398
X-0.4063Y-1.735
X-0.4063Y-2.0303
X-0.1817Y2.0328
X-0.1817Y1.7376
X-0.1817Y1.4423
X-0.1817Y1.147
X-0.1817Y0.8517
X-0.1817Y0.5565
X-0.1817Y0.2612
X-0.1817Y-0.0341
X-0.1817Y-0.3294
X-0.1817Y-0.6246
X-0.1817Y-0.9199
X-0.1817Y-1.2152
X-0.1817Y-1.5105
X-0.1817Y-1.8057
X-0.1817Y-2.101
X-0.111Y2.1035
X-0.111Y1.8083
X-0.111Y1.513
X-0.111Y1.2177
X-0.111Y0.9224
X-0.111Y0.6272
X-0.111Y0.3319
X-0.111Y0.0366
X-0.111Y-0.2587
X-0.111Y-0.5539
X-0.111Y-0.8492
X-0.111Y-1.1445
X-0.111Y-1.4398
X-0.111Y-1.735
X-0.111Y-2.0303
X0.1135Y2.0328
X0.1135Y1.7376
X0.1135Y1.4423
X0.1135Y1.147
X0.1135Y0.8517
X0.1135Y0.5565
X0.1135Y0.2612
X0.1135Y-0.0341
X0.1135Y-0.3294
X0.1135Y-0.6246
X0.1135Y-0.9199
X0.1135Y-1.2152
X0.1135Y-1.5105
X0.1135Y-1.8057
X0.1135Y-2.101
X0.1843Y2.1035
X0.1843Y1.8083
X0.1843Y1.513
X0.1843Y1.2177
X0.1843Y0.9224
X0.1843Y0.6272
X0.1843Y0.3319
X0.1843Y0.0366
X0.1843Y-0.2587
X0.1843Y-0.5539
X0.1843Y-0.8492
X0.1843Y-1.1445
X0.1843Y-1.4398
X0.1843Y-1.735
X0.1843Y-2.0303
X0.4088Y2.0328
X0.4088Y1.7376
X0.4088Y1.4423
X0.4088Y1.147
X0.4088Y0.8517
X0.4088Y0.5565
X0.4088Y0.2612
X0.4088Y-0.0341
X0.4088Y-0.3294
X0.4088Y-0.6246
X0.4088Y-0.9199
X0.4088Y-1.2152
X0.4088Y-1.5105
X0.4088Y-1.8057
X0.4088Y-2.101
X0.4795Y2.1035
X0.4795Y1.8083
X0.4795Y1.513
X0.4795Y1.2177
X0.4795Y0.9224
X0.4795Y0.6272
X0.4795Y0.3319
X0.4795Y0.0366
X0.4795Y-0.2587
X0.4795Y-0.5539
X0.4795Y-0.8492
X0.4795Y-1.1445
X0.4795Y-1.4398
X0.4795Y-1.735
X0.4795Y-2.0303
X0.7041Y2.0328
X0.7041Y1.7376
X0.7041Y1.4423
X0.7041Y1.147
X0.7041Y0.8517
X0.7041Y0.5565
X0.7041Y0.2612
X0.7041Y-0.0341
X0.7041Y-0.3294
X0.7041Y-0.6246
X0.7041Y-0.9199
X0.7041Y-1.2152
X0.7041Y-1.5105
X0.7041Y-1.8057
X0.7041Y-2.101
X0.7748Y2.1035
X0.7748Y1.8083
X0.7748Y1.513
X0.7748Y1.2177
X0.7748Y0.9224
X0.7748Y0.6272
X0.7748Y0.3319
X0.7748Y0.0366
X0.7748Y-0.2587
X0.7748Y-0.5539
X0.7748Y-0.8492
X0.7748Y-1.1445
X0.7748Y-1.4398
X0.7748Y-1.735
X0.7748Y-2.0303
T4
X0.5Y-2.32
X0.6Y-2.32
X0.7Y-2.32
X0.8Y-2.32
T0
M30
