%TF.GenerationSoftware,KiCad,Pcbnew,7.0.2*%
%TF.CreationDate,2023-07-20T19:27:07+01:00*%
%TF.ProjectId,working,776f726b-696e-4672-9e6b-696361645f70,rev?*%
%TF.SameCoordinates,Original*%
%TF.FileFunction,Legend,Top*%
%TF.FilePolarity,Positive*%
%FSLAX46Y46*%
G04 Gerber Fmt 4.6, Leading zero omitted, Abs format (unit mm)*
G04 Created by KiCad (PCBNEW 7.0.2) date 2023-07-20 19:27:07*
%MOMM*%
%LPD*%
G01*
G04 APERTURE LIST*
%ADD10C,0.150000*%
%ADD11C,0.100000*%
%ADD12C,0.120000*%
%ADD13R,0.760000X6.000000*%
G04 APERTURE END LIST*
D10*
%TO.C,J3*%
X-4373333Y-66697619D02*
X-4373333Y-67411904D01*
X-4373333Y-67411904D02*
X-4420952Y-67554761D01*
X-4420952Y-67554761D02*
X-4516190Y-67650000D01*
X-4516190Y-67650000D02*
X-4659047Y-67697619D01*
X-4659047Y-67697619D02*
X-4754285Y-67697619D01*
X-3992380Y-66697619D02*
X-3373333Y-66697619D01*
X-3373333Y-66697619D02*
X-3706666Y-67078571D01*
X-3706666Y-67078571D02*
X-3563809Y-67078571D01*
X-3563809Y-67078571D02*
X-3468571Y-67126190D01*
X-3468571Y-67126190D02*
X-3420952Y-67173809D01*
X-3420952Y-67173809D02*
X-3373333Y-67269047D01*
X-3373333Y-67269047D02*
X-3373333Y-67507142D01*
X-3373333Y-67507142D02*
X-3420952Y-67602380D01*
X-3420952Y-67602380D02*
X-3468571Y-67650000D01*
X-3468571Y-67650000D02*
X-3563809Y-67697619D01*
X-3563809Y-67697619D02*
X-3849523Y-67697619D01*
X-3849523Y-67697619D02*
X-3944761Y-67650000D01*
X-3944761Y-67650000D02*
X-3992380Y-67602380D01*
%TO.C,J2*%
X9832619Y-59261333D02*
X10546904Y-59261333D01*
X10546904Y-59261333D02*
X10689761Y-59308952D01*
X10689761Y-59308952D02*
X10785000Y-59404190D01*
X10785000Y-59404190D02*
X10832619Y-59547047D01*
X10832619Y-59547047D02*
X10832619Y-59642285D01*
X9927857Y-58832761D02*
X9880238Y-58785142D01*
X9880238Y-58785142D02*
X9832619Y-58689904D01*
X9832619Y-58689904D02*
X9832619Y-58451809D01*
X9832619Y-58451809D02*
X9880238Y-58356571D01*
X9880238Y-58356571D02*
X9927857Y-58308952D01*
X9927857Y-58308952D02*
X10023095Y-58261333D01*
X10023095Y-58261333D02*
X10118333Y-58261333D01*
X10118333Y-58261333D02*
X10261190Y-58308952D01*
X10261190Y-58308952D02*
X10832619Y-58880380D01*
X10832619Y-58880380D02*
X10832619Y-58261333D01*
%TO.C,J1*%
X-9497380Y-63988333D02*
X-8783095Y-63988333D01*
X-8783095Y-63988333D02*
X-8640238Y-64035952D01*
X-8640238Y-64035952D02*
X-8545000Y-64131190D01*
X-8545000Y-64131190D02*
X-8497380Y-64274047D01*
X-8497380Y-64274047D02*
X-8497380Y-64369285D01*
X-8497380Y-62988333D02*
X-8497380Y-63559761D01*
X-8497380Y-63274047D02*
X-9497380Y-63274047D01*
X-9497380Y-63274047D02*
X-9354523Y-63369285D01*
X-9354523Y-63369285D02*
X-9259285Y-63464523D01*
X-9259285Y-63464523D02*
X-9211666Y-63559761D01*
%TO.C,L74*%
X-14145564Y39550478D02*
X-14482282Y39213760D01*
X-14482282Y39213760D02*
X-15189388Y39920867D01*
X-14684312Y40425943D02*
X-14212908Y40897348D01*
X-14212908Y40897348D02*
X-13808847Y39887195D01*
X-13404785Y41234065D02*
X-12933381Y40762661D01*
X-13842518Y41335081D02*
X-13505801Y40661646D01*
X-13505801Y40661646D02*
X-13068068Y41099378D01*
%TO.C,L17*%
X8354435Y-35449521D02*
X8017717Y-35786239D01*
X8017717Y-35786239D02*
X7310611Y-35079132D01*
X8960526Y-34843430D02*
X8556465Y-35247491D01*
X8758496Y-35045460D02*
X8051389Y-34338353D01*
X8051389Y-34338353D02*
X8085061Y-34506712D01*
X8085061Y-34506712D02*
X8085061Y-34641399D01*
X8085061Y-34641399D02*
X8051389Y-34742414D01*
X8489122Y-33900621D02*
X8960527Y-33429216D01*
X8960527Y-33429216D02*
X9364588Y-34439369D01*
%TO.C,L88*%
X854435Y54550478D02*
X517717Y54213760D01*
X517717Y54213760D02*
X-189388Y54920867D01*
X787091Y55291256D02*
X686076Y55257585D01*
X686076Y55257585D02*
X618733Y55257585D01*
X618733Y55257585D02*
X517717Y55291256D01*
X517717Y55291256D02*
X484046Y55324928D01*
X484046Y55324928D02*
X450374Y55425943D01*
X450374Y55425943D02*
X450374Y55493287D01*
X450374Y55493287D02*
X484046Y55594302D01*
X484046Y55594302D02*
X618733Y55728989D01*
X618733Y55728989D02*
X719748Y55762661D01*
X719748Y55762661D02*
X787091Y55762661D01*
X787091Y55762661D02*
X888107Y55728989D01*
X888107Y55728989D02*
X921778Y55695317D01*
X921778Y55695317D02*
X955450Y55594302D01*
X955450Y55594302D02*
X955450Y55526959D01*
X955450Y55526959D02*
X921778Y55425943D01*
X921778Y55425943D02*
X787091Y55291256D01*
X787091Y55291256D02*
X753420Y55190241D01*
X753420Y55190241D02*
X753420Y55122898D01*
X753420Y55122898D02*
X787091Y55021882D01*
X787091Y55021882D02*
X921778Y54887195D01*
X921778Y54887195D02*
X1022794Y54853524D01*
X1022794Y54853524D02*
X1090137Y54853524D01*
X1090137Y54853524D02*
X1191152Y54887195D01*
X1191152Y54887195D02*
X1325839Y55021882D01*
X1325839Y55021882D02*
X1359511Y55122898D01*
X1359511Y55122898D02*
X1359511Y55190241D01*
X1359511Y55190241D02*
X1325839Y55291256D01*
X1325839Y55291256D02*
X1191152Y55425943D01*
X1191152Y55425943D02*
X1090137Y55459615D01*
X1090137Y55459615D02*
X1022794Y55459615D01*
X1022794Y55459615D02*
X921778Y55425943D01*
X1460527Y55964691D02*
X1359511Y55931020D01*
X1359511Y55931020D02*
X1292168Y55931020D01*
X1292168Y55931020D02*
X1191153Y55964691D01*
X1191153Y55964691D02*
X1157481Y55998363D01*
X1157481Y55998363D02*
X1123809Y56099378D01*
X1123809Y56099378D02*
X1123809Y56166722D01*
X1123809Y56166722D02*
X1157481Y56267737D01*
X1157481Y56267737D02*
X1292168Y56402424D01*
X1292168Y56402424D02*
X1393183Y56436096D01*
X1393183Y56436096D02*
X1460527Y56436096D01*
X1460527Y56436096D02*
X1561542Y56402424D01*
X1561542Y56402424D02*
X1595214Y56368752D01*
X1595214Y56368752D02*
X1628885Y56267737D01*
X1628885Y56267737D02*
X1628885Y56200394D01*
X1628885Y56200394D02*
X1595214Y56099378D01*
X1595214Y56099378D02*
X1460527Y55964691D01*
X1460527Y55964691D02*
X1426855Y55863676D01*
X1426855Y55863676D02*
X1426855Y55796333D01*
X1426855Y55796333D02*
X1460527Y55695317D01*
X1460527Y55695317D02*
X1595214Y55560630D01*
X1595214Y55560630D02*
X1696229Y55526959D01*
X1696229Y55526959D02*
X1763572Y55526959D01*
X1763572Y55526959D02*
X1864588Y55560630D01*
X1864588Y55560630D02*
X1999275Y55695317D01*
X1999275Y55695317D02*
X2032946Y55796333D01*
X2032946Y55796333D02*
X2032946Y55863676D01*
X2032946Y55863676D02*
X1999275Y55964691D01*
X1999275Y55964691D02*
X1864588Y56099378D01*
X1864588Y56099378D02*
X1763572Y56133050D01*
X1763572Y56133050D02*
X1696229Y56133050D01*
X1696229Y56133050D02*
X1595214Y56099378D01*
%TO.C,L90*%
X15854435Y54550478D02*
X15517717Y54213760D01*
X15517717Y54213760D02*
X14810611Y54920867D01*
X16123809Y54819852D02*
X16258496Y54954539D01*
X16258496Y54954539D02*
X16292168Y55055554D01*
X16292168Y55055554D02*
X16292168Y55122898D01*
X16292168Y55122898D02*
X16258496Y55291256D01*
X16258496Y55291256D02*
X16157481Y55459615D01*
X16157481Y55459615D02*
X15888107Y55728989D01*
X15888107Y55728989D02*
X15787091Y55762661D01*
X15787091Y55762661D02*
X15719748Y55762661D01*
X15719748Y55762661D02*
X15618733Y55728989D01*
X15618733Y55728989D02*
X15484046Y55594302D01*
X15484046Y55594302D02*
X15450374Y55493287D01*
X15450374Y55493287D02*
X15450374Y55425943D01*
X15450374Y55425943D02*
X15484046Y55324928D01*
X15484046Y55324928D02*
X15652404Y55156569D01*
X15652404Y55156569D02*
X15753420Y55122898D01*
X15753420Y55122898D02*
X15820763Y55122898D01*
X15820763Y55122898D02*
X15921778Y55156569D01*
X15921778Y55156569D02*
X16056465Y55291256D01*
X16056465Y55291256D02*
X16090137Y55392272D01*
X16090137Y55392272D02*
X16090137Y55459615D01*
X16090137Y55459615D02*
X16056465Y55560630D01*
X16191153Y56301409D02*
X16258496Y56368752D01*
X16258496Y56368752D02*
X16359511Y56402424D01*
X16359511Y56402424D02*
X16426855Y56402424D01*
X16426855Y56402424D02*
X16527870Y56368752D01*
X16527870Y56368752D02*
X16696229Y56267737D01*
X16696229Y56267737D02*
X16864588Y56099378D01*
X16864588Y56099378D02*
X16965603Y55931020D01*
X16965603Y55931020D02*
X16999275Y55830004D01*
X16999275Y55830004D02*
X16999275Y55762661D01*
X16999275Y55762661D02*
X16965603Y55661646D01*
X16965603Y55661646D02*
X16898259Y55594302D01*
X16898259Y55594302D02*
X16797244Y55560630D01*
X16797244Y55560630D02*
X16729901Y55560630D01*
X16729901Y55560630D02*
X16628885Y55594302D01*
X16628885Y55594302D02*
X16460527Y55695317D01*
X16460527Y55695317D02*
X16292168Y55863676D01*
X16292168Y55863676D02*
X16191153Y56032035D01*
X16191153Y56032035D02*
X16157481Y56133050D01*
X16157481Y56133050D02*
X16157481Y56200394D01*
X16157481Y56200394D02*
X16191153Y56301409D01*
%TO.C,L10*%
X854435Y-42949521D02*
X517717Y-43286239D01*
X517717Y-43286239D02*
X-189388Y-42579132D01*
X1460526Y-42343430D02*
X1056465Y-42747491D01*
X1258496Y-42545460D02*
X551389Y-41838353D01*
X551389Y-41838353D02*
X585061Y-42006712D01*
X585061Y-42006712D02*
X585061Y-42141399D01*
X585061Y-42141399D02*
X551389Y-42242414D01*
X1191153Y-41198590D02*
X1258496Y-41131247D01*
X1258496Y-41131247D02*
X1359511Y-41097575D01*
X1359511Y-41097575D02*
X1426855Y-41097575D01*
X1426855Y-41097575D02*
X1527870Y-41131247D01*
X1527870Y-41131247D02*
X1696229Y-41232262D01*
X1696229Y-41232262D02*
X1864588Y-41400621D01*
X1864588Y-41400621D02*
X1965603Y-41568979D01*
X1965603Y-41568979D02*
X1999275Y-41669995D01*
X1999275Y-41669995D02*
X1999275Y-41737338D01*
X1999275Y-41737338D02*
X1965603Y-41838353D01*
X1965603Y-41838353D02*
X1898259Y-41905697D01*
X1898259Y-41905697D02*
X1797244Y-41939369D01*
X1797244Y-41939369D02*
X1729901Y-41939369D01*
X1729901Y-41939369D02*
X1628885Y-41905697D01*
X1628885Y-41905697D02*
X1460527Y-41804682D01*
X1460527Y-41804682D02*
X1292168Y-41636323D01*
X1292168Y-41636323D02*
X1191153Y-41467964D01*
X1191153Y-41467964D02*
X1157481Y-41366949D01*
X1157481Y-41366949D02*
X1157481Y-41299605D01*
X1157481Y-41299605D02*
X1191153Y-41198590D01*
%TO.C,L70*%
X854435Y32050478D02*
X517717Y31713760D01*
X517717Y31713760D02*
X-189388Y32420867D01*
X315687Y32925943D02*
X787091Y33397348D01*
X787091Y33397348D02*
X1191152Y32387195D01*
X1191153Y33801409D02*
X1258496Y33868752D01*
X1258496Y33868752D02*
X1359511Y33902424D01*
X1359511Y33902424D02*
X1426855Y33902424D01*
X1426855Y33902424D02*
X1527870Y33868752D01*
X1527870Y33868752D02*
X1696229Y33767737D01*
X1696229Y33767737D02*
X1864588Y33599378D01*
X1864588Y33599378D02*
X1965603Y33431020D01*
X1965603Y33431020D02*
X1999275Y33330004D01*
X1999275Y33330004D02*
X1999275Y33262661D01*
X1999275Y33262661D02*
X1965603Y33161646D01*
X1965603Y33161646D02*
X1898259Y33094302D01*
X1898259Y33094302D02*
X1797244Y33060630D01*
X1797244Y33060630D02*
X1729901Y33060630D01*
X1729901Y33060630D02*
X1628885Y33094302D01*
X1628885Y33094302D02*
X1460527Y33195317D01*
X1460527Y33195317D02*
X1292168Y33363676D01*
X1292168Y33363676D02*
X1191153Y33532035D01*
X1191153Y33532035D02*
X1157481Y33633050D01*
X1157481Y33633050D02*
X1157481Y33700394D01*
X1157481Y33700394D02*
X1191153Y33801409D01*
%TO.C,L80*%
X-14145564Y47050478D02*
X-14482282Y46713760D01*
X-14482282Y46713760D02*
X-15189388Y47420867D01*
X-14212908Y47791256D02*
X-14313923Y47757585D01*
X-14313923Y47757585D02*
X-14381266Y47757585D01*
X-14381266Y47757585D02*
X-14482282Y47791256D01*
X-14482282Y47791256D02*
X-14515953Y47824928D01*
X-14515953Y47824928D02*
X-14549625Y47925943D01*
X-14549625Y47925943D02*
X-14549625Y47993287D01*
X-14549625Y47993287D02*
X-14515953Y48094302D01*
X-14515953Y48094302D02*
X-14381266Y48228989D01*
X-14381266Y48228989D02*
X-14280251Y48262661D01*
X-14280251Y48262661D02*
X-14212908Y48262661D01*
X-14212908Y48262661D02*
X-14111892Y48228989D01*
X-14111892Y48228989D02*
X-14078221Y48195317D01*
X-14078221Y48195317D02*
X-14044549Y48094302D01*
X-14044549Y48094302D02*
X-14044549Y48026959D01*
X-14044549Y48026959D02*
X-14078221Y47925943D01*
X-14078221Y47925943D02*
X-14212908Y47791256D01*
X-14212908Y47791256D02*
X-14246579Y47690241D01*
X-14246579Y47690241D02*
X-14246579Y47622898D01*
X-14246579Y47622898D02*
X-14212908Y47521882D01*
X-14212908Y47521882D02*
X-14078221Y47387195D01*
X-14078221Y47387195D02*
X-13977205Y47353524D01*
X-13977205Y47353524D02*
X-13909862Y47353524D01*
X-13909862Y47353524D02*
X-13808847Y47387195D01*
X-13808847Y47387195D02*
X-13674160Y47521882D01*
X-13674160Y47521882D02*
X-13640488Y47622898D01*
X-13640488Y47622898D02*
X-13640488Y47690241D01*
X-13640488Y47690241D02*
X-13674160Y47791256D01*
X-13674160Y47791256D02*
X-13808847Y47925943D01*
X-13808847Y47925943D02*
X-13909862Y47959615D01*
X-13909862Y47959615D02*
X-13977205Y47959615D01*
X-13977205Y47959615D02*
X-14078221Y47925943D01*
X-13808846Y48801409D02*
X-13741503Y48868752D01*
X-13741503Y48868752D02*
X-13640488Y48902424D01*
X-13640488Y48902424D02*
X-13573144Y48902424D01*
X-13573144Y48902424D02*
X-13472129Y48868752D01*
X-13472129Y48868752D02*
X-13303770Y48767737D01*
X-13303770Y48767737D02*
X-13135411Y48599378D01*
X-13135411Y48599378D02*
X-13034396Y48431020D01*
X-13034396Y48431020D02*
X-13000724Y48330004D01*
X-13000724Y48330004D02*
X-13000724Y48262661D01*
X-13000724Y48262661D02*
X-13034396Y48161646D01*
X-13034396Y48161646D02*
X-13101740Y48094302D01*
X-13101740Y48094302D02*
X-13202755Y48060630D01*
X-13202755Y48060630D02*
X-13270098Y48060630D01*
X-13270098Y48060630D02*
X-13371114Y48094302D01*
X-13371114Y48094302D02*
X-13539472Y48195317D01*
X-13539472Y48195317D02*
X-13707831Y48363676D01*
X-13707831Y48363676D02*
X-13808846Y48532035D01*
X-13808846Y48532035D02*
X-13842518Y48633050D01*
X-13842518Y48633050D02*
X-13842518Y48700394D01*
X-13842518Y48700394D02*
X-13808846Y48801409D01*
%TO.C,L13*%
X-21645564Y-35449521D02*
X-21982282Y-35786239D01*
X-21982282Y-35786239D02*
X-22689388Y-35079132D01*
X-21039473Y-34843430D02*
X-21443534Y-35247491D01*
X-21241503Y-35045460D02*
X-21948610Y-34338353D01*
X-21948610Y-34338353D02*
X-21914938Y-34506712D01*
X-21914938Y-34506712D02*
X-21914938Y-34641399D01*
X-21914938Y-34641399D02*
X-21948610Y-34742414D01*
X-21510877Y-33900621D02*
X-21073144Y-33462888D01*
X-21073144Y-33462888D02*
X-21039472Y-33967964D01*
X-21039472Y-33967964D02*
X-20938457Y-33866949D01*
X-20938457Y-33866949D02*
X-20837442Y-33833277D01*
X-20837442Y-33833277D02*
X-20770098Y-33833277D01*
X-20770098Y-33833277D02*
X-20669083Y-33866949D01*
X-20669083Y-33866949D02*
X-20500724Y-34035308D01*
X-20500724Y-34035308D02*
X-20467053Y-34136323D01*
X-20467053Y-34136323D02*
X-20467053Y-34203666D01*
X-20467053Y-34203666D02*
X-20500724Y-34304682D01*
X-20500724Y-34304682D02*
X-20702755Y-34506712D01*
X-20702755Y-34506712D02*
X-20803770Y-34540384D01*
X-20803770Y-34540384D02*
X-20871114Y-34540384D01*
%TO.C,L9*%
X-6308846Y-42612803D02*
X-6645564Y-42949521D01*
X-6645564Y-42949521D02*
X-7352671Y-42242414D01*
X-6039472Y-42343429D02*
X-5904785Y-42208742D01*
X-5904785Y-42208742D02*
X-5871113Y-42107727D01*
X-5871113Y-42107727D02*
X-5871113Y-42040384D01*
X-5871113Y-42040384D02*
X-5904785Y-41872025D01*
X-5904785Y-41872025D02*
X-6005800Y-41703666D01*
X-6005800Y-41703666D02*
X-6275174Y-41434292D01*
X-6275174Y-41434292D02*
X-6376190Y-41400620D01*
X-6376190Y-41400620D02*
X-6443533Y-41400620D01*
X-6443533Y-41400620D02*
X-6544548Y-41434292D01*
X-6544548Y-41434292D02*
X-6679235Y-41568979D01*
X-6679235Y-41568979D02*
X-6712907Y-41669994D01*
X-6712907Y-41669994D02*
X-6712907Y-41737338D01*
X-6712907Y-41737338D02*
X-6679235Y-41838353D01*
X-6679235Y-41838353D02*
X-6510877Y-42006712D01*
X-6510877Y-42006712D02*
X-6409861Y-42040384D01*
X-6409861Y-42040384D02*
X-6342518Y-42040384D01*
X-6342518Y-42040384D02*
X-6241503Y-42006712D01*
X-6241503Y-42006712D02*
X-6106816Y-41872025D01*
X-6106816Y-41872025D02*
X-6073144Y-41771010D01*
X-6073144Y-41771010D02*
X-6073144Y-41703666D01*
X-6073144Y-41703666D02*
X-6106816Y-41602651D01*
%TO.C,L86*%
X-14145564Y54550478D02*
X-14482282Y54213760D01*
X-14482282Y54213760D02*
X-15189388Y54920867D01*
X-14212908Y55291256D02*
X-14313923Y55257585D01*
X-14313923Y55257585D02*
X-14381266Y55257585D01*
X-14381266Y55257585D02*
X-14482282Y55291256D01*
X-14482282Y55291256D02*
X-14515953Y55324928D01*
X-14515953Y55324928D02*
X-14549625Y55425943D01*
X-14549625Y55425943D02*
X-14549625Y55493287D01*
X-14549625Y55493287D02*
X-14515953Y55594302D01*
X-14515953Y55594302D02*
X-14381266Y55728989D01*
X-14381266Y55728989D02*
X-14280251Y55762661D01*
X-14280251Y55762661D02*
X-14212908Y55762661D01*
X-14212908Y55762661D02*
X-14111892Y55728989D01*
X-14111892Y55728989D02*
X-14078221Y55695317D01*
X-14078221Y55695317D02*
X-14044549Y55594302D01*
X-14044549Y55594302D02*
X-14044549Y55526959D01*
X-14044549Y55526959D02*
X-14078221Y55425943D01*
X-14078221Y55425943D02*
X-14212908Y55291256D01*
X-14212908Y55291256D02*
X-14246579Y55190241D01*
X-14246579Y55190241D02*
X-14246579Y55122898D01*
X-14246579Y55122898D02*
X-14212908Y55021882D01*
X-14212908Y55021882D02*
X-14078221Y54887195D01*
X-14078221Y54887195D02*
X-13977205Y54853524D01*
X-13977205Y54853524D02*
X-13909862Y54853524D01*
X-13909862Y54853524D02*
X-13808847Y54887195D01*
X-13808847Y54887195D02*
X-13674160Y55021882D01*
X-13674160Y55021882D02*
X-13640488Y55122898D01*
X-13640488Y55122898D02*
X-13640488Y55190241D01*
X-13640488Y55190241D02*
X-13674160Y55291256D01*
X-13674160Y55291256D02*
X-13808847Y55425943D01*
X-13808847Y55425943D02*
X-13909862Y55459615D01*
X-13909862Y55459615D02*
X-13977205Y55459615D01*
X-13977205Y55459615D02*
X-14078221Y55425943D01*
X-13640488Y56469768D02*
X-13775175Y56335081D01*
X-13775175Y56335081D02*
X-13808846Y56234065D01*
X-13808846Y56234065D02*
X-13808846Y56166722D01*
X-13808846Y56166722D02*
X-13775175Y55998363D01*
X-13775175Y55998363D02*
X-13674159Y55830004D01*
X-13674159Y55830004D02*
X-13404785Y55560630D01*
X-13404785Y55560630D02*
X-13303770Y55526959D01*
X-13303770Y55526959D02*
X-13236427Y55526959D01*
X-13236427Y55526959D02*
X-13135411Y55560630D01*
X-13135411Y55560630D02*
X-13000724Y55695317D01*
X-13000724Y55695317D02*
X-12967053Y55796333D01*
X-12967053Y55796333D02*
X-12967053Y55863676D01*
X-12967053Y55863676D02*
X-13000724Y55964691D01*
X-13000724Y55964691D02*
X-13169083Y56133050D01*
X-13169083Y56133050D02*
X-13270098Y56166722D01*
X-13270098Y56166722D02*
X-13337442Y56166722D01*
X-13337442Y56166722D02*
X-13438457Y56133050D01*
X-13438457Y56133050D02*
X-13573144Y55998363D01*
X-13573144Y55998363D02*
X-13606816Y55897348D01*
X-13606816Y55897348D02*
X-13606816Y55830004D01*
X-13606816Y55830004D02*
X-13573144Y55728989D01*
%TO.C,L71*%
X8354435Y32050478D02*
X8017717Y31713760D01*
X8017717Y31713760D02*
X7310611Y32420867D01*
X7815687Y32925943D02*
X8287091Y33397348D01*
X8287091Y33397348D02*
X8691152Y32387195D01*
X9633962Y33330004D02*
X9229901Y32925943D01*
X9431931Y33127974D02*
X8724824Y33835081D01*
X8724824Y33835081D02*
X8758496Y33666722D01*
X8758496Y33666722D02*
X8758496Y33532035D01*
X8758496Y33532035D02*
X8724824Y33431020D01*
%TO.C,L69*%
X-6645564Y32050478D02*
X-6982282Y31713760D01*
X-6982282Y31713760D02*
X-7689388Y32420867D01*
X-6813923Y33296333D02*
X-6948610Y33161646D01*
X-6948610Y33161646D02*
X-6982282Y33060630D01*
X-6982282Y33060630D02*
X-6982282Y32993287D01*
X-6982282Y32993287D02*
X-6948610Y32824928D01*
X-6948610Y32824928D02*
X-6847595Y32656569D01*
X-6847595Y32656569D02*
X-6578221Y32387195D01*
X-6578221Y32387195D02*
X-6477205Y32353524D01*
X-6477205Y32353524D02*
X-6409862Y32353524D01*
X-6409862Y32353524D02*
X-6308847Y32387195D01*
X-6308847Y32387195D02*
X-6174160Y32521882D01*
X-6174160Y32521882D02*
X-6140488Y32622898D01*
X-6140488Y32622898D02*
X-6140488Y32690241D01*
X-6140488Y32690241D02*
X-6174160Y32791256D01*
X-6174160Y32791256D02*
X-6342518Y32959615D01*
X-6342518Y32959615D02*
X-6443534Y32993287D01*
X-6443534Y32993287D02*
X-6510877Y32993287D01*
X-6510877Y32993287D02*
X-6611892Y32959615D01*
X-6611892Y32959615D02*
X-6746579Y32824928D01*
X-6746579Y32824928D02*
X-6780251Y32723913D01*
X-6780251Y32723913D02*
X-6780251Y32656569D01*
X-6780251Y32656569D02*
X-6746579Y32555554D01*
X-5702755Y32993287D02*
X-5568068Y33127974D01*
X-5568068Y33127974D02*
X-5534396Y33228989D01*
X-5534396Y33228989D02*
X-5534396Y33296333D01*
X-5534396Y33296333D02*
X-5568068Y33464691D01*
X-5568068Y33464691D02*
X-5669083Y33633050D01*
X-5669083Y33633050D02*
X-5938457Y33902424D01*
X-5938457Y33902424D02*
X-6039472Y33936096D01*
X-6039472Y33936096D02*
X-6106816Y33936096D01*
X-6106816Y33936096D02*
X-6207831Y33902424D01*
X-6207831Y33902424D02*
X-6342518Y33767737D01*
X-6342518Y33767737D02*
X-6376190Y33666722D01*
X-6376190Y33666722D02*
X-6376190Y33599378D01*
X-6376190Y33599378D02*
X-6342518Y33498363D01*
X-6342518Y33498363D02*
X-6174159Y33330004D01*
X-6174159Y33330004D02*
X-6073144Y33296333D01*
X-6073144Y33296333D02*
X-6005801Y33296333D01*
X-6005801Y33296333D02*
X-5904785Y33330004D01*
X-5904785Y33330004D02*
X-5770098Y33464691D01*
X-5770098Y33464691D02*
X-5736427Y33565707D01*
X-5736427Y33565707D02*
X-5736427Y33633050D01*
X-5736427Y33633050D02*
X-5770098Y33734065D01*
%TO.C,L72*%
X15854435Y32050478D02*
X15517717Y31713760D01*
X15517717Y31713760D02*
X14810611Y32420867D01*
X15315687Y32925943D02*
X15787091Y33397348D01*
X15787091Y33397348D02*
X16191152Y32387195D01*
X16090137Y33565707D02*
X16090137Y33633050D01*
X16090137Y33633050D02*
X16123809Y33734065D01*
X16123809Y33734065D02*
X16292168Y33902424D01*
X16292168Y33902424D02*
X16393183Y33936096D01*
X16393183Y33936096D02*
X16460527Y33936096D01*
X16460527Y33936096D02*
X16561542Y33902424D01*
X16561542Y33902424D02*
X16628885Y33835081D01*
X16628885Y33835081D02*
X16696229Y33700394D01*
X16696229Y33700394D02*
X16696229Y32892272D01*
X16696229Y32892272D02*
X17133962Y33330004D01*
%TO.C,L63*%
X-6645564Y24550478D02*
X-6982282Y24213760D01*
X-6982282Y24213760D02*
X-7689388Y24920867D01*
X-6813923Y25796333D02*
X-6948610Y25661646D01*
X-6948610Y25661646D02*
X-6982282Y25560630D01*
X-6982282Y25560630D02*
X-6982282Y25493287D01*
X-6982282Y25493287D02*
X-6948610Y25324928D01*
X-6948610Y25324928D02*
X-6847595Y25156569D01*
X-6847595Y25156569D02*
X-6578221Y24887195D01*
X-6578221Y24887195D02*
X-6477205Y24853524D01*
X-6477205Y24853524D02*
X-6409862Y24853524D01*
X-6409862Y24853524D02*
X-6308847Y24887195D01*
X-6308847Y24887195D02*
X-6174160Y25021882D01*
X-6174160Y25021882D02*
X-6140488Y25122898D01*
X-6140488Y25122898D02*
X-6140488Y25190241D01*
X-6140488Y25190241D02*
X-6174160Y25291256D01*
X-6174160Y25291256D02*
X-6342518Y25459615D01*
X-6342518Y25459615D02*
X-6443534Y25493287D01*
X-6443534Y25493287D02*
X-6510877Y25493287D01*
X-6510877Y25493287D02*
X-6611892Y25459615D01*
X-6611892Y25459615D02*
X-6746579Y25324928D01*
X-6746579Y25324928D02*
X-6780251Y25223913D01*
X-6780251Y25223913D02*
X-6780251Y25156569D01*
X-6780251Y25156569D02*
X-6746579Y25055554D01*
X-6510877Y26099378D02*
X-6073144Y26537111D01*
X-6073144Y26537111D02*
X-6039472Y26032035D01*
X-6039472Y26032035D02*
X-5938457Y26133050D01*
X-5938457Y26133050D02*
X-5837442Y26166722D01*
X-5837442Y26166722D02*
X-5770098Y26166722D01*
X-5770098Y26166722D02*
X-5669083Y26133050D01*
X-5669083Y26133050D02*
X-5500724Y25964691D01*
X-5500724Y25964691D02*
X-5467053Y25863676D01*
X-5467053Y25863676D02*
X-5467053Y25796333D01*
X-5467053Y25796333D02*
X-5500724Y25695317D01*
X-5500724Y25695317D02*
X-5702755Y25493287D01*
X-5702755Y25493287D02*
X-5803770Y25459615D01*
X-5803770Y25459615D02*
X-5871114Y25459615D01*
%TO.C,L20*%
X-14145564Y-27949521D02*
X-14482282Y-28286239D01*
X-14482282Y-28286239D02*
X-15189388Y-27579132D01*
X-14583297Y-27107727D02*
X-14583297Y-27040384D01*
X-14583297Y-27040384D02*
X-14549625Y-26939369D01*
X-14549625Y-26939369D02*
X-14381266Y-26771010D01*
X-14381266Y-26771010D02*
X-14280251Y-26737338D01*
X-14280251Y-26737338D02*
X-14212908Y-26737338D01*
X-14212908Y-26737338D02*
X-14111892Y-26771010D01*
X-14111892Y-26771010D02*
X-14044549Y-26838353D01*
X-14044549Y-26838353D02*
X-13977205Y-26973040D01*
X-13977205Y-26973040D02*
X-13977205Y-27781162D01*
X-13977205Y-27781162D02*
X-13539473Y-27343430D01*
X-13808846Y-26198590D02*
X-13741503Y-26131247D01*
X-13741503Y-26131247D02*
X-13640488Y-26097575D01*
X-13640488Y-26097575D02*
X-13573144Y-26097575D01*
X-13573144Y-26097575D02*
X-13472129Y-26131247D01*
X-13472129Y-26131247D02*
X-13303770Y-26232262D01*
X-13303770Y-26232262D02*
X-13135411Y-26400621D01*
X-13135411Y-26400621D02*
X-13034396Y-26568979D01*
X-13034396Y-26568979D02*
X-13000724Y-26669995D01*
X-13000724Y-26669995D02*
X-13000724Y-26737338D01*
X-13000724Y-26737338D02*
X-13034396Y-26838353D01*
X-13034396Y-26838353D02*
X-13101740Y-26905697D01*
X-13101740Y-26905697D02*
X-13202755Y-26939369D01*
X-13202755Y-26939369D02*
X-13270098Y-26939369D01*
X-13270098Y-26939369D02*
X-13371114Y-26905697D01*
X-13371114Y-26905697D02*
X-13539472Y-26804682D01*
X-13539472Y-26804682D02*
X-13707831Y-26636323D01*
X-13707831Y-26636323D02*
X-13808846Y-26467964D01*
X-13808846Y-26467964D02*
X-13842518Y-26366949D01*
X-13842518Y-26366949D02*
X-13842518Y-26299605D01*
X-13842518Y-26299605D02*
X-13808846Y-26198590D01*
%TO.C,L87*%
X-6645564Y54550478D02*
X-6982282Y54213760D01*
X-6982282Y54213760D02*
X-7689388Y54920867D01*
X-6712908Y55291256D02*
X-6813923Y55257585D01*
X-6813923Y55257585D02*
X-6881266Y55257585D01*
X-6881266Y55257585D02*
X-6982282Y55291256D01*
X-6982282Y55291256D02*
X-7015953Y55324928D01*
X-7015953Y55324928D02*
X-7049625Y55425943D01*
X-7049625Y55425943D02*
X-7049625Y55493287D01*
X-7049625Y55493287D02*
X-7015953Y55594302D01*
X-7015953Y55594302D02*
X-6881266Y55728989D01*
X-6881266Y55728989D02*
X-6780251Y55762661D01*
X-6780251Y55762661D02*
X-6712908Y55762661D01*
X-6712908Y55762661D02*
X-6611892Y55728989D01*
X-6611892Y55728989D02*
X-6578221Y55695317D01*
X-6578221Y55695317D02*
X-6544549Y55594302D01*
X-6544549Y55594302D02*
X-6544549Y55526959D01*
X-6544549Y55526959D02*
X-6578221Y55425943D01*
X-6578221Y55425943D02*
X-6712908Y55291256D01*
X-6712908Y55291256D02*
X-6746579Y55190241D01*
X-6746579Y55190241D02*
X-6746579Y55122898D01*
X-6746579Y55122898D02*
X-6712908Y55021882D01*
X-6712908Y55021882D02*
X-6578221Y54887195D01*
X-6578221Y54887195D02*
X-6477205Y54853524D01*
X-6477205Y54853524D02*
X-6409862Y54853524D01*
X-6409862Y54853524D02*
X-6308847Y54887195D01*
X-6308847Y54887195D02*
X-6174160Y55021882D01*
X-6174160Y55021882D02*
X-6140488Y55122898D01*
X-6140488Y55122898D02*
X-6140488Y55190241D01*
X-6140488Y55190241D02*
X-6174160Y55291256D01*
X-6174160Y55291256D02*
X-6308847Y55425943D01*
X-6308847Y55425943D02*
X-6409862Y55459615D01*
X-6409862Y55459615D02*
X-6477205Y55459615D01*
X-6477205Y55459615D02*
X-6578221Y55425943D01*
X-6510877Y56099378D02*
X-6039472Y56570783D01*
X-6039472Y56570783D02*
X-5635411Y55560630D01*
%TO.C,H13*%
X6261905Y63737380D02*
X6261905Y64737380D01*
X6261905Y64261190D02*
X6833333Y64261190D01*
X6833333Y63737380D02*
X6833333Y64737380D01*
X7833333Y63737380D02*
X7261905Y63737380D01*
X7547619Y63737380D02*
X7547619Y64737380D01*
X7547619Y64737380D02*
X7452381Y64594523D01*
X7452381Y64594523D02*
X7357143Y64499285D01*
X7357143Y64499285D02*
X7261905Y64451666D01*
X8166667Y64737380D02*
X8785714Y64737380D01*
X8785714Y64737380D02*
X8452381Y64356428D01*
X8452381Y64356428D02*
X8595238Y64356428D01*
X8595238Y64356428D02*
X8690476Y64308809D01*
X8690476Y64308809D02*
X8738095Y64261190D01*
X8738095Y64261190D02*
X8785714Y64165952D01*
X8785714Y64165952D02*
X8785714Y63927857D01*
X8785714Y63927857D02*
X8738095Y63832619D01*
X8738095Y63832619D02*
X8690476Y63785000D01*
X8690476Y63785000D02*
X8595238Y63737380D01*
X8595238Y63737380D02*
X8309524Y63737380D01*
X8309524Y63737380D02*
X8214286Y63785000D01*
X8214286Y63785000D02*
X8166667Y63832619D01*
%TO.C,L58*%
X854435Y17050478D02*
X517717Y16713760D01*
X517717Y16713760D02*
X-189388Y17420867D01*
X719748Y18330004D02*
X383030Y17993287D01*
X383030Y17993287D02*
X686076Y17622898D01*
X686076Y17622898D02*
X686076Y17690241D01*
X686076Y17690241D02*
X719748Y17791256D01*
X719748Y17791256D02*
X888107Y17959615D01*
X888107Y17959615D02*
X989122Y17993287D01*
X989122Y17993287D02*
X1056465Y17993287D01*
X1056465Y17993287D02*
X1157481Y17959615D01*
X1157481Y17959615D02*
X1325839Y17791256D01*
X1325839Y17791256D02*
X1359511Y17690241D01*
X1359511Y17690241D02*
X1359511Y17622898D01*
X1359511Y17622898D02*
X1325839Y17521882D01*
X1325839Y17521882D02*
X1157481Y17353524D01*
X1157481Y17353524D02*
X1056465Y17319852D01*
X1056465Y17319852D02*
X989122Y17319852D01*
X1460527Y18464691D02*
X1359511Y18431020D01*
X1359511Y18431020D02*
X1292168Y18431020D01*
X1292168Y18431020D02*
X1191153Y18464691D01*
X1191153Y18464691D02*
X1157481Y18498363D01*
X1157481Y18498363D02*
X1123809Y18599378D01*
X1123809Y18599378D02*
X1123809Y18666722D01*
X1123809Y18666722D02*
X1157481Y18767737D01*
X1157481Y18767737D02*
X1292168Y18902424D01*
X1292168Y18902424D02*
X1393183Y18936096D01*
X1393183Y18936096D02*
X1460527Y18936096D01*
X1460527Y18936096D02*
X1561542Y18902424D01*
X1561542Y18902424D02*
X1595214Y18868752D01*
X1595214Y18868752D02*
X1628885Y18767737D01*
X1628885Y18767737D02*
X1628885Y18700394D01*
X1628885Y18700394D02*
X1595214Y18599378D01*
X1595214Y18599378D02*
X1460527Y18464691D01*
X1460527Y18464691D02*
X1426855Y18363676D01*
X1426855Y18363676D02*
X1426855Y18296333D01*
X1426855Y18296333D02*
X1460527Y18195317D01*
X1460527Y18195317D02*
X1595214Y18060630D01*
X1595214Y18060630D02*
X1696229Y18026959D01*
X1696229Y18026959D02*
X1763572Y18026959D01*
X1763572Y18026959D02*
X1864588Y18060630D01*
X1864588Y18060630D02*
X1999275Y18195317D01*
X1999275Y18195317D02*
X2032946Y18296333D01*
X2032946Y18296333D02*
X2032946Y18363676D01*
X2032946Y18363676D02*
X1999275Y18464691D01*
X1999275Y18464691D02*
X1864588Y18599378D01*
X1864588Y18599378D02*
X1763572Y18633050D01*
X1763572Y18633050D02*
X1696229Y18633050D01*
X1696229Y18633050D02*
X1595214Y18599378D01*
%TO.C,L42*%
X15854435Y-5449521D02*
X15517717Y-5786239D01*
X15517717Y-5786239D02*
X14810611Y-5079132D01*
X15921778Y-4439369D02*
X16393183Y-4910773D01*
X15484046Y-4338353D02*
X15820763Y-5011788D01*
X15820763Y-5011788D02*
X16258496Y-4574056D01*
X16090137Y-3934292D02*
X16090137Y-3866949D01*
X16090137Y-3866949D02*
X16123809Y-3765934D01*
X16123809Y-3765934D02*
X16292168Y-3597575D01*
X16292168Y-3597575D02*
X16393183Y-3563903D01*
X16393183Y-3563903D02*
X16460527Y-3563903D01*
X16460527Y-3563903D02*
X16561542Y-3597575D01*
X16561542Y-3597575D02*
X16628885Y-3664918D01*
X16628885Y-3664918D02*
X16696229Y-3799605D01*
X16696229Y-3799605D02*
X16696229Y-4607727D01*
X16696229Y-4607727D02*
X17133962Y-4169995D01*
%TO.C,L16*%
X854435Y-35449521D02*
X517717Y-35786239D01*
X517717Y-35786239D02*
X-189388Y-35079132D01*
X1460526Y-34843430D02*
X1056465Y-35247491D01*
X1258496Y-35045460D02*
X551389Y-34338353D01*
X551389Y-34338353D02*
X585061Y-34506712D01*
X585061Y-34506712D02*
X585061Y-34641399D01*
X585061Y-34641399D02*
X551389Y-34742414D01*
X1359511Y-33530231D02*
X1224824Y-33664918D01*
X1224824Y-33664918D02*
X1191153Y-33765934D01*
X1191153Y-33765934D02*
X1191153Y-33833277D01*
X1191153Y-33833277D02*
X1224824Y-34001636D01*
X1224824Y-34001636D02*
X1325840Y-34169995D01*
X1325840Y-34169995D02*
X1595214Y-34439369D01*
X1595214Y-34439369D02*
X1696229Y-34473040D01*
X1696229Y-34473040D02*
X1763572Y-34473040D01*
X1763572Y-34473040D02*
X1864588Y-34439369D01*
X1864588Y-34439369D02*
X1999275Y-34304682D01*
X1999275Y-34304682D02*
X2032946Y-34203666D01*
X2032946Y-34203666D02*
X2032946Y-34136323D01*
X2032946Y-34136323D02*
X1999275Y-34035308D01*
X1999275Y-34035308D02*
X1830916Y-33866949D01*
X1830916Y-33866949D02*
X1729901Y-33833277D01*
X1729901Y-33833277D02*
X1662557Y-33833277D01*
X1662557Y-33833277D02*
X1561542Y-33866949D01*
X1561542Y-33866949D02*
X1426855Y-34001636D01*
X1426855Y-34001636D02*
X1393183Y-34102651D01*
X1393183Y-34102651D02*
X1393183Y-34169995D01*
X1393183Y-34169995D02*
X1426855Y-34271010D01*
%TO.C,L79*%
X-21645564Y47050478D02*
X-21982282Y46713760D01*
X-21982282Y46713760D02*
X-22689388Y47420867D01*
X-22184312Y47925943D02*
X-21712908Y48397348D01*
X-21712908Y48397348D02*
X-21308847Y47387195D01*
X-20702755Y47993287D02*
X-20568068Y48127974D01*
X-20568068Y48127974D02*
X-20534396Y48228989D01*
X-20534396Y48228989D02*
X-20534396Y48296333D01*
X-20534396Y48296333D02*
X-20568068Y48464691D01*
X-20568068Y48464691D02*
X-20669083Y48633050D01*
X-20669083Y48633050D02*
X-20938457Y48902424D01*
X-20938457Y48902424D02*
X-21039472Y48936096D01*
X-21039472Y48936096D02*
X-21106816Y48936096D01*
X-21106816Y48936096D02*
X-21207831Y48902424D01*
X-21207831Y48902424D02*
X-21342518Y48767737D01*
X-21342518Y48767737D02*
X-21376190Y48666722D01*
X-21376190Y48666722D02*
X-21376190Y48599378D01*
X-21376190Y48599378D02*
X-21342518Y48498363D01*
X-21342518Y48498363D02*
X-21174159Y48330004D01*
X-21174159Y48330004D02*
X-21073144Y48296333D01*
X-21073144Y48296333D02*
X-21005801Y48296333D01*
X-21005801Y48296333D02*
X-20904785Y48330004D01*
X-20904785Y48330004D02*
X-20770098Y48464691D01*
X-20770098Y48464691D02*
X-20736427Y48565707D01*
X-20736427Y48565707D02*
X-20736427Y48633050D01*
X-20736427Y48633050D02*
X-20770098Y48734065D01*
%TO.C,L45*%
X-6645564Y2050478D02*
X-6982282Y1713760D01*
X-6982282Y1713760D02*
X-7689388Y2420867D01*
X-6578221Y3060630D02*
X-6106816Y2589226D01*
X-7015953Y3161646D02*
X-6679236Y2488211D01*
X-6679236Y2488211D02*
X-6241503Y2925943D01*
X-6106816Y4003439D02*
X-6443534Y3666722D01*
X-6443534Y3666722D02*
X-6140488Y3296333D01*
X-6140488Y3296333D02*
X-6140488Y3363676D01*
X-6140488Y3363676D02*
X-6106816Y3464691D01*
X-6106816Y3464691D02*
X-5938457Y3633050D01*
X-5938457Y3633050D02*
X-5837442Y3666722D01*
X-5837442Y3666722D02*
X-5770098Y3666722D01*
X-5770098Y3666722D02*
X-5669083Y3633050D01*
X-5669083Y3633050D02*
X-5500724Y3464691D01*
X-5500724Y3464691D02*
X-5467053Y3363676D01*
X-5467053Y3363676D02*
X-5467053Y3296333D01*
X-5467053Y3296333D02*
X-5500724Y3195317D01*
X-5500724Y3195317D02*
X-5669083Y3026959D01*
X-5669083Y3026959D02*
X-5770098Y2993287D01*
X-5770098Y2993287D02*
X-5837442Y2993287D01*
%TO.C,L38*%
X-14145564Y-5449521D02*
X-14482282Y-5786239D01*
X-14482282Y-5786239D02*
X-15189388Y-5079132D01*
X-14684312Y-4574056D02*
X-14246579Y-4136323D01*
X-14246579Y-4136323D02*
X-14212908Y-4641399D01*
X-14212908Y-4641399D02*
X-14111892Y-4540384D01*
X-14111892Y-4540384D02*
X-14010877Y-4506712D01*
X-14010877Y-4506712D02*
X-13943534Y-4506712D01*
X-13943534Y-4506712D02*
X-13842518Y-4540384D01*
X-13842518Y-4540384D02*
X-13674160Y-4708743D01*
X-13674160Y-4708743D02*
X-13640488Y-4809758D01*
X-13640488Y-4809758D02*
X-13640488Y-4877101D01*
X-13640488Y-4877101D02*
X-13674160Y-4978117D01*
X-13674160Y-4978117D02*
X-13876190Y-5180147D01*
X-13876190Y-5180147D02*
X-13977205Y-5213819D01*
X-13977205Y-5213819D02*
X-14044549Y-5213819D01*
X-13539472Y-4035308D02*
X-13640488Y-4068979D01*
X-13640488Y-4068979D02*
X-13707831Y-4068979D01*
X-13707831Y-4068979D02*
X-13808846Y-4035308D01*
X-13808846Y-4035308D02*
X-13842518Y-4001636D01*
X-13842518Y-4001636D02*
X-13876190Y-3900621D01*
X-13876190Y-3900621D02*
X-13876190Y-3833277D01*
X-13876190Y-3833277D02*
X-13842518Y-3732262D01*
X-13842518Y-3732262D02*
X-13707831Y-3597575D01*
X-13707831Y-3597575D02*
X-13606816Y-3563903D01*
X-13606816Y-3563903D02*
X-13539472Y-3563903D01*
X-13539472Y-3563903D02*
X-13438457Y-3597575D01*
X-13438457Y-3597575D02*
X-13404785Y-3631247D01*
X-13404785Y-3631247D02*
X-13371114Y-3732262D01*
X-13371114Y-3732262D02*
X-13371114Y-3799605D01*
X-13371114Y-3799605D02*
X-13404785Y-3900621D01*
X-13404785Y-3900621D02*
X-13539472Y-4035308D01*
X-13539472Y-4035308D02*
X-13573144Y-4136323D01*
X-13573144Y-4136323D02*
X-13573144Y-4203666D01*
X-13573144Y-4203666D02*
X-13539472Y-4304682D01*
X-13539472Y-4304682D02*
X-13404785Y-4439369D01*
X-13404785Y-4439369D02*
X-13303770Y-4473040D01*
X-13303770Y-4473040D02*
X-13236427Y-4473040D01*
X-13236427Y-4473040D02*
X-13135411Y-4439369D01*
X-13135411Y-4439369D02*
X-13000724Y-4304682D01*
X-13000724Y-4304682D02*
X-12967053Y-4203666D01*
X-12967053Y-4203666D02*
X-12967053Y-4136323D01*
X-12967053Y-4136323D02*
X-13000724Y-4035308D01*
X-13000724Y-4035308D02*
X-13135411Y-3900621D01*
X-13135411Y-3900621D02*
X-13236427Y-3866949D01*
X-13236427Y-3866949D02*
X-13303770Y-3866949D01*
X-13303770Y-3866949D02*
X-13404785Y-3900621D01*
%TO.C,H2*%
X14238095Y-60562619D02*
X14238095Y-59562619D01*
X14238095Y-60038809D02*
X14809523Y-60038809D01*
X14809523Y-60562619D02*
X14809523Y-59562619D01*
X15238095Y-59657857D02*
X15285714Y-59610238D01*
X15285714Y-59610238D02*
X15380952Y-59562619D01*
X15380952Y-59562619D02*
X15619047Y-59562619D01*
X15619047Y-59562619D02*
X15714285Y-59610238D01*
X15714285Y-59610238D02*
X15761904Y-59657857D01*
X15761904Y-59657857D02*
X15809523Y-59753095D01*
X15809523Y-59753095D02*
X15809523Y-59848333D01*
X15809523Y-59848333D02*
X15761904Y-59991190D01*
X15761904Y-59991190D02*
X15190476Y-60562619D01*
X15190476Y-60562619D02*
X15809523Y-60562619D01*
%TO.C,L85*%
X-21645564Y54550478D02*
X-21982282Y54213760D01*
X-21982282Y54213760D02*
X-22689388Y54920867D01*
X-21712908Y55291256D02*
X-21813923Y55257585D01*
X-21813923Y55257585D02*
X-21881266Y55257585D01*
X-21881266Y55257585D02*
X-21982282Y55291256D01*
X-21982282Y55291256D02*
X-22015953Y55324928D01*
X-22015953Y55324928D02*
X-22049625Y55425943D01*
X-22049625Y55425943D02*
X-22049625Y55493287D01*
X-22049625Y55493287D02*
X-22015953Y55594302D01*
X-22015953Y55594302D02*
X-21881266Y55728989D01*
X-21881266Y55728989D02*
X-21780251Y55762661D01*
X-21780251Y55762661D02*
X-21712908Y55762661D01*
X-21712908Y55762661D02*
X-21611892Y55728989D01*
X-21611892Y55728989D02*
X-21578221Y55695317D01*
X-21578221Y55695317D02*
X-21544549Y55594302D01*
X-21544549Y55594302D02*
X-21544549Y55526959D01*
X-21544549Y55526959D02*
X-21578221Y55425943D01*
X-21578221Y55425943D02*
X-21712908Y55291256D01*
X-21712908Y55291256D02*
X-21746579Y55190241D01*
X-21746579Y55190241D02*
X-21746579Y55122898D01*
X-21746579Y55122898D02*
X-21712908Y55021882D01*
X-21712908Y55021882D02*
X-21578221Y54887195D01*
X-21578221Y54887195D02*
X-21477205Y54853524D01*
X-21477205Y54853524D02*
X-21409862Y54853524D01*
X-21409862Y54853524D02*
X-21308847Y54887195D01*
X-21308847Y54887195D02*
X-21174160Y55021882D01*
X-21174160Y55021882D02*
X-21140488Y55122898D01*
X-21140488Y55122898D02*
X-21140488Y55190241D01*
X-21140488Y55190241D02*
X-21174160Y55291256D01*
X-21174160Y55291256D02*
X-21308847Y55425943D01*
X-21308847Y55425943D02*
X-21409862Y55459615D01*
X-21409862Y55459615D02*
X-21477205Y55459615D01*
X-21477205Y55459615D02*
X-21578221Y55425943D01*
X-21106816Y56503439D02*
X-21443534Y56166722D01*
X-21443534Y56166722D02*
X-21140488Y55796333D01*
X-21140488Y55796333D02*
X-21140488Y55863676D01*
X-21140488Y55863676D02*
X-21106816Y55964691D01*
X-21106816Y55964691D02*
X-20938457Y56133050D01*
X-20938457Y56133050D02*
X-20837442Y56166722D01*
X-20837442Y56166722D02*
X-20770098Y56166722D01*
X-20770098Y56166722D02*
X-20669083Y56133050D01*
X-20669083Y56133050D02*
X-20500724Y55964691D01*
X-20500724Y55964691D02*
X-20467053Y55863676D01*
X-20467053Y55863676D02*
X-20467053Y55796333D01*
X-20467053Y55796333D02*
X-20500724Y55695317D01*
X-20500724Y55695317D02*
X-20669083Y55526959D01*
X-20669083Y55526959D02*
X-20770098Y55493287D01*
X-20770098Y55493287D02*
X-20837442Y55493287D01*
%TO.C,L1*%
X-21308846Y-50112803D02*
X-21645564Y-50449521D01*
X-21645564Y-50449521D02*
X-22352671Y-49742414D01*
X-20702755Y-49506712D02*
X-21106816Y-49910773D01*
X-20904785Y-49708742D02*
X-21611892Y-49001635D01*
X-21611892Y-49001635D02*
X-21578220Y-49169994D01*
X-21578220Y-49169994D02*
X-21578220Y-49304681D01*
X-21578220Y-49304681D02*
X-21611892Y-49405697D01*
%TO.C,L61*%
X-22160974Y24869548D02*
X-22637164Y24869548D01*
X-22637164Y24869548D02*
X-22637164Y25869548D01*
X-21399069Y25869548D02*
X-21589545Y25869548D01*
X-21589545Y25869548D02*
X-21684783Y25821929D01*
X-21684783Y25821929D02*
X-21732402Y25774310D01*
X-21732402Y25774310D02*
X-21827640Y25631453D01*
X-21827640Y25631453D02*
X-21875259Y25440977D01*
X-21875259Y25440977D02*
X-21875259Y25060025D01*
X-21875259Y25060025D02*
X-21827640Y24964787D01*
X-21827640Y24964787D02*
X-21780021Y24917168D01*
X-21780021Y24917168D02*
X-21684783Y24869548D01*
X-21684783Y24869548D02*
X-21494307Y24869548D01*
X-21494307Y24869548D02*
X-21399069Y24917168D01*
X-21399069Y24917168D02*
X-21351450Y24964787D01*
X-21351450Y24964787D02*
X-21303831Y25060025D01*
X-21303831Y25060025D02*
X-21303831Y25298120D01*
X-21303831Y25298120D02*
X-21351450Y25393358D01*
X-21351450Y25393358D02*
X-21399069Y25440977D01*
X-21399069Y25440977D02*
X-21494307Y25488596D01*
X-21494307Y25488596D02*
X-21684783Y25488596D01*
X-21684783Y25488596D02*
X-21780021Y25440977D01*
X-21780021Y25440977D02*
X-21827640Y25393358D01*
X-21827640Y25393358D02*
X-21875259Y25298120D01*
X-20351450Y24869548D02*
X-20922878Y24869548D01*
X-20637164Y24869548D02*
X-20637164Y25869548D01*
X-20637164Y25869548D02*
X-20732402Y25726691D01*
X-20732402Y25726691D02*
X-20827640Y25631453D01*
X-20827640Y25631453D02*
X-20922878Y25583834D01*
%TO.C,L89*%
X7839025Y54869548D02*
X7362835Y54869548D01*
X7362835Y54869548D02*
X7362835Y55869548D01*
X8315216Y55440977D02*
X8219978Y55488596D01*
X8219978Y55488596D02*
X8172359Y55536215D01*
X8172359Y55536215D02*
X8124740Y55631453D01*
X8124740Y55631453D02*
X8124740Y55679072D01*
X8124740Y55679072D02*
X8172359Y55774310D01*
X8172359Y55774310D02*
X8219978Y55821929D01*
X8219978Y55821929D02*
X8315216Y55869548D01*
X8315216Y55869548D02*
X8505692Y55869548D01*
X8505692Y55869548D02*
X8600930Y55821929D01*
X8600930Y55821929D02*
X8648549Y55774310D01*
X8648549Y55774310D02*
X8696168Y55679072D01*
X8696168Y55679072D02*
X8696168Y55631453D01*
X8696168Y55631453D02*
X8648549Y55536215D01*
X8648549Y55536215D02*
X8600930Y55488596D01*
X8600930Y55488596D02*
X8505692Y55440977D01*
X8505692Y55440977D02*
X8315216Y55440977D01*
X8315216Y55440977D02*
X8219978Y55393358D01*
X8219978Y55393358D02*
X8172359Y55345739D01*
X8172359Y55345739D02*
X8124740Y55250501D01*
X8124740Y55250501D02*
X8124740Y55060025D01*
X8124740Y55060025D02*
X8172359Y54964787D01*
X8172359Y54964787D02*
X8219978Y54917168D01*
X8219978Y54917168D02*
X8315216Y54869548D01*
X8315216Y54869548D02*
X8505692Y54869548D01*
X8505692Y54869548D02*
X8600930Y54917168D01*
X8600930Y54917168D02*
X8648549Y54964787D01*
X8648549Y54964787D02*
X8696168Y55060025D01*
X8696168Y55060025D02*
X8696168Y55250501D01*
X8696168Y55250501D02*
X8648549Y55345739D01*
X8648549Y55345739D02*
X8600930Y55393358D01*
X8600930Y55393358D02*
X8505692Y55440977D01*
X9172359Y54869548D02*
X9362835Y54869548D01*
X9362835Y54869548D02*
X9458073Y54917168D01*
X9458073Y54917168D02*
X9505692Y54964787D01*
X9505692Y54964787D02*
X9600930Y55107644D01*
X9600930Y55107644D02*
X9648549Y55298120D01*
X9648549Y55298120D02*
X9648549Y55679072D01*
X9648549Y55679072D02*
X9600930Y55774310D01*
X9600930Y55774310D02*
X9553311Y55821929D01*
X9553311Y55821929D02*
X9458073Y55869548D01*
X9458073Y55869548D02*
X9267597Y55869548D01*
X9267597Y55869548D02*
X9172359Y55821929D01*
X9172359Y55821929D02*
X9124740Y55774310D01*
X9124740Y55774310D02*
X9077121Y55679072D01*
X9077121Y55679072D02*
X9077121Y55440977D01*
X9077121Y55440977D02*
X9124740Y55345739D01*
X9124740Y55345739D02*
X9172359Y55298120D01*
X9172359Y55298120D02*
X9267597Y55250501D01*
X9267597Y55250501D02*
X9458073Y55250501D01*
X9458073Y55250501D02*
X9553311Y55298120D01*
X9553311Y55298120D02*
X9600930Y55345739D01*
X9600930Y55345739D02*
X9648549Y55440977D01*
%TO.C,L4*%
X815216Y-50130451D02*
X339026Y-50130451D01*
X339026Y-50130451D02*
X339026Y-49130451D01*
X1577121Y-49463784D02*
X1577121Y-50130451D01*
X1339026Y-49082832D02*
X1100931Y-49797117D01*
X1100931Y-49797117D02*
X1719978Y-49797117D01*
%TO.C,H12*%
X-1238094Y63737380D02*
X-1238094Y64737380D01*
X-1238094Y64261190D02*
X-666666Y64261190D01*
X-666666Y63737380D02*
X-666666Y64737380D01*
X333333Y63737380D02*
X-238094Y63737380D01*
X47619Y63737380D02*
X47619Y64737380D01*
X47619Y64737380D02*
X-47618Y64594523D01*
X-47618Y64594523D02*
X-142856Y64499285D01*
X-142856Y64499285D02*
X-238094Y64451666D01*
X714286Y64642142D02*
X761905Y64689761D01*
X761905Y64689761D02*
X857143Y64737380D01*
X857143Y64737380D02*
X1095238Y64737380D01*
X1095238Y64737380D02*
X1190476Y64689761D01*
X1190476Y64689761D02*
X1238095Y64642142D01*
X1238095Y64642142D02*
X1285714Y64546904D01*
X1285714Y64546904D02*
X1285714Y64451666D01*
X1285714Y64451666D02*
X1238095Y64308809D01*
X1238095Y64308809D02*
X666667Y63737380D01*
X666667Y63737380D02*
X1285714Y63737380D01*
%TO.C,L50*%
X-14660974Y9869548D02*
X-15137164Y9869548D01*
X-15137164Y9869548D02*
X-15137164Y10869548D01*
X-13851450Y10869548D02*
X-14327640Y10869548D01*
X-14327640Y10869548D02*
X-14375259Y10393358D01*
X-14375259Y10393358D02*
X-14327640Y10440977D01*
X-14327640Y10440977D02*
X-14232402Y10488596D01*
X-14232402Y10488596D02*
X-13994307Y10488596D01*
X-13994307Y10488596D02*
X-13899069Y10440977D01*
X-13899069Y10440977D02*
X-13851450Y10393358D01*
X-13851450Y10393358D02*
X-13803831Y10298120D01*
X-13803831Y10298120D02*
X-13803831Y10060025D01*
X-13803831Y10060025D02*
X-13851450Y9964787D01*
X-13851450Y9964787D02*
X-13899069Y9917168D01*
X-13899069Y9917168D02*
X-13994307Y9869548D01*
X-13994307Y9869548D02*
X-14232402Y9869548D01*
X-14232402Y9869548D02*
X-14327640Y9917168D01*
X-14327640Y9917168D02*
X-14375259Y9964787D01*
X-13184783Y10869548D02*
X-13089545Y10869548D01*
X-13089545Y10869548D02*
X-12994307Y10821929D01*
X-12994307Y10821929D02*
X-12946688Y10774310D01*
X-12946688Y10774310D02*
X-12899069Y10679072D01*
X-12899069Y10679072D02*
X-12851450Y10488596D01*
X-12851450Y10488596D02*
X-12851450Y10250501D01*
X-12851450Y10250501D02*
X-12899069Y10060025D01*
X-12899069Y10060025D02*
X-12946688Y9964787D01*
X-12946688Y9964787D02*
X-12994307Y9917168D01*
X-12994307Y9917168D02*
X-13089545Y9869548D01*
X-13089545Y9869548D02*
X-13184783Y9869548D01*
X-13184783Y9869548D02*
X-13280021Y9917168D01*
X-13280021Y9917168D02*
X-13327640Y9964787D01*
X-13327640Y9964787D02*
X-13375259Y10060025D01*
X-13375259Y10060025D02*
X-13422878Y10250501D01*
X-13422878Y10250501D02*
X-13422878Y10488596D01*
X-13422878Y10488596D02*
X-13375259Y10679072D01*
X-13375259Y10679072D02*
X-13327640Y10774310D01*
X-13327640Y10774310D02*
X-13280021Y10821929D01*
X-13280021Y10821929D02*
X-13184783Y10869548D01*
%TO.C,L75*%
X-7160974Y39869548D02*
X-7637164Y39869548D01*
X-7637164Y39869548D02*
X-7637164Y40869548D01*
X-6922878Y40869548D02*
X-6256212Y40869548D01*
X-6256212Y40869548D02*
X-6684783Y39869548D01*
X-5399069Y40869548D02*
X-5875259Y40869548D01*
X-5875259Y40869548D02*
X-5922878Y40393358D01*
X-5922878Y40393358D02*
X-5875259Y40440977D01*
X-5875259Y40440977D02*
X-5780021Y40488596D01*
X-5780021Y40488596D02*
X-5541926Y40488596D01*
X-5541926Y40488596D02*
X-5446688Y40440977D01*
X-5446688Y40440977D02*
X-5399069Y40393358D01*
X-5399069Y40393358D02*
X-5351450Y40298120D01*
X-5351450Y40298120D02*
X-5351450Y40060025D01*
X-5351450Y40060025D02*
X-5399069Y39964787D01*
X-5399069Y39964787D02*
X-5446688Y39917168D01*
X-5446688Y39917168D02*
X-5541926Y39869548D01*
X-5541926Y39869548D02*
X-5780021Y39869548D01*
X-5780021Y39869548D02*
X-5875259Y39917168D01*
X-5875259Y39917168D02*
X-5922878Y39964787D01*
%TO.C,L3*%
X-6308846Y-50112803D02*
X-6645564Y-50449521D01*
X-6645564Y-50449521D02*
X-7352671Y-49742414D01*
X-6847594Y-49237338D02*
X-6409861Y-48799605D01*
X-6409861Y-48799605D02*
X-6376190Y-49304681D01*
X-6376190Y-49304681D02*
X-6275174Y-49203666D01*
X-6275174Y-49203666D02*
X-6174159Y-49169994D01*
X-6174159Y-49169994D02*
X-6106816Y-49169994D01*
X-6106816Y-49169994D02*
X-6005800Y-49203666D01*
X-6005800Y-49203666D02*
X-5837442Y-49372025D01*
X-5837442Y-49372025D02*
X-5803770Y-49473040D01*
X-5803770Y-49473040D02*
X-5803770Y-49540384D01*
X-5803770Y-49540384D02*
X-5837442Y-49641399D01*
X-5837442Y-49641399D02*
X-6039472Y-49843429D01*
X-6039472Y-49843429D02*
X-6140487Y-49877101D01*
X-6140487Y-49877101D02*
X-6207831Y-49877101D01*
%TO.C,H5*%
X14238095Y74437380D02*
X14238095Y75437380D01*
X14238095Y74961190D02*
X14809523Y74961190D01*
X14809523Y74437380D02*
X14809523Y75437380D01*
X15761904Y75437380D02*
X15285714Y75437380D01*
X15285714Y75437380D02*
X15238095Y74961190D01*
X15238095Y74961190D02*
X15285714Y75008809D01*
X15285714Y75008809D02*
X15380952Y75056428D01*
X15380952Y75056428D02*
X15619047Y75056428D01*
X15619047Y75056428D02*
X15714285Y75008809D01*
X15714285Y75008809D02*
X15761904Y74961190D01*
X15761904Y74961190D02*
X15809523Y74865952D01*
X15809523Y74865952D02*
X15809523Y74627857D01*
X15809523Y74627857D02*
X15761904Y74532619D01*
X15761904Y74532619D02*
X15714285Y74485000D01*
X15714285Y74485000D02*
X15619047Y74437380D01*
X15619047Y74437380D02*
X15380952Y74437380D01*
X15380952Y74437380D02*
X15285714Y74485000D01*
X15285714Y74485000D02*
X15238095Y74532619D01*
%TO.C,L76*%
X339025Y39869548D02*
X-137164Y39869548D01*
X-137164Y39869548D02*
X-137164Y40869548D01*
X577121Y40869548D02*
X1243787Y40869548D01*
X1243787Y40869548D02*
X815216Y39869548D01*
X2053311Y40869548D02*
X1862835Y40869548D01*
X1862835Y40869548D02*
X1767597Y40821929D01*
X1767597Y40821929D02*
X1719978Y40774310D01*
X1719978Y40774310D02*
X1624740Y40631453D01*
X1624740Y40631453D02*
X1577121Y40440977D01*
X1577121Y40440977D02*
X1577121Y40060025D01*
X1577121Y40060025D02*
X1624740Y39964787D01*
X1624740Y39964787D02*
X1672359Y39917168D01*
X1672359Y39917168D02*
X1767597Y39869548D01*
X1767597Y39869548D02*
X1958073Y39869548D01*
X1958073Y39869548D02*
X2053311Y39917168D01*
X2053311Y39917168D02*
X2100930Y39964787D01*
X2100930Y39964787D02*
X2148549Y40060025D01*
X2148549Y40060025D02*
X2148549Y40298120D01*
X2148549Y40298120D02*
X2100930Y40393358D01*
X2100930Y40393358D02*
X2053311Y40440977D01*
X2053311Y40440977D02*
X1958073Y40488596D01*
X1958073Y40488596D02*
X1767597Y40488596D01*
X1767597Y40488596D02*
X1672359Y40440977D01*
X1672359Y40440977D02*
X1624740Y40393358D01*
X1624740Y40393358D02*
X1577121Y40298120D01*
%TO.C,L27*%
X-7160974Y-20130451D02*
X-7637164Y-20130451D01*
X-7637164Y-20130451D02*
X-7637164Y-19130451D01*
X-6875259Y-19225689D02*
X-6827640Y-19178070D01*
X-6827640Y-19178070D02*
X-6732402Y-19130451D01*
X-6732402Y-19130451D02*
X-6494307Y-19130451D01*
X-6494307Y-19130451D02*
X-6399069Y-19178070D01*
X-6399069Y-19178070D02*
X-6351450Y-19225689D01*
X-6351450Y-19225689D02*
X-6303831Y-19320927D01*
X-6303831Y-19320927D02*
X-6303831Y-19416165D01*
X-6303831Y-19416165D02*
X-6351450Y-19559022D01*
X-6351450Y-19559022D02*
X-6922878Y-20130451D01*
X-6922878Y-20130451D02*
X-6303831Y-20130451D01*
X-5970497Y-19130451D02*
X-5303831Y-19130451D01*
X-5303831Y-19130451D02*
X-5732402Y-20130451D01*
%TO.C,L7*%
X-21684783Y-42630451D02*
X-22160973Y-42630451D01*
X-22160973Y-42630451D02*
X-22160973Y-41630451D01*
X-21446687Y-41630451D02*
X-20780021Y-41630451D01*
X-20780021Y-41630451D02*
X-21208592Y-42630451D01*
%TO.C,L64*%
X339025Y24869548D02*
X-137164Y24869548D01*
X-137164Y24869548D02*
X-137164Y25869548D01*
X1100930Y25869548D02*
X910454Y25869548D01*
X910454Y25869548D02*
X815216Y25821929D01*
X815216Y25821929D02*
X767597Y25774310D01*
X767597Y25774310D02*
X672359Y25631453D01*
X672359Y25631453D02*
X624740Y25440977D01*
X624740Y25440977D02*
X624740Y25060025D01*
X624740Y25060025D02*
X672359Y24964787D01*
X672359Y24964787D02*
X719978Y24917168D01*
X719978Y24917168D02*
X815216Y24869548D01*
X815216Y24869548D02*
X1005692Y24869548D01*
X1005692Y24869548D02*
X1100930Y24917168D01*
X1100930Y24917168D02*
X1148549Y24964787D01*
X1148549Y24964787D02*
X1196168Y25060025D01*
X1196168Y25060025D02*
X1196168Y25298120D01*
X1196168Y25298120D02*
X1148549Y25393358D01*
X1148549Y25393358D02*
X1100930Y25440977D01*
X1100930Y25440977D02*
X1005692Y25488596D01*
X1005692Y25488596D02*
X815216Y25488596D01*
X815216Y25488596D02*
X719978Y25440977D01*
X719978Y25440977D02*
X672359Y25393358D01*
X672359Y25393358D02*
X624740Y25298120D01*
X2053311Y25536215D02*
X2053311Y24869548D01*
X1815216Y25917168D02*
X1577121Y25202882D01*
X1577121Y25202882D02*
X2196168Y25202882D01*
%TO.C,L35*%
X7839025Y-12630451D02*
X7362835Y-12630451D01*
X7362835Y-12630451D02*
X7362835Y-11630451D01*
X8077121Y-11630451D02*
X8696168Y-11630451D01*
X8696168Y-11630451D02*
X8362835Y-12011403D01*
X8362835Y-12011403D02*
X8505692Y-12011403D01*
X8505692Y-12011403D02*
X8600930Y-12059022D01*
X8600930Y-12059022D02*
X8648549Y-12106641D01*
X8648549Y-12106641D02*
X8696168Y-12201879D01*
X8696168Y-12201879D02*
X8696168Y-12439974D01*
X8696168Y-12439974D02*
X8648549Y-12535212D01*
X8648549Y-12535212D02*
X8600930Y-12582832D01*
X8600930Y-12582832D02*
X8505692Y-12630451D01*
X8505692Y-12630451D02*
X8219978Y-12630451D01*
X8219978Y-12630451D02*
X8124740Y-12582832D01*
X8124740Y-12582832D02*
X8077121Y-12535212D01*
X9600930Y-11630451D02*
X9124740Y-11630451D01*
X9124740Y-11630451D02*
X9077121Y-12106641D01*
X9077121Y-12106641D02*
X9124740Y-12059022D01*
X9124740Y-12059022D02*
X9219978Y-12011403D01*
X9219978Y-12011403D02*
X9458073Y-12011403D01*
X9458073Y-12011403D02*
X9553311Y-12059022D01*
X9553311Y-12059022D02*
X9600930Y-12106641D01*
X9600930Y-12106641D02*
X9648549Y-12201879D01*
X9648549Y-12201879D02*
X9648549Y-12439974D01*
X9648549Y-12439974D02*
X9600930Y-12535212D01*
X9600930Y-12535212D02*
X9553311Y-12582832D01*
X9553311Y-12582832D02*
X9458073Y-12630451D01*
X9458073Y-12630451D02*
X9219978Y-12630451D01*
X9219978Y-12630451D02*
X9124740Y-12582832D01*
X9124740Y-12582832D02*
X9077121Y-12535212D01*
%TO.C,L12*%
X15339025Y-42630451D02*
X14862835Y-42630451D01*
X14862835Y-42630451D02*
X14862835Y-41630451D01*
X16196168Y-42630451D02*
X15624740Y-42630451D01*
X15910454Y-42630451D02*
X15910454Y-41630451D01*
X15910454Y-41630451D02*
X15815216Y-41773308D01*
X15815216Y-41773308D02*
X15719978Y-41868546D01*
X15719978Y-41868546D02*
X15624740Y-41916165D01*
X16577121Y-41725689D02*
X16624740Y-41678070D01*
X16624740Y-41678070D02*
X16719978Y-41630451D01*
X16719978Y-41630451D02*
X16958073Y-41630451D01*
X16958073Y-41630451D02*
X17053311Y-41678070D01*
X17053311Y-41678070D02*
X17100930Y-41725689D01*
X17100930Y-41725689D02*
X17148549Y-41820927D01*
X17148549Y-41820927D02*
X17148549Y-41916165D01*
X17148549Y-41916165D02*
X17100930Y-42059022D01*
X17100930Y-42059022D02*
X16529502Y-42630451D01*
X16529502Y-42630451D02*
X17148549Y-42630451D01*
%TO.C,L65*%
X7839025Y24869548D02*
X7362835Y24869548D01*
X7362835Y24869548D02*
X7362835Y25869548D01*
X8600930Y25869548D02*
X8410454Y25869548D01*
X8410454Y25869548D02*
X8315216Y25821929D01*
X8315216Y25821929D02*
X8267597Y25774310D01*
X8267597Y25774310D02*
X8172359Y25631453D01*
X8172359Y25631453D02*
X8124740Y25440977D01*
X8124740Y25440977D02*
X8124740Y25060025D01*
X8124740Y25060025D02*
X8172359Y24964787D01*
X8172359Y24964787D02*
X8219978Y24917168D01*
X8219978Y24917168D02*
X8315216Y24869548D01*
X8315216Y24869548D02*
X8505692Y24869548D01*
X8505692Y24869548D02*
X8600930Y24917168D01*
X8600930Y24917168D02*
X8648549Y24964787D01*
X8648549Y24964787D02*
X8696168Y25060025D01*
X8696168Y25060025D02*
X8696168Y25298120D01*
X8696168Y25298120D02*
X8648549Y25393358D01*
X8648549Y25393358D02*
X8600930Y25440977D01*
X8600930Y25440977D02*
X8505692Y25488596D01*
X8505692Y25488596D02*
X8315216Y25488596D01*
X8315216Y25488596D02*
X8219978Y25440977D01*
X8219978Y25440977D02*
X8172359Y25393358D01*
X8172359Y25393358D02*
X8124740Y25298120D01*
X9600930Y25869548D02*
X9124740Y25869548D01*
X9124740Y25869548D02*
X9077121Y25393358D01*
X9077121Y25393358D02*
X9124740Y25440977D01*
X9124740Y25440977D02*
X9219978Y25488596D01*
X9219978Y25488596D02*
X9458073Y25488596D01*
X9458073Y25488596D02*
X9553311Y25440977D01*
X9553311Y25440977D02*
X9600930Y25393358D01*
X9600930Y25393358D02*
X9648549Y25298120D01*
X9648549Y25298120D02*
X9648549Y25060025D01*
X9648549Y25060025D02*
X9600930Y24964787D01*
X9600930Y24964787D02*
X9553311Y24917168D01*
X9553311Y24917168D02*
X9458073Y24869548D01*
X9458073Y24869548D02*
X9219978Y24869548D01*
X9219978Y24869548D02*
X9124740Y24917168D01*
X9124740Y24917168D02*
X9077121Y24964787D01*
%TO.C,L53*%
X7839025Y9869548D02*
X7362835Y9869548D01*
X7362835Y9869548D02*
X7362835Y10869548D01*
X8648549Y10869548D02*
X8172359Y10869548D01*
X8172359Y10869548D02*
X8124740Y10393358D01*
X8124740Y10393358D02*
X8172359Y10440977D01*
X8172359Y10440977D02*
X8267597Y10488596D01*
X8267597Y10488596D02*
X8505692Y10488596D01*
X8505692Y10488596D02*
X8600930Y10440977D01*
X8600930Y10440977D02*
X8648549Y10393358D01*
X8648549Y10393358D02*
X8696168Y10298120D01*
X8696168Y10298120D02*
X8696168Y10060025D01*
X8696168Y10060025D02*
X8648549Y9964787D01*
X8648549Y9964787D02*
X8600930Y9917168D01*
X8600930Y9917168D02*
X8505692Y9869548D01*
X8505692Y9869548D02*
X8267597Y9869548D01*
X8267597Y9869548D02*
X8172359Y9917168D01*
X8172359Y9917168D02*
X8124740Y9964787D01*
X9029502Y10869548D02*
X9648549Y10869548D01*
X9648549Y10869548D02*
X9315216Y10488596D01*
X9315216Y10488596D02*
X9458073Y10488596D01*
X9458073Y10488596D02*
X9553311Y10440977D01*
X9553311Y10440977D02*
X9600930Y10393358D01*
X9600930Y10393358D02*
X9648549Y10298120D01*
X9648549Y10298120D02*
X9648549Y10060025D01*
X9648549Y10060025D02*
X9600930Y9964787D01*
X9600930Y9964787D02*
X9553311Y9917168D01*
X9553311Y9917168D02*
X9458073Y9869548D01*
X9458073Y9869548D02*
X9172359Y9869548D01*
X9172359Y9869548D02*
X9077121Y9917168D01*
X9077121Y9917168D02*
X9029502Y9964787D01*
%TO.C,L60*%
X18139168Y17069406D02*
X17662978Y17069406D01*
X17662978Y17069406D02*
X17662978Y18069406D01*
X18901073Y18069406D02*
X18710597Y18069406D01*
X18710597Y18069406D02*
X18615359Y18021787D01*
X18615359Y18021787D02*
X18567740Y17974168D01*
X18567740Y17974168D02*
X18472502Y17831311D01*
X18472502Y17831311D02*
X18424883Y17640835D01*
X18424883Y17640835D02*
X18424883Y17259883D01*
X18424883Y17259883D02*
X18472502Y17164645D01*
X18472502Y17164645D02*
X18520121Y17117026D01*
X18520121Y17117026D02*
X18615359Y17069406D01*
X18615359Y17069406D02*
X18805835Y17069406D01*
X18805835Y17069406D02*
X18901073Y17117026D01*
X18901073Y17117026D02*
X18948692Y17164645D01*
X18948692Y17164645D02*
X18996311Y17259883D01*
X18996311Y17259883D02*
X18996311Y17497978D01*
X18996311Y17497978D02*
X18948692Y17593216D01*
X18948692Y17593216D02*
X18901073Y17640835D01*
X18901073Y17640835D02*
X18805835Y17688454D01*
X18805835Y17688454D02*
X18615359Y17688454D01*
X18615359Y17688454D02*
X18520121Y17640835D01*
X18520121Y17640835D02*
X18472502Y17593216D01*
X18472502Y17593216D02*
X18424883Y17497978D01*
X19615359Y18069406D02*
X19710597Y18069406D01*
X19710597Y18069406D02*
X19805835Y18021787D01*
X19805835Y18021787D02*
X19853454Y17974168D01*
X19853454Y17974168D02*
X19901073Y17878930D01*
X19901073Y17878930D02*
X19948692Y17688454D01*
X19948692Y17688454D02*
X19948692Y17450359D01*
X19948692Y17450359D02*
X19901073Y17259883D01*
X19901073Y17259883D02*
X19853454Y17164645D01*
X19853454Y17164645D02*
X19805835Y17117026D01*
X19805835Y17117026D02*
X19710597Y17069406D01*
X19710597Y17069406D02*
X19615359Y17069406D01*
X19615359Y17069406D02*
X19520121Y17117026D01*
X19520121Y17117026D02*
X19472502Y17164645D01*
X19472502Y17164645D02*
X19424883Y17259883D01*
X19424883Y17259883D02*
X19377264Y17450359D01*
X19377264Y17450359D02*
X19377264Y17688454D01*
X19377264Y17688454D02*
X19424883Y17878930D01*
X19424883Y17878930D02*
X19472502Y17974168D01*
X19472502Y17974168D02*
X19520121Y18021787D01*
X19520121Y18021787D02*
X19615359Y18069406D01*
%TO.C,L78*%
X15339025Y39869548D02*
X14862835Y39869548D01*
X14862835Y39869548D02*
X14862835Y40869548D01*
X15577121Y40869548D02*
X16243787Y40869548D01*
X16243787Y40869548D02*
X15815216Y39869548D01*
X16767597Y40440977D02*
X16672359Y40488596D01*
X16672359Y40488596D02*
X16624740Y40536215D01*
X16624740Y40536215D02*
X16577121Y40631453D01*
X16577121Y40631453D02*
X16577121Y40679072D01*
X16577121Y40679072D02*
X16624740Y40774310D01*
X16624740Y40774310D02*
X16672359Y40821929D01*
X16672359Y40821929D02*
X16767597Y40869548D01*
X16767597Y40869548D02*
X16958073Y40869548D01*
X16958073Y40869548D02*
X17053311Y40821929D01*
X17053311Y40821929D02*
X17100930Y40774310D01*
X17100930Y40774310D02*
X17148549Y40679072D01*
X17148549Y40679072D02*
X17148549Y40631453D01*
X17148549Y40631453D02*
X17100930Y40536215D01*
X17100930Y40536215D02*
X17053311Y40488596D01*
X17053311Y40488596D02*
X16958073Y40440977D01*
X16958073Y40440977D02*
X16767597Y40440977D01*
X16767597Y40440977D02*
X16672359Y40393358D01*
X16672359Y40393358D02*
X16624740Y40345739D01*
X16624740Y40345739D02*
X16577121Y40250501D01*
X16577121Y40250501D02*
X16577121Y40060025D01*
X16577121Y40060025D02*
X16624740Y39964787D01*
X16624740Y39964787D02*
X16672359Y39917168D01*
X16672359Y39917168D02*
X16767597Y39869548D01*
X16767597Y39869548D02*
X16958073Y39869548D01*
X16958073Y39869548D02*
X17053311Y39917168D01*
X17053311Y39917168D02*
X17100930Y39964787D01*
X17100930Y39964787D02*
X17148549Y40060025D01*
X17148549Y40060025D02*
X17148549Y40250501D01*
X17148549Y40250501D02*
X17100930Y40345739D01*
X17100930Y40345739D02*
X17053311Y40393358D01*
X17053311Y40393358D02*
X16958073Y40440977D01*
%TO.C,L23*%
X7839025Y-27630451D02*
X7362835Y-27630451D01*
X7362835Y-27630451D02*
X7362835Y-26630451D01*
X8124740Y-26725689D02*
X8172359Y-26678070D01*
X8172359Y-26678070D02*
X8267597Y-26630451D01*
X8267597Y-26630451D02*
X8505692Y-26630451D01*
X8505692Y-26630451D02*
X8600930Y-26678070D01*
X8600930Y-26678070D02*
X8648549Y-26725689D01*
X8648549Y-26725689D02*
X8696168Y-26820927D01*
X8696168Y-26820927D02*
X8696168Y-26916165D01*
X8696168Y-26916165D02*
X8648549Y-27059022D01*
X8648549Y-27059022D02*
X8077121Y-27630451D01*
X8077121Y-27630451D02*
X8696168Y-27630451D01*
X9029502Y-26630451D02*
X9648549Y-26630451D01*
X9648549Y-26630451D02*
X9315216Y-27011403D01*
X9315216Y-27011403D02*
X9458073Y-27011403D01*
X9458073Y-27011403D02*
X9553311Y-27059022D01*
X9553311Y-27059022D02*
X9600930Y-27106641D01*
X9600930Y-27106641D02*
X9648549Y-27201879D01*
X9648549Y-27201879D02*
X9648549Y-27439974D01*
X9648549Y-27439974D02*
X9600930Y-27535212D01*
X9600930Y-27535212D02*
X9553311Y-27582832D01*
X9553311Y-27582832D02*
X9458073Y-27630451D01*
X9458073Y-27630451D02*
X9172359Y-27630451D01*
X9172359Y-27630451D02*
X9077121Y-27582832D01*
X9077121Y-27582832D02*
X9029502Y-27535212D01*
%TO.C,L41*%
X7839025Y-5130451D02*
X7362835Y-5130451D01*
X7362835Y-5130451D02*
X7362835Y-4130451D01*
X8600930Y-4463784D02*
X8600930Y-5130451D01*
X8362835Y-4082832D02*
X8124740Y-4797117D01*
X8124740Y-4797117D02*
X8743787Y-4797117D01*
X9648549Y-5130451D02*
X9077121Y-5130451D01*
X9362835Y-5130451D02*
X9362835Y-4130451D01*
X9362835Y-4130451D02*
X9267597Y-4273308D01*
X9267597Y-4273308D02*
X9172359Y-4368546D01*
X9172359Y-4368546D02*
X9077121Y-4416165D01*
%TO.C,L83*%
X7839025Y47369548D02*
X7362835Y47369548D01*
X7362835Y47369548D02*
X7362835Y48369548D01*
X8315216Y47940977D02*
X8219978Y47988596D01*
X8219978Y47988596D02*
X8172359Y48036215D01*
X8172359Y48036215D02*
X8124740Y48131453D01*
X8124740Y48131453D02*
X8124740Y48179072D01*
X8124740Y48179072D02*
X8172359Y48274310D01*
X8172359Y48274310D02*
X8219978Y48321929D01*
X8219978Y48321929D02*
X8315216Y48369548D01*
X8315216Y48369548D02*
X8505692Y48369548D01*
X8505692Y48369548D02*
X8600930Y48321929D01*
X8600930Y48321929D02*
X8648549Y48274310D01*
X8648549Y48274310D02*
X8696168Y48179072D01*
X8696168Y48179072D02*
X8696168Y48131453D01*
X8696168Y48131453D02*
X8648549Y48036215D01*
X8648549Y48036215D02*
X8600930Y47988596D01*
X8600930Y47988596D02*
X8505692Y47940977D01*
X8505692Y47940977D02*
X8315216Y47940977D01*
X8315216Y47940977D02*
X8219978Y47893358D01*
X8219978Y47893358D02*
X8172359Y47845739D01*
X8172359Y47845739D02*
X8124740Y47750501D01*
X8124740Y47750501D02*
X8124740Y47560025D01*
X8124740Y47560025D02*
X8172359Y47464787D01*
X8172359Y47464787D02*
X8219978Y47417168D01*
X8219978Y47417168D02*
X8315216Y47369548D01*
X8315216Y47369548D02*
X8505692Y47369548D01*
X8505692Y47369548D02*
X8600930Y47417168D01*
X8600930Y47417168D02*
X8648549Y47464787D01*
X8648549Y47464787D02*
X8696168Y47560025D01*
X8696168Y47560025D02*
X8696168Y47750501D01*
X8696168Y47750501D02*
X8648549Y47845739D01*
X8648549Y47845739D02*
X8600930Y47893358D01*
X8600930Y47893358D02*
X8505692Y47940977D01*
X9029502Y48369548D02*
X9648549Y48369548D01*
X9648549Y48369548D02*
X9315216Y47988596D01*
X9315216Y47988596D02*
X9458073Y47988596D01*
X9458073Y47988596D02*
X9553311Y47940977D01*
X9553311Y47940977D02*
X9600930Y47893358D01*
X9600930Y47893358D02*
X9648549Y47798120D01*
X9648549Y47798120D02*
X9648549Y47560025D01*
X9648549Y47560025D02*
X9600930Y47464787D01*
X9600930Y47464787D02*
X9553311Y47417168D01*
X9553311Y47417168D02*
X9458073Y47369548D01*
X9458073Y47369548D02*
X9172359Y47369548D01*
X9172359Y47369548D02*
X9077121Y47417168D01*
X9077121Y47417168D02*
X9029502Y47464787D01*
%TO.C,L2*%
X-13808846Y-50112803D02*
X-14145564Y-50449521D01*
X-14145564Y-50449521D02*
X-14852671Y-49742414D01*
X-14246579Y-49271010D02*
X-14246579Y-49203666D01*
X-14246579Y-49203666D02*
X-14212907Y-49102651D01*
X-14212907Y-49102651D02*
X-14044548Y-48934292D01*
X-14044548Y-48934292D02*
X-13943533Y-48900620D01*
X-13943533Y-48900620D02*
X-13876190Y-48900620D01*
X-13876190Y-48900620D02*
X-13775174Y-48934292D01*
X-13775174Y-48934292D02*
X-13707831Y-49001635D01*
X-13707831Y-49001635D02*
X-13640487Y-49136322D01*
X-13640487Y-49136322D02*
X-13640487Y-49944445D01*
X-13640487Y-49944445D02*
X-13202755Y-49506712D01*
%TO.C,L15*%
X-7160974Y-35130451D02*
X-7637164Y-35130451D01*
X-7637164Y-35130451D02*
X-7637164Y-34130451D01*
X-6303831Y-35130451D02*
X-6875259Y-35130451D01*
X-6589545Y-35130451D02*
X-6589545Y-34130451D01*
X-6589545Y-34130451D02*
X-6684783Y-34273308D01*
X-6684783Y-34273308D02*
X-6780021Y-34368546D01*
X-6780021Y-34368546D02*
X-6875259Y-34416165D01*
X-5399069Y-34130451D02*
X-5875259Y-34130451D01*
X-5875259Y-34130451D02*
X-5922878Y-34606641D01*
X-5922878Y-34606641D02*
X-5875259Y-34559022D01*
X-5875259Y-34559022D02*
X-5780021Y-34511403D01*
X-5780021Y-34511403D02*
X-5541926Y-34511403D01*
X-5541926Y-34511403D02*
X-5446688Y-34559022D01*
X-5446688Y-34559022D02*
X-5399069Y-34606641D01*
X-5399069Y-34606641D02*
X-5351450Y-34701879D01*
X-5351450Y-34701879D02*
X-5351450Y-34939974D01*
X-5351450Y-34939974D02*
X-5399069Y-35035212D01*
X-5399069Y-35035212D02*
X-5446688Y-35082832D01*
X-5446688Y-35082832D02*
X-5541926Y-35130451D01*
X-5541926Y-35130451D02*
X-5780021Y-35130451D01*
X-5780021Y-35130451D02*
X-5875259Y-35082832D01*
X-5875259Y-35082832D02*
X-5922878Y-35035212D01*
%TO.C,L6*%
X15815216Y-50130451D02*
X15339026Y-50130451D01*
X15339026Y-50130451D02*
X15339026Y-49130451D01*
X16577121Y-49130451D02*
X16386645Y-49130451D01*
X16386645Y-49130451D02*
X16291407Y-49178070D01*
X16291407Y-49178070D02*
X16243788Y-49225689D01*
X16243788Y-49225689D02*
X16148550Y-49368546D01*
X16148550Y-49368546D02*
X16100931Y-49559022D01*
X16100931Y-49559022D02*
X16100931Y-49939974D01*
X16100931Y-49939974D02*
X16148550Y-50035212D01*
X16148550Y-50035212D02*
X16196169Y-50082832D01*
X16196169Y-50082832D02*
X16291407Y-50130451D01*
X16291407Y-50130451D02*
X16481883Y-50130451D01*
X16481883Y-50130451D02*
X16577121Y-50082832D01*
X16577121Y-50082832D02*
X16624740Y-50035212D01*
X16624740Y-50035212D02*
X16672359Y-49939974D01*
X16672359Y-49939974D02*
X16672359Y-49701879D01*
X16672359Y-49701879D02*
X16624740Y-49606641D01*
X16624740Y-49606641D02*
X16577121Y-49559022D01*
X16577121Y-49559022D02*
X16481883Y-49511403D01*
X16481883Y-49511403D02*
X16291407Y-49511403D01*
X16291407Y-49511403D02*
X16196169Y-49559022D01*
X16196169Y-49559022D02*
X16148550Y-49606641D01*
X16148550Y-49606641D02*
X16100931Y-49701879D01*
%TO.C,L22*%
X339025Y-27630451D02*
X-137164Y-27630451D01*
X-137164Y-27630451D02*
X-137164Y-26630451D01*
X624740Y-26725689D02*
X672359Y-26678070D01*
X672359Y-26678070D02*
X767597Y-26630451D01*
X767597Y-26630451D02*
X1005692Y-26630451D01*
X1005692Y-26630451D02*
X1100930Y-26678070D01*
X1100930Y-26678070D02*
X1148549Y-26725689D01*
X1148549Y-26725689D02*
X1196168Y-26820927D01*
X1196168Y-26820927D02*
X1196168Y-26916165D01*
X1196168Y-26916165D02*
X1148549Y-27059022D01*
X1148549Y-27059022D02*
X577121Y-27630451D01*
X577121Y-27630451D02*
X1196168Y-27630451D01*
X1577121Y-26725689D02*
X1624740Y-26678070D01*
X1624740Y-26678070D02*
X1719978Y-26630451D01*
X1719978Y-26630451D02*
X1958073Y-26630451D01*
X1958073Y-26630451D02*
X2053311Y-26678070D01*
X2053311Y-26678070D02*
X2100930Y-26725689D01*
X2100930Y-26725689D02*
X2148549Y-26820927D01*
X2148549Y-26820927D02*
X2148549Y-26916165D01*
X2148549Y-26916165D02*
X2100930Y-27059022D01*
X2100930Y-27059022D02*
X1529502Y-27630451D01*
X1529502Y-27630451D02*
X2148549Y-27630451D01*
%TO.C,L48*%
X15339025Y2369548D02*
X14862835Y2369548D01*
X14862835Y2369548D02*
X14862835Y3369548D01*
X16100930Y3036215D02*
X16100930Y2369548D01*
X15862835Y3417168D02*
X15624740Y2702882D01*
X15624740Y2702882D02*
X16243787Y2702882D01*
X16767597Y2940977D02*
X16672359Y2988596D01*
X16672359Y2988596D02*
X16624740Y3036215D01*
X16624740Y3036215D02*
X16577121Y3131453D01*
X16577121Y3131453D02*
X16577121Y3179072D01*
X16577121Y3179072D02*
X16624740Y3274310D01*
X16624740Y3274310D02*
X16672359Y3321929D01*
X16672359Y3321929D02*
X16767597Y3369548D01*
X16767597Y3369548D02*
X16958073Y3369548D01*
X16958073Y3369548D02*
X17053311Y3321929D01*
X17053311Y3321929D02*
X17100930Y3274310D01*
X17100930Y3274310D02*
X17148549Y3179072D01*
X17148549Y3179072D02*
X17148549Y3131453D01*
X17148549Y3131453D02*
X17100930Y3036215D01*
X17100930Y3036215D02*
X17053311Y2988596D01*
X17053311Y2988596D02*
X16958073Y2940977D01*
X16958073Y2940977D02*
X16767597Y2940977D01*
X16767597Y2940977D02*
X16672359Y2893358D01*
X16672359Y2893358D02*
X16624740Y2845739D01*
X16624740Y2845739D02*
X16577121Y2750501D01*
X16577121Y2750501D02*
X16577121Y2560025D01*
X16577121Y2560025D02*
X16624740Y2464787D01*
X16624740Y2464787D02*
X16672359Y2417168D01*
X16672359Y2417168D02*
X16767597Y2369548D01*
X16767597Y2369548D02*
X16958073Y2369548D01*
X16958073Y2369548D02*
X17053311Y2417168D01*
X17053311Y2417168D02*
X17100930Y2464787D01*
X17100930Y2464787D02*
X17148549Y2560025D01*
X17148549Y2560025D02*
X17148549Y2750501D01*
X17148549Y2750501D02*
X17100930Y2845739D01*
X17100930Y2845739D02*
X17053311Y2893358D01*
X17053311Y2893358D02*
X16958073Y2940977D01*
%TO.C,H4*%
X-761904Y74437380D02*
X-761904Y75437380D01*
X-761904Y74961190D02*
X-190476Y74961190D01*
X-190476Y74437380D02*
X-190476Y75437380D01*
X714285Y75104047D02*
X714285Y74437380D01*
X476190Y75485000D02*
X238095Y74770714D01*
X238095Y74770714D02*
X857142Y74770714D01*
%TO.C,L55*%
X-22160974Y17369548D02*
X-22637164Y17369548D01*
X-22637164Y17369548D02*
X-22637164Y18369548D01*
X-21351450Y18369548D02*
X-21827640Y18369548D01*
X-21827640Y18369548D02*
X-21875259Y17893358D01*
X-21875259Y17893358D02*
X-21827640Y17940977D01*
X-21827640Y17940977D02*
X-21732402Y17988596D01*
X-21732402Y17988596D02*
X-21494307Y17988596D01*
X-21494307Y17988596D02*
X-21399069Y17940977D01*
X-21399069Y17940977D02*
X-21351450Y17893358D01*
X-21351450Y17893358D02*
X-21303831Y17798120D01*
X-21303831Y17798120D02*
X-21303831Y17560025D01*
X-21303831Y17560025D02*
X-21351450Y17464787D01*
X-21351450Y17464787D02*
X-21399069Y17417168D01*
X-21399069Y17417168D02*
X-21494307Y17369548D01*
X-21494307Y17369548D02*
X-21732402Y17369548D01*
X-21732402Y17369548D02*
X-21827640Y17417168D01*
X-21827640Y17417168D02*
X-21875259Y17464787D01*
X-20399069Y18369548D02*
X-20875259Y18369548D01*
X-20875259Y18369548D02*
X-20922878Y17893358D01*
X-20922878Y17893358D02*
X-20875259Y17940977D01*
X-20875259Y17940977D02*
X-20780021Y17988596D01*
X-20780021Y17988596D02*
X-20541926Y17988596D01*
X-20541926Y17988596D02*
X-20446688Y17940977D01*
X-20446688Y17940977D02*
X-20399069Y17893358D01*
X-20399069Y17893358D02*
X-20351450Y17798120D01*
X-20351450Y17798120D02*
X-20351450Y17560025D01*
X-20351450Y17560025D02*
X-20399069Y17464787D01*
X-20399069Y17464787D02*
X-20446688Y17417168D01*
X-20446688Y17417168D02*
X-20541926Y17369548D01*
X-20541926Y17369548D02*
X-20780021Y17369548D01*
X-20780021Y17369548D02*
X-20875259Y17417168D01*
X-20875259Y17417168D02*
X-20922878Y17464787D01*
%TO.C,L66*%
X15339025Y24869548D02*
X14862835Y24869548D01*
X14862835Y24869548D02*
X14862835Y25869548D01*
X16100930Y25869548D02*
X15910454Y25869548D01*
X15910454Y25869548D02*
X15815216Y25821929D01*
X15815216Y25821929D02*
X15767597Y25774310D01*
X15767597Y25774310D02*
X15672359Y25631453D01*
X15672359Y25631453D02*
X15624740Y25440977D01*
X15624740Y25440977D02*
X15624740Y25060025D01*
X15624740Y25060025D02*
X15672359Y24964787D01*
X15672359Y24964787D02*
X15719978Y24917168D01*
X15719978Y24917168D02*
X15815216Y24869548D01*
X15815216Y24869548D02*
X16005692Y24869548D01*
X16005692Y24869548D02*
X16100930Y24917168D01*
X16100930Y24917168D02*
X16148549Y24964787D01*
X16148549Y24964787D02*
X16196168Y25060025D01*
X16196168Y25060025D02*
X16196168Y25298120D01*
X16196168Y25298120D02*
X16148549Y25393358D01*
X16148549Y25393358D02*
X16100930Y25440977D01*
X16100930Y25440977D02*
X16005692Y25488596D01*
X16005692Y25488596D02*
X15815216Y25488596D01*
X15815216Y25488596D02*
X15719978Y25440977D01*
X15719978Y25440977D02*
X15672359Y25393358D01*
X15672359Y25393358D02*
X15624740Y25298120D01*
X17053311Y25869548D02*
X16862835Y25869548D01*
X16862835Y25869548D02*
X16767597Y25821929D01*
X16767597Y25821929D02*
X16719978Y25774310D01*
X16719978Y25774310D02*
X16624740Y25631453D01*
X16624740Y25631453D02*
X16577121Y25440977D01*
X16577121Y25440977D02*
X16577121Y25060025D01*
X16577121Y25060025D02*
X16624740Y24964787D01*
X16624740Y24964787D02*
X16672359Y24917168D01*
X16672359Y24917168D02*
X16767597Y24869548D01*
X16767597Y24869548D02*
X16958073Y24869548D01*
X16958073Y24869548D02*
X17053311Y24917168D01*
X17053311Y24917168D02*
X17100930Y24964787D01*
X17100930Y24964787D02*
X17148549Y25060025D01*
X17148549Y25060025D02*
X17148549Y25298120D01*
X17148549Y25298120D02*
X17100930Y25393358D01*
X17100930Y25393358D02*
X17053311Y25440977D01*
X17053311Y25440977D02*
X16958073Y25488596D01*
X16958073Y25488596D02*
X16767597Y25488596D01*
X16767597Y25488596D02*
X16672359Y25440977D01*
X16672359Y25440977D02*
X16624740Y25393358D01*
X16624740Y25393358D02*
X16577121Y25298120D01*
%TO.C,L5*%
X8315216Y-50130451D02*
X7839026Y-50130451D01*
X7839026Y-50130451D02*
X7839026Y-49130451D01*
X9124740Y-49130451D02*
X8648550Y-49130451D01*
X8648550Y-49130451D02*
X8600931Y-49606641D01*
X8600931Y-49606641D02*
X8648550Y-49559022D01*
X8648550Y-49559022D02*
X8743788Y-49511403D01*
X8743788Y-49511403D02*
X8981883Y-49511403D01*
X8981883Y-49511403D02*
X9077121Y-49559022D01*
X9077121Y-49559022D02*
X9124740Y-49606641D01*
X9124740Y-49606641D02*
X9172359Y-49701879D01*
X9172359Y-49701879D02*
X9172359Y-49939974D01*
X9172359Y-49939974D02*
X9124740Y-50035212D01*
X9124740Y-50035212D02*
X9077121Y-50082832D01*
X9077121Y-50082832D02*
X8981883Y-50130451D01*
X8981883Y-50130451D02*
X8743788Y-50130451D01*
X8743788Y-50130451D02*
X8648550Y-50082832D01*
X8648550Y-50082832D02*
X8600931Y-50035212D01*
%TO.C,L34*%
X339025Y-12630451D02*
X-137164Y-12630451D01*
X-137164Y-12630451D02*
X-137164Y-11630451D01*
X577121Y-11630451D02*
X1196168Y-11630451D01*
X1196168Y-11630451D02*
X862835Y-12011403D01*
X862835Y-12011403D02*
X1005692Y-12011403D01*
X1005692Y-12011403D02*
X1100930Y-12059022D01*
X1100930Y-12059022D02*
X1148549Y-12106641D01*
X1148549Y-12106641D02*
X1196168Y-12201879D01*
X1196168Y-12201879D02*
X1196168Y-12439974D01*
X1196168Y-12439974D02*
X1148549Y-12535212D01*
X1148549Y-12535212D02*
X1100930Y-12582832D01*
X1100930Y-12582832D02*
X1005692Y-12630451D01*
X1005692Y-12630451D02*
X719978Y-12630451D01*
X719978Y-12630451D02*
X624740Y-12582832D01*
X624740Y-12582832D02*
X577121Y-12535212D01*
X2053311Y-11963784D02*
X2053311Y-12630451D01*
X1815216Y-11582832D02*
X1577121Y-12297117D01*
X1577121Y-12297117D02*
X2196168Y-12297117D01*
%TO.C,L30*%
X15339025Y-20130451D02*
X14862835Y-20130451D01*
X14862835Y-20130451D02*
X14862835Y-19130451D01*
X15577121Y-19130451D02*
X16196168Y-19130451D01*
X16196168Y-19130451D02*
X15862835Y-19511403D01*
X15862835Y-19511403D02*
X16005692Y-19511403D01*
X16005692Y-19511403D02*
X16100930Y-19559022D01*
X16100930Y-19559022D02*
X16148549Y-19606641D01*
X16148549Y-19606641D02*
X16196168Y-19701879D01*
X16196168Y-19701879D02*
X16196168Y-19939974D01*
X16196168Y-19939974D02*
X16148549Y-20035212D01*
X16148549Y-20035212D02*
X16100930Y-20082832D01*
X16100930Y-20082832D02*
X16005692Y-20130451D01*
X16005692Y-20130451D02*
X15719978Y-20130451D01*
X15719978Y-20130451D02*
X15624740Y-20082832D01*
X15624740Y-20082832D02*
X15577121Y-20035212D01*
X16815216Y-19130451D02*
X16910454Y-19130451D01*
X16910454Y-19130451D02*
X17005692Y-19178070D01*
X17005692Y-19178070D02*
X17053311Y-19225689D01*
X17053311Y-19225689D02*
X17100930Y-19320927D01*
X17100930Y-19320927D02*
X17148549Y-19511403D01*
X17148549Y-19511403D02*
X17148549Y-19749498D01*
X17148549Y-19749498D02*
X17100930Y-19939974D01*
X17100930Y-19939974D02*
X17053311Y-20035212D01*
X17053311Y-20035212D02*
X17005692Y-20082832D01*
X17005692Y-20082832D02*
X16910454Y-20130451D01*
X16910454Y-20130451D02*
X16815216Y-20130451D01*
X16815216Y-20130451D02*
X16719978Y-20082832D01*
X16719978Y-20082832D02*
X16672359Y-20035212D01*
X16672359Y-20035212D02*
X16624740Y-19939974D01*
X16624740Y-19939974D02*
X16577121Y-19749498D01*
X16577121Y-19749498D02*
X16577121Y-19511403D01*
X16577121Y-19511403D02*
X16624740Y-19320927D01*
X16624740Y-19320927D02*
X16672359Y-19225689D01*
X16672359Y-19225689D02*
X16719978Y-19178070D01*
X16719978Y-19178070D02*
X16815216Y-19130451D01*
%TO.C,L59*%
X7839025Y17369548D02*
X7362835Y17369548D01*
X7362835Y17369548D02*
X7362835Y18369548D01*
X8648549Y18369548D02*
X8172359Y18369548D01*
X8172359Y18369548D02*
X8124740Y17893358D01*
X8124740Y17893358D02*
X8172359Y17940977D01*
X8172359Y17940977D02*
X8267597Y17988596D01*
X8267597Y17988596D02*
X8505692Y17988596D01*
X8505692Y17988596D02*
X8600930Y17940977D01*
X8600930Y17940977D02*
X8648549Y17893358D01*
X8648549Y17893358D02*
X8696168Y17798120D01*
X8696168Y17798120D02*
X8696168Y17560025D01*
X8696168Y17560025D02*
X8648549Y17464787D01*
X8648549Y17464787D02*
X8600930Y17417168D01*
X8600930Y17417168D02*
X8505692Y17369548D01*
X8505692Y17369548D02*
X8267597Y17369548D01*
X8267597Y17369548D02*
X8172359Y17417168D01*
X8172359Y17417168D02*
X8124740Y17464787D01*
X9172359Y17369548D02*
X9362835Y17369548D01*
X9362835Y17369548D02*
X9458073Y17417168D01*
X9458073Y17417168D02*
X9505692Y17464787D01*
X9505692Y17464787D02*
X9600930Y17607644D01*
X9600930Y17607644D02*
X9648549Y17798120D01*
X9648549Y17798120D02*
X9648549Y18179072D01*
X9648549Y18179072D02*
X9600930Y18274310D01*
X9600930Y18274310D02*
X9553311Y18321929D01*
X9553311Y18321929D02*
X9458073Y18369548D01*
X9458073Y18369548D02*
X9267597Y18369548D01*
X9267597Y18369548D02*
X9172359Y18321929D01*
X9172359Y18321929D02*
X9124740Y18274310D01*
X9124740Y18274310D02*
X9077121Y18179072D01*
X9077121Y18179072D02*
X9077121Y17940977D01*
X9077121Y17940977D02*
X9124740Y17845739D01*
X9124740Y17845739D02*
X9172359Y17798120D01*
X9172359Y17798120D02*
X9267597Y17750501D01*
X9267597Y17750501D02*
X9458073Y17750501D01*
X9458073Y17750501D02*
X9553311Y17798120D01*
X9553311Y17798120D02*
X9600930Y17845739D01*
X9600930Y17845739D02*
X9648549Y17940977D01*
%TO.C,L11*%
X7839025Y-42630451D02*
X7362835Y-42630451D01*
X7362835Y-42630451D02*
X7362835Y-41630451D01*
X8696168Y-42630451D02*
X8124740Y-42630451D01*
X8410454Y-42630451D02*
X8410454Y-41630451D01*
X8410454Y-41630451D02*
X8315216Y-41773308D01*
X8315216Y-41773308D02*
X8219978Y-41868546D01*
X8219978Y-41868546D02*
X8124740Y-41916165D01*
X9648549Y-42630451D02*
X9077121Y-42630451D01*
X9362835Y-42630451D02*
X9362835Y-41630451D01*
X9362835Y-41630451D02*
X9267597Y-41773308D01*
X9267597Y-41773308D02*
X9172359Y-41868546D01*
X9172359Y-41868546D02*
X9077121Y-41916165D01*
%TO.C,L46*%
X339025Y2369548D02*
X-137164Y2369548D01*
X-137164Y2369548D02*
X-137164Y3369548D01*
X1100930Y3036215D02*
X1100930Y2369548D01*
X862835Y3417168D02*
X624740Y2702882D01*
X624740Y2702882D02*
X1243787Y2702882D01*
X2053311Y3369548D02*
X1862835Y3369548D01*
X1862835Y3369548D02*
X1767597Y3321929D01*
X1767597Y3321929D02*
X1719978Y3274310D01*
X1719978Y3274310D02*
X1624740Y3131453D01*
X1624740Y3131453D02*
X1577121Y2940977D01*
X1577121Y2940977D02*
X1577121Y2560025D01*
X1577121Y2560025D02*
X1624740Y2464787D01*
X1624740Y2464787D02*
X1672359Y2417168D01*
X1672359Y2417168D02*
X1767597Y2369548D01*
X1767597Y2369548D02*
X1958073Y2369548D01*
X1958073Y2369548D02*
X2053311Y2417168D01*
X2053311Y2417168D02*
X2100930Y2464787D01*
X2100930Y2464787D02*
X2148549Y2560025D01*
X2148549Y2560025D02*
X2148549Y2798120D01*
X2148549Y2798120D02*
X2100930Y2893358D01*
X2100930Y2893358D02*
X2053311Y2940977D01*
X2053311Y2940977D02*
X1958073Y2988596D01*
X1958073Y2988596D02*
X1767597Y2988596D01*
X1767597Y2988596D02*
X1672359Y2940977D01*
X1672359Y2940977D02*
X1624740Y2893358D01*
X1624740Y2893358D02*
X1577121Y2798120D01*
%TO.C,H10*%
X-16238094Y63737380D02*
X-16238094Y64737380D01*
X-16238094Y64261190D02*
X-15666666Y64261190D01*
X-15666666Y63737380D02*
X-15666666Y64737380D01*
X-14666666Y63737380D02*
X-15238094Y63737380D01*
X-14952380Y63737380D02*
X-14952380Y64737380D01*
X-14952380Y64737380D02*
X-15047618Y64594523D01*
X-15047618Y64594523D02*
X-15142856Y64499285D01*
X-15142856Y64499285D02*
X-15238094Y64451666D01*
X-14047618Y64737380D02*
X-13952380Y64737380D01*
X-13952380Y64737380D02*
X-13857142Y64689761D01*
X-13857142Y64689761D02*
X-13809523Y64642142D01*
X-13809523Y64642142D02*
X-13761904Y64546904D01*
X-13761904Y64546904D02*
X-13714285Y64356428D01*
X-13714285Y64356428D02*
X-13714285Y64118333D01*
X-13714285Y64118333D02*
X-13761904Y63927857D01*
X-13761904Y63927857D02*
X-13809523Y63832619D01*
X-13809523Y63832619D02*
X-13857142Y63785000D01*
X-13857142Y63785000D02*
X-13952380Y63737380D01*
X-13952380Y63737380D02*
X-14047618Y63737380D01*
X-14047618Y63737380D02*
X-14142856Y63785000D01*
X-14142856Y63785000D02*
X-14190475Y63832619D01*
X-14190475Y63832619D02*
X-14238094Y63927857D01*
X-14238094Y63927857D02*
X-14285713Y64118333D01*
X-14285713Y64118333D02*
X-14285713Y64356428D01*
X-14285713Y64356428D02*
X-14238094Y64546904D01*
X-14238094Y64546904D02*
X-14190475Y64642142D01*
X-14190475Y64642142D02*
X-14142856Y64689761D01*
X-14142856Y64689761D02*
X-14047618Y64737380D01*
%TO.C,L82*%
X339025Y47369548D02*
X-137164Y47369548D01*
X-137164Y47369548D02*
X-137164Y48369548D01*
X815216Y47940977D02*
X719978Y47988596D01*
X719978Y47988596D02*
X672359Y48036215D01*
X672359Y48036215D02*
X624740Y48131453D01*
X624740Y48131453D02*
X624740Y48179072D01*
X624740Y48179072D02*
X672359Y48274310D01*
X672359Y48274310D02*
X719978Y48321929D01*
X719978Y48321929D02*
X815216Y48369548D01*
X815216Y48369548D02*
X1005692Y48369548D01*
X1005692Y48369548D02*
X1100930Y48321929D01*
X1100930Y48321929D02*
X1148549Y48274310D01*
X1148549Y48274310D02*
X1196168Y48179072D01*
X1196168Y48179072D02*
X1196168Y48131453D01*
X1196168Y48131453D02*
X1148549Y48036215D01*
X1148549Y48036215D02*
X1100930Y47988596D01*
X1100930Y47988596D02*
X1005692Y47940977D01*
X1005692Y47940977D02*
X815216Y47940977D01*
X815216Y47940977D02*
X719978Y47893358D01*
X719978Y47893358D02*
X672359Y47845739D01*
X672359Y47845739D02*
X624740Y47750501D01*
X624740Y47750501D02*
X624740Y47560025D01*
X624740Y47560025D02*
X672359Y47464787D01*
X672359Y47464787D02*
X719978Y47417168D01*
X719978Y47417168D02*
X815216Y47369548D01*
X815216Y47369548D02*
X1005692Y47369548D01*
X1005692Y47369548D02*
X1100930Y47417168D01*
X1100930Y47417168D02*
X1148549Y47464787D01*
X1148549Y47464787D02*
X1196168Y47560025D01*
X1196168Y47560025D02*
X1196168Y47750501D01*
X1196168Y47750501D02*
X1148549Y47845739D01*
X1148549Y47845739D02*
X1100930Y47893358D01*
X1100930Y47893358D02*
X1005692Y47940977D01*
X1577121Y48274310D02*
X1624740Y48321929D01*
X1624740Y48321929D02*
X1719978Y48369548D01*
X1719978Y48369548D02*
X1958073Y48369548D01*
X1958073Y48369548D02*
X2053311Y48321929D01*
X2053311Y48321929D02*
X2100930Y48274310D01*
X2100930Y48274310D02*
X2148549Y48179072D01*
X2148549Y48179072D02*
X2148549Y48083834D01*
X2148549Y48083834D02*
X2100930Y47940977D01*
X2100930Y47940977D02*
X1529502Y47369548D01*
X1529502Y47369548D02*
X2148549Y47369548D01*
%TO.C,L19*%
X-22160974Y-27630451D02*
X-22637164Y-27630451D01*
X-22637164Y-27630451D02*
X-22637164Y-26630451D01*
X-21303831Y-27630451D02*
X-21875259Y-27630451D01*
X-21589545Y-27630451D02*
X-21589545Y-26630451D01*
X-21589545Y-26630451D02*
X-21684783Y-26773308D01*
X-21684783Y-26773308D02*
X-21780021Y-26868546D01*
X-21780021Y-26868546D02*
X-21875259Y-26916165D01*
X-20827640Y-27630451D02*
X-20637164Y-27630451D01*
X-20637164Y-27630451D02*
X-20541926Y-27582832D01*
X-20541926Y-27582832D02*
X-20494307Y-27535212D01*
X-20494307Y-27535212D02*
X-20399069Y-27392355D01*
X-20399069Y-27392355D02*
X-20351450Y-27201879D01*
X-20351450Y-27201879D02*
X-20351450Y-26820927D01*
X-20351450Y-26820927D02*
X-20399069Y-26725689D01*
X-20399069Y-26725689D02*
X-20446688Y-26678070D01*
X-20446688Y-26678070D02*
X-20541926Y-26630451D01*
X-20541926Y-26630451D02*
X-20732402Y-26630451D01*
X-20732402Y-26630451D02*
X-20827640Y-26678070D01*
X-20827640Y-26678070D02*
X-20875259Y-26725689D01*
X-20875259Y-26725689D02*
X-20922878Y-26820927D01*
X-20922878Y-26820927D02*
X-20922878Y-27059022D01*
X-20922878Y-27059022D02*
X-20875259Y-27154260D01*
X-20875259Y-27154260D02*
X-20827640Y-27201879D01*
X-20827640Y-27201879D02*
X-20732402Y-27249498D01*
X-20732402Y-27249498D02*
X-20541926Y-27249498D01*
X-20541926Y-27249498D02*
X-20446688Y-27201879D01*
X-20446688Y-27201879D02*
X-20399069Y-27154260D01*
X-20399069Y-27154260D02*
X-20351450Y-27059022D01*
%TO.C,L73*%
X-22160974Y39869548D02*
X-22637164Y39869548D01*
X-22637164Y39869548D02*
X-22637164Y40869548D01*
X-21922878Y40869548D02*
X-21256212Y40869548D01*
X-21256212Y40869548D02*
X-21684783Y39869548D01*
X-20970497Y40869548D02*
X-20351450Y40869548D01*
X-20351450Y40869548D02*
X-20684783Y40488596D01*
X-20684783Y40488596D02*
X-20541926Y40488596D01*
X-20541926Y40488596D02*
X-20446688Y40440977D01*
X-20446688Y40440977D02*
X-20399069Y40393358D01*
X-20399069Y40393358D02*
X-20351450Y40298120D01*
X-20351450Y40298120D02*
X-20351450Y40060025D01*
X-20351450Y40060025D02*
X-20399069Y39964787D01*
X-20399069Y39964787D02*
X-20446688Y39917168D01*
X-20446688Y39917168D02*
X-20541926Y39869548D01*
X-20541926Y39869548D02*
X-20827640Y39869548D01*
X-20827640Y39869548D02*
X-20922878Y39917168D01*
X-20922878Y39917168D02*
X-20970497Y39964787D01*
%TO.C,L44*%
X-14660974Y2369548D02*
X-15137164Y2369548D01*
X-15137164Y2369548D02*
X-15137164Y3369548D01*
X-13899069Y3036215D02*
X-13899069Y2369548D01*
X-14137164Y3417168D02*
X-14375259Y2702882D01*
X-14375259Y2702882D02*
X-13756212Y2702882D01*
X-12946688Y3036215D02*
X-12946688Y2369548D01*
X-13184783Y3417168D02*
X-13422878Y2702882D01*
X-13422878Y2702882D02*
X-12803831Y2702882D01*
%TO.C,L33*%
X-7160974Y-12630451D02*
X-7637164Y-12630451D01*
X-7637164Y-12630451D02*
X-7637164Y-11630451D01*
X-6922878Y-11630451D02*
X-6303831Y-11630451D01*
X-6303831Y-11630451D02*
X-6637164Y-12011403D01*
X-6637164Y-12011403D02*
X-6494307Y-12011403D01*
X-6494307Y-12011403D02*
X-6399069Y-12059022D01*
X-6399069Y-12059022D02*
X-6351450Y-12106641D01*
X-6351450Y-12106641D02*
X-6303831Y-12201879D01*
X-6303831Y-12201879D02*
X-6303831Y-12439974D01*
X-6303831Y-12439974D02*
X-6351450Y-12535212D01*
X-6351450Y-12535212D02*
X-6399069Y-12582832D01*
X-6399069Y-12582832D02*
X-6494307Y-12630451D01*
X-6494307Y-12630451D02*
X-6780021Y-12630451D01*
X-6780021Y-12630451D02*
X-6875259Y-12582832D01*
X-6875259Y-12582832D02*
X-6922878Y-12535212D01*
X-5970497Y-11630451D02*
X-5351450Y-11630451D01*
X-5351450Y-11630451D02*
X-5684783Y-12011403D01*
X-5684783Y-12011403D02*
X-5541926Y-12011403D01*
X-5541926Y-12011403D02*
X-5446688Y-12059022D01*
X-5446688Y-12059022D02*
X-5399069Y-12106641D01*
X-5399069Y-12106641D02*
X-5351450Y-12201879D01*
X-5351450Y-12201879D02*
X-5351450Y-12439974D01*
X-5351450Y-12439974D02*
X-5399069Y-12535212D01*
X-5399069Y-12535212D02*
X-5446688Y-12582832D01*
X-5446688Y-12582832D02*
X-5541926Y-12630451D01*
X-5541926Y-12630451D02*
X-5827640Y-12630451D01*
X-5827640Y-12630451D02*
X-5922878Y-12582832D01*
X-5922878Y-12582832D02*
X-5970497Y-12535212D01*
%TO.C,L21*%
X-7160974Y-27630451D02*
X-7637164Y-27630451D01*
X-7637164Y-27630451D02*
X-7637164Y-26630451D01*
X-6875259Y-26725689D02*
X-6827640Y-26678070D01*
X-6827640Y-26678070D02*
X-6732402Y-26630451D01*
X-6732402Y-26630451D02*
X-6494307Y-26630451D01*
X-6494307Y-26630451D02*
X-6399069Y-26678070D01*
X-6399069Y-26678070D02*
X-6351450Y-26725689D01*
X-6351450Y-26725689D02*
X-6303831Y-26820927D01*
X-6303831Y-26820927D02*
X-6303831Y-26916165D01*
X-6303831Y-26916165D02*
X-6351450Y-27059022D01*
X-6351450Y-27059022D02*
X-6922878Y-27630451D01*
X-6922878Y-27630451D02*
X-6303831Y-27630451D01*
X-5351450Y-27630451D02*
X-5922878Y-27630451D01*
X-5637164Y-27630451D02*
X-5637164Y-26630451D01*
X-5637164Y-26630451D02*
X-5732402Y-26773308D01*
X-5732402Y-26773308D02*
X-5827640Y-26868546D01*
X-5827640Y-26868546D02*
X-5922878Y-26916165D01*
%TO.C,L31*%
X-22160974Y-12630451D02*
X-22637164Y-12630451D01*
X-22637164Y-12630451D02*
X-22637164Y-11630451D01*
X-21922878Y-11630451D02*
X-21303831Y-11630451D01*
X-21303831Y-11630451D02*
X-21637164Y-12011403D01*
X-21637164Y-12011403D02*
X-21494307Y-12011403D01*
X-21494307Y-12011403D02*
X-21399069Y-12059022D01*
X-21399069Y-12059022D02*
X-21351450Y-12106641D01*
X-21351450Y-12106641D02*
X-21303831Y-12201879D01*
X-21303831Y-12201879D02*
X-21303831Y-12439974D01*
X-21303831Y-12439974D02*
X-21351450Y-12535212D01*
X-21351450Y-12535212D02*
X-21399069Y-12582832D01*
X-21399069Y-12582832D02*
X-21494307Y-12630451D01*
X-21494307Y-12630451D02*
X-21780021Y-12630451D01*
X-21780021Y-12630451D02*
X-21875259Y-12582832D01*
X-21875259Y-12582832D02*
X-21922878Y-12535212D01*
X-20351450Y-12630451D02*
X-20922878Y-12630451D01*
X-20637164Y-12630451D02*
X-20637164Y-11630451D01*
X-20637164Y-11630451D02*
X-20732402Y-11773308D01*
X-20732402Y-11773308D02*
X-20827640Y-11868546D01*
X-20827640Y-11868546D02*
X-20922878Y-11916165D01*
%TO.C,L25*%
X-22160974Y-20130451D02*
X-22637164Y-20130451D01*
X-22637164Y-20130451D02*
X-22637164Y-19130451D01*
X-21875259Y-19225689D02*
X-21827640Y-19178070D01*
X-21827640Y-19178070D02*
X-21732402Y-19130451D01*
X-21732402Y-19130451D02*
X-21494307Y-19130451D01*
X-21494307Y-19130451D02*
X-21399069Y-19178070D01*
X-21399069Y-19178070D02*
X-21351450Y-19225689D01*
X-21351450Y-19225689D02*
X-21303831Y-19320927D01*
X-21303831Y-19320927D02*
X-21303831Y-19416165D01*
X-21303831Y-19416165D02*
X-21351450Y-19559022D01*
X-21351450Y-19559022D02*
X-21922878Y-20130451D01*
X-21922878Y-20130451D02*
X-21303831Y-20130451D01*
X-20399069Y-19130451D02*
X-20875259Y-19130451D01*
X-20875259Y-19130451D02*
X-20922878Y-19606641D01*
X-20922878Y-19606641D02*
X-20875259Y-19559022D01*
X-20875259Y-19559022D02*
X-20780021Y-19511403D01*
X-20780021Y-19511403D02*
X-20541926Y-19511403D01*
X-20541926Y-19511403D02*
X-20446688Y-19559022D01*
X-20446688Y-19559022D02*
X-20399069Y-19606641D01*
X-20399069Y-19606641D02*
X-20351450Y-19701879D01*
X-20351450Y-19701879D02*
X-20351450Y-19939974D01*
X-20351450Y-19939974D02*
X-20399069Y-20035212D01*
X-20399069Y-20035212D02*
X-20446688Y-20082832D01*
X-20446688Y-20082832D02*
X-20541926Y-20130451D01*
X-20541926Y-20130451D02*
X-20780021Y-20130451D01*
X-20780021Y-20130451D02*
X-20875259Y-20082832D01*
X-20875259Y-20082832D02*
X-20922878Y-20035212D01*
%TO.C,L40*%
X339025Y-5130451D02*
X-137164Y-5130451D01*
X-137164Y-5130451D02*
X-137164Y-4130451D01*
X1100930Y-4463784D02*
X1100930Y-5130451D01*
X862835Y-4082832D02*
X624740Y-4797117D01*
X624740Y-4797117D02*
X1243787Y-4797117D01*
X1815216Y-4130451D02*
X1910454Y-4130451D01*
X1910454Y-4130451D02*
X2005692Y-4178070D01*
X2005692Y-4178070D02*
X2053311Y-4225689D01*
X2053311Y-4225689D02*
X2100930Y-4320927D01*
X2100930Y-4320927D02*
X2148549Y-4511403D01*
X2148549Y-4511403D02*
X2148549Y-4749498D01*
X2148549Y-4749498D02*
X2100930Y-4939974D01*
X2100930Y-4939974D02*
X2053311Y-5035212D01*
X2053311Y-5035212D02*
X2005692Y-5082832D01*
X2005692Y-5082832D02*
X1910454Y-5130451D01*
X1910454Y-5130451D02*
X1815216Y-5130451D01*
X1815216Y-5130451D02*
X1719978Y-5082832D01*
X1719978Y-5082832D02*
X1672359Y-5035212D01*
X1672359Y-5035212D02*
X1624740Y-4939974D01*
X1624740Y-4939974D02*
X1577121Y-4749498D01*
X1577121Y-4749498D02*
X1577121Y-4511403D01*
X1577121Y-4511403D02*
X1624740Y-4320927D01*
X1624740Y-4320927D02*
X1672359Y-4225689D01*
X1672359Y-4225689D02*
X1719978Y-4178070D01*
X1719978Y-4178070D02*
X1815216Y-4130451D01*
%TO.C,L24*%
X15339025Y-27630451D02*
X14862835Y-27630451D01*
X14862835Y-27630451D02*
X14862835Y-26630451D01*
X15624740Y-26725689D02*
X15672359Y-26678070D01*
X15672359Y-26678070D02*
X15767597Y-26630451D01*
X15767597Y-26630451D02*
X16005692Y-26630451D01*
X16005692Y-26630451D02*
X16100930Y-26678070D01*
X16100930Y-26678070D02*
X16148549Y-26725689D01*
X16148549Y-26725689D02*
X16196168Y-26820927D01*
X16196168Y-26820927D02*
X16196168Y-26916165D01*
X16196168Y-26916165D02*
X16148549Y-27059022D01*
X16148549Y-27059022D02*
X15577121Y-27630451D01*
X15577121Y-27630451D02*
X16196168Y-27630451D01*
X17053311Y-26963784D02*
X17053311Y-27630451D01*
X16815216Y-26582832D02*
X16577121Y-27297117D01*
X16577121Y-27297117D02*
X17196168Y-27297117D01*
%TO.C,L57*%
X-7160974Y17369548D02*
X-7637164Y17369548D01*
X-7637164Y17369548D02*
X-7637164Y18369548D01*
X-6351450Y18369548D02*
X-6827640Y18369548D01*
X-6827640Y18369548D02*
X-6875259Y17893358D01*
X-6875259Y17893358D02*
X-6827640Y17940977D01*
X-6827640Y17940977D02*
X-6732402Y17988596D01*
X-6732402Y17988596D02*
X-6494307Y17988596D01*
X-6494307Y17988596D02*
X-6399069Y17940977D01*
X-6399069Y17940977D02*
X-6351450Y17893358D01*
X-6351450Y17893358D02*
X-6303831Y17798120D01*
X-6303831Y17798120D02*
X-6303831Y17560025D01*
X-6303831Y17560025D02*
X-6351450Y17464787D01*
X-6351450Y17464787D02*
X-6399069Y17417168D01*
X-6399069Y17417168D02*
X-6494307Y17369548D01*
X-6494307Y17369548D02*
X-6732402Y17369548D01*
X-6732402Y17369548D02*
X-6827640Y17417168D01*
X-6827640Y17417168D02*
X-6875259Y17464787D01*
X-5970497Y18369548D02*
X-5303831Y18369548D01*
X-5303831Y18369548D02*
X-5732402Y17369548D01*
%TO.C,H1*%
X-15761904Y-60562619D02*
X-15761904Y-59562619D01*
X-15761904Y-60038809D02*
X-15190476Y-60038809D01*
X-15190476Y-60562619D02*
X-15190476Y-59562619D01*
X-14190476Y-60562619D02*
X-14761904Y-60562619D01*
X-14476190Y-60562619D02*
X-14476190Y-59562619D01*
X-14476190Y-59562619D02*
X-14571428Y-59705476D01*
X-14571428Y-59705476D02*
X-14666666Y-59800714D01*
X-14666666Y-59800714D02*
X-14761904Y-59848333D01*
%TO.C,L43*%
X-22160974Y2369548D02*
X-22637164Y2369548D01*
X-22637164Y2369548D02*
X-22637164Y3369548D01*
X-21399069Y3036215D02*
X-21399069Y2369548D01*
X-21637164Y3417168D02*
X-21875259Y2702882D01*
X-21875259Y2702882D02*
X-21256212Y2702882D01*
X-20970497Y3369548D02*
X-20351450Y3369548D01*
X-20351450Y3369548D02*
X-20684783Y2988596D01*
X-20684783Y2988596D02*
X-20541926Y2988596D01*
X-20541926Y2988596D02*
X-20446688Y2940977D01*
X-20446688Y2940977D02*
X-20399069Y2893358D01*
X-20399069Y2893358D02*
X-20351450Y2798120D01*
X-20351450Y2798120D02*
X-20351450Y2560025D01*
X-20351450Y2560025D02*
X-20399069Y2464787D01*
X-20399069Y2464787D02*
X-20446688Y2417168D01*
X-20446688Y2417168D02*
X-20541926Y2369548D01*
X-20541926Y2369548D02*
X-20827640Y2369548D01*
X-20827640Y2369548D02*
X-20922878Y2417168D01*
X-20922878Y2417168D02*
X-20970497Y2464787D01*
%TO.C,L36*%
X15339025Y-12630451D02*
X14862835Y-12630451D01*
X14862835Y-12630451D02*
X14862835Y-11630451D01*
X15577121Y-11630451D02*
X16196168Y-11630451D01*
X16196168Y-11630451D02*
X15862835Y-12011403D01*
X15862835Y-12011403D02*
X16005692Y-12011403D01*
X16005692Y-12011403D02*
X16100930Y-12059022D01*
X16100930Y-12059022D02*
X16148549Y-12106641D01*
X16148549Y-12106641D02*
X16196168Y-12201879D01*
X16196168Y-12201879D02*
X16196168Y-12439974D01*
X16196168Y-12439974D02*
X16148549Y-12535212D01*
X16148549Y-12535212D02*
X16100930Y-12582832D01*
X16100930Y-12582832D02*
X16005692Y-12630451D01*
X16005692Y-12630451D02*
X15719978Y-12630451D01*
X15719978Y-12630451D02*
X15624740Y-12582832D01*
X15624740Y-12582832D02*
X15577121Y-12535212D01*
X17053311Y-11630451D02*
X16862835Y-11630451D01*
X16862835Y-11630451D02*
X16767597Y-11678070D01*
X16767597Y-11678070D02*
X16719978Y-11725689D01*
X16719978Y-11725689D02*
X16624740Y-11868546D01*
X16624740Y-11868546D02*
X16577121Y-12059022D01*
X16577121Y-12059022D02*
X16577121Y-12439974D01*
X16577121Y-12439974D02*
X16624740Y-12535212D01*
X16624740Y-12535212D02*
X16672359Y-12582832D01*
X16672359Y-12582832D02*
X16767597Y-12630451D01*
X16767597Y-12630451D02*
X16958073Y-12630451D01*
X16958073Y-12630451D02*
X17053311Y-12582832D01*
X17053311Y-12582832D02*
X17100930Y-12535212D01*
X17100930Y-12535212D02*
X17148549Y-12439974D01*
X17148549Y-12439974D02*
X17148549Y-12201879D01*
X17148549Y-12201879D02*
X17100930Y-12106641D01*
X17100930Y-12106641D02*
X17053311Y-12059022D01*
X17053311Y-12059022D02*
X16958073Y-12011403D01*
X16958073Y-12011403D02*
X16767597Y-12011403D01*
X16767597Y-12011403D02*
X16672359Y-12059022D01*
X16672359Y-12059022D02*
X16624740Y-12106641D01*
X16624740Y-12106641D02*
X16577121Y-12201879D01*
%TO.C,L77*%
X7839025Y39869548D02*
X7362835Y39869548D01*
X7362835Y39869548D02*
X7362835Y40869548D01*
X8077121Y40869548D02*
X8743787Y40869548D01*
X8743787Y40869548D02*
X8315216Y39869548D01*
X9029502Y40869548D02*
X9696168Y40869548D01*
X9696168Y40869548D02*
X9267597Y39869548D01*
%TO.C,L51*%
X-7160974Y9869548D02*
X-7637164Y9869548D01*
X-7637164Y9869548D02*
X-7637164Y10869548D01*
X-6351450Y10869548D02*
X-6827640Y10869548D01*
X-6827640Y10869548D02*
X-6875259Y10393358D01*
X-6875259Y10393358D02*
X-6827640Y10440977D01*
X-6827640Y10440977D02*
X-6732402Y10488596D01*
X-6732402Y10488596D02*
X-6494307Y10488596D01*
X-6494307Y10488596D02*
X-6399069Y10440977D01*
X-6399069Y10440977D02*
X-6351450Y10393358D01*
X-6351450Y10393358D02*
X-6303831Y10298120D01*
X-6303831Y10298120D02*
X-6303831Y10060025D01*
X-6303831Y10060025D02*
X-6351450Y9964787D01*
X-6351450Y9964787D02*
X-6399069Y9917168D01*
X-6399069Y9917168D02*
X-6494307Y9869548D01*
X-6494307Y9869548D02*
X-6732402Y9869548D01*
X-6732402Y9869548D02*
X-6827640Y9917168D01*
X-6827640Y9917168D02*
X-6875259Y9964787D01*
X-5351450Y9869548D02*
X-5922878Y9869548D01*
X-5637164Y9869548D02*
X-5637164Y10869548D01*
X-5637164Y10869548D02*
X-5732402Y10726691D01*
X-5732402Y10726691D02*
X-5827640Y10631453D01*
X-5827640Y10631453D02*
X-5922878Y10583834D01*
%TO.C,L8*%
X-14184783Y-42630451D02*
X-14660973Y-42630451D01*
X-14660973Y-42630451D02*
X-14660973Y-41630451D01*
X-13708592Y-42059022D02*
X-13803830Y-42011403D01*
X-13803830Y-42011403D02*
X-13851449Y-41963784D01*
X-13851449Y-41963784D02*
X-13899068Y-41868546D01*
X-13899068Y-41868546D02*
X-13899068Y-41820927D01*
X-13899068Y-41820927D02*
X-13851449Y-41725689D01*
X-13851449Y-41725689D02*
X-13803830Y-41678070D01*
X-13803830Y-41678070D02*
X-13708592Y-41630451D01*
X-13708592Y-41630451D02*
X-13518116Y-41630451D01*
X-13518116Y-41630451D02*
X-13422878Y-41678070D01*
X-13422878Y-41678070D02*
X-13375259Y-41725689D01*
X-13375259Y-41725689D02*
X-13327640Y-41820927D01*
X-13327640Y-41820927D02*
X-13327640Y-41868546D01*
X-13327640Y-41868546D02*
X-13375259Y-41963784D01*
X-13375259Y-41963784D02*
X-13422878Y-42011403D01*
X-13422878Y-42011403D02*
X-13518116Y-42059022D01*
X-13518116Y-42059022D02*
X-13708592Y-42059022D01*
X-13708592Y-42059022D02*
X-13803830Y-42106641D01*
X-13803830Y-42106641D02*
X-13851449Y-42154260D01*
X-13851449Y-42154260D02*
X-13899068Y-42249498D01*
X-13899068Y-42249498D02*
X-13899068Y-42439974D01*
X-13899068Y-42439974D02*
X-13851449Y-42535212D01*
X-13851449Y-42535212D02*
X-13803830Y-42582832D01*
X-13803830Y-42582832D02*
X-13708592Y-42630451D01*
X-13708592Y-42630451D02*
X-13518116Y-42630451D01*
X-13518116Y-42630451D02*
X-13422878Y-42582832D01*
X-13422878Y-42582832D02*
X-13375259Y-42535212D01*
X-13375259Y-42535212D02*
X-13327640Y-42439974D01*
X-13327640Y-42439974D02*
X-13327640Y-42249498D01*
X-13327640Y-42249498D02*
X-13375259Y-42154260D01*
X-13375259Y-42154260D02*
X-13422878Y-42106641D01*
X-13422878Y-42106641D02*
X-13518116Y-42059022D01*
%TO.C,H3*%
X-15761904Y74437380D02*
X-15761904Y75437380D01*
X-15761904Y74961190D02*
X-15190476Y74961190D01*
X-15190476Y74437380D02*
X-15190476Y75437380D01*
X-14809523Y75437380D02*
X-14190476Y75437380D01*
X-14190476Y75437380D02*
X-14523809Y75056428D01*
X-14523809Y75056428D02*
X-14380952Y75056428D01*
X-14380952Y75056428D02*
X-14285714Y75008809D01*
X-14285714Y75008809D02*
X-14238095Y74961190D01*
X-14238095Y74961190D02*
X-14190476Y74865952D01*
X-14190476Y74865952D02*
X-14190476Y74627857D01*
X-14190476Y74627857D02*
X-14238095Y74532619D01*
X-14238095Y74532619D02*
X-14285714Y74485000D01*
X-14285714Y74485000D02*
X-14380952Y74437380D01*
X-14380952Y74437380D02*
X-14666666Y74437380D01*
X-14666666Y74437380D02*
X-14761904Y74485000D01*
X-14761904Y74485000D02*
X-14809523Y74532619D01*
%TO.C,L49*%
X-22160974Y9869548D02*
X-22637164Y9869548D01*
X-22637164Y9869548D02*
X-22637164Y10869548D01*
X-21399069Y10536215D02*
X-21399069Y9869548D01*
X-21637164Y10917168D02*
X-21875259Y10202882D01*
X-21875259Y10202882D02*
X-21256212Y10202882D01*
X-20827640Y9869548D02*
X-20637164Y9869548D01*
X-20637164Y9869548D02*
X-20541926Y9917168D01*
X-20541926Y9917168D02*
X-20494307Y9964787D01*
X-20494307Y9964787D02*
X-20399069Y10107644D01*
X-20399069Y10107644D02*
X-20351450Y10298120D01*
X-20351450Y10298120D02*
X-20351450Y10679072D01*
X-20351450Y10679072D02*
X-20399069Y10774310D01*
X-20399069Y10774310D02*
X-20446688Y10821929D01*
X-20446688Y10821929D02*
X-20541926Y10869548D01*
X-20541926Y10869548D02*
X-20732402Y10869548D01*
X-20732402Y10869548D02*
X-20827640Y10821929D01*
X-20827640Y10821929D02*
X-20875259Y10774310D01*
X-20875259Y10774310D02*
X-20922878Y10679072D01*
X-20922878Y10679072D02*
X-20922878Y10440977D01*
X-20922878Y10440977D02*
X-20875259Y10345739D01*
X-20875259Y10345739D02*
X-20827640Y10298120D01*
X-20827640Y10298120D02*
X-20732402Y10250501D01*
X-20732402Y10250501D02*
X-20541926Y10250501D01*
X-20541926Y10250501D02*
X-20446688Y10298120D01*
X-20446688Y10298120D02*
X-20399069Y10345739D01*
X-20399069Y10345739D02*
X-20351450Y10440977D01*
%TO.C,L18*%
X15339025Y-35130451D02*
X14862835Y-35130451D01*
X14862835Y-35130451D02*
X14862835Y-34130451D01*
X16196168Y-35130451D02*
X15624740Y-35130451D01*
X15910454Y-35130451D02*
X15910454Y-34130451D01*
X15910454Y-34130451D02*
X15815216Y-34273308D01*
X15815216Y-34273308D02*
X15719978Y-34368546D01*
X15719978Y-34368546D02*
X15624740Y-34416165D01*
X16767597Y-34559022D02*
X16672359Y-34511403D01*
X16672359Y-34511403D02*
X16624740Y-34463784D01*
X16624740Y-34463784D02*
X16577121Y-34368546D01*
X16577121Y-34368546D02*
X16577121Y-34320927D01*
X16577121Y-34320927D02*
X16624740Y-34225689D01*
X16624740Y-34225689D02*
X16672359Y-34178070D01*
X16672359Y-34178070D02*
X16767597Y-34130451D01*
X16767597Y-34130451D02*
X16958073Y-34130451D01*
X16958073Y-34130451D02*
X17053311Y-34178070D01*
X17053311Y-34178070D02*
X17100930Y-34225689D01*
X17100930Y-34225689D02*
X17148549Y-34320927D01*
X17148549Y-34320927D02*
X17148549Y-34368546D01*
X17148549Y-34368546D02*
X17100930Y-34463784D01*
X17100930Y-34463784D02*
X17053311Y-34511403D01*
X17053311Y-34511403D02*
X16958073Y-34559022D01*
X16958073Y-34559022D02*
X16767597Y-34559022D01*
X16767597Y-34559022D02*
X16672359Y-34606641D01*
X16672359Y-34606641D02*
X16624740Y-34654260D01*
X16624740Y-34654260D02*
X16577121Y-34749498D01*
X16577121Y-34749498D02*
X16577121Y-34939974D01*
X16577121Y-34939974D02*
X16624740Y-35035212D01*
X16624740Y-35035212D02*
X16672359Y-35082832D01*
X16672359Y-35082832D02*
X16767597Y-35130451D01*
X16767597Y-35130451D02*
X16958073Y-35130451D01*
X16958073Y-35130451D02*
X17053311Y-35082832D01*
X17053311Y-35082832D02*
X17100930Y-35035212D01*
X17100930Y-35035212D02*
X17148549Y-34939974D01*
X17148549Y-34939974D02*
X17148549Y-34749498D01*
X17148549Y-34749498D02*
X17100930Y-34654260D01*
X17100930Y-34654260D02*
X17053311Y-34606641D01*
X17053311Y-34606641D02*
X16958073Y-34559022D01*
%TO.C,L14*%
X-14660974Y-35130451D02*
X-15137164Y-35130451D01*
X-15137164Y-35130451D02*
X-15137164Y-34130451D01*
X-13803831Y-35130451D02*
X-14375259Y-35130451D01*
X-14089545Y-35130451D02*
X-14089545Y-34130451D01*
X-14089545Y-34130451D02*
X-14184783Y-34273308D01*
X-14184783Y-34273308D02*
X-14280021Y-34368546D01*
X-14280021Y-34368546D02*
X-14375259Y-34416165D01*
X-12946688Y-34463784D02*
X-12946688Y-35130451D01*
X-13184783Y-34082832D02*
X-13422878Y-34797117D01*
X-13422878Y-34797117D02*
X-12803831Y-34797117D01*
%TO.C,L28*%
X339025Y-20130451D02*
X-137164Y-20130451D01*
X-137164Y-20130451D02*
X-137164Y-19130451D01*
X624740Y-19225689D02*
X672359Y-19178070D01*
X672359Y-19178070D02*
X767597Y-19130451D01*
X767597Y-19130451D02*
X1005692Y-19130451D01*
X1005692Y-19130451D02*
X1100930Y-19178070D01*
X1100930Y-19178070D02*
X1148549Y-19225689D01*
X1148549Y-19225689D02*
X1196168Y-19320927D01*
X1196168Y-19320927D02*
X1196168Y-19416165D01*
X1196168Y-19416165D02*
X1148549Y-19559022D01*
X1148549Y-19559022D02*
X577121Y-20130451D01*
X577121Y-20130451D02*
X1196168Y-20130451D01*
X1767597Y-19559022D02*
X1672359Y-19511403D01*
X1672359Y-19511403D02*
X1624740Y-19463784D01*
X1624740Y-19463784D02*
X1577121Y-19368546D01*
X1577121Y-19368546D02*
X1577121Y-19320927D01*
X1577121Y-19320927D02*
X1624740Y-19225689D01*
X1624740Y-19225689D02*
X1672359Y-19178070D01*
X1672359Y-19178070D02*
X1767597Y-19130451D01*
X1767597Y-19130451D02*
X1958073Y-19130451D01*
X1958073Y-19130451D02*
X2053311Y-19178070D01*
X2053311Y-19178070D02*
X2100930Y-19225689D01*
X2100930Y-19225689D02*
X2148549Y-19320927D01*
X2148549Y-19320927D02*
X2148549Y-19368546D01*
X2148549Y-19368546D02*
X2100930Y-19463784D01*
X2100930Y-19463784D02*
X2053311Y-19511403D01*
X2053311Y-19511403D02*
X1958073Y-19559022D01*
X1958073Y-19559022D02*
X1767597Y-19559022D01*
X1767597Y-19559022D02*
X1672359Y-19606641D01*
X1672359Y-19606641D02*
X1624740Y-19654260D01*
X1624740Y-19654260D02*
X1577121Y-19749498D01*
X1577121Y-19749498D02*
X1577121Y-19939974D01*
X1577121Y-19939974D02*
X1624740Y-20035212D01*
X1624740Y-20035212D02*
X1672359Y-20082832D01*
X1672359Y-20082832D02*
X1767597Y-20130451D01*
X1767597Y-20130451D02*
X1958073Y-20130451D01*
X1958073Y-20130451D02*
X2053311Y-20082832D01*
X2053311Y-20082832D02*
X2100930Y-20035212D01*
X2100930Y-20035212D02*
X2148549Y-19939974D01*
X2148549Y-19939974D02*
X2148549Y-19749498D01*
X2148549Y-19749498D02*
X2100930Y-19654260D01*
X2100930Y-19654260D02*
X2053311Y-19606641D01*
X2053311Y-19606641D02*
X1958073Y-19559022D01*
%TO.C,L37*%
X-22160974Y-5130451D02*
X-22637164Y-5130451D01*
X-22637164Y-5130451D02*
X-22637164Y-4130451D01*
X-21922878Y-4130451D02*
X-21303831Y-4130451D01*
X-21303831Y-4130451D02*
X-21637164Y-4511403D01*
X-21637164Y-4511403D02*
X-21494307Y-4511403D01*
X-21494307Y-4511403D02*
X-21399069Y-4559022D01*
X-21399069Y-4559022D02*
X-21351450Y-4606641D01*
X-21351450Y-4606641D02*
X-21303831Y-4701879D01*
X-21303831Y-4701879D02*
X-21303831Y-4939974D01*
X-21303831Y-4939974D02*
X-21351450Y-5035212D01*
X-21351450Y-5035212D02*
X-21399069Y-5082832D01*
X-21399069Y-5082832D02*
X-21494307Y-5130451D01*
X-21494307Y-5130451D02*
X-21780021Y-5130451D01*
X-21780021Y-5130451D02*
X-21875259Y-5082832D01*
X-21875259Y-5082832D02*
X-21922878Y-5035212D01*
X-20970497Y-4130451D02*
X-20303831Y-4130451D01*
X-20303831Y-4130451D02*
X-20732402Y-5130451D01*
%TO.C,H14*%
X13761905Y63737380D02*
X13761905Y64737380D01*
X13761905Y64261190D02*
X14333333Y64261190D01*
X14333333Y63737380D02*
X14333333Y64737380D01*
X15333333Y63737380D02*
X14761905Y63737380D01*
X15047619Y63737380D02*
X15047619Y64737380D01*
X15047619Y64737380D02*
X14952381Y64594523D01*
X14952381Y64594523D02*
X14857143Y64499285D01*
X14857143Y64499285D02*
X14761905Y64451666D01*
X16190476Y64404047D02*
X16190476Y63737380D01*
X15952381Y64785000D02*
X15714286Y64070714D01*
X15714286Y64070714D02*
X16333333Y64070714D01*
%TO.C,H15*%
X-8738094Y71237380D02*
X-8738094Y72237380D01*
X-8738094Y71761190D02*
X-8166666Y71761190D01*
X-8166666Y71237380D02*
X-8166666Y72237380D01*
X-7166666Y71237380D02*
X-7738094Y71237380D01*
X-7452380Y71237380D02*
X-7452380Y72237380D01*
X-7452380Y72237380D02*
X-7547618Y72094523D01*
X-7547618Y72094523D02*
X-7642856Y71999285D01*
X-7642856Y71999285D02*
X-7738094Y71951666D01*
X-6261904Y72237380D02*
X-6738094Y72237380D01*
X-6738094Y72237380D02*
X-6785713Y71761190D01*
X-6785713Y71761190D02*
X-6738094Y71808809D01*
X-6738094Y71808809D02*
X-6642856Y71856428D01*
X-6642856Y71856428D02*
X-6404761Y71856428D01*
X-6404761Y71856428D02*
X-6309523Y71808809D01*
X-6309523Y71808809D02*
X-6261904Y71761190D01*
X-6261904Y71761190D02*
X-6214285Y71665952D01*
X-6214285Y71665952D02*
X-6214285Y71427857D01*
X-6214285Y71427857D02*
X-6261904Y71332619D01*
X-6261904Y71332619D02*
X-6309523Y71285000D01*
X-6309523Y71285000D02*
X-6404761Y71237380D01*
X-6404761Y71237380D02*
X-6642856Y71237380D01*
X-6642856Y71237380D02*
X-6738094Y71285000D01*
X-6738094Y71285000D02*
X-6785713Y71332619D01*
%TO.C,L81*%
X-7160974Y47369548D02*
X-7637164Y47369548D01*
X-7637164Y47369548D02*
X-7637164Y48369548D01*
X-6684783Y47940977D02*
X-6780021Y47988596D01*
X-6780021Y47988596D02*
X-6827640Y48036215D01*
X-6827640Y48036215D02*
X-6875259Y48131453D01*
X-6875259Y48131453D02*
X-6875259Y48179072D01*
X-6875259Y48179072D02*
X-6827640Y48274310D01*
X-6827640Y48274310D02*
X-6780021Y48321929D01*
X-6780021Y48321929D02*
X-6684783Y48369548D01*
X-6684783Y48369548D02*
X-6494307Y48369548D01*
X-6494307Y48369548D02*
X-6399069Y48321929D01*
X-6399069Y48321929D02*
X-6351450Y48274310D01*
X-6351450Y48274310D02*
X-6303831Y48179072D01*
X-6303831Y48179072D02*
X-6303831Y48131453D01*
X-6303831Y48131453D02*
X-6351450Y48036215D01*
X-6351450Y48036215D02*
X-6399069Y47988596D01*
X-6399069Y47988596D02*
X-6494307Y47940977D01*
X-6494307Y47940977D02*
X-6684783Y47940977D01*
X-6684783Y47940977D02*
X-6780021Y47893358D01*
X-6780021Y47893358D02*
X-6827640Y47845739D01*
X-6827640Y47845739D02*
X-6875259Y47750501D01*
X-6875259Y47750501D02*
X-6875259Y47560025D01*
X-6875259Y47560025D02*
X-6827640Y47464787D01*
X-6827640Y47464787D02*
X-6780021Y47417168D01*
X-6780021Y47417168D02*
X-6684783Y47369548D01*
X-6684783Y47369548D02*
X-6494307Y47369548D01*
X-6494307Y47369548D02*
X-6399069Y47417168D01*
X-6399069Y47417168D02*
X-6351450Y47464787D01*
X-6351450Y47464787D02*
X-6303831Y47560025D01*
X-6303831Y47560025D02*
X-6303831Y47750501D01*
X-6303831Y47750501D02*
X-6351450Y47845739D01*
X-6351450Y47845739D02*
X-6399069Y47893358D01*
X-6399069Y47893358D02*
X-6494307Y47940977D01*
X-5351450Y47369548D02*
X-5922878Y47369548D01*
X-5637164Y47369548D02*
X-5637164Y48369548D01*
X-5637164Y48369548D02*
X-5732402Y48226691D01*
X-5732402Y48226691D02*
X-5827640Y48131453D01*
X-5827640Y48131453D02*
X-5922878Y48083834D01*
%TO.C,L29*%
X7839025Y-20130451D02*
X7362835Y-20130451D01*
X7362835Y-20130451D02*
X7362835Y-19130451D01*
X8124740Y-19225689D02*
X8172359Y-19178070D01*
X8172359Y-19178070D02*
X8267597Y-19130451D01*
X8267597Y-19130451D02*
X8505692Y-19130451D01*
X8505692Y-19130451D02*
X8600930Y-19178070D01*
X8600930Y-19178070D02*
X8648549Y-19225689D01*
X8648549Y-19225689D02*
X8696168Y-19320927D01*
X8696168Y-19320927D02*
X8696168Y-19416165D01*
X8696168Y-19416165D02*
X8648549Y-19559022D01*
X8648549Y-19559022D02*
X8077121Y-20130451D01*
X8077121Y-20130451D02*
X8696168Y-20130451D01*
X9172359Y-20130451D02*
X9362835Y-20130451D01*
X9362835Y-20130451D02*
X9458073Y-20082832D01*
X9458073Y-20082832D02*
X9505692Y-20035212D01*
X9505692Y-20035212D02*
X9600930Y-19892355D01*
X9600930Y-19892355D02*
X9648549Y-19701879D01*
X9648549Y-19701879D02*
X9648549Y-19320927D01*
X9648549Y-19320927D02*
X9600930Y-19225689D01*
X9600930Y-19225689D02*
X9553311Y-19178070D01*
X9553311Y-19178070D02*
X9458073Y-19130451D01*
X9458073Y-19130451D02*
X9267597Y-19130451D01*
X9267597Y-19130451D02*
X9172359Y-19178070D01*
X9172359Y-19178070D02*
X9124740Y-19225689D01*
X9124740Y-19225689D02*
X9077121Y-19320927D01*
X9077121Y-19320927D02*
X9077121Y-19559022D01*
X9077121Y-19559022D02*
X9124740Y-19654260D01*
X9124740Y-19654260D02*
X9172359Y-19701879D01*
X9172359Y-19701879D02*
X9267597Y-19749498D01*
X9267597Y-19749498D02*
X9458073Y-19749498D01*
X9458073Y-19749498D02*
X9553311Y-19701879D01*
X9553311Y-19701879D02*
X9600930Y-19654260D01*
X9600930Y-19654260D02*
X9648549Y-19559022D01*
%TO.C,L52*%
X339025Y9869548D02*
X-137164Y9869548D01*
X-137164Y9869548D02*
X-137164Y10869548D01*
X1148549Y10869548D02*
X672359Y10869548D01*
X672359Y10869548D02*
X624740Y10393358D01*
X624740Y10393358D02*
X672359Y10440977D01*
X672359Y10440977D02*
X767597Y10488596D01*
X767597Y10488596D02*
X1005692Y10488596D01*
X1005692Y10488596D02*
X1100930Y10440977D01*
X1100930Y10440977D02*
X1148549Y10393358D01*
X1148549Y10393358D02*
X1196168Y10298120D01*
X1196168Y10298120D02*
X1196168Y10060025D01*
X1196168Y10060025D02*
X1148549Y9964787D01*
X1148549Y9964787D02*
X1100930Y9917168D01*
X1100930Y9917168D02*
X1005692Y9869548D01*
X1005692Y9869548D02*
X767597Y9869548D01*
X767597Y9869548D02*
X672359Y9917168D01*
X672359Y9917168D02*
X624740Y9964787D01*
X1577121Y10774310D02*
X1624740Y10821929D01*
X1624740Y10821929D02*
X1719978Y10869548D01*
X1719978Y10869548D02*
X1958073Y10869548D01*
X1958073Y10869548D02*
X2053311Y10821929D01*
X2053311Y10821929D02*
X2100930Y10774310D01*
X2100930Y10774310D02*
X2148549Y10679072D01*
X2148549Y10679072D02*
X2148549Y10583834D01*
X2148549Y10583834D02*
X2100930Y10440977D01*
X2100930Y10440977D02*
X1529502Y9869548D01*
X1529502Y9869548D02*
X2148549Y9869548D01*
%TO.C,L84*%
X15339025Y47369548D02*
X14862835Y47369548D01*
X14862835Y47369548D02*
X14862835Y48369548D01*
X15815216Y47940977D02*
X15719978Y47988596D01*
X15719978Y47988596D02*
X15672359Y48036215D01*
X15672359Y48036215D02*
X15624740Y48131453D01*
X15624740Y48131453D02*
X15624740Y48179072D01*
X15624740Y48179072D02*
X15672359Y48274310D01*
X15672359Y48274310D02*
X15719978Y48321929D01*
X15719978Y48321929D02*
X15815216Y48369548D01*
X15815216Y48369548D02*
X16005692Y48369548D01*
X16005692Y48369548D02*
X16100930Y48321929D01*
X16100930Y48321929D02*
X16148549Y48274310D01*
X16148549Y48274310D02*
X16196168Y48179072D01*
X16196168Y48179072D02*
X16196168Y48131453D01*
X16196168Y48131453D02*
X16148549Y48036215D01*
X16148549Y48036215D02*
X16100930Y47988596D01*
X16100930Y47988596D02*
X16005692Y47940977D01*
X16005692Y47940977D02*
X15815216Y47940977D01*
X15815216Y47940977D02*
X15719978Y47893358D01*
X15719978Y47893358D02*
X15672359Y47845739D01*
X15672359Y47845739D02*
X15624740Y47750501D01*
X15624740Y47750501D02*
X15624740Y47560025D01*
X15624740Y47560025D02*
X15672359Y47464787D01*
X15672359Y47464787D02*
X15719978Y47417168D01*
X15719978Y47417168D02*
X15815216Y47369548D01*
X15815216Y47369548D02*
X16005692Y47369548D01*
X16005692Y47369548D02*
X16100930Y47417168D01*
X16100930Y47417168D02*
X16148549Y47464787D01*
X16148549Y47464787D02*
X16196168Y47560025D01*
X16196168Y47560025D02*
X16196168Y47750501D01*
X16196168Y47750501D02*
X16148549Y47845739D01*
X16148549Y47845739D02*
X16100930Y47893358D01*
X16100930Y47893358D02*
X16005692Y47940977D01*
X17053311Y48036215D02*
X17053311Y47369548D01*
X16815216Y48417168D02*
X16577121Y47702882D01*
X16577121Y47702882D02*
X17196168Y47702882D01*
%TO.C,L56*%
X-14660974Y17369548D02*
X-15137164Y17369548D01*
X-15137164Y17369548D02*
X-15137164Y18369548D01*
X-13851450Y18369548D02*
X-14327640Y18369548D01*
X-14327640Y18369548D02*
X-14375259Y17893358D01*
X-14375259Y17893358D02*
X-14327640Y17940977D01*
X-14327640Y17940977D02*
X-14232402Y17988596D01*
X-14232402Y17988596D02*
X-13994307Y17988596D01*
X-13994307Y17988596D02*
X-13899069Y17940977D01*
X-13899069Y17940977D02*
X-13851450Y17893358D01*
X-13851450Y17893358D02*
X-13803831Y17798120D01*
X-13803831Y17798120D02*
X-13803831Y17560025D01*
X-13803831Y17560025D02*
X-13851450Y17464787D01*
X-13851450Y17464787D02*
X-13899069Y17417168D01*
X-13899069Y17417168D02*
X-13994307Y17369548D01*
X-13994307Y17369548D02*
X-14232402Y17369548D01*
X-14232402Y17369548D02*
X-14327640Y17417168D01*
X-14327640Y17417168D02*
X-14375259Y17464787D01*
X-12946688Y18369548D02*
X-13137164Y18369548D01*
X-13137164Y18369548D02*
X-13232402Y18321929D01*
X-13232402Y18321929D02*
X-13280021Y18274310D01*
X-13280021Y18274310D02*
X-13375259Y18131453D01*
X-13375259Y18131453D02*
X-13422878Y17940977D01*
X-13422878Y17940977D02*
X-13422878Y17560025D01*
X-13422878Y17560025D02*
X-13375259Y17464787D01*
X-13375259Y17464787D02*
X-13327640Y17417168D01*
X-13327640Y17417168D02*
X-13232402Y17369548D01*
X-13232402Y17369548D02*
X-13041926Y17369548D01*
X-13041926Y17369548D02*
X-12946688Y17417168D01*
X-12946688Y17417168D02*
X-12899069Y17464787D01*
X-12899069Y17464787D02*
X-12851450Y17560025D01*
X-12851450Y17560025D02*
X-12851450Y17798120D01*
X-12851450Y17798120D02*
X-12899069Y17893358D01*
X-12899069Y17893358D02*
X-12946688Y17940977D01*
X-12946688Y17940977D02*
X-13041926Y17988596D01*
X-13041926Y17988596D02*
X-13232402Y17988596D01*
X-13232402Y17988596D02*
X-13327640Y17940977D01*
X-13327640Y17940977D02*
X-13375259Y17893358D01*
X-13375259Y17893358D02*
X-13422878Y17798120D01*
%TO.C,L32*%
X-14660974Y-12630451D02*
X-15137164Y-12630451D01*
X-15137164Y-12630451D02*
X-15137164Y-11630451D01*
X-14422878Y-11630451D02*
X-13803831Y-11630451D01*
X-13803831Y-11630451D02*
X-14137164Y-12011403D01*
X-14137164Y-12011403D02*
X-13994307Y-12011403D01*
X-13994307Y-12011403D02*
X-13899069Y-12059022D01*
X-13899069Y-12059022D02*
X-13851450Y-12106641D01*
X-13851450Y-12106641D02*
X-13803831Y-12201879D01*
X-13803831Y-12201879D02*
X-13803831Y-12439974D01*
X-13803831Y-12439974D02*
X-13851450Y-12535212D01*
X-13851450Y-12535212D02*
X-13899069Y-12582832D01*
X-13899069Y-12582832D02*
X-13994307Y-12630451D01*
X-13994307Y-12630451D02*
X-14280021Y-12630451D01*
X-14280021Y-12630451D02*
X-14375259Y-12582832D01*
X-14375259Y-12582832D02*
X-14422878Y-12535212D01*
X-13422878Y-11725689D02*
X-13375259Y-11678070D01*
X-13375259Y-11678070D02*
X-13280021Y-11630451D01*
X-13280021Y-11630451D02*
X-13041926Y-11630451D01*
X-13041926Y-11630451D02*
X-12946688Y-11678070D01*
X-12946688Y-11678070D02*
X-12899069Y-11725689D01*
X-12899069Y-11725689D02*
X-12851450Y-11820927D01*
X-12851450Y-11820927D02*
X-12851450Y-11916165D01*
X-12851450Y-11916165D02*
X-12899069Y-12059022D01*
X-12899069Y-12059022D02*
X-13470497Y-12630451D01*
X-13470497Y-12630451D02*
X-12851450Y-12630451D01*
%TO.C,L39*%
X-7160974Y-5130451D02*
X-7637164Y-5130451D01*
X-7637164Y-5130451D02*
X-7637164Y-4130451D01*
X-6922878Y-4130451D02*
X-6303831Y-4130451D01*
X-6303831Y-4130451D02*
X-6637164Y-4511403D01*
X-6637164Y-4511403D02*
X-6494307Y-4511403D01*
X-6494307Y-4511403D02*
X-6399069Y-4559022D01*
X-6399069Y-4559022D02*
X-6351450Y-4606641D01*
X-6351450Y-4606641D02*
X-6303831Y-4701879D01*
X-6303831Y-4701879D02*
X-6303831Y-4939974D01*
X-6303831Y-4939974D02*
X-6351450Y-5035212D01*
X-6351450Y-5035212D02*
X-6399069Y-5082832D01*
X-6399069Y-5082832D02*
X-6494307Y-5130451D01*
X-6494307Y-5130451D02*
X-6780021Y-5130451D01*
X-6780021Y-5130451D02*
X-6875259Y-5082832D01*
X-6875259Y-5082832D02*
X-6922878Y-5035212D01*
X-5827640Y-5130451D02*
X-5637164Y-5130451D01*
X-5637164Y-5130451D02*
X-5541926Y-5082832D01*
X-5541926Y-5082832D02*
X-5494307Y-5035212D01*
X-5494307Y-5035212D02*
X-5399069Y-4892355D01*
X-5399069Y-4892355D02*
X-5351450Y-4701879D01*
X-5351450Y-4701879D02*
X-5351450Y-4320927D01*
X-5351450Y-4320927D02*
X-5399069Y-4225689D01*
X-5399069Y-4225689D02*
X-5446688Y-4178070D01*
X-5446688Y-4178070D02*
X-5541926Y-4130451D01*
X-5541926Y-4130451D02*
X-5732402Y-4130451D01*
X-5732402Y-4130451D02*
X-5827640Y-4178070D01*
X-5827640Y-4178070D02*
X-5875259Y-4225689D01*
X-5875259Y-4225689D02*
X-5922878Y-4320927D01*
X-5922878Y-4320927D02*
X-5922878Y-4559022D01*
X-5922878Y-4559022D02*
X-5875259Y-4654260D01*
X-5875259Y-4654260D02*
X-5827640Y-4701879D01*
X-5827640Y-4701879D02*
X-5732402Y-4749498D01*
X-5732402Y-4749498D02*
X-5541926Y-4749498D01*
X-5541926Y-4749498D02*
X-5446688Y-4701879D01*
X-5446688Y-4701879D02*
X-5399069Y-4654260D01*
X-5399069Y-4654260D02*
X-5351450Y-4559022D01*
%TO.C,L26*%
X-14660974Y-20130451D02*
X-15137164Y-20130451D01*
X-15137164Y-20130451D02*
X-15137164Y-19130451D01*
X-14375259Y-19225689D02*
X-14327640Y-19178070D01*
X-14327640Y-19178070D02*
X-14232402Y-19130451D01*
X-14232402Y-19130451D02*
X-13994307Y-19130451D01*
X-13994307Y-19130451D02*
X-13899069Y-19178070D01*
X-13899069Y-19178070D02*
X-13851450Y-19225689D01*
X-13851450Y-19225689D02*
X-13803831Y-19320927D01*
X-13803831Y-19320927D02*
X-13803831Y-19416165D01*
X-13803831Y-19416165D02*
X-13851450Y-19559022D01*
X-13851450Y-19559022D02*
X-14422878Y-20130451D01*
X-14422878Y-20130451D02*
X-13803831Y-20130451D01*
X-12946688Y-19130451D02*
X-13137164Y-19130451D01*
X-13137164Y-19130451D02*
X-13232402Y-19178070D01*
X-13232402Y-19178070D02*
X-13280021Y-19225689D01*
X-13280021Y-19225689D02*
X-13375259Y-19368546D01*
X-13375259Y-19368546D02*
X-13422878Y-19559022D01*
X-13422878Y-19559022D02*
X-13422878Y-19939974D01*
X-13422878Y-19939974D02*
X-13375259Y-20035212D01*
X-13375259Y-20035212D02*
X-13327640Y-20082832D01*
X-13327640Y-20082832D02*
X-13232402Y-20130451D01*
X-13232402Y-20130451D02*
X-13041926Y-20130451D01*
X-13041926Y-20130451D02*
X-12946688Y-20082832D01*
X-12946688Y-20082832D02*
X-12899069Y-20035212D01*
X-12899069Y-20035212D02*
X-12851450Y-19939974D01*
X-12851450Y-19939974D02*
X-12851450Y-19701879D01*
X-12851450Y-19701879D02*
X-12899069Y-19606641D01*
X-12899069Y-19606641D02*
X-12946688Y-19559022D01*
X-12946688Y-19559022D02*
X-13041926Y-19511403D01*
X-13041926Y-19511403D02*
X-13232402Y-19511403D01*
X-13232402Y-19511403D02*
X-13327640Y-19559022D01*
X-13327640Y-19559022D02*
X-13375259Y-19606641D01*
X-13375259Y-19606641D02*
X-13422878Y-19701879D01*
%TO.C,L47*%
X7839025Y2369548D02*
X7362835Y2369548D01*
X7362835Y2369548D02*
X7362835Y3369548D01*
X8600930Y3036215D02*
X8600930Y2369548D01*
X8362835Y3417168D02*
X8124740Y2702882D01*
X8124740Y2702882D02*
X8743787Y2702882D01*
X9029502Y3369548D02*
X9696168Y3369548D01*
X9696168Y3369548D02*
X9267597Y2369548D01*
%TO.C,H16*%
X6261905Y71237380D02*
X6261905Y72237380D01*
X6261905Y71761190D02*
X6833333Y71761190D01*
X6833333Y71237380D02*
X6833333Y72237380D01*
X7833333Y71237380D02*
X7261905Y71237380D01*
X7547619Y71237380D02*
X7547619Y72237380D01*
X7547619Y72237380D02*
X7452381Y72094523D01*
X7452381Y72094523D02*
X7357143Y71999285D01*
X7357143Y71999285D02*
X7261905Y71951666D01*
X8690476Y72237380D02*
X8500000Y72237380D01*
X8500000Y72237380D02*
X8404762Y72189761D01*
X8404762Y72189761D02*
X8357143Y72142142D01*
X8357143Y72142142D02*
X8261905Y71999285D01*
X8261905Y71999285D02*
X8214286Y71808809D01*
X8214286Y71808809D02*
X8214286Y71427857D01*
X8214286Y71427857D02*
X8261905Y71332619D01*
X8261905Y71332619D02*
X8309524Y71285000D01*
X8309524Y71285000D02*
X8404762Y71237380D01*
X8404762Y71237380D02*
X8595238Y71237380D01*
X8595238Y71237380D02*
X8690476Y71285000D01*
X8690476Y71285000D02*
X8738095Y71332619D01*
X8738095Y71332619D02*
X8785714Y71427857D01*
X8785714Y71427857D02*
X8785714Y71665952D01*
X8785714Y71665952D02*
X8738095Y71761190D01*
X8738095Y71761190D02*
X8690476Y71808809D01*
X8690476Y71808809D02*
X8595238Y71856428D01*
X8595238Y71856428D02*
X8404762Y71856428D01*
X8404762Y71856428D02*
X8309524Y71808809D01*
X8309524Y71808809D02*
X8261905Y71761190D01*
X8261905Y71761190D02*
X8214286Y71665952D01*
%TO.C,L62*%
X-14660974Y24869548D02*
X-15137164Y24869548D01*
X-15137164Y24869548D02*
X-15137164Y25869548D01*
X-13899069Y25869548D02*
X-14089545Y25869548D01*
X-14089545Y25869548D02*
X-14184783Y25821929D01*
X-14184783Y25821929D02*
X-14232402Y25774310D01*
X-14232402Y25774310D02*
X-14327640Y25631453D01*
X-14327640Y25631453D02*
X-14375259Y25440977D01*
X-14375259Y25440977D02*
X-14375259Y25060025D01*
X-14375259Y25060025D02*
X-14327640Y24964787D01*
X-14327640Y24964787D02*
X-14280021Y24917168D01*
X-14280021Y24917168D02*
X-14184783Y24869548D01*
X-14184783Y24869548D02*
X-13994307Y24869548D01*
X-13994307Y24869548D02*
X-13899069Y24917168D01*
X-13899069Y24917168D02*
X-13851450Y24964787D01*
X-13851450Y24964787D02*
X-13803831Y25060025D01*
X-13803831Y25060025D02*
X-13803831Y25298120D01*
X-13803831Y25298120D02*
X-13851450Y25393358D01*
X-13851450Y25393358D02*
X-13899069Y25440977D01*
X-13899069Y25440977D02*
X-13994307Y25488596D01*
X-13994307Y25488596D02*
X-14184783Y25488596D01*
X-14184783Y25488596D02*
X-14280021Y25440977D01*
X-14280021Y25440977D02*
X-14327640Y25393358D01*
X-14327640Y25393358D02*
X-14375259Y25298120D01*
X-13422878Y25774310D02*
X-13375259Y25821929D01*
X-13375259Y25821929D02*
X-13280021Y25869548D01*
X-13280021Y25869548D02*
X-13041926Y25869548D01*
X-13041926Y25869548D02*
X-12946688Y25821929D01*
X-12946688Y25821929D02*
X-12899069Y25774310D01*
X-12899069Y25774310D02*
X-12851450Y25679072D01*
X-12851450Y25679072D02*
X-12851450Y25583834D01*
X-12851450Y25583834D02*
X-12899069Y25440977D01*
X-12899069Y25440977D02*
X-13470497Y24869548D01*
X-13470497Y24869548D02*
X-12851450Y24869548D01*
D11*
%TO.C,REF\u002A\u002A*%
X-1333333Y82537380D02*
X-1666666Y83013571D01*
X-1904761Y82537380D02*
X-1904761Y83537380D01*
X-1904761Y83537380D02*
X-1523809Y83537380D01*
X-1523809Y83537380D02*
X-1428571Y83489761D01*
X-1428571Y83489761D02*
X-1380952Y83442142D01*
X-1380952Y83442142D02*
X-1333333Y83346904D01*
X-1333333Y83346904D02*
X-1333333Y83204047D01*
X-1333333Y83204047D02*
X-1380952Y83108809D01*
X-1380952Y83108809D02*
X-1428571Y83061190D01*
X-1428571Y83061190D02*
X-1523809Y83013571D01*
X-1523809Y83013571D02*
X-1904761Y83013571D01*
X-904761Y83061190D02*
X-571428Y83061190D01*
X-428571Y82537380D02*
X-904761Y82537380D01*
X-904761Y82537380D02*
X-904761Y83537380D01*
X-904761Y83537380D02*
X-428571Y83537380D01*
X333333Y83061190D02*
X0Y83061190D01*
X0Y82537380D02*
X0Y83537380D01*
X0Y83537380D02*
X476190Y83537380D01*
X1000000Y83537380D02*
X1000000Y83299285D01*
X761905Y83394523D02*
X1000000Y83299285D01*
X1000000Y83299285D02*
X1238095Y83394523D01*
X857143Y83108809D02*
X1000000Y83299285D01*
X1000000Y83299285D02*
X1142857Y83108809D01*
X1761905Y83537380D02*
X1761905Y83299285D01*
X1523810Y83394523D02*
X1761905Y83299285D01*
X1761905Y83299285D02*
X2000000Y83394523D01*
X1619048Y83108809D02*
X1761905Y83299285D01*
X1761905Y83299285D02*
X1904762Y83108809D01*
D10*
%TO.C,H11*%
X-8738094Y63737380D02*
X-8738094Y64737380D01*
X-8738094Y64261190D02*
X-8166666Y64261190D01*
X-8166666Y63737380D02*
X-8166666Y64737380D01*
X-7166666Y63737380D02*
X-7738094Y63737380D01*
X-7452380Y63737380D02*
X-7452380Y64737380D01*
X-7452380Y64737380D02*
X-7547618Y64594523D01*
X-7547618Y64594523D02*
X-7642856Y64499285D01*
X-7642856Y64499285D02*
X-7738094Y64451666D01*
X-6214285Y63737380D02*
X-6785713Y63737380D01*
X-6499999Y63737380D02*
X-6499999Y64737380D01*
X-6499999Y64737380D02*
X-6595237Y64594523D01*
X-6595237Y64594523D02*
X-6690475Y64499285D01*
X-6690475Y64499285D02*
X-6785713Y64451666D01*
%TO.C,L68*%
X-14660974Y32369548D02*
X-15137164Y32369548D01*
X-15137164Y32369548D02*
X-15137164Y33369548D01*
X-13899069Y33369548D02*
X-14089545Y33369548D01*
X-14089545Y33369548D02*
X-14184783Y33321929D01*
X-14184783Y33321929D02*
X-14232402Y33274310D01*
X-14232402Y33274310D02*
X-14327640Y33131453D01*
X-14327640Y33131453D02*
X-14375259Y32940977D01*
X-14375259Y32940977D02*
X-14375259Y32560025D01*
X-14375259Y32560025D02*
X-14327640Y32464787D01*
X-14327640Y32464787D02*
X-14280021Y32417168D01*
X-14280021Y32417168D02*
X-14184783Y32369548D01*
X-14184783Y32369548D02*
X-13994307Y32369548D01*
X-13994307Y32369548D02*
X-13899069Y32417168D01*
X-13899069Y32417168D02*
X-13851450Y32464787D01*
X-13851450Y32464787D02*
X-13803831Y32560025D01*
X-13803831Y32560025D02*
X-13803831Y32798120D01*
X-13803831Y32798120D02*
X-13851450Y32893358D01*
X-13851450Y32893358D02*
X-13899069Y32940977D01*
X-13899069Y32940977D02*
X-13994307Y32988596D01*
X-13994307Y32988596D02*
X-14184783Y32988596D01*
X-14184783Y32988596D02*
X-14280021Y32940977D01*
X-14280021Y32940977D02*
X-14327640Y32893358D01*
X-14327640Y32893358D02*
X-14375259Y32798120D01*
X-13232402Y32940977D02*
X-13327640Y32988596D01*
X-13327640Y32988596D02*
X-13375259Y33036215D01*
X-13375259Y33036215D02*
X-13422878Y33131453D01*
X-13422878Y33131453D02*
X-13422878Y33179072D01*
X-13422878Y33179072D02*
X-13375259Y33274310D01*
X-13375259Y33274310D02*
X-13327640Y33321929D01*
X-13327640Y33321929D02*
X-13232402Y33369548D01*
X-13232402Y33369548D02*
X-13041926Y33369548D01*
X-13041926Y33369548D02*
X-12946688Y33321929D01*
X-12946688Y33321929D02*
X-12899069Y33274310D01*
X-12899069Y33274310D02*
X-12851450Y33179072D01*
X-12851450Y33179072D02*
X-12851450Y33131453D01*
X-12851450Y33131453D02*
X-12899069Y33036215D01*
X-12899069Y33036215D02*
X-12946688Y32988596D01*
X-12946688Y32988596D02*
X-13041926Y32940977D01*
X-13041926Y32940977D02*
X-13232402Y32940977D01*
X-13232402Y32940977D02*
X-13327640Y32893358D01*
X-13327640Y32893358D02*
X-13375259Y32845739D01*
X-13375259Y32845739D02*
X-13422878Y32750501D01*
X-13422878Y32750501D02*
X-13422878Y32560025D01*
X-13422878Y32560025D02*
X-13375259Y32464787D01*
X-13375259Y32464787D02*
X-13327640Y32417168D01*
X-13327640Y32417168D02*
X-13232402Y32369548D01*
X-13232402Y32369548D02*
X-13041926Y32369548D01*
X-13041926Y32369548D02*
X-12946688Y32417168D01*
X-12946688Y32417168D02*
X-12899069Y32464787D01*
X-12899069Y32464787D02*
X-12851450Y32560025D01*
X-12851450Y32560025D02*
X-12851450Y32750501D01*
X-12851450Y32750501D02*
X-12899069Y32845739D01*
X-12899069Y32845739D02*
X-12946688Y32893358D01*
X-12946688Y32893358D02*
X-13041926Y32940977D01*
%TO.C,L54*%
X15339025Y9869548D02*
X14862835Y9869548D01*
X14862835Y9869548D02*
X14862835Y10869548D01*
X16148549Y10869548D02*
X15672359Y10869548D01*
X15672359Y10869548D02*
X15624740Y10393358D01*
X15624740Y10393358D02*
X15672359Y10440977D01*
X15672359Y10440977D02*
X15767597Y10488596D01*
X15767597Y10488596D02*
X16005692Y10488596D01*
X16005692Y10488596D02*
X16100930Y10440977D01*
X16100930Y10440977D02*
X16148549Y10393358D01*
X16148549Y10393358D02*
X16196168Y10298120D01*
X16196168Y10298120D02*
X16196168Y10060025D01*
X16196168Y10060025D02*
X16148549Y9964787D01*
X16148549Y9964787D02*
X16100930Y9917168D01*
X16100930Y9917168D02*
X16005692Y9869548D01*
X16005692Y9869548D02*
X15767597Y9869548D01*
X15767597Y9869548D02*
X15672359Y9917168D01*
X15672359Y9917168D02*
X15624740Y9964787D01*
X17053311Y10536215D02*
X17053311Y9869548D01*
X16815216Y10917168D02*
X16577121Y10202882D01*
X16577121Y10202882D02*
X17196168Y10202882D01*
%TO.C,L67*%
X-22160974Y32369548D02*
X-22637164Y32369548D01*
X-22637164Y32369548D02*
X-22637164Y33369548D01*
X-21399069Y33369548D02*
X-21589545Y33369548D01*
X-21589545Y33369548D02*
X-21684783Y33321929D01*
X-21684783Y33321929D02*
X-21732402Y33274310D01*
X-21732402Y33274310D02*
X-21827640Y33131453D01*
X-21827640Y33131453D02*
X-21875259Y32940977D01*
X-21875259Y32940977D02*
X-21875259Y32560025D01*
X-21875259Y32560025D02*
X-21827640Y32464787D01*
X-21827640Y32464787D02*
X-21780021Y32417168D01*
X-21780021Y32417168D02*
X-21684783Y32369548D01*
X-21684783Y32369548D02*
X-21494307Y32369548D01*
X-21494307Y32369548D02*
X-21399069Y32417168D01*
X-21399069Y32417168D02*
X-21351450Y32464787D01*
X-21351450Y32464787D02*
X-21303831Y32560025D01*
X-21303831Y32560025D02*
X-21303831Y32798120D01*
X-21303831Y32798120D02*
X-21351450Y32893358D01*
X-21351450Y32893358D02*
X-21399069Y32940977D01*
X-21399069Y32940977D02*
X-21494307Y32988596D01*
X-21494307Y32988596D02*
X-21684783Y32988596D01*
X-21684783Y32988596D02*
X-21780021Y32940977D01*
X-21780021Y32940977D02*
X-21827640Y32893358D01*
X-21827640Y32893358D02*
X-21875259Y32798120D01*
X-20970497Y33369548D02*
X-20303831Y33369548D01*
X-20303831Y33369548D02*
X-20732402Y32369548D01*
D12*
%TO.C,J3*%
X-5980000Y-73900000D02*
X-2100000Y-73900000D01*
X-7150000Y-71930000D02*
X-7150000Y-69430000D01*
X-930000Y-71930000D02*
X-930000Y-69430000D01*
X-7150000Y-69430000D02*
X-6100000Y-69430000D01*
X-930000Y-69430000D02*
X-1980000Y-69430000D01*
X-6100000Y-69430000D02*
X-6100000Y-68440000D01*
%TO.C,J2*%
X13970000Y-57598000D02*
X21650000Y-57598000D01*
X12700000Y-60258000D02*
X11370000Y-60258000D01*
X21650000Y-60258000D02*
X21650000Y-57598000D01*
X13970000Y-60258000D02*
X13970000Y-57598000D01*
X11370000Y-60258000D02*
X11370000Y-58928000D01*
X13970000Y-60258000D02*
X21650000Y-60258000D01*
%TO.C,J1*%
X-14410000Y-60180000D02*
X-14410000Y-62290000D01*
X-16070000Y-65030000D02*
X-16070000Y-71030000D01*
X-10990000Y-65030000D02*
X-10990000Y-71030000D01*
X-10990000Y-71030000D02*
X-11870000Y-71030000D01*
X-10040000Y-62290000D02*
X-10040000Y-65030000D01*
X-11870000Y-60180000D02*
X-11870000Y-62290000D01*
X-16070000Y-60180000D02*
X-16070000Y-62290000D01*
X-10990000Y-60180000D02*
X-10990000Y-62290000D01*
X-18610000Y-60180000D02*
X-18610000Y-62290000D01*
X-16950000Y-60180000D02*
X-16950000Y-62290000D01*
X-19490000Y-60180000D02*
X-19490000Y-62290000D01*
X-16950000Y-71030000D02*
X-16950000Y-65030000D01*
X-10610000Y-57040000D02*
X-10610000Y-58610000D01*
X-16070000Y-71030000D02*
X-16950000Y-71030000D01*
X-11870000Y-71030000D02*
X-11870000Y-65030000D01*
X-20440000Y-65030000D02*
X-20440000Y-62290000D01*
X-20440000Y-62290000D02*
X-10040000Y-62290000D01*
X-18610000Y-71030000D02*
X-19490000Y-71030000D01*
X-18610000Y-65030000D02*
X-18610000Y-71030000D01*
X-19490000Y-71030000D02*
X-19490000Y-65030000D01*
X-13530000Y-65030000D02*
X-13530000Y-71030000D01*
X-13530000Y-60180000D02*
X-13530000Y-62290000D01*
X-11430000Y-57040000D02*
X-10610000Y-57040000D01*
X-13530000Y-71030000D02*
X-14410000Y-71030000D01*
X-14410000Y-71030000D02*
X-14410000Y-65030000D01*
X-10040000Y-65030000D02*
X-20440000Y-65030000D01*
%TO.C,L74*%
X-14120648Y36814312D02*
X-11935688Y34629352D01*
X-9103398Y39645948D02*
G75*
G03*
X-14120527Y36814192I-2114576J-2113922D01*
G01*
X-11935808Y34629474D02*
G75*
G03*
X-9104052Y39646602I717834J2902552D01*
G01*
X-8717974Y37532026D02*
G75*
G03*
X-8717974Y37532026I-2500000J0D01*
G01*
%TO.C,L17*%
X8379352Y-38185688D02*
X10564312Y-40370648D01*
X13396602Y-35354052D02*
G75*
G03*
X8379473Y-38185808I-2114576J-2113922D01*
G01*
X10564192Y-40370526D02*
G75*
G03*
X13395948Y-35353398I717834J2902552D01*
G01*
X13782026Y-37467974D02*
G75*
G03*
X13782026Y-37467974I-2500000J0D01*
G01*
%TO.C,L88*%
X879352Y51814312D02*
X3064312Y49629352D01*
X5896602Y54645948D02*
G75*
G03*
X879473Y51814192I-2114576J-2113922D01*
G01*
X3064192Y49629474D02*
G75*
G03*
X5895948Y54646602I717834J2902552D01*
G01*
X6282026Y52532026D02*
G75*
G03*
X6282026Y52532026I-2500000J0D01*
G01*
%TO.C,L90*%
X15879352Y51814312D02*
X18064312Y49629352D01*
X20896602Y54645948D02*
G75*
G03*
X15879473Y51814192I-2114576J-2113922D01*
G01*
X18064192Y49629474D02*
G75*
G03*
X20895948Y54646602I717834J2902552D01*
G01*
X21282026Y52532026D02*
G75*
G03*
X21282026Y52532026I-2500000J0D01*
G01*
%TO.C,L10*%
X879352Y-45685688D02*
X3064312Y-47870648D01*
X5896602Y-42854052D02*
G75*
G03*
X879473Y-45685808I-2114576J-2113922D01*
G01*
X3064192Y-47870526D02*
G75*
G03*
X5895948Y-42853398I717834J2902552D01*
G01*
X6282026Y-44967974D02*
G75*
G03*
X6282026Y-44967974I-2500000J0D01*
G01*
%TO.C,L70*%
X879352Y29314312D02*
X3064312Y27129352D01*
X5896602Y32145948D02*
G75*
G03*
X879473Y29314192I-2114576J-2113922D01*
G01*
X3064192Y27129474D02*
G75*
G03*
X5895948Y32146602I717834J2902552D01*
G01*
X6282026Y30032026D02*
G75*
G03*
X6282026Y30032026I-2500000J0D01*
G01*
%TO.C,L80*%
X-14120648Y44314312D02*
X-11935688Y42129352D01*
X-9103398Y47145948D02*
G75*
G03*
X-14120527Y44314192I-2114576J-2113922D01*
G01*
X-11935808Y42129474D02*
G75*
G03*
X-9104052Y47146602I717834J2902552D01*
G01*
X-8717974Y45032026D02*
G75*
G03*
X-8717974Y45032026I-2500000J0D01*
G01*
%TO.C,L13*%
X-21620648Y-38185688D02*
X-19435688Y-40370648D01*
X-16603398Y-35354052D02*
G75*
G03*
X-21620527Y-38185808I-2114576J-2113922D01*
G01*
X-19435808Y-40370526D02*
G75*
G03*
X-16604052Y-35353398I717834J2902552D01*
G01*
X-16217974Y-37467974D02*
G75*
G03*
X-16217974Y-37467974I-2500000J0D01*
G01*
%TO.C,L9*%
X-6620648Y-45685688D02*
X-4435688Y-47870648D01*
X-1603398Y-42854052D02*
G75*
G03*
X-6620527Y-45685808I-2114576J-2113922D01*
G01*
X-4435808Y-47870526D02*
G75*
G03*
X-1604052Y-42853398I717834J2902552D01*
G01*
X-1217974Y-44967974D02*
G75*
G03*
X-1217974Y-44967974I-2500000J0D01*
G01*
%TO.C,L86*%
X-14120648Y51814312D02*
X-11935688Y49629352D01*
X-9103398Y54645948D02*
G75*
G03*
X-14120527Y51814192I-2114576J-2113922D01*
G01*
X-11935808Y49629474D02*
G75*
G03*
X-9104052Y54646602I717834J2902552D01*
G01*
X-8717974Y52532026D02*
G75*
G03*
X-8717974Y52532026I-2500000J0D01*
G01*
%TO.C,L71*%
X8379352Y29314312D02*
X10564312Y27129352D01*
X13396602Y32145948D02*
G75*
G03*
X8379473Y29314192I-2114576J-2113922D01*
G01*
X10564192Y27129474D02*
G75*
G03*
X13395948Y32146602I717834J2902552D01*
G01*
X13782026Y30032026D02*
G75*
G03*
X13782026Y30032026I-2500000J0D01*
G01*
%TO.C,L69*%
X-6620648Y29314312D02*
X-4435688Y27129352D01*
X-1603398Y32145948D02*
G75*
G03*
X-6620527Y29314192I-2114576J-2113922D01*
G01*
X-4435808Y27129474D02*
G75*
G03*
X-1604052Y32146602I717834J2902552D01*
G01*
X-1217974Y30032026D02*
G75*
G03*
X-1217974Y30032026I-2500000J0D01*
G01*
%TO.C,L72*%
X15879352Y29314312D02*
X18064312Y27129352D01*
X20896602Y32145948D02*
G75*
G03*
X15879473Y29314192I-2114576J-2113922D01*
G01*
X18064192Y27129474D02*
G75*
G03*
X20895948Y32146602I717834J2902552D01*
G01*
X21282026Y30032026D02*
G75*
G03*
X21282026Y30032026I-2500000J0D01*
G01*
%TO.C,L63*%
X-6620648Y21814312D02*
X-4435688Y19629352D01*
X-1603398Y24645948D02*
G75*
G03*
X-6620527Y21814192I-2114576J-2113922D01*
G01*
X-4435808Y19629474D02*
G75*
G03*
X-1604052Y24646602I717834J2902552D01*
G01*
X-1217974Y22532026D02*
G75*
G03*
X-1217974Y22532026I-2500000J0D01*
G01*
%TO.C,L20*%
X-14120648Y-30685688D02*
X-11935688Y-32870648D01*
X-9103398Y-27854052D02*
G75*
G03*
X-14120527Y-30685808I-2114576J-2113922D01*
G01*
X-11935808Y-32870526D02*
G75*
G03*
X-9104052Y-27853398I717834J2902552D01*
G01*
X-8717974Y-29967974D02*
G75*
G03*
X-8717974Y-29967974I-2500000J0D01*
G01*
%TO.C,L87*%
X-6620648Y51814312D02*
X-4435688Y49629352D01*
X-1603398Y54645948D02*
G75*
G03*
X-6620527Y51814192I-2114576J-2113922D01*
G01*
X-4435808Y49629474D02*
G75*
G03*
X-1604052Y54646602I717834J2902552D01*
G01*
X-1217974Y52532026D02*
G75*
G03*
X-1217974Y52532026I-2500000J0D01*
G01*
%TO.C,L58*%
X879352Y14314312D02*
X3064312Y12129352D01*
X5896602Y17145948D02*
G75*
G03*
X879473Y14314192I-2114576J-2113922D01*
G01*
X3064192Y12129474D02*
G75*
G03*
X5895948Y17146602I717834J2902552D01*
G01*
X6282026Y15032026D02*
G75*
G03*
X6282026Y15032026I-2500000J0D01*
G01*
%TO.C,L42*%
X15879352Y-8185688D02*
X18064312Y-10370648D01*
X20896602Y-5354052D02*
G75*
G03*
X15879473Y-8185808I-2114576J-2113922D01*
G01*
X18064192Y-10370526D02*
G75*
G03*
X20895948Y-5353398I717834J2902552D01*
G01*
X21282026Y-7467974D02*
G75*
G03*
X21282026Y-7467974I-2500000J0D01*
G01*
%TO.C,L16*%
X879352Y-38185688D02*
X3064312Y-40370648D01*
X5896602Y-35354052D02*
G75*
G03*
X879473Y-38185808I-2114576J-2113922D01*
G01*
X3064192Y-40370526D02*
G75*
G03*
X5895948Y-35353398I717834J2902552D01*
G01*
X6282026Y-37467974D02*
G75*
G03*
X6282026Y-37467974I-2500000J0D01*
G01*
%TO.C,L79*%
X-21620648Y44314312D02*
X-19435688Y42129352D01*
X-16603398Y47145948D02*
G75*
G03*
X-21620527Y44314192I-2114576J-2113922D01*
G01*
X-19435808Y42129474D02*
G75*
G03*
X-16604052Y47146602I717834J2902552D01*
G01*
X-16217974Y45032026D02*
G75*
G03*
X-16217974Y45032026I-2500000J0D01*
G01*
%TO.C,L45*%
X-6620648Y-685688D02*
X-4435688Y-2870648D01*
X-1603398Y2145948D02*
G75*
G03*
X-6620527Y-685808I-2114576J-2113922D01*
G01*
X-4435808Y-2870526D02*
G75*
G03*
X-1604052Y2146602I717834J2902552D01*
G01*
X-1217974Y32026D02*
G75*
G03*
X-1217974Y32026I-2500000J0D01*
G01*
%TO.C,L38*%
X-14120648Y-8185688D02*
X-11935688Y-10370648D01*
X-9103398Y-5354052D02*
G75*
G03*
X-14120527Y-8185808I-2114576J-2113922D01*
G01*
X-11935808Y-10370526D02*
G75*
G03*
X-9104052Y-5353398I717834J2902552D01*
G01*
X-8717974Y-7467974D02*
G75*
G03*
X-8717974Y-7467974I-2500000J0D01*
G01*
%TO.C,L85*%
X-21620648Y51814312D02*
X-19435688Y49629352D01*
X-16603398Y54645948D02*
G75*
G03*
X-21620527Y51814192I-2114576J-2113922D01*
G01*
X-19435808Y49629474D02*
G75*
G03*
X-16604052Y54646602I717834J2902552D01*
G01*
X-16217974Y52532026D02*
G75*
G03*
X-16217974Y52532026I-2500000J0D01*
G01*
%TO.C,L1*%
X-21620648Y-53185688D02*
X-19435688Y-55370648D01*
X-16603398Y-50354052D02*
G75*
G03*
X-21620527Y-53185808I-2114576J-2113922D01*
G01*
X-19435808Y-55370526D02*
G75*
G03*
X-16604052Y-50353398I717834J2902552D01*
G01*
X-16217974Y-52467974D02*
G75*
G03*
X-16217974Y-52467974I-2500000J0D01*
G01*
%TO.C,L61*%
X-21620648Y21814312D02*
X-19435688Y19629352D01*
X-16603398Y24645948D02*
G75*
G03*
X-21620527Y21814192I-2114576J-2113922D01*
G01*
X-19435808Y19629474D02*
G75*
G03*
X-16604052Y24646602I717834J2902552D01*
G01*
X-16217974Y22532026D02*
G75*
G03*
X-16217974Y22532026I-2500000J0D01*
G01*
%TO.C,L89*%
X8379352Y51814312D02*
X10564312Y49629352D01*
X13396602Y54645948D02*
G75*
G03*
X8379473Y51814192I-2114576J-2113922D01*
G01*
X10564192Y49629474D02*
G75*
G03*
X13395948Y54646602I717834J2902552D01*
G01*
X13782026Y52532026D02*
G75*
G03*
X13782026Y52532026I-2500000J0D01*
G01*
%TO.C,L4*%
X879352Y-53185688D02*
X3064312Y-55370648D01*
X5896602Y-50354052D02*
G75*
G03*
X879473Y-53185808I-2114576J-2113922D01*
G01*
X3064192Y-55370526D02*
G75*
G03*
X5895948Y-50353398I717834J2902552D01*
G01*
X6282026Y-52467974D02*
G75*
G03*
X6282026Y-52467974I-2500000J0D01*
G01*
%TO.C,L50*%
X-14120648Y6814312D02*
X-11935688Y4629352D01*
X-9103398Y9645948D02*
G75*
G03*
X-14120527Y6814192I-2114576J-2113922D01*
G01*
X-11935808Y4629474D02*
G75*
G03*
X-9104052Y9646602I717834J2902552D01*
G01*
X-8717974Y7532026D02*
G75*
G03*
X-8717974Y7532026I-2500000J0D01*
G01*
%TO.C,L75*%
X-6620648Y36814312D02*
X-4435688Y34629352D01*
X-1603398Y39645948D02*
G75*
G03*
X-6620527Y36814192I-2114576J-2113922D01*
G01*
X-4435808Y34629474D02*
G75*
G03*
X-1604052Y39646602I717834J2902552D01*
G01*
X-1217974Y37532026D02*
G75*
G03*
X-1217974Y37532026I-2500000J0D01*
G01*
%TO.C,L3*%
X-6620648Y-53185688D02*
X-4435688Y-55370648D01*
X-1603398Y-50354052D02*
G75*
G03*
X-6620527Y-53185808I-2114576J-2113922D01*
G01*
X-4435808Y-55370526D02*
G75*
G03*
X-1604052Y-50353398I717834J2902552D01*
G01*
X-1217974Y-52467974D02*
G75*
G03*
X-1217974Y-52467974I-2500000J0D01*
G01*
%TO.C,L76*%
X879352Y36814312D02*
X3064312Y34629352D01*
X5896602Y39645948D02*
G75*
G03*
X879473Y36814192I-2114576J-2113922D01*
G01*
X3064192Y34629474D02*
G75*
G03*
X5895948Y39646602I717834J2902552D01*
G01*
X6282026Y37532026D02*
G75*
G03*
X6282026Y37532026I-2500000J0D01*
G01*
%TO.C,L27*%
X-6620648Y-23185688D02*
X-4435688Y-25370648D01*
X-1603398Y-20354052D02*
G75*
G03*
X-6620527Y-23185808I-2114576J-2113922D01*
G01*
X-4435808Y-25370526D02*
G75*
G03*
X-1604052Y-20353398I717834J2902552D01*
G01*
X-1217974Y-22467974D02*
G75*
G03*
X-1217974Y-22467974I-2500000J0D01*
G01*
%TO.C,L7*%
X-21620648Y-45685688D02*
X-19435688Y-47870648D01*
X-16603398Y-42854052D02*
G75*
G03*
X-21620527Y-45685808I-2114576J-2113922D01*
G01*
X-19435808Y-47870526D02*
G75*
G03*
X-16604052Y-42853398I717834J2902552D01*
G01*
X-16217974Y-44967974D02*
G75*
G03*
X-16217974Y-44967974I-2500000J0D01*
G01*
%TO.C,L64*%
X879352Y21814312D02*
X3064312Y19629352D01*
X5896602Y24645948D02*
G75*
G03*
X879473Y21814192I-2114576J-2113922D01*
G01*
X3064192Y19629474D02*
G75*
G03*
X5895948Y24646602I717834J2902552D01*
G01*
X6282026Y22532026D02*
G75*
G03*
X6282026Y22532026I-2500000J0D01*
G01*
%TO.C,L35*%
X8379352Y-15685688D02*
X10564312Y-17870648D01*
X13396602Y-12854052D02*
G75*
G03*
X8379473Y-15685808I-2114576J-2113922D01*
G01*
X10564192Y-17870526D02*
G75*
G03*
X13395948Y-12853398I717834J2902552D01*
G01*
X13782026Y-14967974D02*
G75*
G03*
X13782026Y-14967974I-2500000J0D01*
G01*
%TO.C,L12*%
X15879352Y-45685688D02*
X18064312Y-47870648D01*
X20896602Y-42854052D02*
G75*
G03*
X15879473Y-45685808I-2114576J-2113922D01*
G01*
X18064192Y-47870526D02*
G75*
G03*
X20895948Y-42853398I717834J2902552D01*
G01*
X21282026Y-44967974D02*
G75*
G03*
X21282026Y-44967974I-2500000J0D01*
G01*
%TO.C,L65*%
X8379352Y21814312D02*
X10564312Y19629352D01*
X13396602Y24645948D02*
G75*
G03*
X8379473Y21814192I-2114576J-2113922D01*
G01*
X10564192Y19629474D02*
G75*
G03*
X13395948Y24646602I717834J2902552D01*
G01*
X13782026Y22532026D02*
G75*
G03*
X13782026Y22532026I-2500000J0D01*
G01*
%TO.C,L53*%
X8379352Y6814312D02*
X10564312Y4629352D01*
X13396602Y9645948D02*
G75*
G03*
X8379473Y6814192I-2114576J-2113922D01*
G01*
X10564192Y4629474D02*
G75*
G03*
X13395948Y9646602I717834J2902552D01*
G01*
X13782026Y7532026D02*
G75*
G03*
X13782026Y7532026I-2500000J0D01*
G01*
%TO.C,L60*%
X15879352Y14314312D02*
X18064312Y12129352D01*
X20896602Y17145948D02*
G75*
G03*
X15879473Y14314192I-2114576J-2113922D01*
G01*
X18064192Y12129474D02*
G75*
G03*
X20895948Y17146602I717834J2902552D01*
G01*
X21282026Y15032026D02*
G75*
G03*
X21282026Y15032026I-2500000J0D01*
G01*
%TO.C,L78*%
X15879352Y36814312D02*
X18064312Y34629352D01*
X20896602Y39645948D02*
G75*
G03*
X15879473Y36814192I-2114576J-2113922D01*
G01*
X18064192Y34629474D02*
G75*
G03*
X20895948Y39646602I717834J2902552D01*
G01*
X21282026Y37532026D02*
G75*
G03*
X21282026Y37532026I-2500000J0D01*
G01*
%TO.C,L23*%
X8379352Y-30685688D02*
X10564312Y-32870648D01*
X13396602Y-27854052D02*
G75*
G03*
X8379473Y-30685808I-2114576J-2113922D01*
G01*
X10564192Y-32870526D02*
G75*
G03*
X13395948Y-27853398I717834J2902552D01*
G01*
X13782026Y-29967974D02*
G75*
G03*
X13782026Y-29967974I-2500000J0D01*
G01*
%TO.C,L41*%
X8379352Y-8185688D02*
X10564312Y-10370648D01*
X13396602Y-5354052D02*
G75*
G03*
X8379473Y-8185808I-2114576J-2113922D01*
G01*
X10564192Y-10370526D02*
G75*
G03*
X13395948Y-5353398I717834J2902552D01*
G01*
X13782026Y-7467974D02*
G75*
G03*
X13782026Y-7467974I-2500000J0D01*
G01*
%TO.C,L83*%
X8379352Y44314312D02*
X10564312Y42129352D01*
X13396602Y47145948D02*
G75*
G03*
X8379473Y44314192I-2114576J-2113922D01*
G01*
X10564192Y42129474D02*
G75*
G03*
X13395948Y47146602I717834J2902552D01*
G01*
X13782026Y45032026D02*
G75*
G03*
X13782026Y45032026I-2500000J0D01*
G01*
%TO.C,L2*%
X-14120648Y-53185688D02*
X-11935688Y-55370648D01*
X-9103398Y-50354052D02*
G75*
G03*
X-14120527Y-53185808I-2114576J-2113922D01*
G01*
X-11935808Y-55370526D02*
G75*
G03*
X-9104052Y-50353398I717834J2902552D01*
G01*
X-8717974Y-52467974D02*
G75*
G03*
X-8717974Y-52467974I-2500000J0D01*
G01*
%TO.C,L15*%
X-6620648Y-38185688D02*
X-4435688Y-40370648D01*
X-1603398Y-35354052D02*
G75*
G03*
X-6620527Y-38185808I-2114576J-2113922D01*
G01*
X-4435808Y-40370526D02*
G75*
G03*
X-1604052Y-35353398I717834J2902552D01*
G01*
X-1217974Y-37467974D02*
G75*
G03*
X-1217974Y-37467974I-2500000J0D01*
G01*
%TO.C,L6*%
X15879352Y-53185688D02*
X18064312Y-55370648D01*
X20896602Y-50354052D02*
G75*
G03*
X15879473Y-53185808I-2114576J-2113922D01*
G01*
X18064192Y-55370526D02*
G75*
G03*
X20895948Y-50353398I717834J2902552D01*
G01*
X21282026Y-52467974D02*
G75*
G03*
X21282026Y-52467974I-2500000J0D01*
G01*
%TO.C,L22*%
X879352Y-30685688D02*
X3064312Y-32870648D01*
X5896602Y-27854052D02*
G75*
G03*
X879473Y-30685808I-2114576J-2113922D01*
G01*
X3064192Y-32870526D02*
G75*
G03*
X5895948Y-27853398I717834J2902552D01*
G01*
X6282026Y-29967974D02*
G75*
G03*
X6282026Y-29967974I-2500000J0D01*
G01*
%TO.C,L48*%
X15879352Y-685688D02*
X18064312Y-2870648D01*
X20896602Y2145948D02*
G75*
G03*
X15879473Y-685808I-2114576J-2113922D01*
G01*
X18064192Y-2870526D02*
G75*
G03*
X20895948Y2146602I717834J2902552D01*
G01*
X21282026Y32026D02*
G75*
G03*
X21282026Y32026I-2500000J0D01*
G01*
%TO.C,L55*%
X-21620648Y14314312D02*
X-19435688Y12129352D01*
X-16603398Y17145948D02*
G75*
G03*
X-21620527Y14314192I-2114576J-2113922D01*
G01*
X-19435808Y12129474D02*
G75*
G03*
X-16604052Y17146602I717834J2902552D01*
G01*
X-16217974Y15032026D02*
G75*
G03*
X-16217974Y15032026I-2500000J0D01*
G01*
%TO.C,L66*%
X15879352Y21814312D02*
X18064312Y19629352D01*
X20896602Y24645948D02*
G75*
G03*
X15879473Y21814192I-2114576J-2113922D01*
G01*
X18064192Y19629474D02*
G75*
G03*
X20895948Y24646602I717834J2902552D01*
G01*
X21282026Y22532026D02*
G75*
G03*
X21282026Y22532026I-2500000J0D01*
G01*
%TO.C,L5*%
X8379352Y-53185688D02*
X10564312Y-55370648D01*
X13396602Y-50354052D02*
G75*
G03*
X8379473Y-53185808I-2114576J-2113922D01*
G01*
X10564192Y-55370526D02*
G75*
G03*
X13395948Y-50353398I717834J2902552D01*
G01*
X13782026Y-52467974D02*
G75*
G03*
X13782026Y-52467974I-2500000J0D01*
G01*
%TO.C,L34*%
X879352Y-15685688D02*
X3064312Y-17870648D01*
X5896602Y-12854052D02*
G75*
G03*
X879473Y-15685808I-2114576J-2113922D01*
G01*
X3064192Y-17870526D02*
G75*
G03*
X5895948Y-12853398I717834J2902552D01*
G01*
X6282026Y-14967974D02*
G75*
G03*
X6282026Y-14967974I-2500000J0D01*
G01*
%TO.C,L30*%
X15879352Y-23185688D02*
X18064312Y-25370648D01*
X20896602Y-20354052D02*
G75*
G03*
X15879473Y-23185808I-2114576J-2113922D01*
G01*
X18064192Y-25370526D02*
G75*
G03*
X20895948Y-20353398I717834J2902552D01*
G01*
X21282026Y-22467974D02*
G75*
G03*
X21282026Y-22467974I-2500000J0D01*
G01*
%TO.C,L59*%
X8379352Y14314312D02*
X10564312Y12129352D01*
X13396602Y17145948D02*
G75*
G03*
X8379473Y14314192I-2114576J-2113922D01*
G01*
X10564192Y12129474D02*
G75*
G03*
X13395948Y17146602I717834J2902552D01*
G01*
X13782026Y15032026D02*
G75*
G03*
X13782026Y15032026I-2500000J0D01*
G01*
%TO.C,L11*%
X8379352Y-45685688D02*
X10564312Y-47870648D01*
X13396602Y-42854052D02*
G75*
G03*
X8379473Y-45685808I-2114576J-2113922D01*
G01*
X10564192Y-47870526D02*
G75*
G03*
X13395948Y-42853398I717834J2902552D01*
G01*
X13782026Y-44967974D02*
G75*
G03*
X13782026Y-44967974I-2500000J0D01*
G01*
%TO.C,L46*%
X879352Y-685688D02*
X3064312Y-2870648D01*
X5896602Y2145948D02*
G75*
G03*
X879473Y-685808I-2114576J-2113922D01*
G01*
X3064192Y-2870526D02*
G75*
G03*
X5895948Y2146602I717834J2902552D01*
G01*
X6282026Y32026D02*
G75*
G03*
X6282026Y32026I-2500000J0D01*
G01*
%TO.C,L82*%
X879352Y44314312D02*
X3064312Y42129352D01*
X5896602Y47145948D02*
G75*
G03*
X879473Y44314192I-2114576J-2113922D01*
G01*
X3064192Y42129474D02*
G75*
G03*
X5895948Y47146602I717834J2902552D01*
G01*
X6282026Y45032026D02*
G75*
G03*
X6282026Y45032026I-2500000J0D01*
G01*
%TO.C,L19*%
X-21620648Y-30685688D02*
X-19435688Y-32870648D01*
X-16603398Y-27854052D02*
G75*
G03*
X-21620527Y-30685808I-2114576J-2113922D01*
G01*
X-19435808Y-32870526D02*
G75*
G03*
X-16604052Y-27853398I717834J2902552D01*
G01*
X-16217974Y-29967974D02*
G75*
G03*
X-16217974Y-29967974I-2500000J0D01*
G01*
%TO.C,L73*%
X-21620648Y36814312D02*
X-19435688Y34629352D01*
X-16603398Y39645948D02*
G75*
G03*
X-21620527Y36814192I-2114576J-2113922D01*
G01*
X-19435808Y34629474D02*
G75*
G03*
X-16604052Y39646602I717834J2902552D01*
G01*
X-16217974Y37532026D02*
G75*
G03*
X-16217974Y37532026I-2500000J0D01*
G01*
%TO.C,L44*%
X-14120648Y-685688D02*
X-11935688Y-2870648D01*
X-9103398Y2145948D02*
G75*
G03*
X-14120527Y-685808I-2114576J-2113922D01*
G01*
X-11935808Y-2870526D02*
G75*
G03*
X-9104052Y2146602I717834J2902552D01*
G01*
X-8717974Y32026D02*
G75*
G03*
X-8717974Y32026I-2500000J0D01*
G01*
%TO.C,L33*%
X-6620648Y-15685688D02*
X-4435688Y-17870648D01*
X-1603398Y-12854052D02*
G75*
G03*
X-6620527Y-15685808I-2114576J-2113922D01*
G01*
X-4435808Y-17870526D02*
G75*
G03*
X-1604052Y-12853398I717834J2902552D01*
G01*
X-1217974Y-14967974D02*
G75*
G03*
X-1217974Y-14967974I-2500000J0D01*
G01*
%TO.C,L21*%
X-6620648Y-30685688D02*
X-4435688Y-32870648D01*
X-1603398Y-27854052D02*
G75*
G03*
X-6620527Y-30685808I-2114576J-2113922D01*
G01*
X-4435808Y-32870526D02*
G75*
G03*
X-1604052Y-27853398I717834J2902552D01*
G01*
X-1217974Y-29967974D02*
G75*
G03*
X-1217974Y-29967974I-2500000J0D01*
G01*
%TO.C,L31*%
X-21620648Y-15685688D02*
X-19435688Y-17870648D01*
X-16603398Y-12854052D02*
G75*
G03*
X-21620527Y-15685808I-2114576J-2113922D01*
G01*
X-19435808Y-17870526D02*
G75*
G03*
X-16604052Y-12853398I717834J2902552D01*
G01*
X-16217974Y-14967974D02*
G75*
G03*
X-16217974Y-14967974I-2500000J0D01*
G01*
%TO.C,L25*%
X-21620648Y-23185688D02*
X-19435688Y-25370648D01*
X-16603398Y-20354052D02*
G75*
G03*
X-21620527Y-23185808I-2114576J-2113922D01*
G01*
X-19435808Y-25370526D02*
G75*
G03*
X-16604052Y-20353398I717834J2902552D01*
G01*
X-16217974Y-22467974D02*
G75*
G03*
X-16217974Y-22467974I-2500000J0D01*
G01*
%TO.C,L40*%
X879352Y-8185688D02*
X3064312Y-10370648D01*
X5896602Y-5354052D02*
G75*
G03*
X879473Y-8185808I-2114576J-2113922D01*
G01*
X3064192Y-10370526D02*
G75*
G03*
X5895948Y-5353398I717834J2902552D01*
G01*
X6282026Y-7467974D02*
G75*
G03*
X6282026Y-7467974I-2500000J0D01*
G01*
%TO.C,L24*%
X15879352Y-30685688D02*
X18064312Y-32870648D01*
X20896602Y-27854052D02*
G75*
G03*
X15879473Y-30685808I-2114576J-2113922D01*
G01*
X18064192Y-32870526D02*
G75*
G03*
X20895948Y-27853398I717834J2902552D01*
G01*
X21282026Y-29967974D02*
G75*
G03*
X21282026Y-29967974I-2500000J0D01*
G01*
%TO.C,L57*%
X-6620648Y14314312D02*
X-4435688Y12129352D01*
X-1603398Y17145948D02*
G75*
G03*
X-6620527Y14314192I-2114576J-2113922D01*
G01*
X-4435808Y12129474D02*
G75*
G03*
X-1604052Y17146602I717834J2902552D01*
G01*
X-1217974Y15032026D02*
G75*
G03*
X-1217974Y15032026I-2500000J0D01*
G01*
%TO.C,L43*%
X-21620648Y-685688D02*
X-19435688Y-2870648D01*
X-16603398Y2145948D02*
G75*
G03*
X-21620527Y-685808I-2114576J-2113922D01*
G01*
X-19435808Y-2870526D02*
G75*
G03*
X-16604052Y2146602I717834J2902552D01*
G01*
X-16217974Y32026D02*
G75*
G03*
X-16217974Y32026I-2500000J0D01*
G01*
%TO.C,L36*%
X15879352Y-15685688D02*
X18064312Y-17870648D01*
X20896602Y-12854052D02*
G75*
G03*
X15879473Y-15685808I-2114576J-2113922D01*
G01*
X18064192Y-17870526D02*
G75*
G03*
X20895948Y-12853398I717834J2902552D01*
G01*
X21282026Y-14967974D02*
G75*
G03*
X21282026Y-14967974I-2500000J0D01*
G01*
%TO.C,L77*%
X8379352Y36814312D02*
X10564312Y34629352D01*
X13396602Y39645948D02*
G75*
G03*
X8379473Y36814192I-2114576J-2113922D01*
G01*
X10564192Y34629474D02*
G75*
G03*
X13395948Y39646602I717834J2902552D01*
G01*
X13782026Y37532026D02*
G75*
G03*
X13782026Y37532026I-2500000J0D01*
G01*
%TO.C,L51*%
X-6620648Y6814312D02*
X-4435688Y4629352D01*
X-1603398Y9645948D02*
G75*
G03*
X-6620527Y6814192I-2114576J-2113922D01*
G01*
X-4435808Y4629474D02*
G75*
G03*
X-1604052Y9646602I717834J2902552D01*
G01*
X-1217974Y7532026D02*
G75*
G03*
X-1217974Y7532026I-2500000J0D01*
G01*
%TO.C,L8*%
X-14120648Y-45685688D02*
X-11935688Y-47870648D01*
X-9103398Y-42854052D02*
G75*
G03*
X-14120527Y-45685808I-2114576J-2113922D01*
G01*
X-11935808Y-47870526D02*
G75*
G03*
X-9104052Y-42853398I717834J2902552D01*
G01*
X-8717974Y-44967974D02*
G75*
G03*
X-8717974Y-44967974I-2500000J0D01*
G01*
%TO.C,L49*%
X-21620648Y6814312D02*
X-19435688Y4629352D01*
X-16603398Y9645948D02*
G75*
G03*
X-21620527Y6814192I-2114576J-2113922D01*
G01*
X-19435808Y4629474D02*
G75*
G03*
X-16604052Y9646602I717834J2902552D01*
G01*
X-16217974Y7532026D02*
G75*
G03*
X-16217974Y7532026I-2500000J0D01*
G01*
%TO.C,L18*%
X15879352Y-38185688D02*
X18064312Y-40370648D01*
X20896602Y-35354052D02*
G75*
G03*
X15879473Y-38185808I-2114576J-2113922D01*
G01*
X18064192Y-40370526D02*
G75*
G03*
X20895948Y-35353398I717834J2902552D01*
G01*
X21282026Y-37467974D02*
G75*
G03*
X21282026Y-37467974I-2500000J0D01*
G01*
%TO.C,L14*%
X-14120648Y-38185688D02*
X-11935688Y-40370648D01*
X-9103398Y-35354052D02*
G75*
G03*
X-14120527Y-38185808I-2114576J-2113922D01*
G01*
X-11935808Y-40370526D02*
G75*
G03*
X-9104052Y-35353398I717834J2902552D01*
G01*
X-8717974Y-37467974D02*
G75*
G03*
X-8717974Y-37467974I-2500000J0D01*
G01*
%TO.C,L28*%
X879352Y-23185688D02*
X3064312Y-25370648D01*
X5896602Y-20354052D02*
G75*
G03*
X879473Y-23185808I-2114576J-2113922D01*
G01*
X3064192Y-25370526D02*
G75*
G03*
X5895948Y-20353398I717834J2902552D01*
G01*
X6282026Y-22467974D02*
G75*
G03*
X6282026Y-22467974I-2500000J0D01*
G01*
%TO.C,L37*%
X-21620648Y-8185688D02*
X-19435688Y-10370648D01*
X-16603398Y-5354052D02*
G75*
G03*
X-21620527Y-8185808I-2114576J-2113922D01*
G01*
X-19435808Y-10370526D02*
G75*
G03*
X-16604052Y-5353398I717834J2902552D01*
G01*
X-16217974Y-7467974D02*
G75*
G03*
X-16217974Y-7467974I-2500000J0D01*
G01*
%TO.C,L81*%
X-6620648Y44314312D02*
X-4435688Y42129352D01*
X-1603398Y47145948D02*
G75*
G03*
X-6620527Y44314192I-2114576J-2113922D01*
G01*
X-4435808Y42129474D02*
G75*
G03*
X-1604052Y47146602I717834J2902552D01*
G01*
X-1217974Y45032026D02*
G75*
G03*
X-1217974Y45032026I-2500000J0D01*
G01*
%TO.C,L29*%
X8379352Y-23185688D02*
X10564312Y-25370648D01*
X13396602Y-20354052D02*
G75*
G03*
X8379473Y-23185808I-2114576J-2113922D01*
G01*
X10564192Y-25370526D02*
G75*
G03*
X13395948Y-20353398I717834J2902552D01*
G01*
X13782026Y-22467974D02*
G75*
G03*
X13782026Y-22467974I-2500000J0D01*
G01*
%TO.C,L52*%
X879352Y6814312D02*
X3064312Y4629352D01*
X5896602Y9645948D02*
G75*
G03*
X879473Y6814192I-2114576J-2113922D01*
G01*
X3064192Y4629474D02*
G75*
G03*
X5895948Y9646602I717834J2902552D01*
G01*
X6282026Y7532026D02*
G75*
G03*
X6282026Y7532026I-2500000J0D01*
G01*
%TO.C,L84*%
X15879352Y44314312D02*
X18064312Y42129352D01*
X20896602Y47145948D02*
G75*
G03*
X15879473Y44314192I-2114576J-2113922D01*
G01*
X18064192Y42129474D02*
G75*
G03*
X20895948Y47146602I717834J2902552D01*
G01*
X21282026Y45032026D02*
G75*
G03*
X21282026Y45032026I-2500000J0D01*
G01*
%TO.C,L56*%
X-14120648Y14314312D02*
X-11935688Y12129352D01*
X-9103398Y17145948D02*
G75*
G03*
X-14120527Y14314192I-2114576J-2113922D01*
G01*
X-11935808Y12129474D02*
G75*
G03*
X-9104052Y17146602I717834J2902552D01*
G01*
X-8717974Y15032026D02*
G75*
G03*
X-8717974Y15032026I-2500000J0D01*
G01*
%TO.C,L32*%
X-14120648Y-15685688D02*
X-11935688Y-17870648D01*
X-9103398Y-12854052D02*
G75*
G03*
X-14120527Y-15685808I-2114576J-2113922D01*
G01*
X-11935808Y-17870526D02*
G75*
G03*
X-9104052Y-12853398I717834J2902552D01*
G01*
X-8717974Y-14967974D02*
G75*
G03*
X-8717974Y-14967974I-2500000J0D01*
G01*
%TO.C,L39*%
X-6620648Y-8185688D02*
X-4435688Y-10370648D01*
X-1603398Y-5354052D02*
G75*
G03*
X-6620527Y-8185808I-2114576J-2113922D01*
G01*
X-4435808Y-10370526D02*
G75*
G03*
X-1604052Y-5353398I717834J2902552D01*
G01*
X-1217974Y-7467974D02*
G75*
G03*
X-1217974Y-7467974I-2500000J0D01*
G01*
%TO.C,L26*%
X-14120648Y-23185688D02*
X-11935688Y-25370648D01*
X-9103398Y-20354052D02*
G75*
G03*
X-14120527Y-23185808I-2114576J-2113922D01*
G01*
X-11935808Y-25370526D02*
G75*
G03*
X-9104052Y-20353398I717834J2902552D01*
G01*
X-8717974Y-22467974D02*
G75*
G03*
X-8717974Y-22467974I-2500000J0D01*
G01*
%TO.C,L47*%
X8379352Y-685688D02*
X10564312Y-2870648D01*
X13396602Y2145948D02*
G75*
G03*
X8379473Y-685808I-2114576J-2113922D01*
G01*
X10564192Y-2870526D02*
G75*
G03*
X13395948Y2146602I717834J2902552D01*
G01*
X13782026Y32026D02*
G75*
G03*
X13782026Y32026I-2500000J0D01*
G01*
%TO.C,L62*%
X-14120648Y21814312D02*
X-11935688Y19629352D01*
X-9103398Y24645948D02*
G75*
G03*
X-14120527Y21814192I-2114576J-2113922D01*
G01*
X-11935808Y19629474D02*
G75*
G03*
X-9104052Y24646602I717834J2902552D01*
G01*
X-8717974Y22532026D02*
G75*
G03*
X-8717974Y22532026I-2500000J0D01*
G01*
%TO.C,L68*%
X-14120648Y29314312D02*
X-11935688Y27129352D01*
X-9103398Y32145948D02*
G75*
G03*
X-14120527Y29314192I-2114576J-2113922D01*
G01*
X-11935808Y27129474D02*
G75*
G03*
X-9104052Y32146602I717834J2902552D01*
G01*
X-8717974Y30032026D02*
G75*
G03*
X-8717974Y30032026I-2500000J0D01*
G01*
%TO.C,L54*%
X15879352Y6814312D02*
X18064312Y4629352D01*
X20896602Y9645948D02*
G75*
G03*
X15879473Y6814192I-2114576J-2113922D01*
G01*
X18064192Y4629474D02*
G75*
G03*
X20895948Y9646602I717834J2902552D01*
G01*
X21282026Y7532026D02*
G75*
G03*
X21282026Y7532026I-2500000J0D01*
G01*
%TO.C,L67*%
X-21620648Y29314312D02*
X-19435688Y27129352D01*
X-16603398Y32145948D02*
G75*
G03*
X-21620527Y29314192I-2114576J-2113922D01*
G01*
X-19435808Y27129474D02*
G75*
G03*
X-16604052Y32146602I717834J2902552D01*
G01*
X-16217974Y30032026D02*
G75*
G03*
X-16217974Y30032026I-2500000J0D01*
G01*
%TD*%
D13*
%TO.C,J1*%
X-11430000Y-68030000D03*
%TD*%
M02*
