G04 #@! TF.GenerationSoftware,KiCad,Pcbnew,7.0.6-7.0.6~ubuntu22.04.1*
G04 #@! TF.CreationDate,2023-08-02T19:47:26+01:00*
G04 #@! TF.ProjectId,working,776f726b-696e-4672-9e6b-696361645f70,rev?*
G04 #@! TF.SameCoordinates,Original*
G04 #@! TF.FileFunction,Paste,Top*
G04 #@! TF.FilePolarity,Positive*
%FSLAX46Y46*%
G04 Gerber Fmt 4.6, Leading zero omitted, Abs format (unit mm)*
G04 Created by KiCad (PCBNEW 7.0.6-7.0.6~ubuntu22.04.1) date 2023-08-02 19:47:26*
%MOMM*%
%LPD*%
G01*
G04 APERTURE LIST*
%ADD10R,1.000000X2.500000*%
G04 APERTURE END LIST*
G36*
G01*
X-5840000Y-69840000D02*
X-5840000Y-68590000D01*
G75*
G02*
X-5690000Y-68440000I150000J0D01*
G01*
X-5390000Y-68440000D01*
G75*
G02*
X-5240000Y-68590000I0J-150000D01*
G01*
X-5240000Y-69840000D01*
G75*
G02*
X-5390000Y-69990000I-150000J0D01*
G01*
X-5690000Y-69990000D01*
G75*
G02*
X-5840000Y-69840000I0J150000D01*
G01*
G37*
G36*
G01*
X-4840000Y-69840000D02*
X-4840000Y-68590000D01*
G75*
G02*
X-4690000Y-68440000I150000J0D01*
G01*
X-4390000Y-68440000D01*
G75*
G02*
X-4240000Y-68590000I0J-150000D01*
G01*
X-4240000Y-69840000D01*
G75*
G02*
X-4390000Y-69990000I-150000J0D01*
G01*
X-4690000Y-69990000D01*
G75*
G02*
X-4840000Y-69840000I0J150000D01*
G01*
G37*
G36*
G01*
X-3840000Y-69840000D02*
X-3840000Y-68590000D01*
G75*
G02*
X-3690000Y-68440000I150000J0D01*
G01*
X-3390000Y-68440000D01*
G75*
G02*
X-3240000Y-68590000I0J-150000D01*
G01*
X-3240000Y-69840000D01*
G75*
G02*
X-3390000Y-69990000I-150000J0D01*
G01*
X-3690000Y-69990000D01*
G75*
G02*
X-3840000Y-69840000I0J150000D01*
G01*
G37*
G36*
G01*
X-2840000Y-69840000D02*
X-2840000Y-68590000D01*
G75*
G02*
X-2690000Y-68440000I150000J0D01*
G01*
X-2390000Y-68440000D01*
G75*
G02*
X-2240000Y-68590000I0J-150000D01*
G01*
X-2240000Y-69840000D01*
G75*
G02*
X-2390000Y-69990000I-150000J0D01*
G01*
X-2690000Y-69990000D01*
G75*
G02*
X-2840000Y-69840000I0J150000D01*
G01*
G37*
G36*
G01*
X-7440000Y-73740000D02*
X-7440000Y-72440000D01*
G75*
G02*
X-7190000Y-72190000I250000J0D01*
G01*
X-6490000Y-72190000D01*
G75*
G02*
X-6240000Y-72440000I0J-250000D01*
G01*
X-6240000Y-73740000D01*
G75*
G02*
X-6490000Y-73990000I-250000J0D01*
G01*
X-7190000Y-73990000D01*
G75*
G02*
X-7440000Y-73740000I0J250000D01*
G01*
G37*
G36*
G01*
X-1840000Y-73740000D02*
X-1840000Y-72440000D01*
G75*
G02*
X-1590000Y-72190000I250000J0D01*
G01*
X-890000Y-72190000D01*
G75*
G02*
X-640000Y-72440000I0J-250000D01*
G01*
X-640000Y-73740000D01*
G75*
G02*
X-890000Y-73990000I-250000J0D01*
G01*
X-1590000Y-73990000D01*
G75*
G02*
X-1840000Y-73740000I0J250000D01*
G01*
G37*
D10*
X-11430000Y-58610000D03*
X-13970000Y-58610000D03*
X-16510000Y-58610000D03*
X-19050000Y-58610000D03*
M02*
