G04 #@! TF.GenerationSoftware,KiCad,Pcbnew,7.0.6-7.0.6~ubuntu22.04.1*
G04 #@! TF.CreationDate,2023-08-02T19:47:26+01:00*
G04 #@! TF.ProjectId,working,776f726b-696e-4672-9e6b-696361645f70,rev?*
G04 #@! TF.SameCoordinates,Original*
G04 #@! TF.FileFunction,Paste,Bot*
G04 #@! TF.FilePolarity,Positive*
%FSLAX46Y46*%
G04 Gerber Fmt 4.6, Leading zero omitted, Abs format (unit mm)*
G04 Created by KiCad (PCBNEW 7.0.6-7.0.6~ubuntu22.04.1) date 2023-08-02 19:47:26*
%MOMM*%
%LPD*%
G01*
G04 APERTURE LIST*
G04 APERTURE END LIST*
G36*
G01*
X5675000Y-56595000D02*
X5675000Y-56895000D01*
G75*
G02*
X5525000Y-57045000I-150000J0D01*
G01*
X3775000Y-57045000D01*
G75*
G02*
X3625000Y-56895000I0J150000D01*
G01*
X3625000Y-56595000D01*
G75*
G02*
X3775000Y-56445000I150000J0D01*
G01*
X5525000Y-56445000D01*
G75*
G02*
X5675000Y-56595000I0J-150000D01*
G01*
G37*
G36*
G01*
X5675000Y-57865000D02*
X5675000Y-58165000D01*
G75*
G02*
X5525000Y-58315000I-150000J0D01*
G01*
X3775000Y-58315000D01*
G75*
G02*
X3625000Y-58165000I0J150000D01*
G01*
X3625000Y-57865000D01*
G75*
G02*
X3775000Y-57715000I150000J0D01*
G01*
X5525000Y-57715000D01*
G75*
G02*
X5675000Y-57865000I0J-150000D01*
G01*
G37*
G36*
G01*
X5675000Y-59135000D02*
X5675000Y-59435000D01*
G75*
G02*
X5525000Y-59585000I-150000J0D01*
G01*
X3775000Y-59585000D01*
G75*
G02*
X3625000Y-59435000I0J150000D01*
G01*
X3625000Y-59135000D01*
G75*
G02*
X3775000Y-58985000I150000J0D01*
G01*
X5525000Y-58985000D01*
G75*
G02*
X5675000Y-59135000I0J-150000D01*
G01*
G37*
G36*
G01*
X5675000Y-60405000D02*
X5675000Y-60705000D01*
G75*
G02*
X5525000Y-60855000I-150000J0D01*
G01*
X3775000Y-60855000D01*
G75*
G02*
X3625000Y-60705000I0J150000D01*
G01*
X3625000Y-60405000D01*
G75*
G02*
X3775000Y-60255000I150000J0D01*
G01*
X5525000Y-60255000D01*
G75*
G02*
X5675000Y-60405000I0J-150000D01*
G01*
G37*
G36*
G01*
X5675000Y-61675000D02*
X5675000Y-61975000D01*
G75*
G02*
X5525000Y-62125000I-150000J0D01*
G01*
X3775000Y-62125000D01*
G75*
G02*
X3625000Y-61975000I0J150000D01*
G01*
X3625000Y-61675000D01*
G75*
G02*
X3775000Y-61525000I150000J0D01*
G01*
X5525000Y-61525000D01*
G75*
G02*
X5675000Y-61675000I0J-150000D01*
G01*
G37*
G36*
G01*
X5675000Y-62945000D02*
X5675000Y-63245000D01*
G75*
G02*
X5525000Y-63395000I-150000J0D01*
G01*
X3775000Y-63395000D01*
G75*
G02*
X3625000Y-63245000I0J150000D01*
G01*
X3625000Y-62945000D01*
G75*
G02*
X3775000Y-62795000I150000J0D01*
G01*
X5525000Y-62795000D01*
G75*
G02*
X5675000Y-62945000I0J-150000D01*
G01*
G37*
G36*
G01*
X5675000Y-64215000D02*
X5675000Y-64515000D01*
G75*
G02*
X5525000Y-64665000I-150000J0D01*
G01*
X3775000Y-64665000D01*
G75*
G02*
X3625000Y-64515000I0J150000D01*
G01*
X3625000Y-64215000D01*
G75*
G02*
X3775000Y-64065000I150000J0D01*
G01*
X5525000Y-64065000D01*
G75*
G02*
X5675000Y-64215000I0J-150000D01*
G01*
G37*
G36*
G01*
X5675000Y-65485000D02*
X5675000Y-65785000D01*
G75*
G02*
X5525000Y-65935000I-150000J0D01*
G01*
X3775000Y-65935000D01*
G75*
G02*
X3625000Y-65785000I0J150000D01*
G01*
X3625000Y-65485000D01*
G75*
G02*
X3775000Y-65335000I150000J0D01*
G01*
X5525000Y-65335000D01*
G75*
G02*
X5675000Y-65485000I0J-150000D01*
G01*
G37*
G36*
G01*
X5675000Y-66755000D02*
X5675000Y-67055000D01*
G75*
G02*
X5525000Y-67205000I-150000J0D01*
G01*
X3775000Y-67205000D01*
G75*
G02*
X3625000Y-67055000I0J150000D01*
G01*
X3625000Y-66755000D01*
G75*
G02*
X3775000Y-66605000I150000J0D01*
G01*
X5525000Y-66605000D01*
G75*
G02*
X5675000Y-66755000I0J-150000D01*
G01*
G37*
G36*
G01*
X5675000Y-68025000D02*
X5675000Y-68325000D01*
G75*
G02*
X5525000Y-68475000I-150000J0D01*
G01*
X3775000Y-68475000D01*
G75*
G02*
X3625000Y-68325000I0J150000D01*
G01*
X3625000Y-68025000D01*
G75*
G02*
X3775000Y-67875000I150000J0D01*
G01*
X5525000Y-67875000D01*
G75*
G02*
X5675000Y-68025000I0J-150000D01*
G01*
G37*
G36*
G01*
X5675000Y-69295000D02*
X5675000Y-69595000D01*
G75*
G02*
X5525000Y-69745000I-150000J0D01*
G01*
X3775000Y-69745000D01*
G75*
G02*
X3625000Y-69595000I0J150000D01*
G01*
X3625000Y-69295000D01*
G75*
G02*
X3775000Y-69145000I150000J0D01*
G01*
X5525000Y-69145000D01*
G75*
G02*
X5675000Y-69295000I0J-150000D01*
G01*
G37*
G36*
G01*
X5675000Y-70565000D02*
X5675000Y-70865000D01*
G75*
G02*
X5525000Y-71015000I-150000J0D01*
G01*
X3775000Y-71015000D01*
G75*
G02*
X3625000Y-70865000I0J150000D01*
G01*
X3625000Y-70565000D01*
G75*
G02*
X3775000Y-70415000I150000J0D01*
G01*
X5525000Y-70415000D01*
G75*
G02*
X5675000Y-70565000I0J-150000D01*
G01*
G37*
G36*
G01*
X5675000Y-71835000D02*
X5675000Y-72135000D01*
G75*
G02*
X5525000Y-72285000I-150000J0D01*
G01*
X3775000Y-72285000D01*
G75*
G02*
X3625000Y-72135000I0J150000D01*
G01*
X3625000Y-71835000D01*
G75*
G02*
X3775000Y-71685000I150000J0D01*
G01*
X5525000Y-71685000D01*
G75*
G02*
X5675000Y-71835000I0J-150000D01*
G01*
G37*
G36*
G01*
X5675000Y-73105000D02*
X5675000Y-73405000D01*
G75*
G02*
X5525000Y-73555000I-150000J0D01*
G01*
X3775000Y-73555000D01*
G75*
G02*
X3625000Y-73405000I0J150000D01*
G01*
X3625000Y-73105000D01*
G75*
G02*
X3775000Y-72955000I150000J0D01*
G01*
X5525000Y-72955000D01*
G75*
G02*
X5675000Y-73105000I0J-150000D01*
G01*
G37*
G36*
G01*
X-3625000Y-73105000D02*
X-3625000Y-73405000D01*
G75*
G02*
X-3775000Y-73555000I-150000J0D01*
G01*
X-5525000Y-73555000D01*
G75*
G02*
X-5675000Y-73405000I0J150000D01*
G01*
X-5675000Y-73105000D01*
G75*
G02*
X-5525000Y-72955000I150000J0D01*
G01*
X-3775000Y-72955000D01*
G75*
G02*
X-3625000Y-73105000I0J-150000D01*
G01*
G37*
G36*
G01*
X-3625000Y-71835000D02*
X-3625000Y-72135000D01*
G75*
G02*
X-3775000Y-72285000I-150000J0D01*
G01*
X-5525000Y-72285000D01*
G75*
G02*
X-5675000Y-72135000I0J150000D01*
G01*
X-5675000Y-71835000D01*
G75*
G02*
X-5525000Y-71685000I150000J0D01*
G01*
X-3775000Y-71685000D01*
G75*
G02*
X-3625000Y-71835000I0J-150000D01*
G01*
G37*
G36*
G01*
X-3625000Y-70565000D02*
X-3625000Y-70865000D01*
G75*
G02*
X-3775000Y-71015000I-150000J0D01*
G01*
X-5525000Y-71015000D01*
G75*
G02*
X-5675000Y-70865000I0J150000D01*
G01*
X-5675000Y-70565000D01*
G75*
G02*
X-5525000Y-70415000I150000J0D01*
G01*
X-3775000Y-70415000D01*
G75*
G02*
X-3625000Y-70565000I0J-150000D01*
G01*
G37*
G36*
G01*
X-3625000Y-69295000D02*
X-3625000Y-69595000D01*
G75*
G02*
X-3775000Y-69745000I-150000J0D01*
G01*
X-5525000Y-69745000D01*
G75*
G02*
X-5675000Y-69595000I0J150000D01*
G01*
X-5675000Y-69295000D01*
G75*
G02*
X-5525000Y-69145000I150000J0D01*
G01*
X-3775000Y-69145000D01*
G75*
G02*
X-3625000Y-69295000I0J-150000D01*
G01*
G37*
G36*
G01*
X-3625000Y-68025000D02*
X-3625000Y-68325000D01*
G75*
G02*
X-3775000Y-68475000I-150000J0D01*
G01*
X-5525000Y-68475000D01*
G75*
G02*
X-5675000Y-68325000I0J150000D01*
G01*
X-5675000Y-68025000D01*
G75*
G02*
X-5525000Y-67875000I150000J0D01*
G01*
X-3775000Y-67875000D01*
G75*
G02*
X-3625000Y-68025000I0J-150000D01*
G01*
G37*
G36*
G01*
X-3625000Y-66755000D02*
X-3625000Y-67055000D01*
G75*
G02*
X-3775000Y-67205000I-150000J0D01*
G01*
X-5525000Y-67205000D01*
G75*
G02*
X-5675000Y-67055000I0J150000D01*
G01*
X-5675000Y-66755000D01*
G75*
G02*
X-5525000Y-66605000I150000J0D01*
G01*
X-3775000Y-66605000D01*
G75*
G02*
X-3625000Y-66755000I0J-150000D01*
G01*
G37*
G36*
G01*
X-3625000Y-65485000D02*
X-3625000Y-65785000D01*
G75*
G02*
X-3775000Y-65935000I-150000J0D01*
G01*
X-5525000Y-65935000D01*
G75*
G02*
X-5675000Y-65785000I0J150000D01*
G01*
X-5675000Y-65485000D01*
G75*
G02*
X-5525000Y-65335000I150000J0D01*
G01*
X-3775000Y-65335000D01*
G75*
G02*
X-3625000Y-65485000I0J-150000D01*
G01*
G37*
G36*
G01*
X-3625000Y-64215000D02*
X-3625000Y-64515000D01*
G75*
G02*
X-3775000Y-64665000I-150000J0D01*
G01*
X-5525000Y-64665000D01*
G75*
G02*
X-5675000Y-64515000I0J150000D01*
G01*
X-5675000Y-64215000D01*
G75*
G02*
X-5525000Y-64065000I150000J0D01*
G01*
X-3775000Y-64065000D01*
G75*
G02*
X-3625000Y-64215000I0J-150000D01*
G01*
G37*
G36*
G01*
X-3625000Y-62945000D02*
X-3625000Y-63245000D01*
G75*
G02*
X-3775000Y-63395000I-150000J0D01*
G01*
X-5525000Y-63395000D01*
G75*
G02*
X-5675000Y-63245000I0J150000D01*
G01*
X-5675000Y-62945000D01*
G75*
G02*
X-5525000Y-62795000I150000J0D01*
G01*
X-3775000Y-62795000D01*
G75*
G02*
X-3625000Y-62945000I0J-150000D01*
G01*
G37*
G36*
G01*
X-3625000Y-61675000D02*
X-3625000Y-61975000D01*
G75*
G02*
X-3775000Y-62125000I-150000J0D01*
G01*
X-5525000Y-62125000D01*
G75*
G02*
X-5675000Y-61975000I0J150000D01*
G01*
X-5675000Y-61675000D01*
G75*
G02*
X-5525000Y-61525000I150000J0D01*
G01*
X-3775000Y-61525000D01*
G75*
G02*
X-3625000Y-61675000I0J-150000D01*
G01*
G37*
G36*
G01*
X-3625000Y-60405000D02*
X-3625000Y-60705000D01*
G75*
G02*
X-3775000Y-60855000I-150000J0D01*
G01*
X-5525000Y-60855000D01*
G75*
G02*
X-5675000Y-60705000I0J150000D01*
G01*
X-5675000Y-60405000D01*
G75*
G02*
X-5525000Y-60255000I150000J0D01*
G01*
X-3775000Y-60255000D01*
G75*
G02*
X-3625000Y-60405000I0J-150000D01*
G01*
G37*
G36*
G01*
X-3625000Y-59135000D02*
X-3625000Y-59435000D01*
G75*
G02*
X-3775000Y-59585000I-150000J0D01*
G01*
X-5525000Y-59585000D01*
G75*
G02*
X-5675000Y-59435000I0J150000D01*
G01*
X-5675000Y-59135000D01*
G75*
G02*
X-5525000Y-58985000I150000J0D01*
G01*
X-3775000Y-58985000D01*
G75*
G02*
X-3625000Y-59135000I0J-150000D01*
G01*
G37*
G36*
G01*
X-3625000Y-57865000D02*
X-3625000Y-58165000D01*
G75*
G02*
X-3775000Y-58315000I-150000J0D01*
G01*
X-5525000Y-58315000D01*
G75*
G02*
X-5675000Y-58165000I0J150000D01*
G01*
X-5675000Y-57865000D01*
G75*
G02*
X-5525000Y-57715000I150000J0D01*
G01*
X-3775000Y-57715000D01*
G75*
G02*
X-3625000Y-57865000I0J-150000D01*
G01*
G37*
G36*
G01*
X-3625000Y-56595000D02*
X-3625000Y-56895000D01*
G75*
G02*
X-3775000Y-57045000I-150000J0D01*
G01*
X-5525000Y-57045000D01*
G75*
G02*
X-5675000Y-56895000I0J150000D01*
G01*
X-5675000Y-56595000D01*
G75*
G02*
X-5525000Y-56445000I150000J0D01*
G01*
X-3775000Y-56445000D01*
G75*
G02*
X-3625000Y-56595000I0J-150000D01*
G01*
G37*
M02*
