G04 #@! TF.GenerationSoftware,KiCad,Pcbnew,7.0.6-7.0.6~ubuntu22.04.1*
G04 #@! TF.CreationDate,2023-08-02T19:47:26+01:00*
G04 #@! TF.ProjectId,working,776f726b-696e-4672-9e6b-696361645f70,rev?*
G04 #@! TF.SameCoordinates,Original*
G04 #@! TF.FileFunction,Copper,L2,Bot*
G04 #@! TF.FilePolarity,Positive*
%FSLAX46Y46*%
G04 Gerber Fmt 4.6, Leading zero omitted, Abs format (unit mm)*
G04 Created by KiCad (PCBNEW 7.0.6-7.0.6~ubuntu22.04.1) date 2023-08-02 19:47:26*
%MOMM*%
%LPD*%
G01*
G04 APERTURE LIST*
G04 #@! TA.AperFunction,ComponentPad*
%ADD10C,1.800000*%
G04 #@! TD*
G04 #@! TA.AperFunction,ComponentPad*
%ADD11R,1.700000X1.700000*%
G04 #@! TD*
G04 #@! TA.AperFunction,ComponentPad*
%ADD12O,1.700000X1.700000*%
G04 #@! TD*
G04 #@! TA.AperFunction,ComponentPad*
%ADD13R,1.800000X1.800000*%
G04 #@! TD*
G04 #@! TA.AperFunction,ViaPad*
%ADD14C,0.600000*%
G04 #@! TD*
G04 #@! TA.AperFunction,ViaPad*
%ADD15C,0.800000*%
G04 #@! TD*
G04 #@! TA.AperFunction,Conductor*
%ADD16C,0.200000*%
G04 #@! TD*
G04 #@! TA.AperFunction,Conductor*
%ADD17C,0.250000*%
G04 #@! TD*
G04 APERTURE END LIST*
G04 #@! TA.AperFunction,ComponentPad*
G36*
X-12116000Y35361208D02*
G01*
X-13388792Y36634000D01*
X-12116000Y37906792D01*
X-10843208Y36634000D01*
X-12116000Y35361208D01*
G37*
G04 #@! TD.AperFunction*
D10*
X-10319949Y38430051D03*
G04 #@! TA.AperFunction,ComponentPad*
G36*
X10384000Y-39638792D02*
G01*
X9111208Y-38366000D01*
X10384000Y-37093208D01*
X11656792Y-38366000D01*
X10384000Y-39638792D01*
G37*
G04 #@! TD.AperFunction*
X12180051Y-36569949D03*
G04 #@! TA.AperFunction,ComponentPad*
G36*
X2884000Y50361208D02*
G01*
X1611208Y51634000D01*
X2884000Y52906792D01*
X4156792Y51634000D01*
X2884000Y50361208D01*
G37*
G04 #@! TD.AperFunction*
X4680051Y53430051D03*
G04 #@! TA.AperFunction,ComponentPad*
G36*
X17884000Y50361208D02*
G01*
X16611208Y51634000D01*
X17884000Y52906792D01*
X19156792Y51634000D01*
X17884000Y50361208D01*
G37*
G04 #@! TD.AperFunction*
X19680051Y53430051D03*
G04 #@! TA.AperFunction,ComponentPad*
G36*
X2884000Y-47138792D02*
G01*
X1611208Y-45866000D01*
X2884000Y-44593208D01*
X4156792Y-45866000D01*
X2884000Y-47138792D01*
G37*
G04 #@! TD.AperFunction*
X4680051Y-44069949D03*
G04 #@! TA.AperFunction,ComponentPad*
G36*
X2884000Y27861208D02*
G01*
X1611208Y29134000D01*
X2884000Y30406792D01*
X4156792Y29134000D01*
X2884000Y27861208D01*
G37*
G04 #@! TD.AperFunction*
X4680051Y30930051D03*
G04 #@! TA.AperFunction,ComponentPad*
G36*
X-12116000Y42861208D02*
G01*
X-13388792Y44134000D01*
X-12116000Y45406792D01*
X-10843208Y44134000D01*
X-12116000Y42861208D01*
G37*
G04 #@! TD.AperFunction*
X-10319949Y45930051D03*
G04 #@! TA.AperFunction,ComponentPad*
G36*
X-19616000Y-39638792D02*
G01*
X-20888792Y-38366000D01*
X-19616000Y-37093208D01*
X-18343208Y-38366000D01*
X-19616000Y-39638792D01*
G37*
G04 #@! TD.AperFunction*
X-17819949Y-36569949D03*
G04 #@! TA.AperFunction,ComponentPad*
G36*
X-4616000Y-47138792D02*
G01*
X-5888792Y-45866000D01*
X-4616000Y-44593208D01*
X-3343208Y-45866000D01*
X-4616000Y-47138792D01*
G37*
G04 #@! TD.AperFunction*
X-2819949Y-44069949D03*
D11*
X12700000Y-58928000D03*
D12*
X15240000Y-58928000D03*
X17780000Y-58928000D03*
X20320000Y-58928000D03*
G04 #@! TA.AperFunction,ComponentPad*
G36*
X-12116000Y50361208D02*
G01*
X-13388792Y51634000D01*
X-12116000Y52906792D01*
X-10843208Y51634000D01*
X-12116000Y50361208D01*
G37*
G04 #@! TD.AperFunction*
D10*
X-10319949Y53430051D03*
G04 #@! TA.AperFunction,ComponentPad*
G36*
X10384000Y27861208D02*
G01*
X9111208Y29134000D01*
X10384000Y30406792D01*
X11656792Y29134000D01*
X10384000Y27861208D01*
G37*
G04 #@! TD.AperFunction*
X12180051Y30930051D03*
G04 #@! TA.AperFunction,ComponentPad*
G36*
X-4616000Y27861208D02*
G01*
X-5888792Y29134000D01*
X-4616000Y30406792D01*
X-3343208Y29134000D01*
X-4616000Y27861208D01*
G37*
G04 #@! TD.AperFunction*
X-2819949Y30930051D03*
G04 #@! TA.AperFunction,ComponentPad*
G36*
X17884000Y27861208D02*
G01*
X16611208Y29134000D01*
X17884000Y30406792D01*
X19156792Y29134000D01*
X17884000Y27861208D01*
G37*
G04 #@! TD.AperFunction*
X19680051Y30930051D03*
G04 #@! TA.AperFunction,ComponentPad*
G36*
X-4616000Y20361208D02*
G01*
X-5888792Y21634000D01*
X-4616000Y22906792D01*
X-3343208Y21634000D01*
X-4616000Y20361208D01*
G37*
G04 #@! TD.AperFunction*
X-2819949Y23430051D03*
G04 #@! TA.AperFunction,ComponentPad*
G36*
X-12116000Y-32138792D02*
G01*
X-13388792Y-30866000D01*
X-12116000Y-29593208D01*
X-10843208Y-30866000D01*
X-12116000Y-32138792D01*
G37*
G04 #@! TD.AperFunction*
X-10319949Y-29069949D03*
G04 #@! TA.AperFunction,ComponentPad*
G36*
X-4616000Y50361208D02*
G01*
X-5888792Y51634000D01*
X-4616000Y52906792D01*
X-3343208Y51634000D01*
X-4616000Y50361208D01*
G37*
G04 #@! TD.AperFunction*
X-2819949Y53430051D03*
G04 #@! TA.AperFunction,ComponentPad*
G36*
X2884000Y12861208D02*
G01*
X1611208Y14134000D01*
X2884000Y15406792D01*
X4156792Y14134000D01*
X2884000Y12861208D01*
G37*
G04 #@! TD.AperFunction*
X4680051Y15930051D03*
G04 #@! TA.AperFunction,ComponentPad*
G36*
X17884000Y-9638792D02*
G01*
X16611208Y-8366000D01*
X17884000Y-7093208D01*
X19156792Y-8366000D01*
X17884000Y-9638792D01*
G37*
G04 #@! TD.AperFunction*
X19680051Y-6569949D03*
G04 #@! TA.AperFunction,ComponentPad*
G36*
X2884000Y-39638792D02*
G01*
X1611208Y-38366000D01*
X2884000Y-37093208D01*
X4156792Y-38366000D01*
X2884000Y-39638792D01*
G37*
G04 #@! TD.AperFunction*
X4680051Y-36569949D03*
G04 #@! TA.AperFunction,ComponentPad*
G36*
X-19616000Y42861208D02*
G01*
X-20888792Y44134000D01*
X-19616000Y45406792D01*
X-18343208Y44134000D01*
X-19616000Y42861208D01*
G37*
G04 #@! TD.AperFunction*
X-17819949Y45930051D03*
G04 #@! TA.AperFunction,ComponentPad*
G36*
X-4616000Y-2138792D02*
G01*
X-5888792Y-866000D01*
X-4616000Y406792D01*
X-3343208Y-866000D01*
X-4616000Y-2138792D01*
G37*
G04 #@! TD.AperFunction*
X-2819949Y930051D03*
G04 #@! TA.AperFunction,ComponentPad*
G36*
X-12116000Y-9638792D02*
G01*
X-13388792Y-8366000D01*
X-12116000Y-7093208D01*
X-10843208Y-8366000D01*
X-12116000Y-9638792D01*
G37*
G04 #@! TD.AperFunction*
X-10319949Y-6569949D03*
G04 #@! TA.AperFunction,ComponentPad*
G36*
X-19616000Y50361208D02*
G01*
X-20888792Y51634000D01*
X-19616000Y52906792D01*
X-18343208Y51634000D01*
X-19616000Y50361208D01*
G37*
G04 #@! TD.AperFunction*
X-17819949Y53430051D03*
G04 #@! TA.AperFunction,ComponentPad*
G36*
X-19616000Y-54638792D02*
G01*
X-20888792Y-53366000D01*
X-19616000Y-52093208D01*
X-18343208Y-53366000D01*
X-19616000Y-54638792D01*
G37*
G04 #@! TD.AperFunction*
X-17819949Y-51569949D03*
D13*
X-19616000Y21634000D03*
D10*
X-17819949Y23430051D03*
D13*
X10384000Y51634000D03*
D10*
X12180051Y53430051D03*
D13*
X2884000Y-53366000D03*
D10*
X4680051Y-51569949D03*
D13*
X-12116000Y6634000D03*
D10*
X-10319949Y8430051D03*
D13*
X-4616000Y36634000D03*
D10*
X-2819949Y38430051D03*
G04 #@! TA.AperFunction,ComponentPad*
G36*
X-4616000Y-54638792D02*
G01*
X-5888792Y-53366000D01*
X-4616000Y-52093208D01*
X-3343208Y-53366000D01*
X-4616000Y-54638792D01*
G37*
G04 #@! TD.AperFunction*
X-2819949Y-51569949D03*
D13*
X2884000Y36634000D03*
D10*
X4680051Y38430051D03*
D13*
X-4616000Y-23366000D03*
D10*
X-2819949Y-21569949D03*
D13*
X-19616000Y-45866000D03*
D10*
X-17819949Y-44069949D03*
D13*
X2884000Y21634000D03*
D10*
X4680051Y23430051D03*
D13*
X10384000Y-15866000D03*
D10*
X12180051Y-14069949D03*
D13*
X17884000Y-45866000D03*
D10*
X19680051Y-44069949D03*
D13*
X10384000Y21634000D03*
D10*
X12180051Y23430051D03*
D13*
X10384000Y6634000D03*
D10*
X12180051Y8430051D03*
D13*
X17884000Y14134000D03*
D10*
X19680051Y15930051D03*
D13*
X17884000Y36634000D03*
D10*
X19680051Y38430051D03*
D13*
X10384000Y-30866000D03*
D10*
X12180051Y-29069949D03*
D13*
X10384000Y-8366000D03*
D10*
X12180051Y-6569949D03*
D13*
X10384000Y44134000D03*
D10*
X12180051Y45930051D03*
G04 #@! TA.AperFunction,ComponentPad*
G36*
X-12116000Y-54638792D02*
G01*
X-13388792Y-53366000D01*
X-12116000Y-52093208D01*
X-10843208Y-53366000D01*
X-12116000Y-54638792D01*
G37*
G04 #@! TD.AperFunction*
X-10319949Y-51569949D03*
D13*
X-4616000Y-38366000D03*
D10*
X-2819949Y-36569949D03*
D13*
X17884000Y-53366000D03*
D10*
X19680051Y-51569949D03*
D13*
X2884000Y-30866000D03*
D10*
X4680051Y-29069949D03*
D13*
X17884000Y-866000D03*
D10*
X19680051Y930051D03*
D13*
X-19616000Y14134000D03*
D10*
X-17819949Y15930051D03*
D13*
X17884000Y21634000D03*
D10*
X19680051Y23430051D03*
D13*
X10384000Y-53366000D03*
D10*
X12180051Y-51569949D03*
D13*
X2884000Y-15866000D03*
D10*
X4680051Y-14069949D03*
D13*
X17884000Y-23366000D03*
D10*
X19680051Y-21569949D03*
D13*
X10384000Y14134000D03*
D10*
X12180051Y15930051D03*
D13*
X10384000Y-45866000D03*
D10*
X12180051Y-44069949D03*
D13*
X2884000Y-866000D03*
D10*
X4680051Y930051D03*
D13*
X2884000Y44134000D03*
D10*
X4680051Y45930051D03*
D13*
X-19616000Y-30866000D03*
D10*
X-17819949Y-29069949D03*
D13*
X-19616000Y36634000D03*
D10*
X-17819949Y38430051D03*
D13*
X-12116000Y-866000D03*
D10*
X-10319949Y930051D03*
D13*
X-4616000Y-15866000D03*
D10*
X-2819949Y-14069949D03*
D13*
X-4616000Y-30866000D03*
D10*
X-2819949Y-29069949D03*
D13*
X-19616000Y-15866000D03*
D10*
X-17819949Y-14069949D03*
D13*
X-19616000Y-23366000D03*
D10*
X-17819949Y-21569949D03*
D13*
X2884000Y-8366000D03*
D10*
X4680051Y-6569949D03*
D13*
X17884000Y-30866000D03*
D10*
X19680051Y-29069949D03*
D13*
X-4616000Y14134000D03*
D10*
X-2819949Y15930051D03*
D13*
X-19616000Y-866000D03*
D10*
X-17819949Y930051D03*
D13*
X17884000Y-15866000D03*
D10*
X19680051Y-14069949D03*
D13*
X10384000Y36634000D03*
D10*
X12180051Y38430051D03*
D13*
X-4616000Y6634000D03*
D10*
X-2819949Y8430051D03*
D13*
X-12116000Y-45866000D03*
D10*
X-10319949Y-44069949D03*
D13*
X-19616000Y6634000D03*
D10*
X-17819949Y8430051D03*
D13*
X17884000Y-38366000D03*
D10*
X19680051Y-36569949D03*
D13*
X-12116000Y-38366000D03*
D10*
X-10319949Y-36569949D03*
D13*
X2884000Y-23366000D03*
D10*
X4680051Y-21569949D03*
D13*
X-19616000Y-8366000D03*
D10*
X-17819949Y-6569949D03*
D13*
X-4616000Y44134000D03*
D10*
X-2819949Y45930051D03*
D13*
X10384000Y-23366000D03*
D10*
X12180051Y-21569949D03*
D13*
X2884000Y6634000D03*
D10*
X4680051Y8430051D03*
D13*
X17884000Y44134000D03*
D10*
X19680051Y45930051D03*
D13*
X-12116000Y14134000D03*
D10*
X-10319949Y15930051D03*
D13*
X-12116000Y-15866000D03*
D10*
X-10319949Y-14069949D03*
D13*
X-4616000Y-8366000D03*
D10*
X-2819949Y-6569949D03*
D13*
X-12116000Y-23366000D03*
D10*
X-10319949Y-21569949D03*
D13*
X10384000Y-866000D03*
D10*
X12180051Y930051D03*
D13*
X-12116000Y21634000D03*
D10*
X-10319949Y23430051D03*
D13*
X-12116000Y29134000D03*
D10*
X-10319949Y30930051D03*
D13*
X17884000Y6634000D03*
D10*
X19680051Y8430051D03*
D13*
X-19616000Y29134000D03*
D10*
X-17819949Y30930051D03*
G04 #@! TA.AperFunction,SMDPad,CuDef*
G36*
G01*
X5675000Y-56595000D02*
X5675000Y-56895000D01*
G75*
G02*
X5525000Y-57045000I-150000J0D01*
G01*
X3775000Y-57045000D01*
G75*
G02*
X3625000Y-56895000I0J150000D01*
G01*
X3625000Y-56595000D01*
G75*
G02*
X3775000Y-56445000I150000J0D01*
G01*
X5525000Y-56445000D01*
G75*
G02*
X5675000Y-56595000I0J-150000D01*
G01*
G37*
G04 #@! TD.AperFunction*
G04 #@! TA.AperFunction,SMDPad,CuDef*
G36*
G01*
X5675000Y-57865000D02*
X5675000Y-58165000D01*
G75*
G02*
X5525000Y-58315000I-150000J0D01*
G01*
X3775000Y-58315000D01*
G75*
G02*
X3625000Y-58165000I0J150000D01*
G01*
X3625000Y-57865000D01*
G75*
G02*
X3775000Y-57715000I150000J0D01*
G01*
X5525000Y-57715000D01*
G75*
G02*
X5675000Y-57865000I0J-150000D01*
G01*
G37*
G04 #@! TD.AperFunction*
G04 #@! TA.AperFunction,SMDPad,CuDef*
G36*
G01*
X5675000Y-59135000D02*
X5675000Y-59435000D01*
G75*
G02*
X5525000Y-59585000I-150000J0D01*
G01*
X3775000Y-59585000D01*
G75*
G02*
X3625000Y-59435000I0J150000D01*
G01*
X3625000Y-59135000D01*
G75*
G02*
X3775000Y-58985000I150000J0D01*
G01*
X5525000Y-58985000D01*
G75*
G02*
X5675000Y-59135000I0J-150000D01*
G01*
G37*
G04 #@! TD.AperFunction*
G04 #@! TA.AperFunction,SMDPad,CuDef*
G36*
G01*
X5675000Y-60405000D02*
X5675000Y-60705000D01*
G75*
G02*
X5525000Y-60855000I-150000J0D01*
G01*
X3775000Y-60855000D01*
G75*
G02*
X3625000Y-60705000I0J150000D01*
G01*
X3625000Y-60405000D01*
G75*
G02*
X3775000Y-60255000I150000J0D01*
G01*
X5525000Y-60255000D01*
G75*
G02*
X5675000Y-60405000I0J-150000D01*
G01*
G37*
G04 #@! TD.AperFunction*
G04 #@! TA.AperFunction,SMDPad,CuDef*
G36*
G01*
X5675000Y-61675000D02*
X5675000Y-61975000D01*
G75*
G02*
X5525000Y-62125000I-150000J0D01*
G01*
X3775000Y-62125000D01*
G75*
G02*
X3625000Y-61975000I0J150000D01*
G01*
X3625000Y-61675000D01*
G75*
G02*
X3775000Y-61525000I150000J0D01*
G01*
X5525000Y-61525000D01*
G75*
G02*
X5675000Y-61675000I0J-150000D01*
G01*
G37*
G04 #@! TD.AperFunction*
G04 #@! TA.AperFunction,SMDPad,CuDef*
G36*
G01*
X5675000Y-62945000D02*
X5675000Y-63245000D01*
G75*
G02*
X5525000Y-63395000I-150000J0D01*
G01*
X3775000Y-63395000D01*
G75*
G02*
X3625000Y-63245000I0J150000D01*
G01*
X3625000Y-62945000D01*
G75*
G02*
X3775000Y-62795000I150000J0D01*
G01*
X5525000Y-62795000D01*
G75*
G02*
X5675000Y-62945000I0J-150000D01*
G01*
G37*
G04 #@! TD.AperFunction*
G04 #@! TA.AperFunction,SMDPad,CuDef*
G36*
G01*
X5675000Y-64215000D02*
X5675000Y-64515000D01*
G75*
G02*
X5525000Y-64665000I-150000J0D01*
G01*
X3775000Y-64665000D01*
G75*
G02*
X3625000Y-64515000I0J150000D01*
G01*
X3625000Y-64215000D01*
G75*
G02*
X3775000Y-64065000I150000J0D01*
G01*
X5525000Y-64065000D01*
G75*
G02*
X5675000Y-64215000I0J-150000D01*
G01*
G37*
G04 #@! TD.AperFunction*
G04 #@! TA.AperFunction,SMDPad,CuDef*
G36*
G01*
X5675000Y-65485000D02*
X5675000Y-65785000D01*
G75*
G02*
X5525000Y-65935000I-150000J0D01*
G01*
X3775000Y-65935000D01*
G75*
G02*
X3625000Y-65785000I0J150000D01*
G01*
X3625000Y-65485000D01*
G75*
G02*
X3775000Y-65335000I150000J0D01*
G01*
X5525000Y-65335000D01*
G75*
G02*
X5675000Y-65485000I0J-150000D01*
G01*
G37*
G04 #@! TD.AperFunction*
G04 #@! TA.AperFunction,SMDPad,CuDef*
G36*
G01*
X5675000Y-66755000D02*
X5675000Y-67055000D01*
G75*
G02*
X5525000Y-67205000I-150000J0D01*
G01*
X3775000Y-67205000D01*
G75*
G02*
X3625000Y-67055000I0J150000D01*
G01*
X3625000Y-66755000D01*
G75*
G02*
X3775000Y-66605000I150000J0D01*
G01*
X5525000Y-66605000D01*
G75*
G02*
X5675000Y-66755000I0J-150000D01*
G01*
G37*
G04 #@! TD.AperFunction*
G04 #@! TA.AperFunction,SMDPad,CuDef*
G36*
G01*
X5675000Y-68025000D02*
X5675000Y-68325000D01*
G75*
G02*
X5525000Y-68475000I-150000J0D01*
G01*
X3775000Y-68475000D01*
G75*
G02*
X3625000Y-68325000I0J150000D01*
G01*
X3625000Y-68025000D01*
G75*
G02*
X3775000Y-67875000I150000J0D01*
G01*
X5525000Y-67875000D01*
G75*
G02*
X5675000Y-68025000I0J-150000D01*
G01*
G37*
G04 #@! TD.AperFunction*
G04 #@! TA.AperFunction,SMDPad,CuDef*
G36*
G01*
X5675000Y-69295000D02*
X5675000Y-69595000D01*
G75*
G02*
X5525000Y-69745000I-150000J0D01*
G01*
X3775000Y-69745000D01*
G75*
G02*
X3625000Y-69595000I0J150000D01*
G01*
X3625000Y-69295000D01*
G75*
G02*
X3775000Y-69145000I150000J0D01*
G01*
X5525000Y-69145000D01*
G75*
G02*
X5675000Y-69295000I0J-150000D01*
G01*
G37*
G04 #@! TD.AperFunction*
G04 #@! TA.AperFunction,SMDPad,CuDef*
G36*
G01*
X5675000Y-70565000D02*
X5675000Y-70865000D01*
G75*
G02*
X5525000Y-71015000I-150000J0D01*
G01*
X3775000Y-71015000D01*
G75*
G02*
X3625000Y-70865000I0J150000D01*
G01*
X3625000Y-70565000D01*
G75*
G02*
X3775000Y-70415000I150000J0D01*
G01*
X5525000Y-70415000D01*
G75*
G02*
X5675000Y-70565000I0J-150000D01*
G01*
G37*
G04 #@! TD.AperFunction*
G04 #@! TA.AperFunction,SMDPad,CuDef*
G36*
G01*
X5675000Y-71835000D02*
X5675000Y-72135000D01*
G75*
G02*
X5525000Y-72285000I-150000J0D01*
G01*
X3775000Y-72285000D01*
G75*
G02*
X3625000Y-72135000I0J150000D01*
G01*
X3625000Y-71835000D01*
G75*
G02*
X3775000Y-71685000I150000J0D01*
G01*
X5525000Y-71685000D01*
G75*
G02*
X5675000Y-71835000I0J-150000D01*
G01*
G37*
G04 #@! TD.AperFunction*
G04 #@! TA.AperFunction,SMDPad,CuDef*
G36*
G01*
X5675000Y-73105000D02*
X5675000Y-73405000D01*
G75*
G02*
X5525000Y-73555000I-150000J0D01*
G01*
X3775000Y-73555000D01*
G75*
G02*
X3625000Y-73405000I0J150000D01*
G01*
X3625000Y-73105000D01*
G75*
G02*
X3775000Y-72955000I150000J0D01*
G01*
X5525000Y-72955000D01*
G75*
G02*
X5675000Y-73105000I0J-150000D01*
G01*
G37*
G04 #@! TD.AperFunction*
G04 #@! TA.AperFunction,SMDPad,CuDef*
G36*
G01*
X-3625000Y-73105000D02*
X-3625000Y-73405000D01*
G75*
G02*
X-3775000Y-73555000I-150000J0D01*
G01*
X-5525000Y-73555000D01*
G75*
G02*
X-5675000Y-73405000I0J150000D01*
G01*
X-5675000Y-73105000D01*
G75*
G02*
X-5525000Y-72955000I150000J0D01*
G01*
X-3775000Y-72955000D01*
G75*
G02*
X-3625000Y-73105000I0J-150000D01*
G01*
G37*
G04 #@! TD.AperFunction*
G04 #@! TA.AperFunction,SMDPad,CuDef*
G36*
G01*
X-3625000Y-71835000D02*
X-3625000Y-72135000D01*
G75*
G02*
X-3775000Y-72285000I-150000J0D01*
G01*
X-5525000Y-72285000D01*
G75*
G02*
X-5675000Y-72135000I0J150000D01*
G01*
X-5675000Y-71835000D01*
G75*
G02*
X-5525000Y-71685000I150000J0D01*
G01*
X-3775000Y-71685000D01*
G75*
G02*
X-3625000Y-71835000I0J-150000D01*
G01*
G37*
G04 #@! TD.AperFunction*
G04 #@! TA.AperFunction,SMDPad,CuDef*
G36*
G01*
X-3625000Y-70565000D02*
X-3625000Y-70865000D01*
G75*
G02*
X-3775000Y-71015000I-150000J0D01*
G01*
X-5525000Y-71015000D01*
G75*
G02*
X-5675000Y-70865000I0J150000D01*
G01*
X-5675000Y-70565000D01*
G75*
G02*
X-5525000Y-70415000I150000J0D01*
G01*
X-3775000Y-70415000D01*
G75*
G02*
X-3625000Y-70565000I0J-150000D01*
G01*
G37*
G04 #@! TD.AperFunction*
G04 #@! TA.AperFunction,SMDPad,CuDef*
G36*
G01*
X-3625000Y-69295000D02*
X-3625000Y-69595000D01*
G75*
G02*
X-3775000Y-69745000I-150000J0D01*
G01*
X-5525000Y-69745000D01*
G75*
G02*
X-5675000Y-69595000I0J150000D01*
G01*
X-5675000Y-69295000D01*
G75*
G02*
X-5525000Y-69145000I150000J0D01*
G01*
X-3775000Y-69145000D01*
G75*
G02*
X-3625000Y-69295000I0J-150000D01*
G01*
G37*
G04 #@! TD.AperFunction*
G04 #@! TA.AperFunction,SMDPad,CuDef*
G36*
G01*
X-3625000Y-68025000D02*
X-3625000Y-68325000D01*
G75*
G02*
X-3775000Y-68475000I-150000J0D01*
G01*
X-5525000Y-68475000D01*
G75*
G02*
X-5675000Y-68325000I0J150000D01*
G01*
X-5675000Y-68025000D01*
G75*
G02*
X-5525000Y-67875000I150000J0D01*
G01*
X-3775000Y-67875000D01*
G75*
G02*
X-3625000Y-68025000I0J-150000D01*
G01*
G37*
G04 #@! TD.AperFunction*
G04 #@! TA.AperFunction,SMDPad,CuDef*
G36*
G01*
X-3625000Y-66755000D02*
X-3625000Y-67055000D01*
G75*
G02*
X-3775000Y-67205000I-150000J0D01*
G01*
X-5525000Y-67205000D01*
G75*
G02*
X-5675000Y-67055000I0J150000D01*
G01*
X-5675000Y-66755000D01*
G75*
G02*
X-5525000Y-66605000I150000J0D01*
G01*
X-3775000Y-66605000D01*
G75*
G02*
X-3625000Y-66755000I0J-150000D01*
G01*
G37*
G04 #@! TD.AperFunction*
G04 #@! TA.AperFunction,SMDPad,CuDef*
G36*
G01*
X-3625000Y-65485000D02*
X-3625000Y-65785000D01*
G75*
G02*
X-3775000Y-65935000I-150000J0D01*
G01*
X-5525000Y-65935000D01*
G75*
G02*
X-5675000Y-65785000I0J150000D01*
G01*
X-5675000Y-65485000D01*
G75*
G02*
X-5525000Y-65335000I150000J0D01*
G01*
X-3775000Y-65335000D01*
G75*
G02*
X-3625000Y-65485000I0J-150000D01*
G01*
G37*
G04 #@! TD.AperFunction*
G04 #@! TA.AperFunction,SMDPad,CuDef*
G36*
G01*
X-3625000Y-64215000D02*
X-3625000Y-64515000D01*
G75*
G02*
X-3775000Y-64665000I-150000J0D01*
G01*
X-5525000Y-64665000D01*
G75*
G02*
X-5675000Y-64515000I0J150000D01*
G01*
X-5675000Y-64215000D01*
G75*
G02*
X-5525000Y-64065000I150000J0D01*
G01*
X-3775000Y-64065000D01*
G75*
G02*
X-3625000Y-64215000I0J-150000D01*
G01*
G37*
G04 #@! TD.AperFunction*
G04 #@! TA.AperFunction,SMDPad,CuDef*
G36*
G01*
X-3625000Y-62945000D02*
X-3625000Y-63245000D01*
G75*
G02*
X-3775000Y-63395000I-150000J0D01*
G01*
X-5525000Y-63395000D01*
G75*
G02*
X-5675000Y-63245000I0J150000D01*
G01*
X-5675000Y-62945000D01*
G75*
G02*
X-5525000Y-62795000I150000J0D01*
G01*
X-3775000Y-62795000D01*
G75*
G02*
X-3625000Y-62945000I0J-150000D01*
G01*
G37*
G04 #@! TD.AperFunction*
G04 #@! TA.AperFunction,SMDPad,CuDef*
G36*
G01*
X-3625000Y-61675000D02*
X-3625000Y-61975000D01*
G75*
G02*
X-3775000Y-62125000I-150000J0D01*
G01*
X-5525000Y-62125000D01*
G75*
G02*
X-5675000Y-61975000I0J150000D01*
G01*
X-5675000Y-61675000D01*
G75*
G02*
X-5525000Y-61525000I150000J0D01*
G01*
X-3775000Y-61525000D01*
G75*
G02*
X-3625000Y-61675000I0J-150000D01*
G01*
G37*
G04 #@! TD.AperFunction*
G04 #@! TA.AperFunction,SMDPad,CuDef*
G36*
G01*
X-3625000Y-60405000D02*
X-3625000Y-60705000D01*
G75*
G02*
X-3775000Y-60855000I-150000J0D01*
G01*
X-5525000Y-60855000D01*
G75*
G02*
X-5675000Y-60705000I0J150000D01*
G01*
X-5675000Y-60405000D01*
G75*
G02*
X-5525000Y-60255000I150000J0D01*
G01*
X-3775000Y-60255000D01*
G75*
G02*
X-3625000Y-60405000I0J-150000D01*
G01*
G37*
G04 #@! TD.AperFunction*
G04 #@! TA.AperFunction,SMDPad,CuDef*
G36*
G01*
X-3625000Y-59135000D02*
X-3625000Y-59435000D01*
G75*
G02*
X-3775000Y-59585000I-150000J0D01*
G01*
X-5525000Y-59585000D01*
G75*
G02*
X-5675000Y-59435000I0J150000D01*
G01*
X-5675000Y-59135000D01*
G75*
G02*
X-5525000Y-58985000I150000J0D01*
G01*
X-3775000Y-58985000D01*
G75*
G02*
X-3625000Y-59135000I0J-150000D01*
G01*
G37*
G04 #@! TD.AperFunction*
G04 #@! TA.AperFunction,SMDPad,CuDef*
G36*
G01*
X-3625000Y-57865000D02*
X-3625000Y-58165000D01*
G75*
G02*
X-3775000Y-58315000I-150000J0D01*
G01*
X-5525000Y-58315000D01*
G75*
G02*
X-5675000Y-58165000I0J150000D01*
G01*
X-5675000Y-57865000D01*
G75*
G02*
X-5525000Y-57715000I150000J0D01*
G01*
X-3775000Y-57715000D01*
G75*
G02*
X-3625000Y-57865000I0J-150000D01*
G01*
G37*
G04 #@! TD.AperFunction*
G04 #@! TA.AperFunction,SMDPad,CuDef*
G36*
G01*
X-3625000Y-56595000D02*
X-3625000Y-56895000D01*
G75*
G02*
X-3775000Y-57045000I-150000J0D01*
G01*
X-5525000Y-57045000D01*
G75*
G02*
X-5675000Y-56895000I0J150000D01*
G01*
X-5675000Y-56595000D01*
G75*
G02*
X-5525000Y-56445000I150000J0D01*
G01*
X-3775000Y-56445000D01*
G75*
G02*
X-3625000Y-56595000I0J-150000D01*
G01*
G37*
G04 #@! TD.AperFunction*
D14*
X-955391Y-66989609D03*
X-17780000Y-55245000D03*
X-10160000Y-54610000D03*
X0Y-67945000D03*
X1270000Y-69215000D03*
X-2540000Y-55245000D03*
X2540000Y-70485000D03*
X4445000Y-55245000D03*
D15*
X-13970000Y-60960000D03*
X-9525000Y-60960000D03*
X4650000Y-63095000D03*
X6604000Y-64008000D03*
X6920500Y-70422198D03*
X1524000Y-73152000D03*
X13258122Y-56946122D03*
X8636000Y-73152000D03*
X-3048000Y-70612000D03*
D16*
X2884000Y-62302396D02*
X2884000Y-53366000D01*
X-4650000Y-69445000D02*
X-4258604Y-69445000D01*
X-4258604Y-69445000D02*
X2884000Y-62302396D01*
X-17819949Y-51569949D02*
X-17819949Y53430051D01*
X-18043208Y-54981792D02*
X-17780000Y-55245000D01*
X-955391Y-66989609D02*
X-870782Y-66905000D01*
X-18043208Y-51793208D02*
X-18043208Y-54981792D01*
X-870782Y-66905000D02*
X4650000Y-66905000D01*
X-17819949Y-51569949D02*
X-18043208Y-51793208D01*
X0Y-67945000D02*
X4420000Y-67945000D01*
X-10319949Y-54450051D02*
X-10319949Y-51569949D01*
X4420000Y-67945000D02*
X4650000Y-68175000D01*
X-10319949Y53430051D02*
X-10319949Y-51569949D01*
X-10160000Y-54610000D02*
X-10319949Y-54450051D01*
X4650000Y-69445000D02*
X1500000Y-69445000D01*
X-2819949Y-51569949D02*
X-2819949Y53430051D01*
X-2819949Y-51569949D02*
X-2819949Y-54965051D01*
X-2819949Y-54965051D02*
X-2540000Y-55245000D01*
X1500000Y-69445000D02*
X1270000Y-69215000D01*
X4680051Y-51569949D02*
X4680051Y-55009949D01*
X2982993Y53430051D02*
X4680051Y53430051D01*
X4680051Y-51569949D02*
X4680051Y930051D01*
X2280051Y45930051D02*
X4680051Y45930051D01*
X1684000Y41426102D02*
X1684000Y45334000D01*
X1311208Y26798894D02*
X1311208Y29258266D01*
X4650000Y-70715000D02*
X2770000Y-70715000D01*
X4680051Y23430051D02*
X1311208Y26798894D01*
X4680051Y45930051D02*
X1311208Y49298894D01*
X1684000Y33926102D02*
X1684000Y37879000D01*
X1311208Y29258266D02*
X2982993Y30930051D01*
X4680051Y30930051D02*
X1684000Y33926102D01*
X4680051Y-55009949D02*
X4445000Y-55245000D01*
X2982993Y30930051D02*
X4680051Y30930051D01*
X4680051Y930051D02*
X4680051Y23430051D01*
X1311208Y49298894D02*
X1311208Y51758266D01*
X2235051Y38430051D02*
X4680051Y38430051D01*
X2770000Y-70715000D02*
X2540000Y-70485000D01*
X1311208Y51758266D02*
X2982993Y53430051D01*
X1684000Y37879000D02*
X2235051Y38430051D01*
X1684000Y45334000D02*
X2280051Y45930051D01*
X4680051Y38430051D02*
X1684000Y41426102D01*
X7620000Y-70720000D02*
X7620000Y-60960000D01*
X12180051Y53430051D02*
X12180051Y-51569949D01*
X4650000Y-71985000D02*
X6355000Y-71985000D01*
X12180051Y-56399949D02*
X12180051Y-51569949D01*
X6355000Y-71985000D02*
X7620000Y-70720000D01*
X7620000Y-60960000D02*
X12180051Y-56399949D01*
X19680051Y-53969949D02*
X17770000Y-55880000D01*
X13335000Y-55880000D02*
X10795000Y-58420000D01*
X19680051Y-51569949D02*
X19680051Y53430051D01*
X8255000Y-71755000D02*
X6755000Y-73255000D01*
X10795000Y-61595000D02*
X8255000Y-64135000D01*
X10795000Y-58420000D02*
X10795000Y-61595000D01*
X8255000Y-64135000D02*
X8255000Y-71755000D01*
X6755000Y-73255000D02*
X4650000Y-73255000D01*
X19680051Y-51569949D02*
X19680051Y-53969949D01*
X17770000Y-55880000D02*
X13335000Y-55880000D01*
X5880051Y26137949D02*
X2884000Y29134000D01*
X5880051Y-55514949D02*
X5880051Y26137949D01*
X4650000Y-56745000D02*
X5880051Y-55514949D01*
X4650000Y-58015000D02*
X5041396Y-58015000D01*
X5041396Y-58015000D02*
X6280051Y-56776345D01*
X6280051Y33237949D02*
X2884000Y36634000D01*
X6280051Y-56776345D02*
X6280051Y33237949D01*
X6680051Y-57646345D02*
X6680051Y40337949D01*
X4650000Y-59285000D02*
X5041396Y-59285000D01*
X5041396Y-59285000D02*
X6680051Y-57646345D01*
X6680051Y40337949D02*
X2884000Y44134000D01*
X4650000Y-60555000D02*
X5041396Y-60555000D01*
X5041396Y-60555000D02*
X7080051Y-58516345D01*
X7080051Y-58516345D02*
X7080051Y47437949D01*
X7080051Y47437949D02*
X2884000Y51634000D01*
D17*
X-9525000Y-60960000D02*
X-13970000Y-60960000D01*
X5007000Y-64008000D02*
X4650000Y-64365000D01*
X6604000Y-64008000D02*
X5007000Y-64008000D01*
X6604000Y-66040000D02*
X6199000Y-65635000D01*
X6920500Y-70422198D02*
X6604000Y-70105698D01*
X6199000Y-65635000D02*
X4650000Y-65635000D01*
X6604000Y-70105698D02*
X6604000Y-66040000D01*
X8680000Y-65488000D02*
X8680000Y-73108000D01*
X-1016000Y-70612000D02*
X-3048000Y-70612000D01*
X11425000Y-58779244D02*
X11425000Y-62743000D01*
X1524000Y-73152000D02*
X-1016000Y-70612000D01*
X-4547000Y-70612000D02*
X-4650000Y-70715000D01*
X8680000Y-73108000D02*
X8636000Y-73152000D01*
X-3048000Y-70612000D02*
X-4547000Y-70612000D01*
X13258122Y-56946122D02*
X11425000Y-58779244D01*
X11425000Y-62743000D02*
X8680000Y-65488000D01*
D16*
X1684000Y-47066000D02*
X2884000Y-45866000D01*
X-4650000Y-68175000D02*
X-4040000Y-68175000D01*
X-4040000Y-68175000D02*
X1684000Y-62451000D01*
X1684000Y-62451000D02*
X1684000Y-47066000D01*
X1284000Y-39966000D02*
X2884000Y-38366000D01*
X-4258604Y-66905000D02*
X1284000Y-61362396D01*
X-4650000Y-66905000D02*
X-4258604Y-66905000D01*
X1284000Y-61362396D02*
X1284000Y-39966000D01*
X-4258604Y-65635000D02*
X884000Y-60492396D01*
X884000Y-60492396D02*
X884000Y-32866000D01*
X-4650000Y-65635000D02*
X-4258604Y-65635000D01*
X884000Y-32866000D02*
X2884000Y-30866000D01*
X-4258604Y-64365000D02*
X0Y-60106396D01*
X0Y-60106396D02*
X0Y-26250000D01*
X-4650000Y-64365000D02*
X-4258604Y-64365000D01*
X0Y-26250000D02*
X2884000Y-23366000D01*
X-4650000Y-63095000D02*
X-4258604Y-63095000D01*
X-4258604Y-63095000D02*
X-400000Y-59236396D01*
X-400000Y-19150000D02*
X2884000Y-15866000D01*
X-400000Y-59236396D02*
X-400000Y-19150000D01*
X-800000Y-12050000D02*
X2884000Y-8366000D01*
X-4258604Y-61825000D02*
X-800000Y-58366396D01*
X-4650000Y-61825000D02*
X-4258604Y-61825000D01*
X-800000Y-58366396D02*
X-800000Y-12050000D01*
X-1200000Y-4950000D02*
X2884000Y-866000D01*
X-1200000Y-57496396D02*
X-1200000Y-4950000D01*
X-4258604Y-60555000D02*
X-1200000Y-57496396D01*
X-4650000Y-60555000D02*
X-4258604Y-60555000D01*
X-4258604Y-59285000D02*
X-1600000Y-56626396D01*
X-4650000Y-59285000D02*
X-4258604Y-59285000D01*
X-1600000Y-56626396D02*
X-1600000Y2150000D01*
X-1600000Y2150000D02*
X2884000Y6634000D01*
X-3325000Y-57081396D02*
X-3325000Y-56354058D01*
X-6350000Y12400000D02*
X-4616000Y14134000D01*
X-4258604Y-58015000D02*
X-3325000Y-57081396D01*
X-3325000Y-56354058D02*
X-6350000Y-53329058D01*
X-6350000Y-53329058D02*
X-6350000Y12400000D01*
X-4650000Y-58015000D02*
X-4258604Y-58015000D01*
X-6750000Y19500000D02*
X-4616000Y21634000D01*
X-6750000Y-53494743D02*
X-6750000Y19500000D01*
X-4650000Y-55594744D02*
X-6750000Y-53494743D01*
X-4650000Y-56745000D02*
X-4650000Y-55594744D01*
M02*
