%TF.GenerationSoftware,KiCad,Pcbnew,7.0.6-7.0.6~ubuntu22.04.1*%
%TF.CreationDate,2023-08-02T19:51:28+01:00*%
%TF.ProjectId,working,776f726b-696e-4672-9e6b-696361645f70,rev?*%
%TF.SameCoordinates,Original*%
%TF.FileFunction,Drillmap*%
%TF.FilePolarity,Positive*%
%FSLAX45Y45*%
G04 Gerber Fmt 4.5, Leading zero omitted, Abs format (unit mm)*
G04 Created by KiCad (PCBNEW 7.0.6-7.0.6~ubuntu22.04.1) date 2023-08-02 19:51:28*
%MOMM*%
%LPD*%
G01*
G04 APERTURE LIST*
%ADD10C,0.200000*%
%ADD11C,0.030000*%
%ADD12C,0.040000*%
%ADD13C,0.090000*%
%ADD14C,0.100000*%
G04 APERTURE END LIST*
D10*
D11*
X-1793000Y-5509500D02*
X-1763000Y-5539500D01*
X-1763000Y-5509500D02*
X-1793000Y-5539500D01*
X-1031000Y-5446000D02*
X-1001000Y-5476000D01*
X-1001000Y-5446000D02*
X-1031000Y-5476000D01*
X-269000Y-5509500D02*
X-239000Y-5539500D01*
X-239000Y-5509500D02*
X-269000Y-5539500D01*
X-110539Y-6683961D02*
X-80539Y-6713961D01*
X-80539Y-6683961D02*
X-110539Y-6713961D01*
X-15000Y-6779500D02*
X15000Y-6809500D01*
X15000Y-6779500D02*
X-15000Y-6809500D01*
X112000Y-6906500D02*
X142000Y-6936500D01*
X142000Y-6906500D02*
X112000Y-6936500D01*
X239000Y-7033500D02*
X269000Y-7063500D01*
X269000Y-7033500D02*
X239000Y-7063500D01*
X429500Y-5509500D02*
X459500Y-5539500D01*
X459500Y-5509500D02*
X429500Y-5539500D01*
D12*
X-1377000Y-6096000D02*
G75*
G03*
X-1377000Y-6096000I-20000J0D01*
G01*
X-932500Y-6096000D02*
G75*
G03*
X-932500Y-6096000I-20000J0D01*
G01*
X-284800Y-7061200D02*
G75*
G03*
X-284800Y-7061200I-20000J0D01*
G01*
X172400Y-7315200D02*
G75*
G03*
X172400Y-7315200I-20000J0D01*
G01*
X485000Y-6309500D02*
G75*
G03*
X485000Y-6309500I-20000J0D01*
G01*
X680400Y-6400800D02*
G75*
G03*
X680400Y-6400800I-20000J0D01*
G01*
X712050Y-7042220D02*
G75*
G03*
X712050Y-7042220I-20000J0D01*
G01*
X883600Y-7315200D02*
G75*
G03*
X883600Y-7315200I-20000J0D01*
G01*
X1345812Y-5694612D02*
G75*
G03*
X1345812Y-5694612I-20000J0D01*
G01*
D13*
X-1961600Y5208400D02*
X-1961600Y5118400D01*
X-2006600Y5163400D02*
X-1916600Y5163400D01*
X-1961600Y4458400D02*
X-1961600Y4368400D01*
X-2006600Y4413400D02*
X-1916600Y4413400D01*
X-1961600Y3708400D02*
X-1961600Y3618400D01*
X-2006600Y3663400D02*
X-1916600Y3663400D01*
X-1961600Y2958400D02*
X-1961600Y2868400D01*
X-2006600Y2913400D02*
X-1916600Y2913400D01*
X-1961600Y2208400D02*
X-1961600Y2118400D01*
X-2006600Y2163400D02*
X-1916600Y2163400D01*
X-1961600Y1458400D02*
X-1961600Y1368400D01*
X-2006600Y1413400D02*
X-1916600Y1413400D01*
X-1961600Y708400D02*
X-1961600Y618400D01*
X-2006600Y663400D02*
X-1916600Y663400D01*
X-1961600Y-41600D02*
X-1961600Y-131600D01*
X-2006600Y-86600D02*
X-1916600Y-86600D01*
X-1961600Y-791600D02*
X-1961600Y-881600D01*
X-2006600Y-836600D02*
X-1916600Y-836600D01*
X-1961600Y-1541600D02*
X-1961600Y-1631600D01*
X-2006600Y-1586600D02*
X-1916600Y-1586600D01*
X-1961600Y-2291600D02*
X-1961600Y-2381600D01*
X-2006600Y-2336600D02*
X-1916600Y-2336600D01*
X-1961600Y-3041600D02*
X-1961600Y-3131600D01*
X-2006600Y-3086600D02*
X-1916600Y-3086600D01*
X-1961600Y-3791600D02*
X-1961600Y-3881600D01*
X-2006600Y-3836600D02*
X-1916600Y-3836600D01*
X-1961600Y-4541600D02*
X-1961600Y-4631600D01*
X-2006600Y-4586600D02*
X-1916600Y-4586600D01*
X-1961600Y-5291600D02*
X-1961600Y-5381600D01*
X-2006600Y-5336600D02*
X-1916600Y-5336600D01*
X-1781995Y5388005D02*
X-1781995Y5298005D01*
X-1826995Y5343005D02*
X-1736995Y5343005D01*
X-1781995Y4638005D02*
X-1781995Y4548005D01*
X-1826995Y4593005D02*
X-1736995Y4593005D01*
X-1781995Y3888005D02*
X-1781995Y3798005D01*
X-1826995Y3843005D02*
X-1736995Y3843005D01*
X-1781995Y3138005D02*
X-1781995Y3048005D01*
X-1826995Y3093005D02*
X-1736995Y3093005D01*
X-1781995Y2388005D02*
X-1781995Y2298005D01*
X-1826995Y2343005D02*
X-1736995Y2343005D01*
X-1781995Y1638005D02*
X-1781995Y1548005D01*
X-1826995Y1593005D02*
X-1736995Y1593005D01*
X-1781995Y888005D02*
X-1781995Y798005D01*
X-1826995Y843005D02*
X-1736995Y843005D01*
X-1781995Y138005D02*
X-1781995Y48005D01*
X-1826995Y93005D02*
X-1736995Y93005D01*
X-1781995Y-611995D02*
X-1781995Y-701995D01*
X-1826995Y-656995D02*
X-1736995Y-656995D01*
X-1781995Y-1361995D02*
X-1781995Y-1451995D01*
X-1826995Y-1406995D02*
X-1736995Y-1406995D01*
X-1781995Y-2111995D02*
X-1781995Y-2201995D01*
X-1826995Y-2156995D02*
X-1736995Y-2156995D01*
X-1781995Y-2861995D02*
X-1781995Y-2951995D01*
X-1826995Y-2906995D02*
X-1736995Y-2906995D01*
X-1781995Y-3611995D02*
X-1781995Y-3701995D01*
X-1826995Y-3656995D02*
X-1736995Y-3656995D01*
X-1781995Y-4361995D02*
X-1781995Y-4451995D01*
X-1826995Y-4406995D02*
X-1736995Y-4406995D01*
X-1781995Y-5111995D02*
X-1781995Y-5201995D01*
X-1826995Y-5156995D02*
X-1736995Y-5156995D01*
X-1211600Y5208400D02*
X-1211600Y5118400D01*
X-1256600Y5163400D02*
X-1166600Y5163400D01*
X-1211600Y4458400D02*
X-1211600Y4368400D01*
X-1256600Y4413400D02*
X-1166600Y4413400D01*
X-1211600Y3708400D02*
X-1211600Y3618400D01*
X-1256600Y3663400D02*
X-1166600Y3663400D01*
X-1211600Y2958400D02*
X-1211600Y2868400D01*
X-1256600Y2913400D02*
X-1166600Y2913400D01*
X-1211600Y2208400D02*
X-1211600Y2118400D01*
X-1256600Y2163400D02*
X-1166600Y2163400D01*
X-1211600Y1458400D02*
X-1211600Y1368400D01*
X-1256600Y1413400D02*
X-1166600Y1413400D01*
X-1211600Y708400D02*
X-1211600Y618400D01*
X-1256600Y663400D02*
X-1166600Y663400D01*
X-1211600Y-41600D02*
X-1211600Y-131600D01*
X-1256600Y-86600D02*
X-1166600Y-86600D01*
X-1211600Y-791600D02*
X-1211600Y-881600D01*
X-1256600Y-836600D02*
X-1166600Y-836600D01*
X-1211600Y-1541600D02*
X-1211600Y-1631600D01*
X-1256600Y-1586600D02*
X-1166600Y-1586600D01*
X-1211600Y-2291600D02*
X-1211600Y-2381600D01*
X-1256600Y-2336600D02*
X-1166600Y-2336600D01*
X-1211600Y-3041600D02*
X-1211600Y-3131600D01*
X-1256600Y-3086600D02*
X-1166600Y-3086600D01*
X-1211600Y-3791600D02*
X-1211600Y-3881600D01*
X-1256600Y-3836600D02*
X-1166600Y-3836600D01*
X-1211600Y-4541600D02*
X-1211600Y-4631600D01*
X-1256600Y-4586600D02*
X-1166600Y-4586600D01*
X-1211600Y-5291600D02*
X-1211600Y-5381600D01*
X-1256600Y-5336600D02*
X-1166600Y-5336600D01*
X-1031995Y5388005D02*
X-1031995Y5298005D01*
X-1076995Y5343005D02*
X-986995Y5343005D01*
X-1031995Y4638005D02*
X-1031995Y4548005D01*
X-1076995Y4593005D02*
X-986995Y4593005D01*
X-1031995Y3888005D02*
X-1031995Y3798005D01*
X-1076995Y3843005D02*
X-986995Y3843005D01*
X-1031995Y3138005D02*
X-1031995Y3048005D01*
X-1076995Y3093005D02*
X-986995Y3093005D01*
X-1031995Y2388005D02*
X-1031995Y2298005D01*
X-1076995Y2343005D02*
X-986995Y2343005D01*
X-1031995Y1638005D02*
X-1031995Y1548005D01*
X-1076995Y1593005D02*
X-986995Y1593005D01*
X-1031995Y888005D02*
X-1031995Y798005D01*
X-1076995Y843005D02*
X-986995Y843005D01*
X-1031995Y138005D02*
X-1031995Y48005D01*
X-1076995Y93005D02*
X-986995Y93005D01*
X-1031995Y-611995D02*
X-1031995Y-701995D01*
X-1076995Y-656995D02*
X-986995Y-656995D01*
X-1031995Y-1361995D02*
X-1031995Y-1451995D01*
X-1076995Y-1406995D02*
X-986995Y-1406995D01*
X-1031995Y-2111995D02*
X-1031995Y-2201995D01*
X-1076995Y-2156995D02*
X-986995Y-2156995D01*
X-1031995Y-2861995D02*
X-1031995Y-2951995D01*
X-1076995Y-2906995D02*
X-986995Y-2906995D01*
X-1031995Y-3611995D02*
X-1031995Y-3701995D01*
X-1076995Y-3656995D02*
X-986995Y-3656995D01*
X-1031995Y-4361995D02*
X-1031995Y-4451995D01*
X-1076995Y-4406995D02*
X-986995Y-4406995D01*
X-1031995Y-5111995D02*
X-1031995Y-5201995D01*
X-1076995Y-5156995D02*
X-986995Y-5156995D01*
X-461600Y5208400D02*
X-461600Y5118400D01*
X-506600Y5163400D02*
X-416600Y5163400D01*
X-461600Y4458400D02*
X-461600Y4368400D01*
X-506600Y4413400D02*
X-416600Y4413400D01*
X-461600Y3708400D02*
X-461600Y3618400D01*
X-506600Y3663400D02*
X-416600Y3663400D01*
X-461600Y2958400D02*
X-461600Y2868400D01*
X-506600Y2913400D02*
X-416600Y2913400D01*
X-461600Y2208400D02*
X-461600Y2118400D01*
X-506600Y2163400D02*
X-416600Y2163400D01*
X-461600Y1458400D02*
X-461600Y1368400D01*
X-506600Y1413400D02*
X-416600Y1413400D01*
X-461600Y708400D02*
X-461600Y618400D01*
X-506600Y663400D02*
X-416600Y663400D01*
X-461600Y-41600D02*
X-461600Y-131600D01*
X-506600Y-86600D02*
X-416600Y-86600D01*
X-461600Y-791600D02*
X-461600Y-881600D01*
X-506600Y-836600D02*
X-416600Y-836600D01*
X-461600Y-1541600D02*
X-461600Y-1631600D01*
X-506600Y-1586600D02*
X-416600Y-1586600D01*
X-461600Y-2291600D02*
X-461600Y-2381600D01*
X-506600Y-2336600D02*
X-416600Y-2336600D01*
X-461600Y-3041600D02*
X-461600Y-3131600D01*
X-506600Y-3086600D02*
X-416600Y-3086600D01*
X-461600Y-3791600D02*
X-461600Y-3881600D01*
X-506600Y-3836600D02*
X-416600Y-3836600D01*
X-461600Y-4541600D02*
X-461600Y-4631600D01*
X-506600Y-4586600D02*
X-416600Y-4586600D01*
X-461600Y-5291600D02*
X-461600Y-5381600D01*
X-506600Y-5336600D02*
X-416600Y-5336600D01*
X-281995Y5388005D02*
X-281995Y5298005D01*
X-326995Y5343005D02*
X-236995Y5343005D01*
X-281995Y4638005D02*
X-281995Y4548005D01*
X-326995Y4593005D02*
X-236995Y4593005D01*
X-281995Y3888005D02*
X-281995Y3798005D01*
X-326995Y3843005D02*
X-236995Y3843005D01*
X-281995Y3138005D02*
X-281995Y3048005D01*
X-326995Y3093005D02*
X-236995Y3093005D01*
X-281995Y2388005D02*
X-281995Y2298005D01*
X-326995Y2343005D02*
X-236995Y2343005D01*
X-281995Y1638005D02*
X-281995Y1548005D01*
X-326995Y1593005D02*
X-236995Y1593005D01*
X-281995Y888005D02*
X-281995Y798005D01*
X-326995Y843005D02*
X-236995Y843005D01*
X-281995Y138005D02*
X-281995Y48005D01*
X-326995Y93005D02*
X-236995Y93005D01*
X-281995Y-611995D02*
X-281995Y-701995D01*
X-326995Y-656995D02*
X-236995Y-656995D01*
X-281995Y-1361995D02*
X-281995Y-1451995D01*
X-326995Y-1406995D02*
X-236995Y-1406995D01*
X-281995Y-2111995D02*
X-281995Y-2201995D01*
X-326995Y-2156995D02*
X-236995Y-2156995D01*
X-281995Y-2861995D02*
X-281995Y-2951995D01*
X-326995Y-2906995D02*
X-236995Y-2906995D01*
X-281995Y-3611995D02*
X-281995Y-3701995D01*
X-326995Y-3656995D02*
X-236995Y-3656995D01*
X-281995Y-4361995D02*
X-281995Y-4451995D01*
X-326995Y-4406995D02*
X-236995Y-4406995D01*
X-281995Y-5111995D02*
X-281995Y-5201995D01*
X-326995Y-5156995D02*
X-236995Y-5156995D01*
X288400Y5208400D02*
X288400Y5118400D01*
X243400Y5163400D02*
X333400Y5163400D01*
X288400Y4458400D02*
X288400Y4368400D01*
X243400Y4413400D02*
X333400Y4413400D01*
X288400Y3708400D02*
X288400Y3618400D01*
X243400Y3663400D02*
X333400Y3663400D01*
X288400Y2958400D02*
X288400Y2868400D01*
X243400Y2913400D02*
X333400Y2913400D01*
X288400Y2208400D02*
X288400Y2118400D01*
X243400Y2163400D02*
X333400Y2163400D01*
X288400Y1458400D02*
X288400Y1368400D01*
X243400Y1413400D02*
X333400Y1413400D01*
X288400Y708400D02*
X288400Y618400D01*
X243400Y663400D02*
X333400Y663400D01*
X288400Y-41600D02*
X288400Y-131600D01*
X243400Y-86600D02*
X333400Y-86600D01*
X288400Y-791600D02*
X288400Y-881600D01*
X243400Y-836600D02*
X333400Y-836600D01*
X288400Y-1541600D02*
X288400Y-1631600D01*
X243400Y-1586600D02*
X333400Y-1586600D01*
X288400Y-2291600D02*
X288400Y-2381600D01*
X243400Y-2336600D02*
X333400Y-2336600D01*
X288400Y-3041600D02*
X288400Y-3131600D01*
X243400Y-3086600D02*
X333400Y-3086600D01*
X288400Y-3791600D02*
X288400Y-3881600D01*
X243400Y-3836600D02*
X333400Y-3836600D01*
X288400Y-4541600D02*
X288400Y-4631600D01*
X243400Y-4586600D02*
X333400Y-4586600D01*
X288400Y-5291600D02*
X288400Y-5381600D01*
X243400Y-5336600D02*
X333400Y-5336600D01*
X468005Y5388005D02*
X468005Y5298005D01*
X423005Y5343005D02*
X513005Y5343005D01*
X468005Y4638005D02*
X468005Y4548005D01*
X423005Y4593005D02*
X513005Y4593005D01*
X468005Y3888005D02*
X468005Y3798005D01*
X423005Y3843005D02*
X513005Y3843005D01*
X468005Y3138005D02*
X468005Y3048005D01*
X423005Y3093005D02*
X513005Y3093005D01*
X468005Y2388005D02*
X468005Y2298005D01*
X423005Y2343005D02*
X513005Y2343005D01*
X468005Y1638005D02*
X468005Y1548005D01*
X423005Y1593005D02*
X513005Y1593005D01*
X468005Y888005D02*
X468005Y798005D01*
X423005Y843005D02*
X513005Y843005D01*
X468005Y138005D02*
X468005Y48005D01*
X423005Y93005D02*
X513005Y93005D01*
X468005Y-611995D02*
X468005Y-701995D01*
X423005Y-656995D02*
X513005Y-656995D01*
X468005Y-1361995D02*
X468005Y-1451995D01*
X423005Y-1406995D02*
X513005Y-1406995D01*
X468005Y-2111995D02*
X468005Y-2201995D01*
X423005Y-2156995D02*
X513005Y-2156995D01*
X468005Y-2861995D02*
X468005Y-2951995D01*
X423005Y-2906995D02*
X513005Y-2906995D01*
X468005Y-3611995D02*
X468005Y-3701995D01*
X423005Y-3656995D02*
X513005Y-3656995D01*
X468005Y-4361995D02*
X468005Y-4451995D01*
X423005Y-4406995D02*
X513005Y-4406995D01*
X468005Y-5111995D02*
X468005Y-5201995D01*
X423005Y-5156995D02*
X513005Y-5156995D01*
X1038400Y5208400D02*
X1038400Y5118400D01*
X993400Y5163400D02*
X1083400Y5163400D01*
X1038400Y4458400D02*
X1038400Y4368400D01*
X993400Y4413400D02*
X1083400Y4413400D01*
X1038400Y3708400D02*
X1038400Y3618400D01*
X993400Y3663400D02*
X1083400Y3663400D01*
X1038400Y2958400D02*
X1038400Y2868400D01*
X993400Y2913400D02*
X1083400Y2913400D01*
X1038400Y2208400D02*
X1038400Y2118400D01*
X993400Y2163400D02*
X1083400Y2163400D01*
X1038400Y1458400D02*
X1038400Y1368400D01*
X993400Y1413400D02*
X1083400Y1413400D01*
X1038400Y708400D02*
X1038400Y618400D01*
X993400Y663400D02*
X1083400Y663400D01*
X1038400Y-41600D02*
X1038400Y-131600D01*
X993400Y-86600D02*
X1083400Y-86600D01*
X1038400Y-791600D02*
X1038400Y-881600D01*
X993400Y-836600D02*
X1083400Y-836600D01*
X1038400Y-1541600D02*
X1038400Y-1631600D01*
X993400Y-1586600D02*
X1083400Y-1586600D01*
X1038400Y-2291600D02*
X1038400Y-2381600D01*
X993400Y-2336600D02*
X1083400Y-2336600D01*
X1038400Y-3041600D02*
X1038400Y-3131600D01*
X993400Y-3086600D02*
X1083400Y-3086600D01*
X1038400Y-3791600D02*
X1038400Y-3881600D01*
X993400Y-3836600D02*
X1083400Y-3836600D01*
X1038400Y-4541600D02*
X1038400Y-4631600D01*
X993400Y-4586600D02*
X1083400Y-4586600D01*
X1038400Y-5291600D02*
X1038400Y-5381600D01*
X993400Y-5336600D02*
X1083400Y-5336600D01*
X1218005Y5388005D02*
X1218005Y5298005D01*
X1173005Y5343005D02*
X1263005Y5343005D01*
X1218005Y4638005D02*
X1218005Y4548005D01*
X1173005Y4593005D02*
X1263005Y4593005D01*
X1218005Y3888005D02*
X1218005Y3798005D01*
X1173005Y3843005D02*
X1263005Y3843005D01*
X1218005Y3138005D02*
X1218005Y3048005D01*
X1173005Y3093005D02*
X1263005Y3093005D01*
X1218005Y2388005D02*
X1218005Y2298005D01*
X1173005Y2343005D02*
X1263005Y2343005D01*
X1218005Y1638005D02*
X1218005Y1548005D01*
X1173005Y1593005D02*
X1263005Y1593005D01*
X1218005Y888005D02*
X1218005Y798005D01*
X1173005Y843005D02*
X1263005Y843005D01*
X1218005Y138005D02*
X1218005Y48005D01*
X1173005Y93005D02*
X1263005Y93005D01*
X1218005Y-611995D02*
X1218005Y-701995D01*
X1173005Y-656995D02*
X1263005Y-656995D01*
X1218005Y-1361995D02*
X1218005Y-1451995D01*
X1173005Y-1406995D02*
X1263005Y-1406995D01*
X1218005Y-2111995D02*
X1218005Y-2201995D01*
X1173005Y-2156995D02*
X1263005Y-2156995D01*
X1218005Y-2861995D02*
X1218005Y-2951995D01*
X1173005Y-2906995D02*
X1263005Y-2906995D01*
X1218005Y-3611995D02*
X1218005Y-3701995D01*
X1173005Y-3656995D02*
X1263005Y-3656995D01*
X1218005Y-4361995D02*
X1218005Y-4451995D01*
X1173005Y-4406995D02*
X1263005Y-4406995D01*
X1218005Y-5111995D02*
X1218005Y-5201995D01*
X1173005Y-5156995D02*
X1263005Y-5156995D01*
X1788400Y5208400D02*
X1788400Y5118400D01*
X1743400Y5163400D02*
X1833400Y5163400D01*
X1788400Y4458400D02*
X1788400Y4368400D01*
X1743400Y4413400D02*
X1833400Y4413400D01*
X1788400Y3708400D02*
X1788400Y3618400D01*
X1743400Y3663400D02*
X1833400Y3663400D01*
X1788400Y2958400D02*
X1788400Y2868400D01*
X1743400Y2913400D02*
X1833400Y2913400D01*
X1788400Y2208400D02*
X1788400Y2118400D01*
X1743400Y2163400D02*
X1833400Y2163400D01*
X1788400Y1458400D02*
X1788400Y1368400D01*
X1743400Y1413400D02*
X1833400Y1413400D01*
X1788400Y708400D02*
X1788400Y618400D01*
X1743400Y663400D02*
X1833400Y663400D01*
X1788400Y-41600D02*
X1788400Y-131600D01*
X1743400Y-86600D02*
X1833400Y-86600D01*
X1788400Y-791600D02*
X1788400Y-881600D01*
X1743400Y-836600D02*
X1833400Y-836600D01*
X1788400Y-1541600D02*
X1788400Y-1631600D01*
X1743400Y-1586600D02*
X1833400Y-1586600D01*
X1788400Y-2291600D02*
X1788400Y-2381600D01*
X1743400Y-2336600D02*
X1833400Y-2336600D01*
X1788400Y-3041600D02*
X1788400Y-3131600D01*
X1743400Y-3086600D02*
X1833400Y-3086600D01*
X1788400Y-3791600D02*
X1788400Y-3881600D01*
X1743400Y-3836600D02*
X1833400Y-3836600D01*
X1788400Y-4541600D02*
X1788400Y-4631600D01*
X1743400Y-4586600D02*
X1833400Y-4586600D01*
X1788400Y-5291600D02*
X1788400Y-5381600D01*
X1743400Y-5336600D02*
X1833400Y-5336600D01*
X1968005Y5388005D02*
X1968005Y5298005D01*
X1923005Y5343005D02*
X2013005Y5343005D01*
X1968005Y4638005D02*
X1968005Y4548005D01*
X1923005Y4593005D02*
X2013005Y4593005D01*
X1968005Y3888005D02*
X1968005Y3798005D01*
X1923005Y3843005D02*
X2013005Y3843005D01*
X1968005Y3138005D02*
X1968005Y3048005D01*
X1923005Y3093005D02*
X2013005Y3093005D01*
X1968005Y2388005D02*
X1968005Y2298005D01*
X1923005Y2343005D02*
X2013005Y2343005D01*
X1968005Y1638005D02*
X1968005Y1548005D01*
X1923005Y1593005D02*
X2013005Y1593005D01*
X1968005Y888005D02*
X1968005Y798005D01*
X1923005Y843005D02*
X2013005Y843005D01*
X1968005Y138005D02*
X1968005Y48005D01*
X1923005Y93005D02*
X2013005Y93005D01*
X1968005Y-611995D02*
X1968005Y-701995D01*
X1923005Y-656995D02*
X2013005Y-656995D01*
X1968005Y-1361995D02*
X1968005Y-1451995D01*
X1923005Y-1406995D02*
X2013005Y-1406995D01*
X1968005Y-2111995D02*
X1968005Y-2201995D01*
X1923005Y-2156995D02*
X2013005Y-2156995D01*
X1968005Y-2861995D02*
X1968005Y-2951995D01*
X1923005Y-2906995D02*
X2013005Y-2906995D01*
X1968005Y-3611995D02*
X1968005Y-3701995D01*
X1923005Y-3656995D02*
X2013005Y-3656995D01*
X1968005Y-4361995D02*
X1968005Y-4451995D01*
X1923005Y-4406995D02*
X2013005Y-4406995D01*
X1968005Y-5111995D02*
X1968005Y-5201995D01*
X1923005Y-5156995D02*
X2013005Y-5156995D01*
D14*
X1305356Y-5928156D02*
X1305356Y-5857444D01*
X1234644Y-5857444D01*
X1234644Y-5928156D01*
X1305356Y-5928156D01*
X1559356Y-5928156D02*
X1559356Y-5857444D01*
X1488644Y-5857444D01*
X1488644Y-5928156D01*
X1559356Y-5928156D01*
X1813356Y-5928156D02*
X1813356Y-5857444D01*
X1742644Y-5857444D01*
X1742644Y-5928156D01*
X1813356Y-5928156D01*
X2067356Y-5928156D02*
X2067356Y-5857444D01*
X1996644Y-5857444D01*
X1996644Y-5928156D01*
X2067356Y-5928156D01*
D10*
X-1944223Y-7766484D02*
X-1944223Y-7566484D01*
X-1944223Y-7566484D02*
X-1896604Y-7566484D01*
X-1896604Y-7566484D02*
X-1868033Y-7576008D01*
X-1868033Y-7576008D02*
X-1848985Y-7595055D01*
X-1848985Y-7595055D02*
X-1839461Y-7614103D01*
X-1839461Y-7614103D02*
X-1829937Y-7652198D01*
X-1829937Y-7652198D02*
X-1829937Y-7680769D01*
X-1829937Y-7680769D02*
X-1839461Y-7718865D01*
X-1839461Y-7718865D02*
X-1848985Y-7737912D01*
X-1848985Y-7737912D02*
X-1868033Y-7756960D01*
X-1868033Y-7756960D02*
X-1896604Y-7766484D01*
X-1896604Y-7766484D02*
X-1944223Y-7766484D01*
X-1744223Y-7766484D02*
X-1744223Y-7633150D01*
X-1744223Y-7671246D02*
X-1734699Y-7652198D01*
X-1734699Y-7652198D02*
X-1725175Y-7642674D01*
X-1725175Y-7642674D02*
X-1706128Y-7633150D01*
X-1706128Y-7633150D02*
X-1687080Y-7633150D01*
X-1620414Y-7766484D02*
X-1620414Y-7633150D01*
X-1620414Y-7566484D02*
X-1629937Y-7576008D01*
X-1629937Y-7576008D02*
X-1620414Y-7585531D01*
X-1620414Y-7585531D02*
X-1610890Y-7576008D01*
X-1610890Y-7576008D02*
X-1620414Y-7566484D01*
X-1620414Y-7566484D02*
X-1620414Y-7585531D01*
X-1496604Y-7766484D02*
X-1515652Y-7756960D01*
X-1515652Y-7756960D02*
X-1525175Y-7737912D01*
X-1525175Y-7737912D02*
X-1525175Y-7566484D01*
X-1391842Y-7766484D02*
X-1410890Y-7756960D01*
X-1410890Y-7756960D02*
X-1420414Y-7737912D01*
X-1420414Y-7737912D02*
X-1420414Y-7566484D01*
X-1163271Y-7766484D02*
X-1163271Y-7566484D01*
X-1163271Y-7566484D02*
X-1096604Y-7709341D01*
X-1096604Y-7709341D02*
X-1029937Y-7566484D01*
X-1029937Y-7566484D02*
X-1029937Y-7766484D01*
X-848985Y-7766484D02*
X-848985Y-7661722D01*
X-848985Y-7661722D02*
X-858509Y-7642674D01*
X-858509Y-7642674D02*
X-877556Y-7633150D01*
X-877556Y-7633150D02*
X-915652Y-7633150D01*
X-915652Y-7633150D02*
X-934699Y-7642674D01*
X-848985Y-7756960D02*
X-868033Y-7766484D01*
X-868033Y-7766484D02*
X-915652Y-7766484D01*
X-915652Y-7766484D02*
X-934699Y-7756960D01*
X-934699Y-7756960D02*
X-944223Y-7737912D01*
X-944223Y-7737912D02*
X-944223Y-7718865D01*
X-944223Y-7718865D02*
X-934699Y-7699817D01*
X-934699Y-7699817D02*
X-915652Y-7690293D01*
X-915652Y-7690293D02*
X-868033Y-7690293D01*
X-868033Y-7690293D02*
X-848985Y-7680769D01*
X-753747Y-7633150D02*
X-753747Y-7833150D01*
X-753747Y-7642674D02*
X-734699Y-7633150D01*
X-734699Y-7633150D02*
X-696604Y-7633150D01*
X-696604Y-7633150D02*
X-677556Y-7642674D01*
X-677556Y-7642674D02*
X-668033Y-7652198D01*
X-668033Y-7652198D02*
X-658509Y-7671246D01*
X-658509Y-7671246D02*
X-658509Y-7728388D01*
X-658509Y-7728388D02*
X-668033Y-7747436D01*
X-668033Y-7747436D02*
X-677556Y-7756960D01*
X-677556Y-7756960D02*
X-696604Y-7766484D01*
X-696604Y-7766484D02*
X-734699Y-7766484D01*
X-734699Y-7766484D02*
X-753747Y-7756960D01*
X-572795Y-7747436D02*
X-563271Y-7756960D01*
X-563271Y-7756960D02*
X-572795Y-7766484D01*
X-572795Y-7766484D02*
X-582318Y-7756960D01*
X-582318Y-7756960D02*
X-572795Y-7747436D01*
X-572795Y-7747436D02*
X-572795Y-7766484D01*
X-572795Y-7642674D02*
X-563271Y-7652198D01*
X-563271Y-7652198D02*
X-572795Y-7661722D01*
X-572795Y-7661722D02*
X-582318Y-7652198D01*
X-582318Y-7652198D02*
X-572795Y-7642674D01*
X-572795Y-7642674D02*
X-572795Y-7661722D01*
D11*
X-2235000Y-8080000D02*
X-2205000Y-8110000D01*
X-2205000Y-8080000D02*
X-2235000Y-8110000D01*
D10*
X-1906128Y-7986484D02*
X-1887080Y-7986484D01*
X-1887080Y-7986484D02*
X-1868033Y-7996008D01*
X-1868033Y-7996008D02*
X-1858509Y-8005531D01*
X-1858509Y-8005531D02*
X-1848985Y-8024579D01*
X-1848985Y-8024579D02*
X-1839461Y-8062674D01*
X-1839461Y-8062674D02*
X-1839461Y-8110293D01*
X-1839461Y-8110293D02*
X-1848985Y-8148388D01*
X-1848985Y-8148388D02*
X-1858509Y-8167436D01*
X-1858509Y-8167436D02*
X-1868033Y-8176960D01*
X-1868033Y-8176960D02*
X-1887080Y-8186484D01*
X-1887080Y-8186484D02*
X-1906128Y-8186484D01*
X-1906128Y-8186484D02*
X-1925175Y-8176960D01*
X-1925175Y-8176960D02*
X-1934699Y-8167436D01*
X-1934699Y-8167436D02*
X-1944223Y-8148388D01*
X-1944223Y-8148388D02*
X-1953747Y-8110293D01*
X-1953747Y-8110293D02*
X-1953747Y-8062674D01*
X-1953747Y-8062674D02*
X-1944223Y-8024579D01*
X-1944223Y-8024579D02*
X-1934699Y-8005531D01*
X-1934699Y-8005531D02*
X-1925175Y-7996008D01*
X-1925175Y-7996008D02*
X-1906128Y-7986484D01*
X-1753747Y-8167436D02*
X-1744223Y-8176960D01*
X-1744223Y-8176960D02*
X-1753747Y-8186484D01*
X-1753747Y-8186484D02*
X-1763271Y-8176960D01*
X-1763271Y-8176960D02*
X-1753747Y-8167436D01*
X-1753747Y-8167436D02*
X-1753747Y-8186484D01*
X-1677556Y-7986484D02*
X-1553747Y-7986484D01*
X-1553747Y-7986484D02*
X-1620414Y-8062674D01*
X-1620414Y-8062674D02*
X-1591842Y-8062674D01*
X-1591842Y-8062674D02*
X-1572794Y-8072198D01*
X-1572794Y-8072198D02*
X-1563271Y-8081722D01*
X-1563271Y-8081722D02*
X-1553747Y-8100769D01*
X-1553747Y-8100769D02*
X-1553747Y-8148388D01*
X-1553747Y-8148388D02*
X-1563271Y-8167436D01*
X-1563271Y-8167436D02*
X-1572794Y-8176960D01*
X-1572794Y-8176960D02*
X-1591842Y-8186484D01*
X-1591842Y-8186484D02*
X-1648985Y-8186484D01*
X-1648985Y-8186484D02*
X-1668033Y-8176960D01*
X-1668033Y-8176960D02*
X-1677556Y-8167436D01*
X-1429937Y-7986484D02*
X-1410890Y-7986484D01*
X-1410890Y-7986484D02*
X-1391842Y-7996008D01*
X-1391842Y-7996008D02*
X-1382318Y-8005531D01*
X-1382318Y-8005531D02*
X-1372795Y-8024579D01*
X-1372795Y-8024579D02*
X-1363271Y-8062674D01*
X-1363271Y-8062674D02*
X-1363271Y-8110293D01*
X-1363271Y-8110293D02*
X-1372795Y-8148388D01*
X-1372795Y-8148388D02*
X-1382318Y-8167436D01*
X-1382318Y-8167436D02*
X-1391842Y-8176960D01*
X-1391842Y-8176960D02*
X-1410890Y-8186484D01*
X-1410890Y-8186484D02*
X-1429937Y-8186484D01*
X-1429937Y-8186484D02*
X-1448985Y-8176960D01*
X-1448985Y-8176960D02*
X-1458509Y-8167436D01*
X-1458509Y-8167436D02*
X-1468033Y-8148388D01*
X-1468033Y-8148388D02*
X-1477556Y-8110293D01*
X-1477556Y-8110293D02*
X-1477556Y-8062674D01*
X-1477556Y-8062674D02*
X-1468033Y-8024579D01*
X-1468033Y-8024579D02*
X-1458509Y-8005531D01*
X-1458509Y-8005531D02*
X-1448985Y-7996008D01*
X-1448985Y-7996008D02*
X-1429937Y-7986484D01*
X-1239461Y-7986484D02*
X-1220414Y-7986484D01*
X-1220414Y-7986484D02*
X-1201366Y-7996008D01*
X-1201366Y-7996008D02*
X-1191842Y-8005531D01*
X-1191842Y-8005531D02*
X-1182318Y-8024579D01*
X-1182318Y-8024579D02*
X-1172795Y-8062674D01*
X-1172795Y-8062674D02*
X-1172795Y-8110293D01*
X-1172795Y-8110293D02*
X-1182318Y-8148388D01*
X-1182318Y-8148388D02*
X-1191842Y-8167436D01*
X-1191842Y-8167436D02*
X-1201366Y-8176960D01*
X-1201366Y-8176960D02*
X-1220414Y-8186484D01*
X-1220414Y-8186484D02*
X-1239461Y-8186484D01*
X-1239461Y-8186484D02*
X-1258509Y-8176960D01*
X-1258509Y-8176960D02*
X-1268033Y-8167436D01*
X-1268033Y-8167436D02*
X-1277556Y-8148388D01*
X-1277556Y-8148388D02*
X-1287080Y-8110293D01*
X-1287080Y-8110293D02*
X-1287080Y-8062674D01*
X-1287080Y-8062674D02*
X-1277556Y-8024579D01*
X-1277556Y-8024579D02*
X-1268033Y-8005531D01*
X-1268033Y-8005531D02*
X-1258509Y-7996008D01*
X-1258509Y-7996008D02*
X-1239461Y-7986484D01*
X-1087080Y-8186484D02*
X-1087080Y-8053150D01*
X-1087080Y-8072198D02*
X-1077556Y-8062674D01*
X-1077556Y-8062674D02*
X-1058509Y-8053150D01*
X-1058509Y-8053150D02*
X-1029937Y-8053150D01*
X-1029937Y-8053150D02*
X-1010890Y-8062674D01*
X-1010890Y-8062674D02*
X-1001366Y-8081722D01*
X-1001366Y-8081722D02*
X-1001366Y-8186484D01*
X-1001366Y-8081722D02*
X-991842Y-8062674D01*
X-991842Y-8062674D02*
X-972794Y-8053150D01*
X-972794Y-8053150D02*
X-944223Y-8053150D01*
X-944223Y-8053150D02*
X-925175Y-8062674D01*
X-925175Y-8062674D02*
X-915652Y-8081722D01*
X-915652Y-8081722D02*
X-915652Y-8186484D01*
X-820413Y-8186484D02*
X-820413Y-8053150D01*
X-820413Y-8072198D02*
X-810890Y-8062674D01*
X-810890Y-8062674D02*
X-791842Y-8053150D01*
X-791842Y-8053150D02*
X-763271Y-8053150D01*
X-763271Y-8053150D02*
X-744223Y-8062674D01*
X-744223Y-8062674D02*
X-734699Y-8081722D01*
X-734699Y-8081722D02*
X-734699Y-8186484D01*
X-734699Y-8081722D02*
X-725175Y-8062674D01*
X-725175Y-8062674D02*
X-706128Y-8053150D01*
X-706128Y-8053150D02*
X-677556Y-8053150D01*
X-677556Y-8053150D02*
X-658509Y-8062674D01*
X-658509Y-8062674D02*
X-648985Y-8081722D01*
X-648985Y-8081722D02*
X-648985Y-8186484D01*
X-258509Y-7976960D02*
X-429937Y-8234103D01*
X-1366Y-7986484D02*
X17682Y-7986484D01*
X17682Y-7986484D02*
X36729Y-7996008D01*
X36729Y-7996008D02*
X46253Y-8005531D01*
X46253Y-8005531D02*
X55777Y-8024579D01*
X55777Y-8024579D02*
X65301Y-8062674D01*
X65301Y-8062674D02*
X65301Y-8110293D01*
X65301Y-8110293D02*
X55777Y-8148388D01*
X55777Y-8148388D02*
X46253Y-8167436D01*
X46253Y-8167436D02*
X36729Y-8176960D01*
X36729Y-8176960D02*
X17682Y-8186484D01*
X17682Y-8186484D02*
X-1366Y-8186484D01*
X-1366Y-8186484D02*
X-20413Y-8176960D01*
X-20413Y-8176960D02*
X-29937Y-8167436D01*
X-29937Y-8167436D02*
X-39461Y-8148388D01*
X-39461Y-8148388D02*
X-48985Y-8110293D01*
X-48985Y-8110293D02*
X-48985Y-8062674D01*
X-48985Y-8062674D02*
X-39461Y-8024579D01*
X-39461Y-8024579D02*
X-29937Y-8005531D01*
X-29937Y-8005531D02*
X-20413Y-7996008D01*
X-20413Y-7996008D02*
X-1366Y-7986484D01*
X151015Y-8167436D02*
X160539Y-8176960D01*
X160539Y-8176960D02*
X151015Y-8186484D01*
X151015Y-8186484D02*
X141491Y-8176960D01*
X141491Y-8176960D02*
X151015Y-8167436D01*
X151015Y-8167436D02*
X151015Y-8186484D01*
X284348Y-7986484D02*
X303396Y-7986484D01*
X303396Y-7986484D02*
X322444Y-7996008D01*
X322444Y-7996008D02*
X331968Y-8005531D01*
X331968Y-8005531D02*
X341491Y-8024579D01*
X341491Y-8024579D02*
X351015Y-8062674D01*
X351015Y-8062674D02*
X351015Y-8110293D01*
X351015Y-8110293D02*
X341491Y-8148388D01*
X341491Y-8148388D02*
X331968Y-8167436D01*
X331968Y-8167436D02*
X322444Y-8176960D01*
X322444Y-8176960D02*
X303396Y-8186484D01*
X303396Y-8186484D02*
X284348Y-8186484D01*
X284348Y-8186484D02*
X265301Y-8176960D01*
X265301Y-8176960D02*
X255777Y-8167436D01*
X255777Y-8167436D02*
X246253Y-8148388D01*
X246253Y-8148388D02*
X236729Y-8110293D01*
X236729Y-8110293D02*
X236729Y-8062674D01*
X236729Y-8062674D02*
X246253Y-8024579D01*
X246253Y-8024579D02*
X255777Y-8005531D01*
X255777Y-8005531D02*
X265301Y-7996008D01*
X265301Y-7996008D02*
X284348Y-7986484D01*
X541491Y-8186484D02*
X427206Y-8186484D01*
X484348Y-8186484D02*
X484348Y-7986484D01*
X484348Y-7986484D02*
X465301Y-8015055D01*
X465301Y-8015055D02*
X446253Y-8034103D01*
X446253Y-8034103D02*
X427206Y-8043627D01*
X731967Y-8186484D02*
X617682Y-8186484D01*
X674825Y-8186484D02*
X674825Y-7986484D01*
X674825Y-7986484D02*
X655777Y-8015055D01*
X655777Y-8015055D02*
X636729Y-8034103D01*
X636729Y-8034103D02*
X617682Y-8043627D01*
X846253Y-8072198D02*
X827206Y-8062674D01*
X827206Y-8062674D02*
X817682Y-8053150D01*
X817682Y-8053150D02*
X808158Y-8034103D01*
X808158Y-8034103D02*
X808158Y-8024579D01*
X808158Y-8024579D02*
X817682Y-8005531D01*
X817682Y-8005531D02*
X827206Y-7996008D01*
X827206Y-7996008D02*
X846253Y-7986484D01*
X846253Y-7986484D02*
X884348Y-7986484D01*
X884348Y-7986484D02*
X903396Y-7996008D01*
X903396Y-7996008D02*
X912920Y-8005531D01*
X912920Y-8005531D02*
X922444Y-8024579D01*
X922444Y-8024579D02*
X922444Y-8034103D01*
X922444Y-8034103D02*
X912920Y-8053150D01*
X912920Y-8053150D02*
X903396Y-8062674D01*
X903396Y-8062674D02*
X884348Y-8072198D01*
X884348Y-8072198D02*
X846253Y-8072198D01*
X846253Y-8072198D02*
X827206Y-8081722D01*
X827206Y-8081722D02*
X817682Y-8091246D01*
X817682Y-8091246D02*
X808158Y-8110293D01*
X808158Y-8110293D02*
X808158Y-8148388D01*
X808158Y-8148388D02*
X817682Y-8167436D01*
X817682Y-8167436D02*
X827206Y-8176960D01*
X827206Y-8176960D02*
X846253Y-8186484D01*
X846253Y-8186484D02*
X884348Y-8186484D01*
X884348Y-8186484D02*
X903396Y-8176960D01*
X903396Y-8176960D02*
X912920Y-8167436D01*
X912920Y-8167436D02*
X922444Y-8148388D01*
X922444Y-8148388D02*
X922444Y-8110293D01*
X922444Y-8110293D02*
X912920Y-8091246D01*
X912920Y-8091246D02*
X903396Y-8081722D01*
X903396Y-8081722D02*
X884348Y-8072198D01*
X998634Y-7986484D02*
X998634Y-8024579D01*
X1074825Y-7986484D02*
X1074825Y-8024579D01*
X1370063Y-8262674D02*
X1360539Y-8253150D01*
X1360539Y-8253150D02*
X1341491Y-8224579D01*
X1341491Y-8224579D02*
X1331968Y-8205531D01*
X1331968Y-8205531D02*
X1322444Y-8176960D01*
X1322444Y-8176960D02*
X1312920Y-8129341D01*
X1312920Y-8129341D02*
X1312920Y-8091246D01*
X1312920Y-8091246D02*
X1322444Y-8043627D01*
X1322444Y-8043627D02*
X1331968Y-8015055D01*
X1331968Y-8015055D02*
X1341491Y-7996008D01*
X1341491Y-7996008D02*
X1360539Y-7967436D01*
X1360539Y-7967436D02*
X1370063Y-7957912D01*
X1474825Y-8072198D02*
X1455777Y-8062674D01*
X1455777Y-8062674D02*
X1446253Y-8053150D01*
X1446253Y-8053150D02*
X1436729Y-8034103D01*
X1436729Y-8034103D02*
X1436729Y-8024579D01*
X1436729Y-8024579D02*
X1446253Y-8005531D01*
X1446253Y-8005531D02*
X1455777Y-7996008D01*
X1455777Y-7996008D02*
X1474825Y-7986484D01*
X1474825Y-7986484D02*
X1512920Y-7986484D01*
X1512920Y-7986484D02*
X1531968Y-7996008D01*
X1531968Y-7996008D02*
X1541491Y-8005531D01*
X1541491Y-8005531D02*
X1551015Y-8024579D01*
X1551015Y-8024579D02*
X1551015Y-8034103D01*
X1551015Y-8034103D02*
X1541491Y-8053150D01*
X1541491Y-8053150D02*
X1531968Y-8062674D01*
X1531968Y-8062674D02*
X1512920Y-8072198D01*
X1512920Y-8072198D02*
X1474825Y-8072198D01*
X1474825Y-8072198D02*
X1455777Y-8081722D01*
X1455777Y-8081722D02*
X1446253Y-8091246D01*
X1446253Y-8091246D02*
X1436729Y-8110293D01*
X1436729Y-8110293D02*
X1436729Y-8148388D01*
X1436729Y-8148388D02*
X1446253Y-8167436D01*
X1446253Y-8167436D02*
X1455777Y-8176960D01*
X1455777Y-8176960D02*
X1474825Y-8186484D01*
X1474825Y-8186484D02*
X1512920Y-8186484D01*
X1512920Y-8186484D02*
X1531968Y-8176960D01*
X1531968Y-8176960D02*
X1541491Y-8167436D01*
X1541491Y-8167436D02*
X1551015Y-8148388D01*
X1551015Y-8148388D02*
X1551015Y-8110293D01*
X1551015Y-8110293D02*
X1541491Y-8091246D01*
X1541491Y-8091246D02*
X1531968Y-8081722D01*
X1531968Y-8081722D02*
X1512920Y-8072198D01*
X1789110Y-8186484D02*
X1789110Y-7986484D01*
X1874825Y-8186484D02*
X1874825Y-8081722D01*
X1874825Y-8081722D02*
X1865301Y-8062674D01*
X1865301Y-8062674D02*
X1846253Y-8053150D01*
X1846253Y-8053150D02*
X1817682Y-8053150D01*
X1817682Y-8053150D02*
X1798634Y-8062674D01*
X1798634Y-8062674D02*
X1789110Y-8072198D01*
X1998634Y-8186484D02*
X1979587Y-8176960D01*
X1979587Y-8176960D02*
X1970063Y-8167436D01*
X1970063Y-8167436D02*
X1960539Y-8148388D01*
X1960539Y-8148388D02*
X1960539Y-8091246D01*
X1960539Y-8091246D02*
X1970063Y-8072198D01*
X1970063Y-8072198D02*
X1979587Y-8062674D01*
X1979587Y-8062674D02*
X1998634Y-8053150D01*
X1998634Y-8053150D02*
X2027206Y-8053150D01*
X2027206Y-8053150D02*
X2046253Y-8062674D01*
X2046253Y-8062674D02*
X2055777Y-8072198D01*
X2055777Y-8072198D02*
X2065301Y-8091246D01*
X2065301Y-8091246D02*
X2065301Y-8148388D01*
X2065301Y-8148388D02*
X2055777Y-8167436D01*
X2055777Y-8167436D02*
X2046253Y-8176960D01*
X2046253Y-8176960D02*
X2027206Y-8186484D01*
X2027206Y-8186484D02*
X1998634Y-8186484D01*
X2179587Y-8186484D02*
X2160539Y-8176960D01*
X2160539Y-8176960D02*
X2151015Y-8157912D01*
X2151015Y-8157912D02*
X2151015Y-7986484D01*
X2331968Y-8176960D02*
X2312920Y-8186484D01*
X2312920Y-8186484D02*
X2274825Y-8186484D01*
X2274825Y-8186484D02*
X2255777Y-8176960D01*
X2255777Y-8176960D02*
X2246253Y-8157912D01*
X2246253Y-8157912D02*
X2246253Y-8081722D01*
X2246253Y-8081722D02*
X2255777Y-8062674D01*
X2255777Y-8062674D02*
X2274825Y-8053150D01*
X2274825Y-8053150D02*
X2312920Y-8053150D01*
X2312920Y-8053150D02*
X2331968Y-8062674D01*
X2331968Y-8062674D02*
X2341492Y-8081722D01*
X2341492Y-8081722D02*
X2341492Y-8100769D01*
X2341492Y-8100769D02*
X2246253Y-8119817D01*
X2417682Y-8176960D02*
X2436730Y-8186484D01*
X2436730Y-8186484D02*
X2474825Y-8186484D01*
X2474825Y-8186484D02*
X2493873Y-8176960D01*
X2493873Y-8176960D02*
X2503396Y-8157912D01*
X2503396Y-8157912D02*
X2503396Y-8148388D01*
X2503396Y-8148388D02*
X2493873Y-8129341D01*
X2493873Y-8129341D02*
X2474825Y-8119817D01*
X2474825Y-8119817D02*
X2446253Y-8119817D01*
X2446253Y-8119817D02*
X2427206Y-8110293D01*
X2427206Y-8110293D02*
X2417682Y-8091246D01*
X2417682Y-8091246D02*
X2417682Y-8081722D01*
X2417682Y-8081722D02*
X2427206Y-8062674D01*
X2427206Y-8062674D02*
X2446253Y-8053150D01*
X2446253Y-8053150D02*
X2474825Y-8053150D01*
X2474825Y-8053150D02*
X2493873Y-8062674D01*
X2570063Y-8262674D02*
X2579587Y-8253150D01*
X2579587Y-8253150D02*
X2598634Y-8224579D01*
X2598634Y-8224579D02*
X2608158Y-8205531D01*
X2608158Y-8205531D02*
X2617682Y-8176960D01*
X2617682Y-8176960D02*
X2627206Y-8129341D01*
X2627206Y-8129341D02*
X2627206Y-8091246D01*
X2627206Y-8091246D02*
X2617682Y-8043627D01*
X2617682Y-8043627D02*
X2608158Y-8015055D01*
X2608158Y-8015055D02*
X2598634Y-7996008D01*
X2598634Y-7996008D02*
X2579587Y-7967436D01*
X2579587Y-7967436D02*
X2570063Y-7957912D01*
D12*
X-2205000Y-8359000D02*
G75*
G03*
X-2205000Y-8359000I-20000J0D01*
G01*
D10*
X-1906128Y-8250484D02*
X-1887080Y-8250484D01*
X-1887080Y-8250484D02*
X-1868033Y-8260008D01*
X-1868033Y-8260008D02*
X-1858509Y-8269531D01*
X-1858509Y-8269531D02*
X-1848985Y-8288579D01*
X-1848985Y-8288579D02*
X-1839461Y-8326674D01*
X-1839461Y-8326674D02*
X-1839461Y-8374293D01*
X-1839461Y-8374293D02*
X-1848985Y-8412389D01*
X-1848985Y-8412389D02*
X-1858509Y-8431436D01*
X-1858509Y-8431436D02*
X-1868033Y-8440960D01*
X-1868033Y-8440960D02*
X-1887080Y-8450484D01*
X-1887080Y-8450484D02*
X-1906128Y-8450484D01*
X-1906128Y-8450484D02*
X-1925175Y-8440960D01*
X-1925175Y-8440960D02*
X-1934699Y-8431436D01*
X-1934699Y-8431436D02*
X-1944223Y-8412389D01*
X-1944223Y-8412389D02*
X-1953747Y-8374293D01*
X-1953747Y-8374293D02*
X-1953747Y-8326674D01*
X-1953747Y-8326674D02*
X-1944223Y-8288579D01*
X-1944223Y-8288579D02*
X-1934699Y-8269531D01*
X-1934699Y-8269531D02*
X-1925175Y-8260008D01*
X-1925175Y-8260008D02*
X-1906128Y-8250484D01*
X-1753747Y-8431436D02*
X-1744223Y-8440960D01*
X-1744223Y-8440960D02*
X-1753747Y-8450484D01*
X-1753747Y-8450484D02*
X-1763271Y-8440960D01*
X-1763271Y-8440960D02*
X-1753747Y-8431436D01*
X-1753747Y-8431436D02*
X-1753747Y-8450484D01*
X-1572794Y-8317150D02*
X-1572794Y-8450484D01*
X-1620414Y-8240960D02*
X-1668033Y-8383817D01*
X-1668033Y-8383817D02*
X-1544223Y-8383817D01*
X-1429937Y-8250484D02*
X-1410890Y-8250484D01*
X-1410890Y-8250484D02*
X-1391842Y-8260008D01*
X-1391842Y-8260008D02*
X-1382318Y-8269531D01*
X-1382318Y-8269531D02*
X-1372795Y-8288579D01*
X-1372795Y-8288579D02*
X-1363271Y-8326674D01*
X-1363271Y-8326674D02*
X-1363271Y-8374293D01*
X-1363271Y-8374293D02*
X-1372795Y-8412389D01*
X-1372795Y-8412389D02*
X-1382318Y-8431436D01*
X-1382318Y-8431436D02*
X-1391842Y-8440960D01*
X-1391842Y-8440960D02*
X-1410890Y-8450484D01*
X-1410890Y-8450484D02*
X-1429937Y-8450484D01*
X-1429937Y-8450484D02*
X-1448985Y-8440960D01*
X-1448985Y-8440960D02*
X-1458509Y-8431436D01*
X-1458509Y-8431436D02*
X-1468033Y-8412389D01*
X-1468033Y-8412389D02*
X-1477556Y-8374293D01*
X-1477556Y-8374293D02*
X-1477556Y-8326674D01*
X-1477556Y-8326674D02*
X-1468033Y-8288579D01*
X-1468033Y-8288579D02*
X-1458509Y-8269531D01*
X-1458509Y-8269531D02*
X-1448985Y-8260008D01*
X-1448985Y-8260008D02*
X-1429937Y-8250484D01*
X-1239461Y-8250484D02*
X-1220414Y-8250484D01*
X-1220414Y-8250484D02*
X-1201366Y-8260008D01*
X-1201366Y-8260008D02*
X-1191842Y-8269531D01*
X-1191842Y-8269531D02*
X-1182318Y-8288579D01*
X-1182318Y-8288579D02*
X-1172795Y-8326674D01*
X-1172795Y-8326674D02*
X-1172795Y-8374293D01*
X-1172795Y-8374293D02*
X-1182318Y-8412389D01*
X-1182318Y-8412389D02*
X-1191842Y-8431436D01*
X-1191842Y-8431436D02*
X-1201366Y-8440960D01*
X-1201366Y-8440960D02*
X-1220414Y-8450484D01*
X-1220414Y-8450484D02*
X-1239461Y-8450484D01*
X-1239461Y-8450484D02*
X-1258509Y-8440960D01*
X-1258509Y-8440960D02*
X-1268033Y-8431436D01*
X-1268033Y-8431436D02*
X-1277556Y-8412389D01*
X-1277556Y-8412389D02*
X-1287080Y-8374293D01*
X-1287080Y-8374293D02*
X-1287080Y-8326674D01*
X-1287080Y-8326674D02*
X-1277556Y-8288579D01*
X-1277556Y-8288579D02*
X-1268033Y-8269531D01*
X-1268033Y-8269531D02*
X-1258509Y-8260008D01*
X-1258509Y-8260008D02*
X-1239461Y-8250484D01*
X-1087080Y-8450484D02*
X-1087080Y-8317150D01*
X-1087080Y-8336198D02*
X-1077556Y-8326674D01*
X-1077556Y-8326674D02*
X-1058509Y-8317150D01*
X-1058509Y-8317150D02*
X-1029937Y-8317150D01*
X-1029937Y-8317150D02*
X-1010890Y-8326674D01*
X-1010890Y-8326674D02*
X-1001366Y-8345722D01*
X-1001366Y-8345722D02*
X-1001366Y-8450484D01*
X-1001366Y-8345722D02*
X-991842Y-8326674D01*
X-991842Y-8326674D02*
X-972794Y-8317150D01*
X-972794Y-8317150D02*
X-944223Y-8317150D01*
X-944223Y-8317150D02*
X-925175Y-8326674D01*
X-925175Y-8326674D02*
X-915652Y-8345722D01*
X-915652Y-8345722D02*
X-915652Y-8450484D01*
X-820413Y-8450484D02*
X-820413Y-8317150D01*
X-820413Y-8336198D02*
X-810890Y-8326674D01*
X-810890Y-8326674D02*
X-791842Y-8317150D01*
X-791842Y-8317150D02*
X-763271Y-8317150D01*
X-763271Y-8317150D02*
X-744223Y-8326674D01*
X-744223Y-8326674D02*
X-734699Y-8345722D01*
X-734699Y-8345722D02*
X-734699Y-8450484D01*
X-734699Y-8345722D02*
X-725175Y-8326674D01*
X-725175Y-8326674D02*
X-706128Y-8317150D01*
X-706128Y-8317150D02*
X-677556Y-8317150D01*
X-677556Y-8317150D02*
X-658509Y-8326674D01*
X-658509Y-8326674D02*
X-648985Y-8345722D01*
X-648985Y-8345722D02*
X-648985Y-8450484D01*
X-258509Y-8240960D02*
X-429937Y-8498103D01*
X-1366Y-8250484D02*
X17682Y-8250484D01*
X17682Y-8250484D02*
X36729Y-8260008D01*
X36729Y-8260008D02*
X46253Y-8269531D01*
X46253Y-8269531D02*
X55777Y-8288579D01*
X55777Y-8288579D02*
X65301Y-8326674D01*
X65301Y-8326674D02*
X65301Y-8374293D01*
X65301Y-8374293D02*
X55777Y-8412389D01*
X55777Y-8412389D02*
X46253Y-8431436D01*
X46253Y-8431436D02*
X36729Y-8440960D01*
X36729Y-8440960D02*
X17682Y-8450484D01*
X17682Y-8450484D02*
X-1366Y-8450484D01*
X-1366Y-8450484D02*
X-20413Y-8440960D01*
X-20413Y-8440960D02*
X-29937Y-8431436D01*
X-29937Y-8431436D02*
X-39461Y-8412389D01*
X-39461Y-8412389D02*
X-48985Y-8374293D01*
X-48985Y-8374293D02*
X-48985Y-8326674D01*
X-48985Y-8326674D02*
X-39461Y-8288579D01*
X-39461Y-8288579D02*
X-29937Y-8269531D01*
X-29937Y-8269531D02*
X-20413Y-8260008D01*
X-20413Y-8260008D02*
X-1366Y-8250484D01*
X151015Y-8431436D02*
X160539Y-8440960D01*
X160539Y-8440960D02*
X151015Y-8450484D01*
X151015Y-8450484D02*
X141491Y-8440960D01*
X141491Y-8440960D02*
X151015Y-8431436D01*
X151015Y-8431436D02*
X151015Y-8450484D01*
X284348Y-8250484D02*
X303396Y-8250484D01*
X303396Y-8250484D02*
X322444Y-8260008D01*
X322444Y-8260008D02*
X331968Y-8269531D01*
X331968Y-8269531D02*
X341491Y-8288579D01*
X341491Y-8288579D02*
X351015Y-8326674D01*
X351015Y-8326674D02*
X351015Y-8374293D01*
X351015Y-8374293D02*
X341491Y-8412389D01*
X341491Y-8412389D02*
X331968Y-8431436D01*
X331968Y-8431436D02*
X322444Y-8440960D01*
X322444Y-8440960D02*
X303396Y-8450484D01*
X303396Y-8450484D02*
X284348Y-8450484D01*
X284348Y-8450484D02*
X265301Y-8440960D01*
X265301Y-8440960D02*
X255777Y-8431436D01*
X255777Y-8431436D02*
X246253Y-8412389D01*
X246253Y-8412389D02*
X236729Y-8374293D01*
X236729Y-8374293D02*
X236729Y-8326674D01*
X236729Y-8326674D02*
X246253Y-8288579D01*
X246253Y-8288579D02*
X255777Y-8269531D01*
X255777Y-8269531D02*
X265301Y-8260008D01*
X265301Y-8260008D02*
X284348Y-8250484D01*
X541491Y-8450484D02*
X427206Y-8450484D01*
X484348Y-8450484D02*
X484348Y-8250484D01*
X484348Y-8250484D02*
X465301Y-8279055D01*
X465301Y-8279055D02*
X446253Y-8298103D01*
X446253Y-8298103D02*
X427206Y-8307627D01*
X722444Y-8250484D02*
X627206Y-8250484D01*
X627206Y-8250484D02*
X617682Y-8345722D01*
X617682Y-8345722D02*
X627206Y-8336198D01*
X627206Y-8336198D02*
X646253Y-8326674D01*
X646253Y-8326674D02*
X693872Y-8326674D01*
X693872Y-8326674D02*
X712920Y-8336198D01*
X712920Y-8336198D02*
X722444Y-8345722D01*
X722444Y-8345722D02*
X731967Y-8364769D01*
X731967Y-8364769D02*
X731967Y-8412389D01*
X731967Y-8412389D02*
X722444Y-8431436D01*
X722444Y-8431436D02*
X712920Y-8440960D01*
X712920Y-8440960D02*
X693872Y-8450484D01*
X693872Y-8450484D02*
X646253Y-8450484D01*
X646253Y-8450484D02*
X627206Y-8440960D01*
X627206Y-8440960D02*
X617682Y-8431436D01*
X798634Y-8250484D02*
X931967Y-8250484D01*
X931967Y-8250484D02*
X846253Y-8450484D01*
X998634Y-8250484D02*
X998634Y-8288579D01*
X1074825Y-8250484D02*
X1074825Y-8288579D01*
X1370063Y-8526674D02*
X1360539Y-8517150D01*
X1360539Y-8517150D02*
X1341491Y-8488579D01*
X1341491Y-8488579D02*
X1331968Y-8469531D01*
X1331968Y-8469531D02*
X1322444Y-8440960D01*
X1322444Y-8440960D02*
X1312920Y-8393341D01*
X1312920Y-8393341D02*
X1312920Y-8355246D01*
X1312920Y-8355246D02*
X1322444Y-8307627D01*
X1322444Y-8307627D02*
X1331968Y-8279055D01*
X1331968Y-8279055D02*
X1341491Y-8260008D01*
X1341491Y-8260008D02*
X1360539Y-8231436D01*
X1360539Y-8231436D02*
X1370063Y-8221912D01*
X1455777Y-8450484D02*
X1493872Y-8450484D01*
X1493872Y-8450484D02*
X1512920Y-8440960D01*
X1512920Y-8440960D02*
X1522444Y-8431436D01*
X1522444Y-8431436D02*
X1541491Y-8402865D01*
X1541491Y-8402865D02*
X1551015Y-8364769D01*
X1551015Y-8364769D02*
X1551015Y-8288579D01*
X1551015Y-8288579D02*
X1541491Y-8269531D01*
X1541491Y-8269531D02*
X1531968Y-8260008D01*
X1531968Y-8260008D02*
X1512920Y-8250484D01*
X1512920Y-8250484D02*
X1474825Y-8250484D01*
X1474825Y-8250484D02*
X1455777Y-8260008D01*
X1455777Y-8260008D02*
X1446253Y-8269531D01*
X1446253Y-8269531D02*
X1436729Y-8288579D01*
X1436729Y-8288579D02*
X1436729Y-8336198D01*
X1436729Y-8336198D02*
X1446253Y-8355246D01*
X1446253Y-8355246D02*
X1455777Y-8364769D01*
X1455777Y-8364769D02*
X1474825Y-8374293D01*
X1474825Y-8374293D02*
X1512920Y-8374293D01*
X1512920Y-8374293D02*
X1531968Y-8364769D01*
X1531968Y-8364769D02*
X1541491Y-8355246D01*
X1541491Y-8355246D02*
X1551015Y-8336198D01*
X1789110Y-8450484D02*
X1789110Y-8250484D01*
X1874825Y-8450484D02*
X1874825Y-8345722D01*
X1874825Y-8345722D02*
X1865301Y-8326674D01*
X1865301Y-8326674D02*
X1846253Y-8317150D01*
X1846253Y-8317150D02*
X1817682Y-8317150D01*
X1817682Y-8317150D02*
X1798634Y-8326674D01*
X1798634Y-8326674D02*
X1789110Y-8336198D01*
X1998634Y-8450484D02*
X1979587Y-8440960D01*
X1979587Y-8440960D02*
X1970063Y-8431436D01*
X1970063Y-8431436D02*
X1960539Y-8412389D01*
X1960539Y-8412389D02*
X1960539Y-8355246D01*
X1960539Y-8355246D02*
X1970063Y-8336198D01*
X1970063Y-8336198D02*
X1979587Y-8326674D01*
X1979587Y-8326674D02*
X1998634Y-8317150D01*
X1998634Y-8317150D02*
X2027206Y-8317150D01*
X2027206Y-8317150D02*
X2046253Y-8326674D01*
X2046253Y-8326674D02*
X2055777Y-8336198D01*
X2055777Y-8336198D02*
X2065301Y-8355246D01*
X2065301Y-8355246D02*
X2065301Y-8412389D01*
X2065301Y-8412389D02*
X2055777Y-8431436D01*
X2055777Y-8431436D02*
X2046253Y-8440960D01*
X2046253Y-8440960D02*
X2027206Y-8450484D01*
X2027206Y-8450484D02*
X1998634Y-8450484D01*
X2179587Y-8450484D02*
X2160539Y-8440960D01*
X2160539Y-8440960D02*
X2151015Y-8421912D01*
X2151015Y-8421912D02*
X2151015Y-8250484D01*
X2331968Y-8440960D02*
X2312920Y-8450484D01*
X2312920Y-8450484D02*
X2274825Y-8450484D01*
X2274825Y-8450484D02*
X2255777Y-8440960D01*
X2255777Y-8440960D02*
X2246253Y-8421912D01*
X2246253Y-8421912D02*
X2246253Y-8345722D01*
X2246253Y-8345722D02*
X2255777Y-8326674D01*
X2255777Y-8326674D02*
X2274825Y-8317150D01*
X2274825Y-8317150D02*
X2312920Y-8317150D01*
X2312920Y-8317150D02*
X2331968Y-8326674D01*
X2331968Y-8326674D02*
X2341492Y-8345722D01*
X2341492Y-8345722D02*
X2341492Y-8364769D01*
X2341492Y-8364769D02*
X2246253Y-8383817D01*
X2417682Y-8440960D02*
X2436730Y-8450484D01*
X2436730Y-8450484D02*
X2474825Y-8450484D01*
X2474825Y-8450484D02*
X2493873Y-8440960D01*
X2493873Y-8440960D02*
X2503396Y-8421912D01*
X2503396Y-8421912D02*
X2503396Y-8412389D01*
X2503396Y-8412389D02*
X2493873Y-8393341D01*
X2493873Y-8393341D02*
X2474825Y-8383817D01*
X2474825Y-8383817D02*
X2446253Y-8383817D01*
X2446253Y-8383817D02*
X2427206Y-8374293D01*
X2427206Y-8374293D02*
X2417682Y-8355246D01*
X2417682Y-8355246D02*
X2417682Y-8345722D01*
X2417682Y-8345722D02*
X2427206Y-8326674D01*
X2427206Y-8326674D02*
X2446253Y-8317150D01*
X2446253Y-8317150D02*
X2474825Y-8317150D01*
X2474825Y-8317150D02*
X2493873Y-8326674D01*
X2570063Y-8526674D02*
X2579587Y-8517150D01*
X2579587Y-8517150D02*
X2598634Y-8488579D01*
X2598634Y-8488579D02*
X2608158Y-8469531D01*
X2608158Y-8469531D02*
X2617682Y-8440960D01*
X2617682Y-8440960D02*
X2627206Y-8393341D01*
X2627206Y-8393341D02*
X2627206Y-8355246D01*
X2627206Y-8355246D02*
X2617682Y-8307627D01*
X2617682Y-8307627D02*
X2608158Y-8279055D01*
X2608158Y-8279055D02*
X2598634Y-8260008D01*
X2598634Y-8260008D02*
X2579587Y-8231436D01*
X2579587Y-8231436D02*
X2570063Y-8221912D01*
D13*
X-2250000Y-8578000D02*
X-2250000Y-8668000D01*
X-2295000Y-8623000D02*
X-2205000Y-8623000D01*
D10*
X-1906128Y-8514484D02*
X-1887080Y-8514484D01*
X-1887080Y-8514484D02*
X-1868033Y-8524008D01*
X-1868033Y-8524008D02*
X-1858509Y-8533531D01*
X-1858509Y-8533531D02*
X-1848985Y-8552579D01*
X-1848985Y-8552579D02*
X-1839461Y-8590674D01*
X-1839461Y-8590674D02*
X-1839461Y-8638293D01*
X-1839461Y-8638293D02*
X-1848985Y-8676389D01*
X-1848985Y-8676389D02*
X-1858509Y-8695436D01*
X-1858509Y-8695436D02*
X-1868033Y-8704960D01*
X-1868033Y-8704960D02*
X-1887080Y-8714484D01*
X-1887080Y-8714484D02*
X-1906128Y-8714484D01*
X-1906128Y-8714484D02*
X-1925175Y-8704960D01*
X-1925175Y-8704960D02*
X-1934699Y-8695436D01*
X-1934699Y-8695436D02*
X-1944223Y-8676389D01*
X-1944223Y-8676389D02*
X-1953747Y-8638293D01*
X-1953747Y-8638293D02*
X-1953747Y-8590674D01*
X-1953747Y-8590674D02*
X-1944223Y-8552579D01*
X-1944223Y-8552579D02*
X-1934699Y-8533531D01*
X-1934699Y-8533531D02*
X-1925175Y-8524008D01*
X-1925175Y-8524008D02*
X-1906128Y-8514484D01*
X-1753747Y-8695436D02*
X-1744223Y-8704960D01*
X-1744223Y-8704960D02*
X-1753747Y-8714484D01*
X-1753747Y-8714484D02*
X-1763271Y-8704960D01*
X-1763271Y-8704960D02*
X-1753747Y-8695436D01*
X-1753747Y-8695436D02*
X-1753747Y-8714484D01*
X-1648985Y-8714484D02*
X-1610890Y-8714484D01*
X-1610890Y-8714484D02*
X-1591842Y-8704960D01*
X-1591842Y-8704960D02*
X-1582318Y-8695436D01*
X-1582318Y-8695436D02*
X-1563271Y-8666865D01*
X-1563271Y-8666865D02*
X-1553747Y-8628770D01*
X-1553747Y-8628770D02*
X-1553747Y-8552579D01*
X-1553747Y-8552579D02*
X-1563271Y-8533531D01*
X-1563271Y-8533531D02*
X-1572794Y-8524008D01*
X-1572794Y-8524008D02*
X-1591842Y-8514484D01*
X-1591842Y-8514484D02*
X-1629937Y-8514484D01*
X-1629937Y-8514484D02*
X-1648985Y-8524008D01*
X-1648985Y-8524008D02*
X-1658509Y-8533531D01*
X-1658509Y-8533531D02*
X-1668033Y-8552579D01*
X-1668033Y-8552579D02*
X-1668033Y-8600198D01*
X-1668033Y-8600198D02*
X-1658509Y-8619246D01*
X-1658509Y-8619246D02*
X-1648985Y-8628770D01*
X-1648985Y-8628770D02*
X-1629937Y-8638293D01*
X-1629937Y-8638293D02*
X-1591842Y-8638293D01*
X-1591842Y-8638293D02*
X-1572794Y-8628770D01*
X-1572794Y-8628770D02*
X-1563271Y-8619246D01*
X-1563271Y-8619246D02*
X-1553747Y-8600198D01*
X-1429937Y-8514484D02*
X-1410890Y-8514484D01*
X-1410890Y-8514484D02*
X-1391842Y-8524008D01*
X-1391842Y-8524008D02*
X-1382318Y-8533531D01*
X-1382318Y-8533531D02*
X-1372795Y-8552579D01*
X-1372795Y-8552579D02*
X-1363271Y-8590674D01*
X-1363271Y-8590674D02*
X-1363271Y-8638293D01*
X-1363271Y-8638293D02*
X-1372795Y-8676389D01*
X-1372795Y-8676389D02*
X-1382318Y-8695436D01*
X-1382318Y-8695436D02*
X-1391842Y-8704960D01*
X-1391842Y-8704960D02*
X-1410890Y-8714484D01*
X-1410890Y-8714484D02*
X-1429937Y-8714484D01*
X-1429937Y-8714484D02*
X-1448985Y-8704960D01*
X-1448985Y-8704960D02*
X-1458509Y-8695436D01*
X-1458509Y-8695436D02*
X-1468033Y-8676389D01*
X-1468033Y-8676389D02*
X-1477556Y-8638293D01*
X-1477556Y-8638293D02*
X-1477556Y-8590674D01*
X-1477556Y-8590674D02*
X-1468033Y-8552579D01*
X-1468033Y-8552579D02*
X-1458509Y-8533531D01*
X-1458509Y-8533531D02*
X-1448985Y-8524008D01*
X-1448985Y-8524008D02*
X-1429937Y-8514484D01*
X-1239461Y-8514484D02*
X-1220414Y-8514484D01*
X-1220414Y-8514484D02*
X-1201366Y-8524008D01*
X-1201366Y-8524008D02*
X-1191842Y-8533531D01*
X-1191842Y-8533531D02*
X-1182318Y-8552579D01*
X-1182318Y-8552579D02*
X-1172795Y-8590674D01*
X-1172795Y-8590674D02*
X-1172795Y-8638293D01*
X-1172795Y-8638293D02*
X-1182318Y-8676389D01*
X-1182318Y-8676389D02*
X-1191842Y-8695436D01*
X-1191842Y-8695436D02*
X-1201366Y-8704960D01*
X-1201366Y-8704960D02*
X-1220414Y-8714484D01*
X-1220414Y-8714484D02*
X-1239461Y-8714484D01*
X-1239461Y-8714484D02*
X-1258509Y-8704960D01*
X-1258509Y-8704960D02*
X-1268033Y-8695436D01*
X-1268033Y-8695436D02*
X-1277556Y-8676389D01*
X-1277556Y-8676389D02*
X-1287080Y-8638293D01*
X-1287080Y-8638293D02*
X-1287080Y-8590674D01*
X-1287080Y-8590674D02*
X-1277556Y-8552579D01*
X-1277556Y-8552579D02*
X-1268033Y-8533531D01*
X-1268033Y-8533531D02*
X-1258509Y-8524008D01*
X-1258509Y-8524008D02*
X-1239461Y-8514484D01*
X-1087080Y-8714484D02*
X-1087080Y-8581150D01*
X-1087080Y-8600198D02*
X-1077556Y-8590674D01*
X-1077556Y-8590674D02*
X-1058509Y-8581150D01*
X-1058509Y-8581150D02*
X-1029937Y-8581150D01*
X-1029937Y-8581150D02*
X-1010890Y-8590674D01*
X-1010890Y-8590674D02*
X-1001366Y-8609722D01*
X-1001366Y-8609722D02*
X-1001366Y-8714484D01*
X-1001366Y-8609722D02*
X-991842Y-8590674D01*
X-991842Y-8590674D02*
X-972794Y-8581150D01*
X-972794Y-8581150D02*
X-944223Y-8581150D01*
X-944223Y-8581150D02*
X-925175Y-8590674D01*
X-925175Y-8590674D02*
X-915652Y-8609722D01*
X-915652Y-8609722D02*
X-915652Y-8714484D01*
X-820413Y-8714484D02*
X-820413Y-8581150D01*
X-820413Y-8600198D02*
X-810890Y-8590674D01*
X-810890Y-8590674D02*
X-791842Y-8581150D01*
X-791842Y-8581150D02*
X-763271Y-8581150D01*
X-763271Y-8581150D02*
X-744223Y-8590674D01*
X-744223Y-8590674D02*
X-734699Y-8609722D01*
X-734699Y-8609722D02*
X-734699Y-8714484D01*
X-734699Y-8609722D02*
X-725175Y-8590674D01*
X-725175Y-8590674D02*
X-706128Y-8581150D01*
X-706128Y-8581150D02*
X-677556Y-8581150D01*
X-677556Y-8581150D02*
X-658509Y-8590674D01*
X-658509Y-8590674D02*
X-648985Y-8609722D01*
X-648985Y-8609722D02*
X-648985Y-8714484D01*
X-258509Y-8504960D02*
X-429937Y-8762103D01*
X-1366Y-8514484D02*
X17682Y-8514484D01*
X17682Y-8514484D02*
X36729Y-8524008D01*
X36729Y-8524008D02*
X46253Y-8533531D01*
X46253Y-8533531D02*
X55777Y-8552579D01*
X55777Y-8552579D02*
X65301Y-8590674D01*
X65301Y-8590674D02*
X65301Y-8638293D01*
X65301Y-8638293D02*
X55777Y-8676389D01*
X55777Y-8676389D02*
X46253Y-8695436D01*
X46253Y-8695436D02*
X36729Y-8704960D01*
X36729Y-8704960D02*
X17682Y-8714484D01*
X17682Y-8714484D02*
X-1366Y-8714484D01*
X-1366Y-8714484D02*
X-20413Y-8704960D01*
X-20413Y-8704960D02*
X-29937Y-8695436D01*
X-29937Y-8695436D02*
X-39461Y-8676389D01*
X-39461Y-8676389D02*
X-48985Y-8638293D01*
X-48985Y-8638293D02*
X-48985Y-8590674D01*
X-48985Y-8590674D02*
X-39461Y-8552579D01*
X-39461Y-8552579D02*
X-29937Y-8533531D01*
X-29937Y-8533531D02*
X-20413Y-8524008D01*
X-20413Y-8524008D02*
X-1366Y-8514484D01*
X151015Y-8695436D02*
X160539Y-8704960D01*
X160539Y-8704960D02*
X151015Y-8714484D01*
X151015Y-8714484D02*
X141491Y-8704960D01*
X141491Y-8704960D02*
X151015Y-8695436D01*
X151015Y-8695436D02*
X151015Y-8714484D01*
X284348Y-8514484D02*
X303396Y-8514484D01*
X303396Y-8514484D02*
X322444Y-8524008D01*
X322444Y-8524008D02*
X331968Y-8533531D01*
X331968Y-8533531D02*
X341491Y-8552579D01*
X341491Y-8552579D02*
X351015Y-8590674D01*
X351015Y-8590674D02*
X351015Y-8638293D01*
X351015Y-8638293D02*
X341491Y-8676389D01*
X341491Y-8676389D02*
X331968Y-8695436D01*
X331968Y-8695436D02*
X322444Y-8704960D01*
X322444Y-8704960D02*
X303396Y-8714484D01*
X303396Y-8714484D02*
X284348Y-8714484D01*
X284348Y-8714484D02*
X265301Y-8704960D01*
X265301Y-8704960D02*
X255777Y-8695436D01*
X255777Y-8695436D02*
X246253Y-8676389D01*
X246253Y-8676389D02*
X236729Y-8638293D01*
X236729Y-8638293D02*
X236729Y-8590674D01*
X236729Y-8590674D02*
X246253Y-8552579D01*
X246253Y-8552579D02*
X255777Y-8533531D01*
X255777Y-8533531D02*
X265301Y-8524008D01*
X265301Y-8524008D02*
X284348Y-8514484D01*
X417682Y-8514484D02*
X541491Y-8514484D01*
X541491Y-8514484D02*
X474825Y-8590674D01*
X474825Y-8590674D02*
X503396Y-8590674D01*
X503396Y-8590674D02*
X522444Y-8600198D01*
X522444Y-8600198D02*
X531968Y-8609722D01*
X531968Y-8609722D02*
X541491Y-8628770D01*
X541491Y-8628770D02*
X541491Y-8676389D01*
X541491Y-8676389D02*
X531968Y-8695436D01*
X531968Y-8695436D02*
X522444Y-8704960D01*
X522444Y-8704960D02*
X503396Y-8714484D01*
X503396Y-8714484D02*
X446253Y-8714484D01*
X446253Y-8714484D02*
X427206Y-8704960D01*
X427206Y-8704960D02*
X417682Y-8695436D01*
X722444Y-8514484D02*
X627206Y-8514484D01*
X627206Y-8514484D02*
X617682Y-8609722D01*
X617682Y-8609722D02*
X627206Y-8600198D01*
X627206Y-8600198D02*
X646253Y-8590674D01*
X646253Y-8590674D02*
X693872Y-8590674D01*
X693872Y-8590674D02*
X712920Y-8600198D01*
X712920Y-8600198D02*
X722444Y-8609722D01*
X722444Y-8609722D02*
X731967Y-8628770D01*
X731967Y-8628770D02*
X731967Y-8676389D01*
X731967Y-8676389D02*
X722444Y-8695436D01*
X722444Y-8695436D02*
X712920Y-8704960D01*
X712920Y-8704960D02*
X693872Y-8714484D01*
X693872Y-8714484D02*
X646253Y-8714484D01*
X646253Y-8714484D02*
X627206Y-8704960D01*
X627206Y-8704960D02*
X617682Y-8695436D01*
X903396Y-8581150D02*
X903396Y-8714484D01*
X855777Y-8504960D02*
X808158Y-8647817D01*
X808158Y-8647817D02*
X931967Y-8647817D01*
X998634Y-8514484D02*
X998634Y-8552579D01*
X1074825Y-8514484D02*
X1074825Y-8552579D01*
X1370063Y-8790674D02*
X1360539Y-8781150D01*
X1360539Y-8781150D02*
X1341491Y-8752579D01*
X1341491Y-8752579D02*
X1331968Y-8733531D01*
X1331968Y-8733531D02*
X1322444Y-8704960D01*
X1322444Y-8704960D02*
X1312920Y-8657341D01*
X1312920Y-8657341D02*
X1312920Y-8619246D01*
X1312920Y-8619246D02*
X1322444Y-8571627D01*
X1322444Y-8571627D02*
X1331968Y-8543055D01*
X1331968Y-8543055D02*
X1341491Y-8524008D01*
X1341491Y-8524008D02*
X1360539Y-8495436D01*
X1360539Y-8495436D02*
X1370063Y-8485912D01*
X1551015Y-8714484D02*
X1436729Y-8714484D01*
X1493872Y-8714484D02*
X1493872Y-8514484D01*
X1493872Y-8514484D02*
X1474825Y-8543055D01*
X1474825Y-8543055D02*
X1455777Y-8562103D01*
X1455777Y-8562103D02*
X1436729Y-8571627D01*
X1665301Y-8600198D02*
X1646253Y-8590674D01*
X1646253Y-8590674D02*
X1636729Y-8581150D01*
X1636729Y-8581150D02*
X1627206Y-8562103D01*
X1627206Y-8562103D02*
X1627206Y-8552579D01*
X1627206Y-8552579D02*
X1636729Y-8533531D01*
X1636729Y-8533531D02*
X1646253Y-8524008D01*
X1646253Y-8524008D02*
X1665301Y-8514484D01*
X1665301Y-8514484D02*
X1703396Y-8514484D01*
X1703396Y-8514484D02*
X1722444Y-8524008D01*
X1722444Y-8524008D02*
X1731968Y-8533531D01*
X1731968Y-8533531D02*
X1741491Y-8552579D01*
X1741491Y-8552579D02*
X1741491Y-8562103D01*
X1741491Y-8562103D02*
X1731968Y-8581150D01*
X1731968Y-8581150D02*
X1722444Y-8590674D01*
X1722444Y-8590674D02*
X1703396Y-8600198D01*
X1703396Y-8600198D02*
X1665301Y-8600198D01*
X1665301Y-8600198D02*
X1646253Y-8609722D01*
X1646253Y-8609722D02*
X1636729Y-8619246D01*
X1636729Y-8619246D02*
X1627206Y-8638293D01*
X1627206Y-8638293D02*
X1627206Y-8676389D01*
X1627206Y-8676389D02*
X1636729Y-8695436D01*
X1636729Y-8695436D02*
X1646253Y-8704960D01*
X1646253Y-8704960D02*
X1665301Y-8714484D01*
X1665301Y-8714484D02*
X1703396Y-8714484D01*
X1703396Y-8714484D02*
X1722444Y-8704960D01*
X1722444Y-8704960D02*
X1731968Y-8695436D01*
X1731968Y-8695436D02*
X1741491Y-8676389D01*
X1741491Y-8676389D02*
X1741491Y-8638293D01*
X1741491Y-8638293D02*
X1731968Y-8619246D01*
X1731968Y-8619246D02*
X1722444Y-8609722D01*
X1722444Y-8609722D02*
X1703396Y-8600198D01*
X1865301Y-8514484D02*
X1884349Y-8514484D01*
X1884349Y-8514484D02*
X1903396Y-8524008D01*
X1903396Y-8524008D02*
X1912920Y-8533531D01*
X1912920Y-8533531D02*
X1922444Y-8552579D01*
X1922444Y-8552579D02*
X1931968Y-8590674D01*
X1931968Y-8590674D02*
X1931968Y-8638293D01*
X1931968Y-8638293D02*
X1922444Y-8676389D01*
X1922444Y-8676389D02*
X1912920Y-8695436D01*
X1912920Y-8695436D02*
X1903396Y-8704960D01*
X1903396Y-8704960D02*
X1884349Y-8714484D01*
X1884349Y-8714484D02*
X1865301Y-8714484D01*
X1865301Y-8714484D02*
X1846253Y-8704960D01*
X1846253Y-8704960D02*
X1836729Y-8695436D01*
X1836729Y-8695436D02*
X1827206Y-8676389D01*
X1827206Y-8676389D02*
X1817682Y-8638293D01*
X1817682Y-8638293D02*
X1817682Y-8590674D01*
X1817682Y-8590674D02*
X1827206Y-8552579D01*
X1827206Y-8552579D02*
X1836729Y-8533531D01*
X1836729Y-8533531D02*
X1846253Y-8524008D01*
X1846253Y-8524008D02*
X1865301Y-8514484D01*
X2170063Y-8714484D02*
X2170063Y-8514484D01*
X2255777Y-8714484D02*
X2255777Y-8609722D01*
X2255777Y-8609722D02*
X2246253Y-8590674D01*
X2246253Y-8590674D02*
X2227206Y-8581150D01*
X2227206Y-8581150D02*
X2198634Y-8581150D01*
X2198634Y-8581150D02*
X2179587Y-8590674D01*
X2179587Y-8590674D02*
X2170063Y-8600198D01*
X2379587Y-8714484D02*
X2360539Y-8704960D01*
X2360539Y-8704960D02*
X2351015Y-8695436D01*
X2351015Y-8695436D02*
X2341492Y-8676389D01*
X2341492Y-8676389D02*
X2341492Y-8619246D01*
X2341492Y-8619246D02*
X2351015Y-8600198D01*
X2351015Y-8600198D02*
X2360539Y-8590674D01*
X2360539Y-8590674D02*
X2379587Y-8581150D01*
X2379587Y-8581150D02*
X2408158Y-8581150D01*
X2408158Y-8581150D02*
X2427206Y-8590674D01*
X2427206Y-8590674D02*
X2436730Y-8600198D01*
X2436730Y-8600198D02*
X2446253Y-8619246D01*
X2446253Y-8619246D02*
X2446253Y-8676389D01*
X2446253Y-8676389D02*
X2436730Y-8695436D01*
X2436730Y-8695436D02*
X2427206Y-8704960D01*
X2427206Y-8704960D02*
X2408158Y-8714484D01*
X2408158Y-8714484D02*
X2379587Y-8714484D01*
X2560539Y-8714484D02*
X2541492Y-8704960D01*
X2541492Y-8704960D02*
X2531968Y-8685912D01*
X2531968Y-8685912D02*
X2531968Y-8514484D01*
X2712920Y-8704960D02*
X2693873Y-8714484D01*
X2693873Y-8714484D02*
X2655777Y-8714484D01*
X2655777Y-8714484D02*
X2636730Y-8704960D01*
X2636730Y-8704960D02*
X2627206Y-8685912D01*
X2627206Y-8685912D02*
X2627206Y-8609722D01*
X2627206Y-8609722D02*
X2636730Y-8590674D01*
X2636730Y-8590674D02*
X2655777Y-8581150D01*
X2655777Y-8581150D02*
X2693873Y-8581150D01*
X2693873Y-8581150D02*
X2712920Y-8590674D01*
X2712920Y-8590674D02*
X2722444Y-8609722D01*
X2722444Y-8609722D02*
X2722444Y-8628770D01*
X2722444Y-8628770D02*
X2627206Y-8647817D01*
X2798634Y-8704960D02*
X2817682Y-8714484D01*
X2817682Y-8714484D02*
X2855777Y-8714484D01*
X2855777Y-8714484D02*
X2874825Y-8704960D01*
X2874825Y-8704960D02*
X2884349Y-8685912D01*
X2884349Y-8685912D02*
X2884349Y-8676389D01*
X2884349Y-8676389D02*
X2874825Y-8657341D01*
X2874825Y-8657341D02*
X2855777Y-8647817D01*
X2855777Y-8647817D02*
X2827206Y-8647817D01*
X2827206Y-8647817D02*
X2808158Y-8638293D01*
X2808158Y-8638293D02*
X2798634Y-8619246D01*
X2798634Y-8619246D02*
X2798634Y-8609722D01*
X2798634Y-8609722D02*
X2808158Y-8590674D01*
X2808158Y-8590674D02*
X2827206Y-8581150D01*
X2827206Y-8581150D02*
X2855777Y-8581150D01*
X2855777Y-8581150D02*
X2874825Y-8590674D01*
X2951015Y-8790674D02*
X2960539Y-8781150D01*
X2960539Y-8781150D02*
X2979587Y-8752579D01*
X2979587Y-8752579D02*
X2989111Y-8733531D01*
X2989111Y-8733531D02*
X2998634Y-8704960D01*
X2998634Y-8704960D02*
X3008158Y-8657341D01*
X3008158Y-8657341D02*
X3008158Y-8619246D01*
X3008158Y-8619246D02*
X2998634Y-8571627D01*
X2998634Y-8571627D02*
X2989111Y-8543055D01*
X2989111Y-8543055D02*
X2979587Y-8524008D01*
X2979587Y-8524008D02*
X2960539Y-8495436D01*
X2960539Y-8495436D02*
X2951015Y-8485912D01*
D14*
X-2219644Y-8922356D02*
X-2219644Y-8851644D01*
X-2290356Y-8851644D01*
X-2290356Y-8922356D01*
X-2219644Y-8922356D01*
D10*
X-1839461Y-8978484D02*
X-1953747Y-8978484D01*
X-1896604Y-8978484D02*
X-1896604Y-8778484D01*
X-1896604Y-8778484D02*
X-1915652Y-8807055D01*
X-1915652Y-8807055D02*
X-1934699Y-8826103D01*
X-1934699Y-8826103D02*
X-1953747Y-8835627D01*
X-1753747Y-8959436D02*
X-1744223Y-8968960D01*
X-1744223Y-8968960D02*
X-1753747Y-8978484D01*
X-1753747Y-8978484D02*
X-1763271Y-8968960D01*
X-1763271Y-8968960D02*
X-1753747Y-8959436D01*
X-1753747Y-8959436D02*
X-1753747Y-8978484D01*
X-1620414Y-8778484D02*
X-1601366Y-8778484D01*
X-1601366Y-8778484D02*
X-1582318Y-8788008D01*
X-1582318Y-8788008D02*
X-1572794Y-8797531D01*
X-1572794Y-8797531D02*
X-1563271Y-8816579D01*
X-1563271Y-8816579D02*
X-1553747Y-8854674D01*
X-1553747Y-8854674D02*
X-1553747Y-8902293D01*
X-1553747Y-8902293D02*
X-1563271Y-8940389D01*
X-1563271Y-8940389D02*
X-1572794Y-8959436D01*
X-1572794Y-8959436D02*
X-1582318Y-8968960D01*
X-1582318Y-8968960D02*
X-1601366Y-8978484D01*
X-1601366Y-8978484D02*
X-1620414Y-8978484D01*
X-1620414Y-8978484D02*
X-1639461Y-8968960D01*
X-1639461Y-8968960D02*
X-1648985Y-8959436D01*
X-1648985Y-8959436D02*
X-1658509Y-8940389D01*
X-1658509Y-8940389D02*
X-1668033Y-8902293D01*
X-1668033Y-8902293D02*
X-1668033Y-8854674D01*
X-1668033Y-8854674D02*
X-1658509Y-8816579D01*
X-1658509Y-8816579D02*
X-1648985Y-8797531D01*
X-1648985Y-8797531D02*
X-1639461Y-8788008D01*
X-1639461Y-8788008D02*
X-1620414Y-8778484D01*
X-1429937Y-8778484D02*
X-1410890Y-8778484D01*
X-1410890Y-8778484D02*
X-1391842Y-8788008D01*
X-1391842Y-8788008D02*
X-1382318Y-8797531D01*
X-1382318Y-8797531D02*
X-1372795Y-8816579D01*
X-1372795Y-8816579D02*
X-1363271Y-8854674D01*
X-1363271Y-8854674D02*
X-1363271Y-8902293D01*
X-1363271Y-8902293D02*
X-1372795Y-8940389D01*
X-1372795Y-8940389D02*
X-1382318Y-8959436D01*
X-1382318Y-8959436D02*
X-1391842Y-8968960D01*
X-1391842Y-8968960D02*
X-1410890Y-8978484D01*
X-1410890Y-8978484D02*
X-1429937Y-8978484D01*
X-1429937Y-8978484D02*
X-1448985Y-8968960D01*
X-1448985Y-8968960D02*
X-1458509Y-8959436D01*
X-1458509Y-8959436D02*
X-1468033Y-8940389D01*
X-1468033Y-8940389D02*
X-1477556Y-8902293D01*
X-1477556Y-8902293D02*
X-1477556Y-8854674D01*
X-1477556Y-8854674D02*
X-1468033Y-8816579D01*
X-1468033Y-8816579D02*
X-1458509Y-8797531D01*
X-1458509Y-8797531D02*
X-1448985Y-8788008D01*
X-1448985Y-8788008D02*
X-1429937Y-8778484D01*
X-1239461Y-8778484D02*
X-1220414Y-8778484D01*
X-1220414Y-8778484D02*
X-1201366Y-8788008D01*
X-1201366Y-8788008D02*
X-1191842Y-8797531D01*
X-1191842Y-8797531D02*
X-1182318Y-8816579D01*
X-1182318Y-8816579D02*
X-1172795Y-8854674D01*
X-1172795Y-8854674D02*
X-1172795Y-8902293D01*
X-1172795Y-8902293D02*
X-1182318Y-8940389D01*
X-1182318Y-8940389D02*
X-1191842Y-8959436D01*
X-1191842Y-8959436D02*
X-1201366Y-8968960D01*
X-1201366Y-8968960D02*
X-1220414Y-8978484D01*
X-1220414Y-8978484D02*
X-1239461Y-8978484D01*
X-1239461Y-8978484D02*
X-1258509Y-8968960D01*
X-1258509Y-8968960D02*
X-1268033Y-8959436D01*
X-1268033Y-8959436D02*
X-1277556Y-8940389D01*
X-1277556Y-8940389D02*
X-1287080Y-8902293D01*
X-1287080Y-8902293D02*
X-1287080Y-8854674D01*
X-1287080Y-8854674D02*
X-1277556Y-8816579D01*
X-1277556Y-8816579D02*
X-1268033Y-8797531D01*
X-1268033Y-8797531D02*
X-1258509Y-8788008D01*
X-1258509Y-8788008D02*
X-1239461Y-8778484D01*
X-1087080Y-8978484D02*
X-1087080Y-8845150D01*
X-1087080Y-8864198D02*
X-1077556Y-8854674D01*
X-1077556Y-8854674D02*
X-1058509Y-8845150D01*
X-1058509Y-8845150D02*
X-1029937Y-8845150D01*
X-1029937Y-8845150D02*
X-1010890Y-8854674D01*
X-1010890Y-8854674D02*
X-1001366Y-8873722D01*
X-1001366Y-8873722D02*
X-1001366Y-8978484D01*
X-1001366Y-8873722D02*
X-991842Y-8854674D01*
X-991842Y-8854674D02*
X-972794Y-8845150D01*
X-972794Y-8845150D02*
X-944223Y-8845150D01*
X-944223Y-8845150D02*
X-925175Y-8854674D01*
X-925175Y-8854674D02*
X-915652Y-8873722D01*
X-915652Y-8873722D02*
X-915652Y-8978484D01*
X-820413Y-8978484D02*
X-820413Y-8845150D01*
X-820413Y-8864198D02*
X-810890Y-8854674D01*
X-810890Y-8854674D02*
X-791842Y-8845150D01*
X-791842Y-8845150D02*
X-763271Y-8845150D01*
X-763271Y-8845150D02*
X-744223Y-8854674D01*
X-744223Y-8854674D02*
X-734699Y-8873722D01*
X-734699Y-8873722D02*
X-734699Y-8978484D01*
X-734699Y-8873722D02*
X-725175Y-8854674D01*
X-725175Y-8854674D02*
X-706128Y-8845150D01*
X-706128Y-8845150D02*
X-677556Y-8845150D01*
X-677556Y-8845150D02*
X-658509Y-8854674D01*
X-658509Y-8854674D02*
X-648985Y-8873722D01*
X-648985Y-8873722D02*
X-648985Y-8978484D01*
X-258509Y-8768960D02*
X-429937Y-9026103D01*
X-1366Y-8778484D02*
X17682Y-8778484D01*
X17682Y-8778484D02*
X36729Y-8788008D01*
X36729Y-8788008D02*
X46253Y-8797531D01*
X46253Y-8797531D02*
X55777Y-8816579D01*
X55777Y-8816579D02*
X65301Y-8854674D01*
X65301Y-8854674D02*
X65301Y-8902293D01*
X65301Y-8902293D02*
X55777Y-8940389D01*
X55777Y-8940389D02*
X46253Y-8959436D01*
X46253Y-8959436D02*
X36729Y-8968960D01*
X36729Y-8968960D02*
X17682Y-8978484D01*
X17682Y-8978484D02*
X-1366Y-8978484D01*
X-1366Y-8978484D02*
X-20413Y-8968960D01*
X-20413Y-8968960D02*
X-29937Y-8959436D01*
X-29937Y-8959436D02*
X-39461Y-8940389D01*
X-39461Y-8940389D02*
X-48985Y-8902293D01*
X-48985Y-8902293D02*
X-48985Y-8854674D01*
X-48985Y-8854674D02*
X-39461Y-8816579D01*
X-39461Y-8816579D02*
X-29937Y-8797531D01*
X-29937Y-8797531D02*
X-20413Y-8788008D01*
X-20413Y-8788008D02*
X-1366Y-8778484D01*
X151015Y-8959436D02*
X160539Y-8968960D01*
X160539Y-8968960D02*
X151015Y-8978484D01*
X151015Y-8978484D02*
X141491Y-8968960D01*
X141491Y-8968960D02*
X151015Y-8959436D01*
X151015Y-8959436D02*
X151015Y-8978484D01*
X284348Y-8778484D02*
X303396Y-8778484D01*
X303396Y-8778484D02*
X322444Y-8788008D01*
X322444Y-8788008D02*
X331968Y-8797531D01*
X331968Y-8797531D02*
X341491Y-8816579D01*
X341491Y-8816579D02*
X351015Y-8854674D01*
X351015Y-8854674D02*
X351015Y-8902293D01*
X351015Y-8902293D02*
X341491Y-8940389D01*
X341491Y-8940389D02*
X331968Y-8959436D01*
X331968Y-8959436D02*
X322444Y-8968960D01*
X322444Y-8968960D02*
X303396Y-8978484D01*
X303396Y-8978484D02*
X284348Y-8978484D01*
X284348Y-8978484D02*
X265301Y-8968960D01*
X265301Y-8968960D02*
X255777Y-8959436D01*
X255777Y-8959436D02*
X246253Y-8940389D01*
X246253Y-8940389D02*
X236729Y-8902293D01*
X236729Y-8902293D02*
X236729Y-8854674D01*
X236729Y-8854674D02*
X246253Y-8816579D01*
X246253Y-8816579D02*
X255777Y-8797531D01*
X255777Y-8797531D02*
X265301Y-8788008D01*
X265301Y-8788008D02*
X284348Y-8778484D01*
X417682Y-8778484D02*
X541491Y-8778484D01*
X541491Y-8778484D02*
X474825Y-8854674D01*
X474825Y-8854674D02*
X503396Y-8854674D01*
X503396Y-8854674D02*
X522444Y-8864198D01*
X522444Y-8864198D02*
X531968Y-8873722D01*
X531968Y-8873722D02*
X541491Y-8892770D01*
X541491Y-8892770D02*
X541491Y-8940389D01*
X541491Y-8940389D02*
X531968Y-8959436D01*
X531968Y-8959436D02*
X522444Y-8968960D01*
X522444Y-8968960D02*
X503396Y-8978484D01*
X503396Y-8978484D02*
X446253Y-8978484D01*
X446253Y-8978484D02*
X427206Y-8968960D01*
X427206Y-8968960D02*
X417682Y-8959436D01*
X636729Y-8978484D02*
X674825Y-8978484D01*
X674825Y-8978484D02*
X693872Y-8968960D01*
X693872Y-8968960D02*
X703396Y-8959436D01*
X703396Y-8959436D02*
X722444Y-8930865D01*
X722444Y-8930865D02*
X731967Y-8892770D01*
X731967Y-8892770D02*
X731967Y-8816579D01*
X731967Y-8816579D02*
X722444Y-8797531D01*
X722444Y-8797531D02*
X712920Y-8788008D01*
X712920Y-8788008D02*
X693872Y-8778484D01*
X693872Y-8778484D02*
X655777Y-8778484D01*
X655777Y-8778484D02*
X636729Y-8788008D01*
X636729Y-8788008D02*
X627206Y-8797531D01*
X627206Y-8797531D02*
X617682Y-8816579D01*
X617682Y-8816579D02*
X617682Y-8864198D01*
X617682Y-8864198D02*
X627206Y-8883246D01*
X627206Y-8883246D02*
X636729Y-8892770D01*
X636729Y-8892770D02*
X655777Y-8902293D01*
X655777Y-8902293D02*
X693872Y-8902293D01*
X693872Y-8902293D02*
X712920Y-8892770D01*
X712920Y-8892770D02*
X722444Y-8883246D01*
X722444Y-8883246D02*
X731967Y-8864198D01*
X903396Y-8845150D02*
X903396Y-8978484D01*
X855777Y-8768960D02*
X808158Y-8911817D01*
X808158Y-8911817D02*
X931967Y-8911817D01*
X998634Y-8778484D02*
X998634Y-8816579D01*
X1074825Y-8778484D02*
X1074825Y-8816579D01*
X1370063Y-9054674D02*
X1360539Y-9045150D01*
X1360539Y-9045150D02*
X1341491Y-9016579D01*
X1341491Y-9016579D02*
X1331968Y-8997531D01*
X1331968Y-8997531D02*
X1322444Y-8968960D01*
X1322444Y-8968960D02*
X1312920Y-8921341D01*
X1312920Y-8921341D02*
X1312920Y-8883246D01*
X1312920Y-8883246D02*
X1322444Y-8835627D01*
X1322444Y-8835627D02*
X1331968Y-8807055D01*
X1331968Y-8807055D02*
X1341491Y-8788008D01*
X1341491Y-8788008D02*
X1360539Y-8759436D01*
X1360539Y-8759436D02*
X1370063Y-8749912D01*
X1531968Y-8845150D02*
X1531968Y-8978484D01*
X1484348Y-8768960D02*
X1436729Y-8911817D01*
X1436729Y-8911817D02*
X1560539Y-8911817D01*
X1789110Y-8978484D02*
X1789110Y-8778484D01*
X1874825Y-8978484D02*
X1874825Y-8873722D01*
X1874825Y-8873722D02*
X1865301Y-8854674D01*
X1865301Y-8854674D02*
X1846253Y-8845150D01*
X1846253Y-8845150D02*
X1817682Y-8845150D01*
X1817682Y-8845150D02*
X1798634Y-8854674D01*
X1798634Y-8854674D02*
X1789110Y-8864198D01*
X1998634Y-8978484D02*
X1979587Y-8968960D01*
X1979587Y-8968960D02*
X1970063Y-8959436D01*
X1970063Y-8959436D02*
X1960539Y-8940389D01*
X1960539Y-8940389D02*
X1960539Y-8883246D01*
X1960539Y-8883246D02*
X1970063Y-8864198D01*
X1970063Y-8864198D02*
X1979587Y-8854674D01*
X1979587Y-8854674D02*
X1998634Y-8845150D01*
X1998634Y-8845150D02*
X2027206Y-8845150D01*
X2027206Y-8845150D02*
X2046253Y-8854674D01*
X2046253Y-8854674D02*
X2055777Y-8864198D01*
X2055777Y-8864198D02*
X2065301Y-8883246D01*
X2065301Y-8883246D02*
X2065301Y-8940389D01*
X2065301Y-8940389D02*
X2055777Y-8959436D01*
X2055777Y-8959436D02*
X2046253Y-8968960D01*
X2046253Y-8968960D02*
X2027206Y-8978484D01*
X2027206Y-8978484D02*
X1998634Y-8978484D01*
X2179587Y-8978484D02*
X2160539Y-8968960D01*
X2160539Y-8968960D02*
X2151015Y-8949912D01*
X2151015Y-8949912D02*
X2151015Y-8778484D01*
X2331968Y-8968960D02*
X2312920Y-8978484D01*
X2312920Y-8978484D02*
X2274825Y-8978484D01*
X2274825Y-8978484D02*
X2255777Y-8968960D01*
X2255777Y-8968960D02*
X2246253Y-8949912D01*
X2246253Y-8949912D02*
X2246253Y-8873722D01*
X2246253Y-8873722D02*
X2255777Y-8854674D01*
X2255777Y-8854674D02*
X2274825Y-8845150D01*
X2274825Y-8845150D02*
X2312920Y-8845150D01*
X2312920Y-8845150D02*
X2331968Y-8854674D01*
X2331968Y-8854674D02*
X2341492Y-8873722D01*
X2341492Y-8873722D02*
X2341492Y-8892770D01*
X2341492Y-8892770D02*
X2246253Y-8911817D01*
X2417682Y-8968960D02*
X2436730Y-8978484D01*
X2436730Y-8978484D02*
X2474825Y-8978484D01*
X2474825Y-8978484D02*
X2493873Y-8968960D01*
X2493873Y-8968960D02*
X2503396Y-8949912D01*
X2503396Y-8949912D02*
X2503396Y-8940389D01*
X2503396Y-8940389D02*
X2493873Y-8921341D01*
X2493873Y-8921341D02*
X2474825Y-8911817D01*
X2474825Y-8911817D02*
X2446253Y-8911817D01*
X2446253Y-8911817D02*
X2427206Y-8902293D01*
X2427206Y-8902293D02*
X2417682Y-8883246D01*
X2417682Y-8883246D02*
X2417682Y-8873722D01*
X2417682Y-8873722D02*
X2427206Y-8854674D01*
X2427206Y-8854674D02*
X2446253Y-8845150D01*
X2446253Y-8845150D02*
X2474825Y-8845150D01*
X2474825Y-8845150D02*
X2493873Y-8854674D01*
X2570063Y-9054674D02*
X2579587Y-9045150D01*
X2579587Y-9045150D02*
X2598634Y-9016579D01*
X2598634Y-9016579D02*
X2608158Y-8997531D01*
X2608158Y-8997531D02*
X2617682Y-8968960D01*
X2617682Y-8968960D02*
X2627206Y-8921341D01*
X2627206Y-8921341D02*
X2627206Y-8883246D01*
X2627206Y-8883246D02*
X2617682Y-8835627D01*
X2617682Y-8835627D02*
X2608158Y-8807055D01*
X2608158Y-8807055D02*
X2598634Y-8788008D01*
X2598634Y-8788008D02*
X2579587Y-8759436D01*
X2579587Y-8759436D02*
X2570063Y-8749912D01*
M02*
